<svg width="146" height="48" viewBox="0 0 146 48" fill="none" xmlns="http://www.w3.org/2000/svg">
<rect width="146" height="48" rx="24" fill="#043D78"/>
<circle cx="40" cy="24" r="16" fill="white"/>
<path d="M77.848 18.432H75.384V19.28H77.848V18.432ZM75.384 21.472H77.848V20.56H75.384V21.472ZM79.624 22.832H75.384V31.392H73.496V17.056H79.624V22.832ZM84.168 25.92H82.072V29.312C82.072 30.08 81.944 30.528 81.416 30.768C80.92 31.024 80.232 31.056 79.288 31.056C79.208 30.608 78.952 29.92 78.728 29.488C79.32 29.504 79.912 29.504 80.104 29.504C80.296 29.504 80.36 29.456 80.36 29.28V27.2C79.368 28.352 78.12 29.392 76.92 30.048C76.632 29.632 76.12 29.008 75.736 28.688C77.096 28.112 78.568 27.04 79.512 25.92H76.28V24.384H80.36V23.152H82.072V24.384H84.168V25.92ZM82.536 21.504H85.08V20.56H82.536V21.504ZM85.08 18.432H82.536V19.28H85.08V18.432ZM87 17.056V29.12C87 30.176 86.776 30.72 86.12 31.024C85.448 31.344 84.456 31.392 82.984 31.392C82.92 30.848 82.6 29.952 82.344 29.44C83.272 29.504 84.344 29.488 84.664 29.472C84.968 29.472 85.08 29.376 85.08 29.088V22.864H80.728V17.056H87ZM98.824 18.688C99.272 19.36 99.976 20.528 100.328 21.264L98.904 21.888C98.424 20.864 98.008 20.096 97.432 19.28L98.824 18.688ZM100.968 17.808C101.432 18.464 102.168 19.6 102.52 20.32L101.128 20.992C100.616 19.984 100.184 19.248 99.592 18.448L100.968 17.808ZM94.696 17.408C94.6 18.08 94.52 18.896 94.488 19.536C94.408 21.264 94.28 24.832 94.28 26.832C94.28 28.448 95.256 28.976 96.504 28.976C99.144 28.976 100.808 27.44 101.976 25.696L103.432 27.472C102.392 29.008 100.12 31.136 96.472 31.136C93.848 31.136 92.168 29.984 92.168 27.264C92.168 25.12 92.312 20.912 92.312 19.536C92.312 18.768 92.248 18 92.12 17.376L94.696 17.408ZM112.04 28.112C112.04 28.704 112.696 29.104 113.656 29.104C113.992 29.104 114.296 29.088 114.584 29.056C114.488 28.016 113.896 27.344 113.032 27.344C112.424 27.344 112.04 27.712 112.04 28.112ZM109.32 17.808C109.768 17.872 110.328 17.888 110.776 17.888C111.624 17.888 115.048 17.824 115.96 17.744C116.616 17.68 116.984 17.632 117.176 17.568L118.216 18.992C117.848 19.232 117.464 19.456 117.096 19.728C116.232 20.336 114.552 21.744 113.544 22.544C114.072 22.416 114.552 22.368 115.064 22.368C117.784 22.368 119.848 24.064 119.848 26.4C119.848 28.928 117.928 30.928 114.056 30.928C111.832 30.928 110.152 29.904 110.152 28.304C110.152 27.008 111.32 25.808 113.016 25.808C115 25.808 116.2 27.024 116.424 28.544C117.304 28.08 117.752 27.344 117.752 26.368C117.752 24.928 116.312 23.952 114.424 23.952C111.976 23.952 110.376 25.248 108.664 27.2L107.208 25.696C108.344 24.784 110.28 23.152 111.224 22.368C112.12 21.632 113.784 20.288 114.568 19.6C113.752 19.616 111.544 19.712 110.696 19.76C110.264 19.792 109.752 19.84 109.384 19.888L109.32 17.808Z" fill="white"/>
<path fill-rule="evenodd" clip-rule="evenodd" d="M39.2929 23.6066L33.636 29.2635L34.3431 29.9706L40 24.3137L45.6569 29.9706L46.364 29.2635L40.7071 23.6066L45.6569 18.6569L44.9497 17.9497L40 22.8995L35.0503 17.9497L34.3431 18.6569L39.2929 23.6066Z" fill="#043D78"/>
</svg>
