<svg width="362" height="362" viewBox="0 0 362 362" fill="none" xmlns="http://www.w3.org/2000/svg">
<g clip-path="url(#clip0_488_860)">
<path d="M180.96 180.851L18.3515 260.124C-25.4537 170.351 11.8449 62.0853 101.655 18.2981C126.799 6.04593 152.986 0 180.96 0V180.851Z" fill="#0066CC"/>
<path d="M180.96 180.852L57.5746 313.118C40.0365 296.766 28.8676 281.674 18.3516 260.136L180.96 180.852Z" fill="#297FD5"/>
<path d="M180.96 180.852L137.189 356.332C106.168 348.603 80.9546 334.92 57.5742 313.118L180.96 180.852Z" fill="#5298DE"/>
<path d="M180.96 180.851L260.277 343.393C220.756 362.653 179.86 366.958 137.201 356.321L180.972 180.84L180.96 180.851Z" fill="#7AB0E7"/>
<path d="M180.96 180.852L360.121 155.684C371.244 234.807 332.113 308.366 260.265 343.394L180.948 180.852H180.96Z" fill="#A3C9F0"/>
<path d="M180.96 180.851V0C272.889 0 347.326 64.6846 360.121 155.683L180.96 180.851Z" fill="#CCE2F9"/>
</g>
<path d="M58.856 125.444C59.248 125.472 59.612 125.486 60.06 125.486C60.676 125.486 63.448 125.36 64.274 125.276C64.652 125.234 64.946 125.178 65.128 125.122L66.01 126.13C65.772 126.284 65.338 126.564 65.1 126.76C64.078 127.6 62.342 129.056 61.292 129.882C63.308 129.672 65.744 129.504 67.62 129.504V130.806C66.262 130.736 64.89 130.736 64.05 130.862C62.72 131.044 61.502 132.094 61.502 133.34C61.502 134.614 62.524 135.076 63.784 135.23C64.596 135.328 65.338 135.314 65.856 135.272L65.562 136.714C62.062 136.868 60.102 135.79 60.102 133.564C60.102 132.514 60.83 131.562 61.474 131.1C60.06 131.226 58.324 131.436 56.77 131.702L56.644 130.372C57.386 130.288 58.352 130.176 59.08 130.092C60.48 129.14 62.524 127.348 63.406 126.564C62.804 126.606 60.662 126.704 60.074 126.76C59.724 126.788 59.29 126.83 58.926 126.872L58.856 125.444ZM78.05 126.438C77.868 127.88 77.588 129.518 77.126 131.072C76.272 133.928 75.124 135.524 73.724 135.524C72.338 135.524 71.078 133.97 71.078 131.632C71.078 128.51 73.822 125.808 77.336 125.808C80.696 125.808 82.824 128.16 82.824 131.1C82.824 134.04 80.948 136.056 77.532 136.532L76.706 135.23C77.196 135.174 77.602 135.104 77.952 135.034C79.744 134.614 81.354 133.298 81.354 131.044C81.354 128.818 79.884 127.096 77.308 127.096C74.27 127.096 72.478 129.574 72.478 131.506C72.478 133.116 73.178 133.858 73.766 133.858C74.396 133.858 75.054 132.934 75.712 130.778C76.118 129.448 76.426 127.852 76.566 126.396L78.05 126.438ZM93.296 124.226H94.542V133.97H93.296V124.226ZM88.48 129.868L96.852 126.62L97.356 127.768L88.984 131.044L88.48 129.868ZM90.23 125.654H91.532V134.81C91.532 135.636 91.7 135.79 92.666 135.79C93.114 135.79 95.368 135.79 95.928 135.79C96.768 135.79 96.922 135.426 97.034 133.802C97.342 134.012 97.874 134.236 98.252 134.32C98.056 136.336 97.65 136.994 95.998 136.994C95.564 136.994 92.988 136.994 92.582 136.994C90.748 136.994 90.23 136.532 90.23 134.81V125.654ZM96.404 126.872H96.292L96.558 126.662L96.796 126.48L97.706 126.844L97.65 127.054C97.636 129.56 97.608 131.436 97.496 132.038C97.412 132.71 97.132 133.018 96.684 133.172C96.278 133.312 95.648 133.326 95.186 133.312C95.158 132.934 95.032 132.388 94.878 132.094C95.228 132.108 95.69 132.108 95.858 132.108C96.082 132.108 96.208 132.052 96.292 131.73C96.376 131.352 96.404 129.7 96.404 126.872ZM88.27 124.24L89.502 124.632C88.592 126.984 87.15 129.42 85.638 131.002C85.512 130.694 85.148 129.994 84.924 129.686C86.254 128.37 87.528 126.312 88.27 124.24ZM86.828 127.964L88.102 126.676L88.116 126.69V137.162H86.828V127.964Z" fill="white"/>
<path d="M55.016 256.81H49.5C50.144 258.532 51.068 260.044 52.286 261.29C53.462 260.086 54.358 258.602 55.016 256.81ZM58.628 256.81H56.542C55.744 259.008 54.68 260.786 53.308 262.214C54.778 263.432 56.612 264.314 58.81 264.818C58.502 265.126 58.082 265.728 57.872 266.106C55.576 265.504 53.728 264.538 52.216 263.222C50.69 264.496 48.856 265.434 46.658 266.134C46.518 265.798 46.098 265.182 45.832 264.86C47.988 264.272 49.78 263.418 51.222 262.256C49.864 260.772 48.842 258.952 48.072 256.81H46.042V255.55H51.628V253.254H52.958V255.55H58.628V256.81ZM62.338 256.67V258.728H61.12V255.522H63.136C62.884 255.018 62.45 254.388 62.044 253.912L63.164 253.408C63.668 253.968 64.228 254.752 64.466 255.284L63.962 255.522H66.552C66.356 254.962 65.95 254.192 65.572 253.604L66.706 253.184C67.182 253.814 67.658 254.696 67.84 255.256L67.154 255.522H69.52C70.01 254.878 70.556 253.996 70.878 253.338L72.25 253.772C71.844 254.374 71.382 254.99 70.948 255.522H72.978V258.728H71.69V256.67H62.338ZM73.188 261.094V262.298H67.672V264.636C67.672 265.35 67.49 265.714 66.916 265.91C66.342 266.092 65.516 266.106 64.298 266.106C64.2 265.742 63.948 265.21 63.752 264.846C64.732 264.888 65.712 264.888 65.992 264.874C66.272 264.86 66.342 264.804 66.342 264.594V262.298H60.882V261.094H66.342V260.128H67C67.546 259.834 68.106 259.456 68.582 259.078H63.262V257.944H69.828L70.108 257.874L70.948 258.504C70.108 259.4 68.876 260.296 67.672 260.912V261.094H73.188ZM82.288 254.71V255.844H75.638V254.71H78.326V253.324H79.586V254.71H82.288ZM80.678 258.49L79.642 258.224C79.894 257.622 80.188 256.642 80.342 255.984L81.574 256.264C81.266 257.048 80.958 257.916 80.678 258.49ZM78.172 258.196L77.024 258.462C76.968 257.874 76.744 256.964 76.478 256.292L77.556 256.054C77.864 256.712 78.088 257.622 78.172 258.196ZM80.496 261.962H77.388V264.216H80.496V261.962ZM76.184 266.106V260.814H81.77V266.05H80.496V265.35H77.388V266.106H76.184ZM75.302 259.736V258.546H82.47V259.736H75.302ZM87.202 254.01L88.168 254.612C87.622 255.942 86.95 257.552 86.348 258.77C87.636 260.044 87.944 261.136 87.944 262.088C87.944 263.026 87.734 263.684 87.23 264.02C86.964 264.202 86.656 264.3 86.292 264.356C85.97 264.398 85.536 264.384 85.144 264.384C85.13 264.006 85.004 263.46 84.794 263.096C85.158 263.124 85.494 263.138 85.746 263.124C85.97 263.11 86.152 263.068 86.306 262.97C86.586 262.802 86.684 262.438 86.684 261.934C86.684 261.122 86.32 260.1 85.032 258.938C85.536 257.846 86.082 256.376 86.474 255.284H84.248V266.106H82.974V254.066H86.992L87.202 254.01Z" fill="white"/>
<path d="M85.302 300.884H91.42V302.032H85.302V300.884ZM85.834 308.416H92.344V309.592H85.834V308.416ZM84.952 311.608H92.946V312.784H84.952V311.608ZM91.042 300.884H91.294L91.546 300.828L92.428 301.22C91.308 304.482 88.732 306.316 85.68 307.282C85.526 306.946 85.204 306.442 84.938 306.176C87.71 305.434 90.146 303.698 91.042 301.094V300.884ZM87.276 301.892C88.27 304.006 90.37 305.546 93.128 306.148C92.862 306.4 92.498 306.904 92.316 307.226C89.432 306.456 87.304 304.762 86.114 302.27L87.276 301.892ZM88.382 306.54H89.684V312.35H88.382V306.54ZM82.082 300.198L83.244 300.646C82.698 301.682 82.04 302.928 81.494 303.698L80.598 303.306C81.116 302.494 81.746 301.15 82.082 300.198ZM83.678 301.822L84.77 302.312C83.79 303.922 82.432 305.91 81.382 307.142L80.598 306.694C81.634 305.42 82.936 303.334 83.678 301.822ZM79.898 303.306L80.556 302.41C81.312 303.068 82.194 303.964 82.558 304.594L81.872 305.616C81.508 304.958 80.64 303.978 79.898 303.306ZM83.216 305.112L84.112 304.734C84.672 305.658 85.218 306.876 85.4 307.66L84.434 308.094C84.266 307.31 83.762 306.05 83.216 305.112ZM79.87 306.414C81.116 306.386 82.922 306.302 84.742 306.218L84.728 307.282C83.034 307.408 81.298 307.506 79.982 307.59L79.87 306.414ZM83.552 308.486L84.49 308.192C84.868 308.99 85.232 310.04 85.386 310.74L84.392 311.09C84.252 310.39 83.888 309.312 83.552 308.486ZM80.584 308.29L81.69 308.486C81.522 309.816 81.186 311.202 80.766 312.098C80.528 311.944 80.024 311.706 79.744 311.594C80.178 310.754 80.43 309.508 80.584 308.29ZM82.11 306.96H83.286V313.204H82.11V306.96ZM98.742 305.434V306.778H103.614V305.434H98.742ZM97.51 304.44H104.902V307.772H97.51V304.44ZM100.324 307.324L101.822 307.436C101.556 308.15 101.248 308.878 100.996 309.382L99.834 309.2C100.03 308.654 100.24 307.87 100.324 307.324ZM96.432 308.78H106.106V313.19H104.79V309.928H97.706V313.204H96.432V308.78ZM97.132 311.552H105.364V312.7H97.132V311.552ZM95.354 302.396H107.1V305.252H105.826V303.53H96.572V305.252H95.354V302.396ZM104.902 300.282L106.302 300.73C105.728 301.528 105.07 302.354 104.538 302.9L103.474 302.48C103.964 301.878 104.566 300.954 104.902 300.282ZM96.166 300.87L97.3 300.38C97.79 300.926 98.35 301.682 98.588 302.2L97.384 302.746C97.174 302.228 96.642 301.444 96.166 300.87ZM99.666 300.562L100.814 300.156C101.234 300.73 101.724 301.556 101.906 302.088L100.702 302.536C100.52 302.004 100.072 301.164 99.666 300.562ZM112.07 304.944H118.804V306.092H112.07V304.944ZM109.648 308.108H122.094V309.34H109.648V308.108ZM115.178 307.142H116.536V311.692C116.536 312.434 116.354 312.798 115.766 312.994C115.178 313.176 114.338 313.19 113.106 313.19C113.008 312.826 112.756 312.266 112.546 311.916C113.54 311.944 114.534 311.944 114.828 311.93C115.108 311.93 115.178 311.86 115.178 311.664V307.142ZM118.384 304.944H118.706L118.986 304.874L119.826 305.518C118.874 306.512 117.446 307.534 116.088 308.15C115.934 307.926 115.584 307.562 115.374 307.38C116.508 306.848 117.782 305.896 118.384 305.196V304.944ZM109.886 302.466H121.898V305.728H120.582V303.656H111.132V305.728H109.886V302.466ZM119.756 300.282L121.17 300.716C120.554 301.612 119.812 302.564 119.238 303.18L118.16 302.76C118.72 302.088 119.392 301.038 119.756 300.282ZM110.838 300.856L111.958 300.338C112.476 300.912 113.05 301.696 113.274 302.242L112.084 302.802C111.874 302.27 111.328 301.458 110.838 300.856ZM114.394 300.548L115.556 300.114C116.018 300.758 116.508 301.64 116.69 302.214L115.444 302.704C115.29 302.116 114.842 301.22 114.394 300.548ZM131.838 301.01H135.982V302.256H133.126V313.19H131.838V301.01ZM124.418 301.654H131.138V302.816H124.418V301.654ZM124.082 305.546H131.32V306.75H124.082V305.546ZM127.12 300.268H128.408V302.368H127.12V300.268ZM125.258 303.25L126.364 303.026C126.658 303.698 126.896 304.594 126.98 305.182L125.804 305.462C125.762 304.86 125.538 303.95 125.258 303.25ZM129.164 302.942L130.41 303.222C130.102 304.034 129.794 304.902 129.514 305.49L128.464 305.21C128.716 304.594 129.01 303.628 129.164 302.942ZM125.426 311.272H129.906V312.434H125.426V311.272ZM124.964 307.842H130.606V313.134H129.318V309.004H126.196V313.19H124.964V307.842ZM135.646 301.01H135.898L136.108 300.954L137.074 301.57C136.542 302.9 135.856 304.524 135.254 305.77C136.556 307.058 136.85 308.164 136.864 309.13C136.864 310.068 136.64 310.74 136.136 311.09C135.87 311.258 135.562 311.37 135.198 311.412C134.862 311.454 134.428 311.454 134.022 311.44C134.008 311.076 133.882 310.516 133.672 310.138C134.036 310.166 134.386 310.18 134.638 310.166C134.848 310.152 135.044 310.11 135.198 310.012C135.478 309.844 135.576 309.48 135.576 308.976C135.576 308.15 135.212 307.114 133.91 305.938C134.568 304.538 135.268 302.508 135.646 301.444V301.01Z" fill="white"/>
<path d="M170.21 283.402H182.404V284.606H170.21V283.402ZM175.558 282.184H176.916V284.102H175.558V282.184ZM170.742 285.922H181.41V287.084H172.002V295.162H170.742V285.922ZM180.71 285.922H181.984V293.664C181.984 294.364 181.844 294.756 181.354 294.966C180.836 295.162 180.066 295.19 178.932 295.19C178.876 294.84 178.666 294.252 178.484 293.916C179.324 293.944 180.15 293.944 180.402 293.93C180.64 293.93 180.71 293.86 180.71 293.65V285.922ZM174.27 286.86H175.46C175.334 288.624 174.802 289.576 172.604 290.094C172.506 289.814 172.212 289.366 171.988 289.156C173.808 288.806 174.186 288.176 174.27 286.86ZM176.874 286.86H178.036V288.246C178.036 288.526 178.078 288.554 178.386 288.554C178.54 288.554 179.212 288.554 179.394 288.554C179.66 288.554 179.716 288.47 179.758 287.7C179.982 287.868 180.444 288.022 180.752 288.092C180.64 289.24 180.346 289.548 179.548 289.548C179.31 289.548 178.442 289.548 178.232 289.548C177.126 289.548 176.874 289.254 176.874 288.26V286.86ZM173.64 290.178H174.83V294.532H173.64V290.178ZM174.368 290.178H179.058V293.72H174.368V292.712H177.854V291.186H174.368V290.178ZM172.814 284.592L174.116 284.354C174.41 284.844 174.718 285.502 174.844 285.95L173.472 286.244C173.374 285.796 173.094 285.11 172.814 284.592ZM178.386 284.326L179.842 284.564C179.506 285.208 179.184 285.796 178.904 286.216L177.602 285.978C177.868 285.516 178.204 284.802 178.386 284.326ZM187.22 286.944H193.954V288.092H187.22V286.944ZM184.798 290.108H197.244V291.34H184.798V290.108ZM190.328 289.142H191.686V293.692C191.686 294.434 191.504 294.798 190.916 294.994C190.328 295.176 189.488 295.19 188.256 295.19C188.158 294.826 187.906 294.266 187.696 293.916C188.69 293.944 189.684 293.944 189.978 293.93C190.258 293.93 190.328 293.86 190.328 293.664V289.142ZM193.534 286.944H193.856L194.136 286.874L194.976 287.518C194.024 288.512 192.596 289.534 191.238 290.15C191.084 289.926 190.734 289.562 190.524 289.38C191.658 288.848 192.932 287.896 193.534 287.196V286.944ZM185.036 284.466H197.048V287.728H195.732V285.656H186.282V287.728H185.036V284.466ZM194.906 282.282L196.32 282.716C195.704 283.612 194.962 284.564 194.388 285.18L193.31 284.76C193.87 284.088 194.542 283.038 194.906 282.282ZM185.988 282.856L187.108 282.338C187.626 282.912 188.2 283.696 188.424 284.242L187.234 284.802C187.024 284.27 186.478 283.458 185.988 282.856ZM189.544 282.548L190.706 282.114C191.168 282.758 191.658 283.64 191.84 284.214L190.594 284.704C190.44 284.116 189.992 283.22 189.544 282.548ZM206.988 283.01H211.132V284.256H208.276V295.19H206.988V283.01ZM199.568 283.654H206.288V284.816H199.568V283.654ZM199.232 287.546H206.47V288.75H199.232V287.546ZM202.27 282.268H203.558V284.368H202.27V282.268ZM200.408 285.25L201.514 285.026C201.808 285.698 202.046 286.594 202.13 287.182L200.954 287.462C200.912 286.86 200.688 285.95 200.408 285.25ZM204.314 284.942L205.56 285.222C205.252 286.034 204.944 286.902 204.664 287.49L203.614 287.21C203.866 286.594 204.16 285.628 204.314 284.942ZM200.576 293.272H205.056V294.434H200.576V293.272ZM200.114 289.842H205.756V295.134H204.468V291.004H201.346V295.19H200.114V289.842ZM210.796 283.01H211.048L211.258 282.954L212.224 283.57C211.692 284.9 211.006 286.524 210.404 287.77C211.706 289.058 212 290.164 212.014 291.13C212.014 292.068 211.79 292.74 211.286 293.09C211.02 293.258 210.712 293.37 210.348 293.412C210.012 293.454 209.578 293.454 209.172 293.44C209.158 293.076 209.032 292.516 208.822 292.138C209.186 292.166 209.536 292.18 209.788 292.166C209.998 292.152 210.194 292.11 210.348 292.012C210.628 291.844 210.726 291.48 210.726 290.976C210.726 290.15 210.362 289.114 209.06 287.938C209.718 286.538 210.418 284.508 210.796 283.444V283.01Z" fill="white"/>
<path d="M257.302 236.884H263.42V238.032H257.302V236.884ZM257.834 244.416H264.344V245.592H257.834V244.416ZM256.952 247.608H264.946V248.784H256.952V247.608ZM263.042 236.884H263.294L263.546 236.828L264.428 237.22C263.308 240.482 260.732 242.316 257.68 243.282C257.526 242.946 257.204 242.442 256.938 242.176C259.71 241.434 262.146 239.698 263.042 237.094V236.884ZM259.276 237.892C260.27 240.006 262.37 241.546 265.128 242.148C264.862 242.4 264.498 242.904 264.316 243.226C261.432 242.456 259.304 240.762 258.114 238.27L259.276 237.892ZM260.382 242.54H261.684V248.35H260.382V242.54ZM254.082 236.198L255.244 236.646C254.698 237.682 254.04 238.928 253.494 239.698L252.598 239.306C253.116 238.494 253.746 237.15 254.082 236.198ZM255.678 237.822L256.77 238.312C255.79 239.922 254.432 241.91 253.382 243.142L252.598 242.694C253.634 241.42 254.936 239.334 255.678 237.822ZM251.898 239.306L252.556 238.41C253.312 239.068 254.194 239.964 254.558 240.594L253.872 241.616C253.508 240.958 252.64 239.978 251.898 239.306ZM255.216 241.112L256.112 240.734C256.672 241.658 257.218 242.876 257.4 243.66L256.434 244.094C256.266 243.31 255.762 242.05 255.216 241.112ZM251.87 242.414C253.116 242.386 254.922 242.302 256.742 242.218L256.728 243.282C255.034 243.408 253.298 243.506 251.982 243.59L251.87 242.414ZM255.552 244.486L256.49 244.192C256.868 244.99 257.232 246.04 257.386 246.74L256.392 247.09C256.252 246.39 255.888 245.312 255.552 244.486ZM252.584 244.29L253.69 244.486C253.522 245.816 253.186 247.202 252.766 248.098C252.528 247.944 252.024 247.706 251.744 247.594C252.178 246.754 252.43 245.508 252.584 244.29ZM254.11 242.96H255.286V249.204H254.11V242.96ZM270.658 237.57H279.506V238.718H270.658V237.57ZM272.548 243.226H277.7V244.346H272.548V243.226ZM272.52 245.522H277.728V246.642H272.52V245.522ZM274.382 236.198H275.74V238.088H274.382V236.198ZM277.07 242.512H278.372V249.162H277.07V242.512ZM276.874 238.228L278.12 238.578C276.762 240.93 273.948 242.092 270.826 242.736C270.7 242.442 270.392 241.882 270.168 241.616C273.15 241.154 275.81 240.174 276.874 238.228ZM267.382 237.248L268.11 236.282C268.992 236.646 270.098 237.248 270.644 237.738L269.888 238.816C269.356 238.312 268.278 237.654 267.382 237.248ZM266.612 241.056L267.326 240.062C268.208 240.384 269.356 240.972 269.916 241.434L269.16 242.54C268.628 242.064 267.508 241.434 266.612 241.056ZM267.018 248.154C267.732 247.076 268.754 245.256 269.524 243.632L270.532 244.458C269.832 245.942 268.95 247.65 268.18 248.994L267.018 248.154ZM271.82 242.484H273.08V244.248C273.08 245.732 272.828 247.902 271.078 249.33C270.84 249.106 270.336 248.77 270.028 248.602C271.61 247.342 271.82 245.48 271.82 244.22V242.484ZM272.94 238.144C274.606 240.286 276.916 240.958 279.8 241.434C279.506 241.728 279.198 242.218 279.072 242.624C276.09 242.008 273.668 241.126 271.862 238.606L272.94 238.144ZM284.07 240.944H290.804V242.092H284.07V240.944ZM281.648 244.108H294.094V245.34H281.648V244.108ZM287.178 243.142H288.536V247.692C288.536 248.434 288.354 248.798 287.766 248.994C287.178 249.176 286.338 249.19 285.106 249.19C285.008 248.826 284.756 248.266 284.546 247.916C285.54 247.944 286.534 247.944 286.828 247.93C287.108 247.93 287.178 247.86 287.178 247.664V243.142ZM290.384 240.944H290.706L290.986 240.874L291.826 241.518C290.874 242.512 289.446 243.534 288.088 244.15C287.934 243.926 287.584 243.562 287.374 243.38C288.508 242.848 289.782 241.896 290.384 241.196V240.944ZM281.886 238.466H293.898V241.728H292.582V239.656H283.132V241.728H281.886V238.466ZM291.756 236.282L293.17 236.716C292.554 237.612 291.812 238.564 291.238 239.18L290.16 238.76C290.72 238.088 291.392 237.038 291.756 236.282ZM282.838 236.856L283.958 236.338C284.476 236.912 285.05 237.696 285.274 238.242L284.084 238.802C283.874 238.27 283.328 237.458 282.838 236.856ZM286.394 236.548L287.556 236.114C288.018 236.758 288.508 237.64 288.69 238.214L287.444 238.704C287.29 238.116 286.842 237.22 286.394 236.548ZM303.838 237.01H307.982V238.256H305.126V249.19H303.838V237.01ZM296.418 237.654H303.138V238.816H296.418V237.654ZM296.082 241.546H303.32V242.75H296.082V241.546ZM299.12 236.268H300.408V238.368H299.12V236.268ZM297.258 239.25L298.364 239.026C298.658 239.698 298.896 240.594 298.98 241.182L297.804 241.462C297.762 240.86 297.538 239.95 297.258 239.25ZM301.164 238.942L302.41 239.222C302.102 240.034 301.794 240.902 301.514 241.49L300.464 241.21C300.716 240.594 301.01 239.628 301.164 238.942ZM297.426 247.272H301.906V248.434H297.426V247.272ZM296.964 243.842H302.606V249.134H301.318V245.004H298.196V249.19H296.964V243.842ZM307.646 237.01H307.898L308.108 236.954L309.074 237.57C308.542 238.9 307.856 240.524 307.254 241.77C308.556 243.058 308.85 244.164 308.864 245.13C308.864 246.068 308.64 246.74 308.136 247.09C307.87 247.258 307.562 247.37 307.198 247.412C306.862 247.454 306.428 247.454 306.022 247.44C306.008 247.076 305.882 246.516 305.672 246.138C306.036 246.166 306.386 246.18 306.638 246.166C306.848 246.152 307.044 246.11 307.198 246.012C307.478 245.844 307.576 245.48 307.576 244.976C307.576 244.15 307.212 243.114 305.91 241.938C306.568 240.538 307.268 238.508 307.646 237.444V237.01Z" fill="#066AD5"/>
<path d="M249.612 101.952H258.642V103.212H249.612V101.952ZM250.312 98.354H257.984V99.628H250.312V98.354ZM253.406 96.184H254.764V102.862H253.406V96.184ZM249.626 107.23C251.516 107.16 254.526 106.992 257.354 106.824V108.028C254.652 108.238 251.782 108.448 249.794 108.574L249.626 107.23ZM255.142 105.046L256.276 104.444C257.326 105.69 258.474 107.356 258.922 108.518L257.676 109.204C257.27 108.07 256.178 106.32 255.142 105.046ZM252.398 102.82L253.854 103.212C253.238 104.836 252.412 106.754 251.74 107.972L250.564 107.58C251.222 106.306 251.992 104.29 252.398 102.82ZM246.546 97.248L247.274 96.268C248.212 96.604 249.402 97.206 250.004 97.696L249.234 98.788C248.66 98.298 247.498 97.626 246.546 97.248ZM245.776 101.084L246.462 100.076C247.4 100.384 248.604 100.93 249.234 101.378L248.506 102.498C247.918 102.036 246.728 101.434 245.776 101.084ZM246.21 108.14C246.924 107.076 247.96 105.27 248.73 103.674L249.724 104.514C249.024 105.998 248.142 107.678 247.358 109.008L246.21 108.14ZM263.22 100.944H269.954V102.092H263.22V100.944ZM260.798 104.108H273.244V105.34H260.798V104.108ZM266.328 103.142H267.686V107.692C267.686 108.434 267.504 108.798 266.916 108.994C266.328 109.176 265.488 109.19 264.256 109.19C264.158 108.826 263.906 108.266 263.696 107.916C264.69 107.944 265.684 107.944 265.978 107.93C266.258 107.93 266.328 107.86 266.328 107.664V103.142ZM269.534 100.944H269.856L270.136 100.874L270.976 101.518C270.024 102.512 268.596 103.534 267.238 104.15C267.084 103.926 266.734 103.562 266.524 103.38C267.658 102.848 268.932 101.896 269.534 101.196V100.944ZM261.036 98.466H273.048V101.728H271.732V99.656H262.282V101.728H261.036V98.466ZM270.906 96.282L272.32 96.716C271.704 97.612 270.962 98.564 270.388 99.18L269.31 98.76C269.87 98.088 270.542 97.038 270.906 96.282ZM261.988 96.856L263.108 96.338C263.626 96.912 264.2 97.696 264.424 98.242L263.234 98.802C263.024 98.27 262.478 97.458 261.988 96.856ZM265.544 96.548L266.706 96.114C267.168 96.758 267.658 97.64 267.84 98.214L266.594 98.704C266.44 98.116 265.992 97.22 265.544 96.548ZM282.988 97.01H287.132V98.256H284.276V109.19H282.988V97.01ZM275.568 97.654H282.288V98.816H275.568V97.654ZM275.232 101.546H282.47V102.75H275.232V101.546ZM278.27 96.268H279.558V98.368H278.27V96.268ZM276.408 99.25L277.514 99.026C277.808 99.698 278.046 100.594 278.13 101.182L276.954 101.462C276.912 100.86 276.688 99.95 276.408 99.25ZM280.314 98.942L281.56 99.222C281.252 100.034 280.944 100.902 280.664 101.49L279.614 101.21C279.866 100.594 280.16 99.628 280.314 98.942ZM276.576 107.272H281.056V108.434H276.576V107.272ZM276.114 103.842H281.756V109.134H280.468V105.004H277.346V109.19H276.114V103.842ZM286.796 97.01H287.048L287.258 96.954L288.224 97.57C287.692 98.9 287.006 100.524 286.404 101.77C287.706 103.058 288 104.164 288.014 105.13C288.014 106.068 287.79 106.74 287.286 107.09C287.02 107.258 286.712 107.37 286.348 107.412C286.012 107.454 285.578 107.454 285.172 107.44C285.158 107.076 285.032 106.516 284.822 106.138C285.186 106.166 285.536 106.18 285.788 106.166C285.998 106.152 286.194 106.11 286.348 106.012C286.628 105.844 286.726 105.48 286.726 104.976C286.726 104.15 286.362 103.114 285.06 101.938C285.718 100.538 286.418 98.508 286.796 97.444V97.01Z" fill="#0066CC"/>
<defs>
<clipPath id="clip0_488_860">
<rect width="362" height="362" fill="white"/>
</clipPath>
</defs>
</svg>
