<svg width="717" height="510" viewBox="0 0 717 510" fill="none" xmlns="http://www.w3.org/2000/svg">
<rect y="222" width="549" height="66" fill="#333333"/>
<rect x="557" y="222" width="160" height="66" fill="#F2F2F2"/>
<path d="M41.536 245.232H62.464V248.184H41.536V245.232ZM53.128 253.272L55.36 251.4C57.928 253.272 61.624 256.032 63.376 257.952L60.928 260.16C59.344 258.264 55.792 255.312 53.128 253.272ZM52.168 246.312L55.384 247.44C52.648 252.504 48.28 257.4 42.76 260.28C42.304 259.512 41.392 258.312 40.792 257.664C45.928 255.24 50.176 250.584 52.168 246.312ZM50.416 252.12L53.584 248.976V266.112H50.416V252.12ZM69.232 259.152H80.44V261.192H69.232V259.152ZM68.68 247.728H80.68V249.816H68.68V247.728ZM73.456 246.024H76.048V263.232H73.456V246.024ZM68.56 262.968C71.536 262.752 76.12 262.416 80.44 262.032L80.464 264.216C76.384 264.648 72.016 265.08 68.896 265.368L68.56 262.968ZM71.608 255.312V256.416H77.944V255.312H71.608ZM71.608 252.552V253.632H77.944V252.552H71.608ZM69.304 250.752H80.32V258.216H69.304V250.752ZM79.144 243.744L80.416 245.904C77.344 246.528 72.976 246.888 69.376 246.96C69.28 246.384 69.016 245.472 68.752 244.92C72.328 244.752 76.504 244.32 79.144 243.744ZM80.68 249.048H88.984V251.688H80.68V249.048ZM87.832 249.048H90.592C90.592 249.048 90.568 249.984 90.568 250.32C90.352 260.208 90.16 263.712 89.368 264.792C88.84 265.608 88.288 265.872 87.496 266.016C86.752 266.16 85.624 266.16 84.496 266.112C84.424 265.32 84.112 264.144 83.656 263.376C84.688 263.472 85.6 263.472 86.08 263.472C86.44 263.472 86.68 263.4 86.896 263.064C87.448 262.344 87.64 258.96 87.832 249.672V249.048ZM82.984 244.032H85.744C85.72 254.28 85.696 261.984 80.152 266.352C79.744 265.656 78.808 264.672 78.16 264.192C83.224 260.328 82.96 253.608 82.984 244.032ZM103.888 254.976H117.136V257.184H103.888V254.976ZM103.384 259.008H116.44V261.192H103.384V259.008ZM101.512 263.304H118.408V265.704H101.512V263.304ZM108.424 253.2H111.256V264.792H108.424V253.2ZM103.984 253.08L106.552 253.68C105.808 255.792 104.512 257.856 103.24 259.176C102.712 258.768 101.608 258.096 100.96 257.808C102.28 256.656 103.408 254.856 103.984 253.08ZM99.904 250.368H118.6V252.84H99.904V250.368ZM98.128 245.376H117.376V247.824H98.128V245.376ZM106.288 243.6H109.168V246.816H106.288V243.6ZM98.32 250.368H101.08V254.28C101.08 257.664 100.648 262.8 98.368 266.112C97.936 265.584 96.736 264.6 96.16 264.264C98.128 261.336 98.32 257.136 98.32 254.256V250.368ZM101.8 247.968L104.392 247.272C104.92 248.184 105.424 249.384 105.592 250.2L102.808 250.944C102.688 250.152 102.256 248.904 101.8 247.968ZM111.16 247.032L114.448 247.728C113.728 248.952 113.008 250.152 112.48 250.944L110.104 250.248C110.488 249.312 110.944 247.992 111.16 247.032ZM141.208 252.96H146.488V255.36H141.208V252.96ZM133.384 253.656H140.56V255.744H133.384V253.656ZM136.744 245.136H138.688V248.376H136.744V245.136ZM136.744 251.352H138.688V254.712H136.744V251.352ZM132.376 263.184H146.92V265.608H132.376V263.184ZM133.384 244.224H140.368V246.312H135.448V255.048H133.384V244.224ZM134.584 247.584H140.152V252.384H134.656V250.632H138.352V249.336H134.584V247.584ZM141.832 243.696L144.28 244.128C143.824 247.104 142.984 250.128 141.88 252.048C141.424 251.664 140.368 251.04 139.768 250.752C140.8 249.024 141.496 246.312 141.832 243.696ZM124.384 263.088C126.568 262.752 129.856 262.176 133 261.624L133.216 264.048C130.36 264.6 127.336 265.224 124.984 265.656L124.384 263.088ZM125.68 249.648H132.28V252.024H125.68V249.648ZM124.72 253.704H132.712V256.128H124.72V253.704ZM124.84 257.544L126.616 257.112C126.976 258.432 127.312 260.16 127.408 261.288L125.536 261.768C125.488 260.616 125.2 258.864 124.84 257.544ZM131.104 256.92L133.072 257.376C132.664 258.744 132.328 260.256 131.992 261.264L130.288 260.832C130.6 259.776 130.936 258.048 131.104 256.92ZM127.72 250.608H130.072V263.112L127.72 263.472V250.608ZM142.336 246.864H146.824V249.336H141.592L142.336 246.864ZM133.984 256.848H145.84V264.24H143.44V259.128H142.192V264.24H140.44V259.128H139.24V264.24H137.464V259.128H136.24V264.24H133.984V256.848ZM127.768 243.624H129.304V244.152H130.096V244.896C129.184 246.72 127.792 249.24 125.464 251.424C125.08 250.848 124.288 249.936 123.736 249.552C125.704 247.824 127.048 245.52 127.768 243.624ZM128.104 243.624H130.144C131.44 244.872 133.048 246.624 133.792 247.896L131.824 250.032C131.2 248.808 129.736 246.72 128.536 245.616H128.104V243.624ZM156.712 250.872H169.984V253.608H156.712V250.872ZM163.336 256.632H171.448V259.32H163.336V256.632ZM161.824 252.456H164.848V264.048L161.824 263.688V252.456ZM156.088 254.952L159.112 255.264C158.488 260.136 157 263.952 154.264 266.304C153.784 265.8 152.56 264.768 151.888 264.336C154.48 262.416 155.68 259.08 156.088 254.952ZM158.416 257.952C159.952 262.368 163.312 263.04 167.584 263.04C168.856 263.04 172.864 263.04 174.472 262.992C174.064 263.664 173.584 265.056 173.464 265.92H167.416C161.872 265.92 158.128 264.792 156.064 258.744L158.416 257.952ZM161.776 243.648H164.848V248.04H161.776V243.648ZM153.04 246.072H173.68V252.096H170.704V248.808H155.872V252.096H153.04V246.072ZM181.624 262.2H200.896V265.08H181.624V262.2ZM180.304 250.824H202.168V253.68H180.304V250.824ZM189.592 243.672H192.688V264.216H189.592V243.672Z" fill="white"/>
<path d="M610.944 264V261.144H614.784V249.912H611.544V247.728C613.344 247.392 614.544 246.936 615.696 246.24H618.312V261.144H621.648V264H610.944ZM632.108 264.336C629.3 264.336 627.404 263.304 626.156 261.864L627.836 259.632C628.892 260.664 630.164 261.48 631.772 261.48C633.596 261.48 634.82 260.568 634.82 258.984C634.82 257.232 633.788 256.152 629.924 256.152V253.608C633.188 253.608 634.244 252.504 634.244 250.92C634.244 249.528 633.38 248.688 631.868 248.688C630.596 248.688 629.564 249.288 628.508 250.272L626.708 248.088C628.244 246.768 629.948 245.928 632.012 245.928C635.444 245.928 637.772 247.608 637.772 250.656C637.772 252.552 636.716 253.968 634.82 254.688V254.808C636.836 255.384 638.372 256.848 638.372 259.2C638.372 262.464 635.516 264.336 632.108 264.336ZM651.256 262.608H662.009V265.224H651.256V262.608ZM650.056 245.976H658.553V248.52H650.056V245.976ZM650.68 243.48L653.92 244.128C651.88 247.632 649 250.848 644.68 253.44C644.272 252.72 643.312 251.664 642.664 251.16C646.624 249.072 649.288 246.144 650.68 243.48ZM657.64 245.976H658.192L658.673 245.832L660.665 246.888C657.856 254.352 651.448 259.248 644.296 261.648C643.936 260.856 643.216 259.68 642.616 259.08C649.24 257.16 655.432 252.504 657.64 246.456V245.976ZM646.912 251.256L649.048 249.384C650.704 250.56 652.888 252.264 653.944 253.512L651.616 255.6C650.704 254.352 648.568 252.504 646.912 251.256ZM660.665 255.288H663.665V266.184H660.665V255.288ZM652.48 255.288H662.105V257.904H652.48V266.136H649.6V257.424L651.784 255.288H652.48Z" fill="#130F31"/>
<rect width="549" height="66" fill="#333333"/>
<rect x="557" width="160" height="66" fill="#F2F2F2"/>
<path d="M56.464 27.144L58.72 29.496C54.76 31.056 49.312 31.968 44.44 32.448C44.344 31.728 43.936 30.6 43.576 29.952C48.28 29.4 53.368 28.44 56.464 27.144ZM41.152 35.064L62.368 32.952L62.728 35.616L41.512 37.848L41.152 35.064ZM49.504 30.84H52.648V39.936C52.648 41.016 52.864 41.184 54.304 41.184C54.976 41.184 57.64 41.184 58.408 41.184C59.704 41.184 59.92 40.656 60.112 37.824C60.784 38.352 62.104 38.832 62.992 39.024C62.584 42.912 61.696 44.016 58.648 44.016C57.856 44.016 54.712 44.016 53.992 44.016C50.464 44.016 49.504 43.08 49.504 39.96V30.84ZM50.392 21.648H53.464V26.016H50.392V21.648ZM41.68 23.736H62.32V29.424H59.224V26.448H44.608V29.424H41.68V23.736ZM82.648 21.624H85.36V38.568H82.648V21.624ZM75.544 31.272L87.976 25.992L89.032 28.44L76.624 33.816L75.544 31.272ZM77.92 23.952H80.656V39.504C80.656 40.92 80.872 41.112 82.36 41.112C83.08 41.112 86.272 41.112 87.016 41.112C88.336 41.112 88.576 40.584 88.768 38.112C89.392 38.544 90.52 39 91.288 39.144C90.928 42.552 90.064 43.68 87.256 43.68C86.464 43.68 82.864 43.68 82.12 43.68C78.832 43.68 77.92 42.816 77.92 39.48V23.952ZM87.424 26.304H87.256L87.76 25.944L88.264 25.584L90.28 26.304L90.16 26.784C90.16 31.368 90.112 34.272 90.016 35.256C89.92 36.36 89.512 36.936 88.768 37.248C88.072 37.584 87.04 37.584 86.272 37.584C86.176 36.864 85.96 35.784 85.648 35.184C86.056 35.208 86.608 35.208 86.824 35.208C87.112 35.208 87.256 35.136 87.328 34.704C87.424 34.224 87.424 31.608 87.424 26.304ZM68.656 27.192H76.576V29.904H68.656V27.192ZM71.44 21.96H74.128V37.872H71.44V21.96ZM68.32 37.896C70.312 37.176 73.432 35.88 76.36 34.632L77.008 37.176C74.464 38.472 71.704 39.768 69.472 40.776L68.32 37.896ZM103.168 26.304H118.864V28.512H103.168V26.304ZM104.56 32.76H117.256V34.824H104.56V32.76ZM103.504 35.928H118.336V38.208H103.504V35.928ZM109.24 21.816H112.048V40.152H109.24V21.816ZM104.824 23.16H117.064V31.704H104.704V29.52H114.232V25.344H104.824V23.16ZM96.448 22.944H101.512V25.464H96.448V22.944ZM100.528 22.944H100.888L101.32 22.848L103.264 23.376C102.184 26.208 100.504 29.952 99.112 32.952L96.496 32.28C97.96 29.328 99.688 25.368 100.528 23.256V22.944ZM98.896 29.736H102.4V32.256H98.8L98.896 29.736ZM101.248 29.736H101.8L102.28 29.688L103.96 30.048C103.36 37.296 101.512 41.904 98.392 44.256C97.96 43.704 96.856 42.672 96.232 42.312C99.208 40.248 100.792 36.36 101.248 30.264V29.736ZM99.04 33.624C100.984 39.84 105.376 40.824 111.04 40.848C112.504 40.848 117.4 40.848 119.152 40.776C118.72 41.424 118.216 42.744 118.048 43.584H110.968C104.008 43.584 99.28 42.168 96.784 34.416L99.04 33.624ZM135.904 21.624L138.496 22.128C137.632 26.112 136.048 29.928 134.104 32.328C133.648 31.896 132.52 31.08 131.92 30.72C133.84 28.608 135.184 25.176 135.904 21.624ZM143.968 25.368H146.68C146.68 25.368 146.656 26.304 146.632 26.664C146.176 37.44 145.744 41.376 144.832 42.576C144.28 43.392 143.752 43.68 142.96 43.824C142.288 43.968 141.28 43.968 140.224 43.92C140.152 43.104 139.864 41.88 139.432 41.088C140.32 41.184 141.136 41.208 141.592 41.208C141.952 41.208 142.168 41.088 142.456 40.752C143.128 39.912 143.584 36.192 143.968 25.992V25.368ZM136.624 25.368H145.192V28.032H135.304L136.624 25.368ZM138.304 26.232L140.392 27.264C139.432 31.392 137.32 36.144 134.704 38.592C134.152 38.04 133.24 37.368 132.496 36.96C135.28 34.776 137.392 30.264 138.304 26.232ZM141.64 26.496L143.872 27.528C142.72 33.768 140.176 40.296 136.216 43.608C135.664 43.032 134.656 42.312 133.864 41.928C138.064 38.928 140.536 32.664 141.64 26.496ZM124.144 34.704C126.496 34.176 130 33.192 133.312 32.256L133.696 34.8C130.672 35.736 127.384 36.72 124.84 37.464L124.144 34.704ZM128.464 21.624H131.104V44.16H128.464V21.624ZM125.296 22.992L127.696 23.4C127.384 26.568 126.808 29.928 125.944 32.064C125.512 31.728 124.48 31.056 123.904 30.768C124.672 28.848 125.08 25.848 125.296 22.992ZM125.944 26.256H133.096V29.016H125.416L125.944 26.256ZM163.816 24.696H172V27.504H163.816V24.696ZM152.368 22.968H164.488V25.632H152.368V22.968ZM155.536 27.936H161.32V30.504H155.536V27.936ZM155.536 32.928H161.32V35.496H155.536V32.928ZM171.208 24.696H171.712L172.216 24.624L174.088 25.08C173.152 34.8 170.008 40.704 164.584 44.016C164.152 43.272 163.336 42.192 162.688 41.64C167.464 39.144 170.416 33.24 171.208 25.32V24.696ZM166.624 27.576C167.8 33.816 170.368 39.12 174.976 41.616C174.328 42.168 173.44 43.272 172.984 44.016C167.944 40.968 165.376 35.352 163.864 28.104L166.624 27.576ZM154.024 24.072H156.76V39.768H154.024V24.072ZM160.192 24.072H162.976V44.16H160.192V24.072ZM151.816 38.712C154.192 38.448 157.768 37.968 161.152 37.488L161.32 40.104C158.2 40.656 154.864 41.184 152.344 41.568L151.816 38.712ZM188.704 33.168H191.68C191.68 33.168 191.656 34.008 191.608 34.392C191.224 39.696 190.792 42.024 189.928 42.96C189.256 43.704 188.584 43.92 187.528 44.04C186.712 44.136 185.248 44.112 183.76 44.088C183.688 43.152 183.256 41.88 182.68 41.064C184.144 41.184 185.68 41.208 186.328 41.208C186.808 41.208 187.096 41.16 187.408 40.92C188.008 40.416 188.392 38.304 188.68 33.576L188.704 33.168ZM181.96 27.96H184.912C184.48 30.96 183.904 34.608 183.4 36.936L180.52 36.48C181.048 34.224 181.648 30.744 181.96 27.96ZM196.912 21.984H199.816V44.16H196.912V21.984ZM182.584 33.168H189.544V35.832H182.224L182.584 33.168ZM182.968 27.96H188.656V25.224H181.384V22.56H191.488V30.648H182.968V27.96ZM209.464 40.2H228.736V43.08H209.464V40.2ZM208.144 28.824H230.008V31.68H208.144V28.824ZM217.432 21.672H220.528V42.216H217.432V21.672Z" fill="white"/>
<path d="M610.944 42V39.144H614.784V27.912H611.544V25.728C613.344 25.392 614.544 24.936 615.696 24.24H618.312V39.144H621.648V42H610.944ZM631.676 42.336C629.444 42.336 627.86 41.424 626.78 40.32L628.652 38.184C629.324 38.928 630.404 39.48 631.46 39.48C633.548 39.48 635.252 37.8 635.252 32.712C635.252 28.176 633.884 26.568 632.156 26.568C630.812 26.568 629.732 27.648 629.732 29.856C629.732 31.92 630.74 32.928 632.252 32.928C633.26 32.928 634.364 32.376 635.228 30.912L635.42 33.312C634.46 34.632 632.852 35.424 631.604 35.424C628.628 35.424 626.516 33.624 626.516 29.856C626.516 26.184 629.06 23.928 632.084 23.928C635.468 23.928 638.492 26.568 638.492 32.712C638.492 39.432 635.204 42.336 631.676 42.336ZM649.672 42.336C646.312 42.336 643.288 39.624 643.288 33.36C643.288 26.76 646.576 23.928 650.176 23.928C652.336 23.928 653.92 24.816 655 25.944L653.105 28.032C652.504 27.336 651.4 26.76 650.392 26.76C648.232 26.76 646.528 28.416 646.528 33.36C646.528 37.968 647.872 39.672 649.624 39.672C650.944 39.672 652.024 38.568 652.024 36.408C652.024 34.296 651.016 33.336 649.504 33.336C648.52 33.336 647.392 33.864 646.504 35.328L646.36 32.928C647.296 31.608 648.952 30.84 650.152 30.84C653.128 30.84 655.265 32.592 655.265 36.408C655.265 40.056 652.696 42.336 649.672 42.336ZM667.813 40.608H678.565V43.224H667.813V40.608ZM666.613 23.976H675.109V26.52H666.613V23.976ZM667.237 21.48L670.477 22.128C668.437 25.632 665.557 28.848 661.237 31.44C660.829 30.72 659.869 29.664 659.221 29.16C663.181 27.072 665.845 24.144 667.237 21.48ZM674.197 23.976H674.749L675.229 23.832L677.221 24.888C674.413 32.352 668.005 37.248 660.853 39.648C660.493 38.856 659.773 37.68 659.173 37.08C665.797 35.16 671.989 30.504 674.197 24.456V23.976ZM663.469 29.256L665.605 27.384C667.261 28.56 669.445 30.264 670.501 31.512L668.173 33.6C667.261 32.352 665.125 30.504 663.469 29.256ZM677.221 33.288H680.221V44.184H677.221V33.288ZM669.037 33.288H678.661V35.904H669.037V44.136H666.157V35.424L668.341 33.288H669.037Z" fill="#130F31"/>
<rect y="370" width="549" height="66" fill="#333333"/>
<rect x="557" y="370" width="160" height="66" fill="#F2F2F2"/>
<path d="M61.336 396.04C61.096 396.496 60.928 397.192 60.808 397.696C60.256 400.048 59.2 403.768 57.184 406.456C55.024 409.312 51.832 411.712 47.536 413.08L44.92 410.2C49.696 409.096 52.384 407.008 54.328 404.584C55.936 402.568 56.824 399.856 57.16 397.792C55.696 397.792 47.776 397.792 45.976 397.792C44.872 397.792 43.744 397.864 43.12 397.888V394.504C43.84 394.6 45.184 394.696 45.976 394.696C47.776 394.696 55.744 394.696 57.088 394.696C57.544 394.696 58.312 394.672 58.96 394.528L61.336 396.04ZM89.152 400.048C88.936 400.288 88.6 400.744 88.456 400.984C87.616 402.328 85.384 405.376 83.656 406.672L81.256 405.016C82.648 404.056 84.136 402.352 84.712 401.368C83.536 401.368 75.52 401.368 74.32 401.368C73.504 401.368 72.688 401.416 71.8 401.488V398.416C72.568 398.512 73.504 398.608 74.32 398.608C75.52 398.608 84.424 398.608 85.432 398.608C85.96 398.608 87.016 398.536 87.4 398.44L89.152 400.048ZM80.92 402.544C80.8 407.056 80.8 411.256 75.184 414.328L72.616 412.312C73.24 412.048 73.864 411.784 74.584 411.28C77.296 409.408 77.8 407.296 77.8 404.272C77.8 403.672 77.704 403.072 77.608 402.544H80.92ZM97.168 402.688C101.464 401.584 104.968 400.024 107.656 398.368C110.104 396.856 112.84 394.456 114.4 392.56L116.992 395.008C114.808 397.216 111.88 399.472 109.048 401.176C106.336 402.784 102.448 404.584 98.656 405.712L97.168 402.688ZM107.152 399.928L110.56 399.112V409.936C110.56 410.992 110.608 412.48 110.776 413.08H106.96C107.056 412.504 107.152 410.992 107.152 409.936V399.928ZM134.043 395.824C134.043 395.032 133.947 393.784 133.731 393.016H137.523C137.403 393.784 137.331 395.104 137.331 395.848C137.331 397.192 137.331 398.992 137.331 400.6C137.331 405.808 135.987 410.08 130.491 413.368L127.491 411.16C132.555 408.832 134.043 405.064 134.043 400.6C134.043 398.992 134.043 397.168 134.043 395.824ZM125.115 398.296C125.859 398.392 126.843 398.464 127.803 398.464C129.171 398.464 141.267 398.464 142.731 398.464C143.835 398.464 144.867 398.392 145.371 398.32V401.608C144.867 401.56 143.667 401.512 142.707 401.512C141.267 401.512 129.171 401.512 127.875 401.512C126.843 401.512 125.883 401.56 125.115 401.632V398.296ZM156.675 393.76C158.331 394.888 161.451 397.384 162.867 398.848L160.419 401.344C159.171 400 156.147 397.384 154.395 396.184L156.675 393.76ZM153.651 409.744C157.419 409.216 160.515 407.992 162.843 406.624C166.947 404.176 170.067 400.528 171.603 397.288L173.451 400.648C171.651 403.912 168.459 407.224 164.595 409.552C162.147 411.016 159.051 412.336 155.691 412.912L153.651 409.744ZM186.123 393.016C187.707 393.88 190.347 395.56 191.595 396.448L189.819 399.088C188.475 398.152 185.979 396.544 184.395 395.656L186.123 393.016ZM181.683 410.056C184.371 409.6 187.227 408.784 189.843 407.344C193.923 405.064 197.283 401.776 199.179 398.344L201.027 401.608C198.819 404.944 195.411 407.968 191.499 410.248C189.051 411.616 185.595 412.816 183.483 413.2L181.683 410.056ZM182.427 398.488C184.035 399.352 186.675 400.984 187.923 401.872L186.147 404.56C184.803 403.6 182.307 401.992 180.699 401.128L182.427 398.488ZM216.171 396.76C216.243 397.336 216.411 397.96 216.555 398.584C217.371 401.464 219.627 409.72 220.227 411.712C220.347 412.144 220.683 413.2 220.851 413.68L217.611 414.496C217.515 413.848 217.371 413.056 217.179 412.384C216.579 410.296 214.395 401.728 213.627 399.232C213.459 398.632 213.195 398.032 212.931 397.528L216.171 396.76ZM227.691 400.48C226.659 402.568 224.259 406.192 222.579 407.968L219.915 406.648C221.163 405.544 222.819 403.528 223.467 402.352C222.219 402.568 212.451 404.608 210.483 405.04L209.739 402.184C210.483 402.112 211.155 402.04 211.947 401.896C213.243 401.704 222.843 399.88 224.547 399.496C224.955 399.4 225.435 399.256 225.747 399.112L227.691 400.48ZM246.459 411.472C246.579 411.016 246.651 410.368 246.651 409.72C246.651 408.448 246.651 397.672 246.651 395.728C246.651 394.648 246.483 393.712 246.483 393.664H250.035C250.035 393.712 249.867 394.672 249.867 395.752C249.867 397.672 249.867 406.816 249.867 408.28C251.835 407.44 254.187 405.544 255.819 403.216L257.643 405.88C255.651 408.472 252.219 411.064 249.507 412.432C249.003 412.696 248.715 412.96 248.475 413.128L246.459 411.472ZM235.347 411.136C237.483 409.648 238.779 407.44 239.427 405.376C240.123 403.336 240.147 398.776 240.147 395.896C240.147 394.912 240.051 394.288 239.907 393.688H243.435C243.435 393.784 243.267 394.864 243.267 395.848C243.267 398.704 243.195 403.768 242.571 406.192C241.827 408.88 240.339 411.256 238.275 413.08L235.347 411.136ZM281.523 394.408C281.523 395.176 282.147 395.8 282.915 395.8C283.683 395.8 284.307 395.176 284.307 394.408C284.307 393.64 283.683 393.016 282.915 393.016C282.147 393.016 281.523 393.64 281.523 394.408ZM280.035 394.408C280.035 392.824 281.331 391.528 282.915 391.528C284.499 391.528 285.795 392.824 285.795 394.408C285.795 395.992 284.499 397.288 282.915 397.288C281.331 397.288 280.035 395.992 280.035 394.408ZM282.963 396.304C282.723 396.76 282.555 397.456 282.435 397.96C281.883 400.312 280.827 404.056 278.811 406.72C276.651 409.6 273.459 411.976 269.163 413.344L266.547 410.464C271.323 409.36 274.035 407.272 275.955 404.848C277.563 402.856 278.475 400.12 278.787 398.056C277.323 398.056 269.403 398.056 267.603 398.056C266.499 398.056 265.371 398.128 264.747 398.176V394.768C265.467 394.864 266.811 394.984 267.603 394.984C269.403 394.984 277.371 394.984 278.715 394.984C279.195 394.984 279.963 394.96 280.587 394.792L282.963 396.304ZM295.443 393.592C296.091 393.688 297.123 393.736 297.939 393.736C299.451 393.736 305.763 393.736 307.155 393.736C307.923 393.736 309.099 393.688 309.747 393.592V396.712C309.123 396.664 307.995 396.616 307.107 396.616C305.787 396.616 299.355 396.616 297.939 396.616C297.147 396.616 296.139 396.64 295.443 396.712V393.592ZM311.787 400.576C311.619 400.888 311.403 401.32 311.331 401.56C310.587 403.888 309.555 406.24 307.779 408.208C305.355 410.92 302.283 412.528 299.211 413.416L296.811 410.704C300.435 409.936 303.291 408.376 305.139 406.48C306.411 405.184 307.179 403.672 307.587 402.352C306.387 402.352 298.155 402.352 296.019 402.352C295.419 402.352 294.219 402.376 293.211 402.448V399.328C294.243 399.424 295.251 399.496 296.019 399.496C297.651 399.496 306.243 399.496 307.875 399.496C308.667 399.496 309.315 399.4 309.651 399.232L311.787 400.576ZM323.715 393.76C325.371 394.888 328.491 397.384 329.907 398.848L327.459 401.344C326.211 400 323.187 397.384 321.435 396.184L323.715 393.76ZM320.691 409.744C324.459 409.216 327.555 407.992 329.883 406.624C333.987 404.176 337.107 400.528 338.643 397.288L340.491 400.648C338.691 403.912 335.499 407.224 331.635 409.552C329.187 411.016 326.091 412.336 322.731 412.912L320.691 409.744ZM356.763 395.824C356.763 395.032 356.667 393.784 356.451 393.016H360.243C360.123 393.784 360.051 395.104 360.051 395.848C360.051 397.192 360.051 398.992 360.051 400.6C360.051 405.808 358.707 410.08 353.211 413.368L350.211 411.16C355.275 408.832 356.763 405.064 356.763 400.6C356.763 398.992 356.763 397.168 356.763 395.824ZM347.835 398.296C348.579 398.392 349.563 398.464 350.523 398.464C351.891 398.464 363.987 398.464 365.451 398.464C366.555 398.464 367.587 398.392 368.091 398.32V401.608C367.587 401.56 366.387 401.512 365.427 401.512C363.987 401.512 351.891 401.512 350.595 401.512C349.563 401.512 348.603 401.56 347.835 401.632V398.296ZM375.795 400.888C376.683 400.96 378.411 401.056 379.659 401.056C382.491 401.056 390.411 401.056 392.547 401.056C393.675 401.056 394.731 400.936 395.379 400.888V404.68C394.803 404.656 393.579 404.536 392.571 404.536C390.387 404.536 382.491 404.536 379.659 404.536C378.315 404.536 376.707 404.608 375.795 404.68V400.888Z" fill="white"/>
<path d="M615.552 412.336C612.744 412.336 610.848 411.304 609.6 409.864L611.28 407.632C612.336 408.664 613.608 409.48 615.216 409.48C617.04 409.48 618.264 408.568 618.264 406.984C618.264 405.232 617.232 404.152 613.368 404.152V401.608C616.632 401.608 617.688 400.504 617.688 398.92C617.688 397.528 616.824 396.688 615.312 396.688C614.04 396.688 613.008 397.288 611.952 398.272L610.152 396.088C611.688 394.768 613.392 393.928 615.456 393.928C618.888 393.928 621.216 395.608 621.216 398.656C621.216 400.552 620.16 401.968 618.264 402.688V402.808C620.28 403.384 621.816 404.848 621.816 407.2C621.816 410.464 618.96 412.336 615.552 412.336ZM633.116 412.336C629.756 412.336 626.732 409.624 626.732 403.36C626.732 396.76 630.02 393.928 633.62 393.928C635.78 393.928 637.364 394.816 638.444 395.944L636.548 398.032C635.948 397.336 634.844 396.76 633.836 396.76C631.676 396.76 629.972 398.416 629.972 403.36C629.972 407.968 631.316 409.672 633.068 409.672C634.388 409.672 635.468 408.568 635.468 406.408C635.468 404.296 634.46 403.336 632.948 403.336C631.964 403.336 630.836 403.864 629.948 405.328L629.804 402.928C630.74 401.608 632.396 400.84 633.596 400.84C636.572 400.84 638.708 402.592 638.708 406.408C638.708 410.056 636.14 412.336 633.116 412.336ZM651.256 410.608H662.009V413.224H651.256V410.608ZM650.056 393.976H658.553V396.52H650.056V393.976ZM650.68 391.48L653.92 392.128C651.88 395.632 649 398.848 644.68 401.44C644.272 400.72 643.312 399.664 642.664 399.16C646.624 397.072 649.288 394.144 650.68 391.48ZM657.64 393.976H658.192L658.673 393.832L660.665 394.888C657.856 402.352 651.448 407.248 644.296 409.648C643.936 408.856 643.216 407.68 642.616 407.08C649.24 405.16 655.432 400.504 657.64 394.456V393.976ZM646.912 399.256L649.048 397.384C650.704 398.56 652.888 400.264 653.944 401.512L651.616 403.6C650.704 402.352 648.568 400.504 646.912 399.256ZM660.665 403.288H663.665V414.184H660.665V403.288ZM652.48 403.288H662.105V405.904H652.48V414.136H649.6V405.424L651.784 403.288H652.48Z" fill="#130F31"/>
<rect y="148" width="549" height="66" fill="#333333"/>
<rect x="557" y="148" width="160" height="66" fill="#F2F2F2"/>
<path d="M41.536 171.232H62.464V174.184H41.536V171.232ZM53.128 179.272L55.36 177.4C57.928 179.272 61.624 182.032 63.376 183.952L60.928 186.16C59.344 184.264 55.792 181.312 53.128 179.272ZM52.168 172.312L55.384 173.44C52.648 178.504 48.28 183.4 42.76 186.28C42.304 185.512 41.392 184.312 40.792 183.664C45.928 181.24 50.176 176.584 52.168 172.312ZM50.416 178.12L53.584 174.976V192.112H50.416V178.12ZM69.232 185.152H80.44V187.192H69.232V185.152ZM68.68 173.728H80.68V175.816H68.68V173.728ZM73.456 172.024H76.048V189.232H73.456V172.024ZM68.56 188.968C71.536 188.752 76.12 188.416 80.44 188.032L80.464 190.216C76.384 190.648 72.016 191.08 68.896 191.368L68.56 188.968ZM71.608 181.312V182.416H77.944V181.312H71.608ZM71.608 178.552V179.632H77.944V178.552H71.608ZM69.304 176.752H80.32V184.216H69.304V176.752ZM79.144 169.744L80.416 171.904C77.344 172.528 72.976 172.888 69.376 172.96C69.28 172.384 69.016 171.472 68.752 170.92C72.328 170.752 76.504 170.32 79.144 169.744ZM80.68 175.048H88.984V177.688H80.68V175.048ZM87.832 175.048H90.592C90.592 175.048 90.568 175.984 90.568 176.32C90.352 186.208 90.16 189.712 89.368 190.792C88.84 191.608 88.288 191.872 87.496 192.016C86.752 192.16 85.624 192.16 84.496 192.112C84.424 191.32 84.112 190.144 83.656 189.376C84.688 189.472 85.6 189.472 86.08 189.472C86.44 189.472 86.68 189.4 86.896 189.064C87.448 188.344 87.64 184.96 87.832 175.672V175.048ZM82.984 170.032H85.744C85.72 180.28 85.696 187.984 80.152 192.352C79.744 191.656 78.808 190.672 78.16 190.192C83.224 186.328 82.96 179.608 82.984 170.032ZM103.888 180.976H117.136V183.184H103.888V180.976ZM103.384 185.008H116.44V187.192H103.384V185.008ZM101.512 189.304H118.408V191.704H101.512V189.304ZM108.424 179.2H111.256V190.792H108.424V179.2ZM103.984 179.08L106.552 179.68C105.808 181.792 104.512 183.856 103.24 185.176C102.712 184.768 101.608 184.096 100.96 183.808C102.28 182.656 103.408 180.856 103.984 179.08ZM99.904 176.368H118.6V178.84H99.904V176.368ZM98.128 171.376H117.376V173.824H98.128V171.376ZM106.288 169.6H109.168V172.816H106.288V169.6ZM98.32 176.368H101.08V180.28C101.08 183.664 100.648 188.8 98.368 192.112C97.936 191.584 96.736 190.6 96.16 190.264C98.128 187.336 98.32 183.136 98.32 180.256V176.368ZM101.8 173.968L104.392 173.272C104.92 174.184 105.424 175.384 105.592 176.2L102.808 176.944C102.688 176.152 102.256 174.904 101.8 173.968ZM111.16 173.032L114.448 173.728C113.728 174.952 113.008 176.152 112.48 176.944L110.104 176.248C110.488 175.312 110.944 173.992 111.16 173.032ZM133.936 170.848H146.392V173.584H133.936V170.848ZM133.264 188.632H146.848V191.344H133.264V188.632ZM140.92 179.272H146.248V182.008H140.92V179.272ZM139.264 171.976H142.096V190.216H139.264V171.976ZM134.752 177.208H137.44V189.856H134.752V177.208ZM125.392 177.16H132.328V179.32H125.392V177.16ZM125.536 170.368H132.352V172.552H125.536V170.368ZM125.392 180.52H132.328V182.68H125.392V180.52ZM124.216 173.704H133.192V175.96H124.216V173.704ZM126.712 183.904H132.496V191.2H126.712V188.944H130.024V186.184H126.712V183.904ZM125.32 183.904H127.744V192.16H125.32V183.904ZM152.512 178.024H174.136V180.64H152.512V178.024ZM154.096 173.584H172.792V176.104H154.096V173.584ZM156.664 182.656H167.968V185.248H156.664V182.656ZM166.672 174.712C168.016 178.768 170.824 182.248 174.736 183.88C174.088 184.408 173.224 185.512 172.84 186.232C168.592 184.192 165.784 180.304 164.104 175.384L166.672 174.712ZM155.224 170.752L157.624 169.888C158.368 170.92 159.16 172.336 159.472 173.296L156.904 174.256C156.664 173.32 155.92 171.856 155.224 170.752ZM168.352 169.768L171.208 170.608C170.464 171.976 169.648 173.344 169 174.232L166.528 173.44C167.152 172.456 167.944 170.896 168.352 169.768ZM167.2 182.656H170.152C170.152 182.656 170.128 183.4 170.08 183.76C169.792 188.344 169.432 190.36 168.76 191.104C168.208 191.752 167.632 191.944 166.84 192.064C166.144 192.136 164.968 192.136 163.72 192.112C163.672 191.272 163.336 190.144 162.88 189.4C163.936 189.496 164.944 189.52 165.424 189.52C165.808 189.52 166.048 189.472 166.288 189.232C166.696 188.824 166.984 187.168 167.2 183.064V182.656ZM160.552 183.52H163.552C163.072 187.696 161.896 190.624 155.776 192.208C155.512 191.488 154.768 190.312 154.168 189.736C159.448 188.632 160.168 186.544 160.552 183.52ZM161.464 169.552L164.512 170.08C162.976 176.848 160.192 182.992 153.712 186.208C153.304 185.536 152.488 184.456 151.912 183.88C157.888 181.12 160.432 175.504 161.464 169.552ZM190.648 170.248H193.576V187.528C193.576 188.968 193.744 189.208 194.92 189.208C195.448 189.208 197.848 189.208 198.424 189.208C199.6 189.208 199.792 188.368 199.96 184.984C200.656 185.488 201.832 186.016 202.648 186.184C202.288 190.336 201.52 191.872 198.688 191.872C197.992 191.872 195.208 191.872 194.56 191.872C191.536 191.872 190.648 190.912 190.648 187.504V170.248ZM199.648 174.256L201.76 176.776C199.048 178.696 195.616 180.496 192.496 181.96C192.304 181.288 191.752 180.28 191.344 179.656C194.32 178.24 197.512 176.08 199.648 174.256ZM186.016 169.936L188.848 170.896C187.048 175.168 184.096 179.608 181.072 182.392C180.784 181.648 179.944 180.064 179.416 179.344C182.008 177.112 184.528 173.56 186.016 169.936ZM183.472 176.704L186.304 173.872L186.352 173.92V192.112H183.472V176.704ZM222.304 182.128H228.424V184.312H222.304V182.128ZM216.544 172H227.08V174.28H216.544V172ZM214.24 182.128H220.288V184.312H214.24V182.128ZM207.76 175.648H215.608V178.264H207.76V175.648ZM210.4 169.624H213.16V192.16H210.4V169.624ZM219.52 182.128H221.824C221.824 182.128 221.824 182.776 221.8 183.064C221.68 188.488 221.536 190.576 221.032 191.272C220.648 191.8 220.264 191.992 219.712 192.064C219.232 192.16 218.536 192.184 217.768 192.16C217.72 191.464 217.528 190.528 217.192 189.952C217.768 190 218.176 190.024 218.464 190.024C218.728 190.024 218.872 189.952 219.016 189.712C219.304 189.328 219.424 187.576 219.52 182.536V182.128ZM227.584 182.128H229.96C229.96 182.128 229.96 182.8 229.936 183.088C229.792 188.44 229.648 190.552 229.144 191.248C228.736 191.776 228.352 191.968 227.776 192.064C227.296 192.16 226.552 192.184 225.76 192.16C225.712 191.44 225.472 190.48 225.136 189.856C225.736 189.928 226.216 189.928 226.504 189.928C226.744 189.928 226.912 189.88 227.08 189.64C227.344 189.256 227.464 187.528 227.584 182.536V182.128ZM226.576 172H229.216C229.216 172 229.168 172.648 229.12 172.984C228.856 176.44 228.544 178 227.944 178.648C227.464 179.176 226.936 179.368 226.216 179.44C225.64 179.512 224.608 179.536 223.504 179.488C223.456 178.744 223.168 177.736 222.784 177.088C223.696 177.184 224.608 177.184 225.016 177.184C225.352 177.184 225.568 177.16 225.76 176.968C226.12 176.608 226.384 175.36 226.576 172.336V172ZM221.008 169.624H223.696C223.36 174.712 222.064 177.928 216.952 179.944C216.664 179.344 216.016 178.408 215.512 177.952C220.024 176.392 220.768 173.776 221.008 169.624ZM216.256 179.896H218.68C218.56 185.464 217.936 189.52 215.056 192.232C214.744 191.68 214.072 190.864 213.52 190.456C215.896 188.248 216.16 184.768 216.256 179.896ZM224.176 179.824H226.672C226.552 185.44 225.904 189.4 222.928 192.112C222.616 191.536 221.896 190.696 221.344 190.288C223.816 188.104 224.104 184.696 224.176 179.824ZM237.088 188.632C241.384 188.512 248.056 188.272 254.104 188.008L254.008 190.648C248.128 190.984 241.792 191.272 237.472 191.44L237.088 188.632ZM236.968 181.48H256.936V184.168H236.968V181.48ZM241.24 176.872H252.496V179.512H241.24V176.872ZM242.848 183.232L246.136 184.144C245.008 186.4 243.712 188.896 242.632 190.504L240.112 189.664C241.096 187.912 242.248 185.248 242.848 183.232ZM248.8 185.704L251.344 184.384C253.504 186.232 255.736 188.752 256.84 190.576L254.176 192.184C253.168 190.36 250.864 187.624 248.8 185.704ZM246.856 172.432C244.912 175.168 241.168 178.24 237.184 180.136C236.848 179.44 236.08 178.36 235.48 177.736C239.584 175.936 243.424 172.504 245.2 169.672H248.248C250.792 173.2 254.608 175.936 258.424 177.304C257.728 178.024 257.08 179.056 256.552 179.92C252.952 178.24 248.896 175.216 246.856 172.432ZM277.072 171.544H279.664C279.208 175.456 278.152 179.416 273.736 181.744C273.424 181.096 272.68 180.16 272.104 179.704C275.992 177.856 276.712 174.544 277.072 171.544ZM272.92 175.648L274.264 173.656C276.64 174.376 279.448 175.696 281.056 176.728L279.688 178.936C278.128 177.808 275.272 176.392 272.92 175.648ZM282.544 170.56H285.232C285.232 170.56 285.232 171.28 285.208 171.616C284.968 177.088 284.728 179.344 284.08 180.112C283.624 180.712 283.168 180.928 282.472 181.024C281.896 181.12 280.912 181.12 279.856 181.096C279.832 180.304 279.544 179.224 279.16 178.528C279.976 178.6 280.696 178.6 281.056 178.6C281.368 178.624 281.584 178.552 281.776 178.312C282.16 177.856 282.376 176.032 282.544 170.992V170.56ZM275.56 183.496H278.2V188.752C278.2 189.424 278.248 189.496 278.704 189.496C278.92 189.496 279.712 189.496 279.952 189.496C280.408 189.496 280.504 189.208 280.576 186.976C281.08 187.408 282.208 187.816 282.928 188.008C282.664 191.176 281.968 191.992 280.24 191.992C279.808 191.992 278.704 191.992 278.248 191.992C276.016 191.992 275.56 191.2 275.56 188.8V183.496ZM273.112 184.432L275.368 185.032C275.152 187.192 274.696 189.472 273.544 190.888L271.432 189.592C272.416 188.392 272.896 186.4 273.112 184.432ZM276.088 181.84L277.744 180.184C279.28 180.952 281.176 182.2 282.064 183.208L280.288 185.08C279.448 184.096 277.624 182.728 276.088 181.84ZM281.392 184.816L283.72 183.88C284.968 185.704 286.024 188.152 286.336 189.856L283.816 190.888C283.552 189.208 282.568 186.664 281.392 184.816ZM273.232 170.56H283.768V172.96H273.232V170.56ZM264.52 176.992H271.552V179.152H264.52V176.992ZM264.592 170.368H271.48V172.552H264.592V170.368ZM264.52 180.256H271.552V182.44H264.52V180.256ZM263.416 173.608H272.2V175.888H263.416V173.608ZM265.768 183.592H271.576V190.888H265.768V188.608H269.176V185.872H265.768V183.592ZM264.472 183.592H266.824V191.848H264.472V183.592ZM295.912 176.872H309.184V179.608H295.912V176.872ZM302.536 182.632H310.648V185.32H302.536V182.632ZM301.024 178.456H304.048V190.048L301.024 189.688V178.456ZM295.288 180.952L298.312 181.264C297.688 186.136 296.2 189.952 293.464 192.304C292.984 191.8 291.76 190.768 291.088 190.336C293.68 188.416 294.88 185.08 295.288 180.952ZM297.616 183.952C299.152 188.368 302.512 189.04 306.784 189.04C308.056 189.04 312.064 189.04 313.672 188.992C313.264 189.664 312.784 191.056 312.664 191.92H306.616C301.072 191.92 297.328 190.792 295.264 184.744L297.616 183.952ZM300.976 169.648H304.048V174.04H300.976V169.648ZM292.24 172.072H312.88V178.096H309.904V174.808H295.072V178.096H292.24V172.072ZM341.248 174.88C340.912 175.264 340.624 175.6 340.432 175.888C338.56 178.984 335.008 183.304 331.288 186.04L328.888 183.832C332.056 181.624 334.744 178.36 335.992 176.152C333.88 176.152 325.144 176.152 323.32 176.152C322.336 176.152 321.04 176.272 320.536 176.344V172.96C321.184 173.08 322.48 173.2 323.32 173.2C324.832 173.2 334.048 173.2 336.616 173.2C337.552 173.2 338.344 173.104 338.872 172.936L341.248 174.88ZM328.6 186.4C327.184 184.984 324.736 182.8 323.32 181.792L325.84 179.728C327.136 180.712 329.536 182.656 331.36 184.408C332.944 185.944 334.84 187.936 335.992 189.328L333.16 191.584C332.176 190.24 330.16 187.984 328.6 186.4ZM366.232 173.752C366.04 174.016 365.608 174.736 365.392 175.24C364.408 177.52 362.632 180.784 360.568 183.184C357.88 186.28 354.256 189.256 350.536 191.008L348.04 188.416C351.928 186.976 355.624 184.048 357.88 181.552C359.464 179.752 360.928 177.376 361.48 175.672C360.472 175.672 354.352 175.672 353.32 175.672C352.336 175.672 351.016 175.792 350.488 175.84V172.408C351.136 172.504 352.624 172.576 353.32 172.576C354.592 172.576 360.736 172.576 361.792 172.576C362.848 172.576 363.784 172.456 364.288 172.288L366.232 173.752ZM360.88 181.192C363.352 183.208 366.76 186.784 368.32 188.704L365.584 191.08C363.808 188.608 361.192 185.752 358.624 183.424L360.88 181.192ZM384.352 178.768C387.304 180.472 391.744 183.544 393.976 185.32L391.672 188.056C389.584 186.088 385.024 182.728 382.216 180.952L384.352 178.768ZM395.656 174.688C395.368 175.144 395.056 175.816 394.84 176.416C394.12 178.624 392.656 181.696 390.496 184.36C388.24 187.168 385.168 189.856 380.584 191.584L377.8 189.184C382.816 187.624 385.672 185.104 387.736 182.704C389.344 180.808 390.832 178.048 391.288 176.176H383.176L384.28 173.464H391.12C391.864 173.464 392.656 173.344 393.208 173.176L395.656 174.688ZM387.712 170.992C387.136 171.832 386.512 172.936 386.224 173.44C384.616 176.344 381.544 180.016 378.088 182.392L375.52 180.4C379.72 177.808 381.928 174.52 383.152 172.432C383.512 171.856 384.016 170.752 384.232 169.912L387.712 170.992ZM404.104 178.888C404.992 178.96 406.72 179.056 407.968 179.056C410.8 179.056 418.72 179.056 420.856 179.056C421.984 179.056 423.04 178.936 423.688 178.888V182.68C423.112 182.656 421.888 182.536 420.88 182.536C418.696 182.536 410.8 182.536 407.968 182.536C406.624 182.536 405.016 182.608 404.104 182.68V178.888Z" fill="white"/>
<path d="M615.624 190.336C612.816 190.336 610.944 189.232 609.6 187.912L611.256 185.68C612.24 186.664 613.512 187.48 615.144 187.48C617.016 187.48 618.288 186.304 618.288 184.192C618.288 182.128 617.088 180.976 615.312 180.976C614.256 180.976 613.68 181.24 612.648 181.912L611.016 180.856L611.52 172.24H621.024V175.192H614.568L614.232 178.96C614.928 178.648 615.552 178.48 616.368 178.48C619.344 178.48 621.84 180.232 621.84 184.12C621.84 188.056 618.888 190.336 615.624 190.336ZM632.18 190.336C629.372 190.336 627.5 189.232 626.156 187.912L627.812 185.68C628.796 186.664 630.068 187.48 631.7 187.48C633.572 187.48 634.844 186.304 634.844 184.192C634.844 182.128 633.644 180.976 631.868 180.976C630.812 180.976 630.236 181.24 629.204 181.912L627.572 180.856L628.076 172.24H637.58V175.192H631.124L630.788 178.96C631.484 178.648 632.108 178.48 632.924 178.48C635.9 178.48 638.396 180.232 638.396 184.12C638.396 188.056 635.444 190.336 632.18 190.336ZM651.256 188.608H662.009V191.224H651.256V188.608ZM650.056 171.976H658.553V174.52H650.056V171.976ZM650.68 169.48L653.92 170.128C651.88 173.632 649 176.848 644.68 179.44C644.272 178.72 643.312 177.664 642.664 177.16C646.624 175.072 649.288 172.144 650.68 169.48ZM657.64 171.976H658.192L658.673 171.832L660.665 172.888C657.856 180.352 651.448 185.248 644.296 187.648C643.936 186.856 643.216 185.68 642.616 185.08C649.24 183.16 655.432 178.504 657.64 172.456V171.976ZM646.912 177.256L649.048 175.384C650.704 176.56 652.888 178.264 653.944 179.512L651.616 181.6C650.704 180.352 648.568 178.504 646.912 177.256ZM660.665 181.288H663.665V192.184H660.665V181.288ZM652.48 181.288H662.105V183.904H652.48V192.136H649.6V183.424L651.784 181.288H652.48Z" fill="#130F31"/>
<rect y="296" width="549" height="66" fill="#333333"/>
<rect x="557" y="296" width="160" height="66" fill="#F2F2F2"/>
<path d="M40.912 327.08H63.136V330.224H40.912V327.08ZM77.392 319.016H86.248V321.656H77.392V319.016ZM85.072 319.016H85.384L85.792 318.896L87.736 319.16C87.328 321.992 86.632 325.64 86.032 328.52L83.44 328.232C84.088 325.304 84.784 321.368 85.072 319.304V319.016ZM85.48 325.016H89.152V327.584H84.712L85.48 325.016ZM88.192 325.016H88.72L89.2 324.92L90.904 325.568C89.584 332.912 86.176 337.712 81.76 340.112C81.352 339.488 80.416 338.408 79.816 338C84.088 335.912 87.136 331.76 88.192 325.568V325.016ZM81.856 322.616C82.936 329.936 85.384 335.696 91.408 337.856C90.808 338.384 90.016 339.464 89.632 340.208C83.32 337.496 80.992 331.28 79.744 322.928L81.856 322.616ZM72.16 317.648L74.656 318.584C73.672 320.408 72.568 322.544 71.632 323.888L69.712 323.048C70.576 321.632 71.608 319.328 72.16 317.648ZM74.92 320.48L77.248 321.536C75.52 324.296 73.168 327.632 71.344 329.72L69.688 328.784C71.464 326.6 73.672 323.072 74.92 320.48ZM68.464 323.336L69.832 321.368C71.104 322.472 72.592 323.984 73.216 325.088L71.728 327.32C71.152 326.168 69.688 324.488 68.464 323.336ZM74.512 326.216L76.408 325.424C77.368 327.032 78.28 329.144 78.544 330.536L76.504 331.448C76.24 330.056 75.4 327.872 74.512 326.216ZM68.44 328.208C70.648 328.136 73.912 328.016 77.104 327.848L77.08 330.128C74.104 330.368 71.032 330.56 68.68 330.728L68.44 328.208ZM74.824 332.144L76.84 331.496C77.416 332.768 77.992 334.472 78.232 335.576L76.12 336.32C75.904 335.192 75.328 333.464 74.824 332.144ZM69.472 331.736L71.848 332.144C71.608 334.448 71.08 336.848 70.384 338.384C69.88 338.072 68.8 337.568 68.2 337.328C68.896 335.912 69.28 333.776 69.472 331.736ZM72.16 329.48H74.68V340.184H72.16V329.48ZM79.36 320.768H81.856V325.28C81.856 329.552 81.4 335.864 77.584 340.088C77.128 339.632 76.12 338.864 75.472 338.552C79.024 334.712 79.36 329 79.36 325.256V320.768ZM103.168 322.304H118.864V324.512H103.168V322.304ZM104.56 328.76H117.256V330.824H104.56V328.76ZM103.504 331.928H118.336V334.208H103.504V331.928ZM109.24 317.816H112.048V336.152H109.24V317.816ZM104.824 319.16H117.064V327.704H104.704V325.52H114.232V321.344H104.824V319.16ZM96.448 318.944H101.512V321.464H96.448V318.944ZM100.528 318.944H100.888L101.32 318.848L103.264 319.376C102.184 322.208 100.504 325.952 99.112 328.952L96.496 328.28C97.96 325.328 99.688 321.368 100.528 319.256V318.944ZM98.896 325.736H102.4V328.256H98.8L98.896 325.736ZM101.248 325.736H101.8L102.28 325.688L103.96 326.048C103.36 333.296 101.512 337.904 98.392 340.256C97.96 339.704 96.856 338.672 96.232 338.312C99.208 336.248 100.792 332.36 101.248 326.264V325.736ZM99.04 329.624C100.984 335.84 105.376 336.824 111.04 336.848C112.504 336.848 117.4 336.848 119.152 336.776C118.72 337.424 118.216 338.744 118.048 339.584H110.968C104.008 339.584 99.28 338.168 96.784 330.416L99.04 329.624ZM125.2 323.984H133.864V325.976H125.2V323.984ZM128.248 324.584H130.84V329.432H128.248V324.584ZM124.648 328.88C126.976 328.592 130.504 328.112 133.84 327.632L133.96 329.768C130.792 330.272 127.456 330.776 124.984 331.16L124.648 328.88ZM134.92 323.888H137.536V326.36C137.536 328.424 136.864 330.608 133.672 331.88C133.312 331.352 132.28 330.344 131.728 329.984C134.56 328.976 134.92 327.656 134.92 326.288V323.888ZM141.04 323.888H143.752V328.112C143.752 328.52 143.728 328.76 143.8 328.832C143.848 328.928 143.944 328.952 144.04 328.952C144.16 328.952 144.304 328.952 144.424 328.952C144.544 328.952 144.64 328.952 144.712 328.88C144.784 328.832 144.856 328.712 144.904 328.424C144.952 328.136 144.976 327.536 145 326.72C145.408 327.128 146.248 327.536 146.848 327.728C146.8 328.64 146.704 329.648 146.536 330.032C146.368 330.464 146.104 330.776 145.72 330.968C145.408 331.136 144.88 331.208 144.448 331.208C144.088 331.208 143.584 331.208 143.272 331.208C142.672 331.208 142.024 331.04 141.616 330.632C141.208 330.224 141.04 329.72 141.04 328.208V323.888ZM124.6 332.288H146.44V334.544H124.6V332.288ZM134.104 330.872H136.888V340.088H134.104V330.872ZM133.288 333.608L135.448 334.544C133.24 336.896 129.52 338.744 125.944 339.584C125.536 338.888 124.744 337.832 124.144 337.256C127.648 336.656 131.392 335.288 133.288 333.608ZM137.632 333.776C139.6 335.36 143.344 336.584 146.872 337.088C146.248 337.664 145.456 338.792 145.048 339.536C141.496 338.744 137.8 336.968 135.592 334.616L137.632 333.776ZM127.6 319.328H135.16V321.56H127.6V319.328ZM137.32 319.328H146.632V321.56H137.32V319.328ZM127.696 317.432L130.384 318.152C129.448 320.264 127.912 322.376 126.496 323.72C125.944 323.264 124.816 322.52 124.168 322.16C125.608 321.008 126.952 319.208 127.696 317.432ZM137.464 317.432L140.2 318.104C139.336 320.288 137.776 322.4 136.312 323.72C135.736 323.288 134.488 322.664 133.792 322.352C135.352 321.2 136.744 319.328 137.464 317.432ZM128.488 321.128L130.672 320.528C131.248 321.32 131.848 322.376 132.136 323.096L129.808 323.744C129.592 323.048 129.016 321.944 128.488 321.128ZM139.216 321.128L141.544 320.504C142.192 321.248 142.96 322.304 143.32 323.048L140.848 323.744C140.56 323.024 139.864 321.92 139.216 321.128ZM137.056 327.752L138.688 326.312C139.672 326.96 140.872 327.944 141.448 328.616L139.72 330.224C139.168 329.504 138.016 328.472 137.056 327.752ZM135.88 323.888H142.432V325.76H135.88V323.888ZM153.784 336.2H173.056V339.08H153.784V336.2ZM152.464 324.824H174.328V327.68H152.464V324.824ZM161.752 317.672H164.848V338.216H161.752V317.672Z" fill="white"/>
<path d="M610.008 338V335.984C614.856 331.64 617.688 328.304 617.688 325.568C617.688 323.792 616.752 322.688 615.048 322.688C613.728 322.688 612.696 323.528 611.784 324.536L609.84 322.616C611.472 320.864 613.08 319.928 615.504 319.928C618.84 319.928 621.096 322.064 621.096 325.376C621.096 328.616 618.408 332.072 615.168 335.24C616.056 335.144 617.232 335.024 618.072 335.024H621.912V338H610.008ZM634.7 336.608H645.452V339.224H634.7V336.608ZM633.5 319.976H641.996V322.52H633.5V319.976ZM634.124 317.48L637.364 318.128C635.324 321.632 632.444 324.848 628.124 327.44C627.716 326.72 626.756 325.664 626.108 325.16C630.068 323.072 632.732 320.144 634.124 317.48ZM641.084 319.976H641.636L642.116 319.832L644.108 320.888C641.3 328.352 634.892 333.248 627.74 335.648C627.38 334.856 626.66 333.68 626.06 333.08C632.684 331.16 638.876 326.504 641.084 320.456V319.976ZM630.356 325.256L632.492 323.384C634.148 324.56 636.332 326.264 637.388 327.512L635.06 329.6C634.148 328.352 632.012 326.504 630.356 325.256ZM644.108 329.288H647.108V340.184H644.108V329.288ZM635.924 329.288H645.548V331.904H635.924V340.136H633.044V331.424L635.228 329.288H635.924Z" fill="#130F31"/>
<rect y="74" width="549" height="66" fill="#333333"/>
<rect x="557" y="74" width="160" height="66" fill="#F2F2F2"/>
<path d="M49.6 104.384L53.056 105.224C51.472 108.992 49.336 113.216 47.56 115.976L44.896 115.136C46.624 112.232 48.568 107.816 49.6 104.384ZM42.112 114.248C46.648 114.104 53.68 113.768 59.968 113.456L59.896 116.264C53.728 116.696 47.056 117.056 42.496 117.296L42.112 114.248ZM54.256 109.688L57.064 108.392C59.176 110.984 61.432 114.392 62.584 116.696L59.608 118.28C58.6 115.976 56.272 112.328 54.256 109.688ZM47.056 96.176L50.344 97.088C48.808 100.88 46.288 104.6 43.84 106.904C43.216 106.304 41.824 105.248 41.032 104.768C43.528 102.8 45.808 99.512 47.056 96.176ZM56.728 96.2C58.144 99.032 60.88 102.392 63.088 104.408C62.296 105.008 61.192 106.16 60.64 106.928C58.384 104.504 55.624 100.712 53.848 97.376L56.728 96.2ZM82.192 97.544H84.784C84.328 101.456 83.272 105.416 78.856 107.744C78.544 107.096 77.8 106.16 77.224 105.704C81.112 103.856 81.832 100.544 82.192 97.544ZM78.04 101.648L79.384 99.656C81.76 100.376 84.568 101.696 86.176 102.728L84.808 104.936C83.248 103.808 80.392 102.392 78.04 101.648ZM87.664 96.56H90.352C90.352 96.56 90.352 97.28 90.328 97.616C90.088 103.088 89.848 105.344 89.2 106.112C88.744 106.712 88.288 106.928 87.592 107.024C87.016 107.12 86.032 107.12 84.976 107.096C84.952 106.304 84.664 105.224 84.28 104.528C85.096 104.6 85.816 104.6 86.176 104.6C86.488 104.624 86.704 104.552 86.896 104.312C87.28 103.856 87.496 102.032 87.664 96.992V96.56ZM80.68 109.496H83.32V114.752C83.32 115.424 83.368 115.496 83.824 115.496C84.04 115.496 84.832 115.496 85.072 115.496C85.528 115.496 85.624 115.208 85.696 112.976C86.2 113.408 87.328 113.816 88.048 114.008C87.784 117.176 87.088 117.992 85.36 117.992C84.928 117.992 83.824 117.992 83.368 117.992C81.136 117.992 80.68 117.2 80.68 114.8V109.496ZM78.232 110.432L80.488 111.032C80.272 113.192 79.816 115.472 78.664 116.888L76.552 115.592C77.536 114.392 78.016 112.4 78.232 110.432ZM81.208 107.84L82.864 106.184C84.4 106.952 86.296 108.2 87.184 109.208L85.408 111.08C84.568 110.096 82.744 108.728 81.208 107.84ZM86.512 110.816L88.84 109.88C90.088 111.704 91.144 114.152 91.456 115.856L88.936 116.888C88.672 115.208 87.688 112.664 86.512 110.816ZM78.352 96.56H88.888V98.96H78.352V96.56ZM69.64 102.992H76.672V105.152H69.64V102.992ZM69.712 96.368H76.6V98.552H69.712V96.368ZM69.64 106.256H76.672V108.44H69.64V106.256ZM68.536 99.608H77.32V101.888H68.536V99.608ZM70.888 109.592H76.696V116.888H70.888V114.608H74.296V111.872H70.888V109.592ZM69.592 109.592H71.944V117.848H69.592V109.592ZM97.216 97.232H118.144V100.184H97.216V97.232ZM108.808 105.272L111.04 103.4C113.608 105.272 117.304 108.032 119.056 109.952L116.608 112.16C115.024 110.264 111.472 107.312 108.808 105.272ZM107.848 98.312L111.064 99.44C108.328 104.504 103.96 109.4 98.44 112.28C97.984 111.512 97.072 110.312 96.472 109.664C101.608 107.24 105.856 102.584 107.848 98.312ZM106.096 104.12L109.264 100.976V118.112H106.096V104.12ZM124.912 111.152H136.12V113.192H124.912V111.152ZM124.36 99.728H136.36V101.816H124.36V99.728ZM129.136 98.024H131.728V115.232H129.136V98.024ZM124.24 114.968C127.216 114.752 131.8 114.416 136.12 114.032L136.144 116.216C132.064 116.648 127.696 117.08 124.576 117.368L124.24 114.968ZM127.288 107.312V108.416H133.624V107.312H127.288ZM127.288 104.552V105.632H133.624V104.552H127.288ZM124.984 102.752H136V110.216H124.984V102.752ZM134.824 95.744L136.096 97.904C133.024 98.528 128.656 98.888 125.056 98.96C124.96 98.384 124.696 97.472 124.432 96.92C128.008 96.752 132.184 96.32 134.824 95.744ZM136.36 101.048H144.664V103.688H136.36V101.048ZM143.512 101.048H146.272C146.272 101.048 146.248 101.984 146.248 102.32C146.032 112.208 145.84 115.712 145.048 116.792C144.52 117.608 143.968 117.872 143.176 118.016C142.432 118.16 141.304 118.16 140.176 118.112C140.104 117.32 139.792 116.144 139.336 115.376C140.368 115.472 141.28 115.472 141.76 115.472C142.12 115.472 142.36 115.4 142.576 115.064C143.128 114.344 143.32 110.96 143.512 101.672V101.048ZM138.664 96.032H141.424C141.4 106.28 141.376 113.984 135.832 118.352C135.424 117.656 134.488 116.672 133.84 116.192C138.904 112.328 138.64 105.608 138.664 96.032ZM159.568 106.976H172.816V109.184H159.568V106.976ZM159.064 111.008H172.12V113.192H159.064V111.008ZM157.192 115.304H174.088V117.704H157.192V115.304ZM164.104 105.2H166.936V116.792H164.104V105.2ZM159.664 105.08L162.232 105.68C161.488 107.792 160.192 109.856 158.92 111.176C158.392 110.768 157.288 110.096 156.64 109.808C157.96 108.656 159.088 106.856 159.664 105.08ZM155.584 102.368H174.28V104.84H155.584V102.368ZM153.808 97.376H173.056V99.824H153.808V97.376ZM161.968 95.6H164.848V98.816H161.968V95.6ZM154 102.368H156.76V106.28C156.76 109.664 156.328 114.8 154.048 118.112C153.616 117.584 152.416 116.6 151.84 116.264C153.808 113.336 154 109.136 154 106.256V102.368ZM157.48 99.968L160.072 99.272C160.6 100.184 161.104 101.384 161.272 102.2L158.488 102.944C158.368 102.152 157.936 100.904 157.48 99.968ZM166.84 99.032L170.128 99.728C169.408 100.952 168.688 102.152 168.16 102.944L165.784 102.248C166.168 101.312 166.624 99.992 166.84 99.032ZM182.944 98.96C183.856 99.056 185.08 99.128 185.92 99.128H198.016C198.712 99.128 199.696 99.08 200.104 99.056C200.08 99.632 200.032 100.568 200.032 101.288V113.72C200.032 114.56 200.104 115.808 200.152 116.552H196.672C196.696 115.832 196.72 114.968 196.72 114.08V102.224H185.92C184.912 102.224 183.616 102.272 182.944 102.32V98.96ZM182.656 111.992C183.472 112.064 184.552 112.136 185.632 112.136H198.616V115.304H185.728C184.792 115.304 183.448 115.352 182.656 115.448V111.992ZM212.824 97.76C214.48 98.888 217.6 101.384 219.016 102.848L216.568 105.344C215.32 104 212.296 101.384 210.544 100.184L212.824 97.76ZM209.8 113.744C213.568 113.216 216.664 111.992 218.992 110.624C223.096 108.176 226.216 104.528 227.752 101.288L229.6 104.648C227.8 107.912 224.608 111.224 220.744 113.552C218.296 115.016 215.2 116.336 211.84 116.912L209.8 113.744ZM252.832 105.416C252.832 111.344 251.392 114.968 245.584 117.536L243.016 115.112C247.672 113.504 249.688 111.416 249.688 105.512V99.128C249.688 98.168 249.64 97.376 249.544 96.92H252.976C252.928 97.4 252.832 98.168 252.832 99.128V105.416ZM244.144 97.112C244.096 97.568 244 98.336 244 99.296V107.864C244 108.944 244.072 109.928 244.12 110.384H240.76C240.808 109.928 240.88 108.944 240.88 107.864V99.272C240.88 98.6 240.832 97.856 240.736 97.112H244.144ZM236.248 101.432C236.68 101.504 237.664 101.672 238.84 101.672H254.584C255.856 101.672 256.576 101.6 257.248 101.504V104.696C256.72 104.624 255.856 104.624 254.608 104.624H238.84C237.64 104.624 236.8 104.672 236.248 104.696V101.432ZM274.768 115.472C274.888 115.016 274.96 114.368 274.96 113.72C274.96 112.448 274.96 101.672 274.96 99.728C274.96 98.648 274.792 97.712 274.792 97.664H278.344C278.344 97.712 278.176 98.672 278.176 99.752C278.176 101.672 278.176 110.816 278.176 112.28C280.144 111.44 282.496 109.544 284.128 107.216L285.952 109.88C283.96 112.472 280.528 115.064 277.816 116.432C277.312 116.696 277.024 116.96 276.784 117.128L274.768 115.472ZM263.656 115.136C265.792 113.648 267.088 111.44 267.736 109.376C268.432 107.336 268.456 102.776 268.456 99.896C268.456 98.912 268.36 98.288 268.216 97.688H271.744C271.744 97.784 271.576 98.864 271.576 99.848C271.576 102.704 271.504 107.768 270.88 110.192C270.136 112.88 268.648 115.256 266.584 117.08L263.656 115.136ZM295.384 97.616C296.152 97.712 297.136 97.784 297.952 97.784C299.464 97.784 306.184 97.784 307.6 97.784C308.392 97.784 309.352 97.712 310.168 97.616V100.712C309.352 100.664 308.416 100.616 307.6 100.616C306.184 100.616 299.464 100.616 297.952 100.616C297.136 100.616 296.104 100.664 295.384 100.712V97.616ZM292.576 103.736C293.296 103.832 294.136 103.88 294.88 103.88C296.392 103.88 309.184 103.88 310.6 103.88C311.104 103.88 312.16 103.856 312.808 103.736V106.856C312.184 106.832 311.272 106.808 310.6 106.808C309.184 106.808 296.392 106.808 294.88 106.808C294.184 106.808 293.248 106.832 292.576 106.88V103.736ZM304.864 105.416C304.864 108.56 304.312 110.96 303.28 112.952C302.464 114.632 300.592 116.48 298.48 117.584L295.648 115.544C297.352 114.872 299.056 113.504 299.992 112.088C301.192 110.264 301.528 108.008 301.528 105.44L304.864 105.416ZM319.514 109.184C322.658 108.488 326.21 106.88 328.106 105.728C330.458 104.312 332.858 102.176 334.106 100.616L336.482 102.944C335.042 104.504 332.138 106.76 329.522 108.296C327.362 109.568 323.666 111.176 320.93 111.992L319.514 109.184ZM327.842 107.624L331.106 107V115.52C331.106 116.384 331.13 117.656 331.274 118.136H327.698C327.77 117.656 327.842 116.384 327.842 115.52V107.624ZM350.594 97.76C352.25 98.888 355.37 101.384 356.786 102.848L354.338 105.344C353.09 104 350.066 101.384 348.314 100.184L350.594 97.76ZM347.57 113.744C351.338 113.216 354.434 111.992 356.762 110.624C360.866 108.176 363.986 104.528 365.522 101.288L367.37 104.648C365.57 107.912 362.378 111.224 358.514 113.552C356.066 115.016 352.97 116.336 349.61 116.912L347.57 113.744ZM391.346 96.344C391.946 97.232 392.786 98.744 393.242 99.632L391.322 100.472C390.818 99.488 390.074 98.048 389.426 97.136L391.346 96.344ZM394.178 95.264C394.802 96.176 395.69 97.688 396.122 98.528L394.202 99.344C393.698 98.36 392.93 96.944 392.282 96.056L394.178 95.264ZM393.482 101.624C393.218 102.104 392.882 102.752 392.69 103.352C392.042 105.488 390.674 108.704 388.514 111.368C386.234 114.152 383.33 116.36 378.818 118.136L375.986 115.616C380.906 114.128 383.57 112.04 385.658 109.664C387.29 107.792 388.682 104.912 389.066 103.136H380.978L382.082 100.4C383.162 100.4 388.178 100.4 388.946 100.4C389.69 100.4 390.482 100.304 391.034 100.112L393.482 101.624ZM385.658 97.832C385.106 98.672 384.482 99.776 384.194 100.28C382.586 103.184 379.706 106.568 376.274 108.92L373.562 106.928C377.786 104.36 379.874 101.264 381.074 99.2C381.434 98.624 381.938 97.496 382.154 96.68L385.658 97.832ZM423.338 100.88C423.002 101.264 422.714 101.6 422.522 101.888C420.65 104.984 417.098 109.304 413.378 112.04L410.978 109.832C414.146 107.624 416.834 104.36 418.082 102.152C415.97 102.152 407.234 102.152 405.41 102.152C404.426 102.152 403.13 102.272 402.626 102.344V98.96C403.274 99.08 404.57 99.2 405.41 99.2C406.922 99.2 416.138 99.2 418.706 99.2C419.642 99.2 420.434 99.104 420.962 98.936L423.338 100.88ZM410.69 112.4C409.274 110.984 406.826 108.8 405.41 107.792L407.93 105.728C409.226 106.712 411.626 108.656 413.45 110.408C415.034 111.944 416.93 113.936 418.082 115.328L415.25 117.584C414.266 116.24 412.25 113.984 410.69 112.4ZM448.322 99.752C448.13 100.016 447.698 100.736 447.482 101.24C446.498 103.52 444.722 106.784 442.658 109.184C439.97 112.28 436.346 115.256 432.626 117.008L430.13 114.416C434.018 112.976 437.714 110.048 439.97 107.552C441.554 105.752 443.018 103.376 443.57 101.672C442.562 101.672 436.442 101.672 435.41 101.672C434.426 101.672 433.106 101.792 432.578 101.84V98.408C433.226 98.504 434.714 98.576 435.41 98.576C436.682 98.576 442.826 98.576 443.882 98.576C444.938 98.576 445.874 98.456 446.378 98.288L448.322 99.752ZM442.97 107.192C445.442 109.208 448.85 112.784 450.41 114.704L447.674 117.08C445.898 114.608 443.282 111.752 440.714 109.424L442.97 107.192ZM466.442 104.768C469.394 106.472 473.834 109.544 476.066 111.32L473.762 114.056C471.674 112.088 467.114 108.728 464.306 106.952L466.442 104.768ZM477.746 100.688C477.458 101.144 477.146 101.816 476.93 102.416C476.21 104.624 474.746 107.696 472.586 110.36C470.33 113.168 467.258 115.856 462.674 117.584L459.89 115.184C464.906 113.624 467.762 111.104 469.826 108.704C471.434 106.808 472.922 104.048 473.378 102.176H465.266L466.37 99.464H473.21C473.954 99.464 474.746 99.344 475.298 99.176L477.746 100.688ZM469.802 96.992C469.226 97.832 468.602 98.936 468.314 99.44C466.706 102.344 463.634 106.016 460.178 108.392L457.61 106.4C461.81 103.808 464.018 100.52 465.242 98.432C465.602 97.856 466.106 96.752 466.322 95.912L469.802 96.992ZM486.194 104.888C487.082 104.96 488.81 105.056 490.058 105.056C492.89 105.056 500.81 105.056 502.946 105.056C504.074 105.056 505.13 104.936 505.778 104.888V108.68C505.202 108.656 503.978 108.536 502.97 108.536C500.786 108.536 492.89 108.536 490.058 108.536C488.714 108.536 487.106 108.608 486.194 108.68V104.888Z" fill="white"/>
<path d="M616.56 116.336C613.2 116.336 610.176 113.624 610.176 107.36C610.176 100.76 613.464 97.928 617.064 97.928C619.224 97.928 620.808 98.816 621.888 99.944L619.992 102.032C619.392 101.336 618.288 100.76 617.28 100.76C615.12 100.76 613.416 102.416 613.416 107.36C613.416 111.968 614.76 113.672 616.512 113.672C617.832 113.672 618.912 112.568 618.912 110.408C618.912 108.296 617.904 107.336 616.392 107.336C615.408 107.336 614.28 107.864 613.392 109.328L613.248 106.928C614.184 105.608 615.84 104.84 617.04 104.84C620.016 104.84 622.152 106.592 622.152 110.408C622.152 114.056 619.584 116.336 616.56 116.336ZM633.116 116.336C629.756 116.336 626.732 113.624 626.732 107.36C626.732 100.76 630.02 97.928 633.62 97.928C635.78 97.928 637.364 98.816 638.444 99.944L636.548 102.032C635.948 101.336 634.844 100.76 633.836 100.76C631.676 100.76 629.972 102.416 629.972 107.36C629.972 111.968 631.316 113.672 633.068 113.672C634.388 113.672 635.468 112.568 635.468 110.408C635.468 108.296 634.46 107.336 632.948 107.336C631.964 107.336 630.836 107.864 629.948 109.328L629.804 106.928C630.74 105.608 632.396 104.84 633.596 104.84C636.572 104.84 638.708 106.592 638.708 110.408C638.708 114.056 636.14 116.336 633.116 116.336ZM651.256 114.608H662.009V117.224H651.256V114.608ZM650.056 97.976H658.553V100.52H650.056V97.976ZM650.68 95.48L653.92 96.128C651.88 99.632 649 102.848 644.68 105.44C644.272 104.72 643.312 103.664 642.664 103.16C646.624 101.072 649.288 98.144 650.68 95.48ZM657.64 97.976H658.192L658.673 97.832L660.665 98.888C657.856 106.352 651.448 111.248 644.296 113.648C643.936 112.856 643.216 111.68 642.616 111.08C649.24 109.16 655.432 104.504 657.64 98.456V97.976ZM646.912 103.256L649.048 101.384C650.704 102.56 652.888 104.264 653.944 105.512L651.616 107.6C650.704 106.352 648.568 104.504 646.912 103.256ZM660.665 107.288H663.665V118.184H660.665V107.288ZM652.48 107.288H662.105V109.904H652.48V118.136H649.6V109.424L651.784 107.288H652.48Z" fill="#130F31"/>
<rect y="444" width="549" height="66" fill="#333333"/>
<rect x="557" y="444" width="160" height="66" fill="#F2F2F2"/>
<path d="M57.712 466.56C58.312 467.448 59.152 468.96 59.608 469.848L57.688 470.688C57.184 469.704 56.464 468.288 55.816 467.352L57.712 466.56ZM60.544 465.48C61.168 466.392 62.056 467.904 62.488 468.744L60.568 469.584C60.088 468.576 59.296 467.184 58.648 466.272L60.544 465.48ZM47.344 467.616C47.248 468.336 47.176 469.416 47.176 470.112C47.176 471.576 47.176 480.408 47.176 482.208C47.176 483.264 47.656 483.528 48.736 483.72C49.456 483.84 50.44 483.864 51.496 483.864C54.016 483.864 57.88 483.576 59.872 483.048V486.552C57.592 486.888 53.968 487.032 51.328 487.032C49.768 487.032 48.304 486.936 47.272 486.768C45.208 486.384 43.984 485.256 43.984 483.168C43.984 480.408 43.984 471.6 43.984 470.112C43.984 469.56 43.912 468.336 43.816 467.616H47.344ZM45.76 474.984C48.856 474.312 52.96 473.016 55.48 471.984C56.32 471.624 57.136 471.24 58.096 470.688L59.368 473.712C58.456 474.096 57.376 474.552 56.584 474.864C53.752 475.944 49.048 477.36 45.784 478.128L45.76 474.984ZM79.888 485.472C80.008 485.016 80.08 484.368 80.08 483.72C80.08 482.448 80.08 471.672 80.08 469.728C80.08 468.648 79.912 467.712 79.912 467.664H83.464C83.464 467.712 83.296 468.672 83.296 469.752C83.296 471.672 83.296 480.816 83.296 482.28C85.264 481.44 87.616 479.544 89.248 477.216L91.072 479.88C89.08 482.472 85.648 485.064 82.936 486.432C82.432 486.696 82.144 486.96 81.904 487.128L79.888 485.472ZM68.776 485.136C70.912 483.648 72.208 481.44 72.856 479.376C73.552 477.336 73.576 472.776 73.576 469.896C73.576 468.912 73.48 468.288 73.336 467.688H76.864C76.864 467.784 76.696 468.864 76.696 469.848C76.696 472.704 76.624 477.768 76 480.192C75.256 482.88 73.768 485.256 71.704 487.08L68.776 485.136ZM105.808 466.728H116.08V469.2H105.808V466.728ZM106.696 479.616H117.904V482.16H106.696V479.616ZM105.232 484.968H118.912V487.512H105.232V484.968ZM115.24 466.728H115.792L116.32 466.632L118.24 467.472C116.344 473.16 112.024 476.328 106.624 478.032C106.288 477.312 105.592 476.208 105.04 475.632C109.816 474.408 113.824 471.456 115.24 467.184V466.728ZM109.528 468.888C111.184 472.176 114.688 474.576 119.248 475.56C118.648 476.112 117.88 477.192 117.496 477.888C112.648 476.592 109.12 473.808 107.008 469.704L109.528 468.888ZM110.776 476.76H113.608V486.6H110.776V476.76ZM100 465.648L102.496 466.584C101.512 468.408 100.408 470.544 99.472 471.888L97.552 471.048C98.416 469.632 99.448 467.328 100 465.648ZM102.76 468.48L105.088 469.536C103.36 472.296 101.008 475.632 99.184 477.72L97.528 476.784C99.304 474.6 101.512 471.072 102.76 468.48ZM96.304 471.336L97.672 469.368C98.944 470.472 100.432 471.984 101.056 473.088L99.568 475.32C98.992 474.168 97.528 472.488 96.304 471.336ZM102.04 474.216L103.936 473.424C104.872 475.032 105.784 477.144 106.072 478.536L104.032 479.448C103.768 478.056 102.952 475.872 102.04 474.216ZM96.28 476.208C98.488 476.136 101.728 476.016 104.896 475.872L104.872 478.152C101.92 478.368 98.848 478.56 96.52 478.728L96.28 476.208ZM102.568 480.192L104.584 479.544C105.184 480.912 105.808 482.712 106.072 483.912L103.96 484.656C103.72 483.456 103.096 481.608 102.568 480.192ZM97.312 479.736L99.688 480.144C99.448 482.448 98.92 484.848 98.224 486.384C97.72 486.072 96.64 485.568 96.04 485.328C96.736 483.912 97.12 481.776 97.312 479.736ZM100 477.48H102.52V488.184H100V477.48ZM131.944 475.104V476.808H139.072V475.104H131.944ZM129.28 472.992H141.88V478.896H129.28V472.992ZM133.792 478.008L137.08 478.2C136.6 479.496 136 480.72 135.568 481.584L133.048 481.224C133.36 480.264 133.672 478.968 133.792 478.008ZM127.264 480.36H144.16V488.208H141.28V482.832H130V488.208H127.264V480.36ZM128.8 484.944H142.504V487.416H128.8V484.944ZM125.416 469.368H145.888V474.504H143.104V471.816H128.032V474.504H125.416V469.368ZM141.52 465.744L144.616 466.68C143.584 468.048 142.504 469.44 141.64 470.352L139.312 469.464C140.08 468.432 141.016 466.896 141.52 465.744ZM126.736 467.016L129.232 465.96C130.048 466.872 130.984 468.144 131.368 469.032L128.728 470.184C128.392 469.32 127.528 467.976 126.736 467.016ZM132.76 466.416L135.28 465.528C135.952 466.488 136.768 467.856 137.104 468.744L134.44 469.728C134.152 468.84 133.408 467.424 132.76 466.416ZM158.44 485.424H170.152V487.536H158.44V485.424ZM161.872 470.664H164.656V473.544H161.872V470.664ZM153.016 472.32H173.896V477.096H171.088V474.48H155.728V477.096H153.016V472.32ZM158.344 475.488H170.104V480.864H158.344V478.8H167.224V477.552H158.344V475.488ZM158.464 481.944H171.928V488.184H169.048V484.056H158.464V481.944ZM156.76 475.488H159.496V488.208H156.76V475.488ZM155.44 467.304H163V469.56H155.44V467.304ZM165.16 467.304H174.472V469.56H165.16V467.304ZM155.536 465.432L158.224 466.152C157.288 468.312 155.752 470.496 154.336 471.864C153.784 471.432 152.632 470.664 151.984 470.328C153.424 469.128 154.792 467.256 155.536 465.432ZM165.304 465.432L168.04 466.104C167.176 468.168 165.688 470.16 164.248 471.408C163.672 470.976 162.448 470.352 161.728 470.04C163.264 468.936 164.608 467.184 165.304 465.432ZM156.328 469.056L158.776 468.408C159.376 469.224 160.048 470.376 160.336 471.144L157.744 471.888C157.528 471.144 156.904 469.92 156.328 469.056ZM167.056 469.128L169.576 468.456C170.272 469.248 171.112 470.4 171.496 471.168L168.832 471.912C168.52 471.192 167.728 469.968 167.056 469.128ZM191.512 473.352V475.416H198.784V473.352H191.512ZM191.512 469.08V471.096H198.784V469.08H191.512ZM188.92 466.632H201.52V477.84H188.92V466.632ZM188.752 479.904H201.784V482.496H188.752V479.904ZM187.072 484.8H202.576V487.392H187.072V484.8ZM180.04 466.992H188.008V469.68H180.04V466.992ZM180.28 473.904H187.6V476.568H180.28V473.904ZM179.776 483.024C181.84 482.496 184.912 481.536 187.792 480.6L188.296 483.36C185.608 484.272 182.728 485.208 180.424 485.952L179.776 483.024ZM182.704 468.048H185.44V482.808L182.704 483.24V468.048ZM193.984 467.664H196.408V476.712H196.672V486.024H193.72V476.712H193.984V467.664ZM209.464 484.2H228.736V487.08H209.464V484.2ZM208.144 472.824H230.008V475.68H208.144V472.824ZM217.432 465.672H220.528V486.216H217.432V465.672Z" fill="white"/>
<path d="M610.944 486V483.144H614.784V471.912H611.544V469.728C613.344 469.392 614.544 468.936 615.696 468.24H618.312V483.144H621.648V486H610.944ZM633.116 486.336C629.756 486.336 626.732 483.624 626.732 477.36C626.732 470.76 630.02 467.928 633.62 467.928C635.78 467.928 637.364 468.816 638.444 469.944L636.548 472.032C635.948 471.336 634.844 470.76 633.836 470.76C631.676 470.76 629.972 472.416 629.972 477.36C629.972 481.968 631.316 483.672 633.068 483.672C634.388 483.672 635.468 482.568 635.468 480.408C635.468 478.296 634.46 477.336 632.948 477.336C631.964 477.336 630.836 477.864 629.948 479.328L629.804 476.928C630.74 475.608 632.396 474.84 633.596 474.84C636.572 474.84 638.708 476.592 638.708 480.408C638.708 484.056 636.14 486.336 633.116 486.336ZM651.256 484.608H662.009V487.224H651.256V484.608ZM650.056 467.976H658.553V470.52H650.056V467.976ZM650.68 465.48L653.92 466.128C651.88 469.632 649 472.848 644.68 475.44C644.272 474.72 643.312 473.664 642.664 473.16C646.624 471.072 649.288 468.144 650.68 465.48ZM657.64 467.976H658.192L658.673 467.832L660.665 468.888C657.856 476.352 651.448 481.248 644.296 483.648C643.936 482.856 643.216 481.68 642.616 481.08C649.24 479.16 655.432 474.504 657.64 468.456V467.976ZM646.912 473.256L649.048 471.384C650.704 472.56 652.888 474.264 653.944 475.512L651.616 477.6C650.704 476.352 648.568 474.504 646.912 473.256ZM660.665 477.288H663.665V488.184H660.665V477.288ZM652.48 477.288H662.105V479.904H652.48V488.136H649.6V479.424L651.784 477.288H652.48Z" fill="#130F31"/>
</svg>
