<svg width="400" height="400" viewBox="0 0 400 400" fill="none" xmlns="http://www.w3.org/2000/svg">
<rect width="400" height="400" fill="white"/>
<path d="M211.582 182.568C210.988 182.397 210.369 182.741 210.2 183.336C210.078 183.768 209.815 184.144 209.465 184.413C209.114 184.681 208.682 184.839 208.205 184.841C207.723 184.839 207.29 184.68 206.935 184.407C206.584 184.136 206.321 183.754 206.202 183.317C206.038 182.722 205.423 182.372 204.828 182.537C204.231 182.702 203.882 183.316 204.046 183.911C204.299 184.827 204.842 185.616 205.57 186.178C206.295 186.74 207.216 187.077 208.205 187.077C209.185 187.077 210.1 186.745 210.823 186.19C211.548 185.635 212.092 184.855 212.351 183.949C212.52 183.355 212.176 182.737 211.582 182.568Z" fill="#77A7DA"/>
<path d="M195.952 183.949C196.121 183.357 195.777 182.737 195.183 182.568C194.591 182.397 193.971 182.741 193.802 183.336C193.678 183.768 193.415 184.144 193.065 184.413C192.714 184.681 192.283 184.839 191.805 184.841C191.323 184.839 190.89 184.68 190.537 184.407C190.184 184.136 189.923 183.754 189.803 183.317C189.639 182.722 189.025 182.372 188.428 182.537C187.831 182.702 187.482 183.316 187.647 183.911C187.9 184.827 188.442 185.616 189.17 186.178C189.895 186.74 190.817 187.077 191.805 187.077C192.786 187.077 193.701 186.745 194.425 186.19C195.15 185.636 195.693 184.855 195.952 183.949Z" fill="#77A7DA"/>
<path d="M205.844 192.792C204.514 194.636 202.352 195.786 200 195.784C197.652 195.786 195.488 194.634 194.156 192.792C193.794 192.292 193.096 192.178 192.594 192.541C192.093 192.901 191.981 193.602 192.343 194.101C194.089 196.516 196.918 198.019 200 198.02C203.087 198.02 205.914 196.516 207.657 194.101C208.019 193.6 207.905 192.901 207.405 192.54C206.905 192.178 206.206 192.292 205.844 192.792Z" fill="#77A7DA"/>
<path d="M231.662 183.26C230.521 159.852 203.709 148 200.001 148C196.292 148 169.48 159.852 168.338 183.26C167.314 204.271 171.762 252 200.001 252C228.239 252 232.687 204.271 231.662 183.26ZM197.251 164.949C198.087 164.841 198.938 164.783 199.805 164.783C200.979 164.783 202.127 164.888 203.245 165.084C203.36 165.216 203.48 165.368 203.599 165.549C204.104 166.314 204.613 167.517 204.616 169.419C204.616 170.858 204.314 172.704 203.459 175.03C200.763 172.86 199.227 170.865 198.358 169.218C197.413 167.425 197.242 166.038 197.242 165.236C197.242 165.129 197.245 165.034 197.251 164.949ZM195.327 165.289C195.331 166.374 195.585 168.071 196.664 170.114C197.146 171.028 197.793 172.008 198.653 173.037C197.793 172.691 196.934 172.367 196.127 172.027C194.737 171.442 193.518 170.787 192.692 169.914C192.276 169.478 191.949 168.99 191.717 168.397C191.527 167.905 191.402 167.332 191.364 166.653C192.621 166.067 193.944 165.606 195.327 165.289ZM216.986 226.054C216.573 226.514 215.866 226.553 215.407 226.142L194.288 207.246C195.595 207.565 196.943 207.77 198.326 207.858L203.271 212.282L208.814 206.087C209.873 205.64 210.89 205.117 211.862 204.523C212.244 204.941 212.261 205.589 211.875 206.021L204.938 213.774L216.897 224.476C217.358 224.887 217.398 225.593 216.986 226.054ZM224.572 189.444C223.892 190.12 222.97 190.533 221.936 190.535C221.51 190.535 221.099 190.459 220.702 190.32L219.189 189.788L218.662 191.302C217.309 195.203 214.775 198.559 211.49 200.936C208.201 203.314 204.175 204.713 199.805 204.714C195.454 204.713 191.442 203.327 188.163 200.968C184.885 198.609 182.349 195.279 180.981 191.406L180.485 190.004L179.053 190.396C178.724 190.486 178.398 190.535 178.064 190.535C177.031 190.533 176.107 190.12 175.429 189.443C174.752 188.764 174.338 187.842 174.336 186.807C174.338 185.775 174.752 184.851 175.429 184.173C176.108 183.496 177.031 183.082 178.064 183.08C178.129 183.08 178.227 183.086 178.361 183.096L179.843 183.213L180.065 181.744C180.789 176.946 183.22 172.707 186.727 169.664C187.603 168.904 188.545 168.218 189.543 167.62C189.629 168.161 189.763 168.669 189.948 169.136C190.242 169.874 190.656 170.516 191.146 171.064C192.002 172.024 193.076 172.699 194.196 173.254C195.878 174.081 197.696 174.653 199.223 175.366C199.986 175.721 200.673 176.106 201.238 176.549C201.802 176.994 202.244 177.49 202.558 178.093C202.727 178.418 203.064 178.618 203.43 178.607C203.798 178.599 204.125 178.384 204.278 178.052C205.935 174.46 206.532 171.636 206.533 169.419C206.534 167.906 206.25 166.681 205.849 165.716C208.475 166.551 210.864 167.909 212.898 169.677C216.405 172.728 218.835 176.978 219.55 181.786L219.786 183.372L221.372 183.129C221.582 183.098 221.768 183.08 221.936 183.08C222.971 183.081 223.892 183.496 224.572 184.173C225.249 184.851 225.663 185.774 225.663 186.807C225.663 187.842 225.249 188.764 224.572 189.444Z" fill="#77A7DA"/>
<circle cx="200" cy="200" r="81.5" stroke="#77A7DA" stroke-width="5"/>
</svg>
