<svg width="400" height="400" viewBox="0 0 400 400" fill="none" xmlns="http://www.w3.org/2000/svg">
<rect width="400" height="400" fill="white"/>
<path d="M160.8 296.54L161.1 298.68C160.48 298.86 159.86 299.06 159.22 299.24V304.1C159.22 305.2 159.02 305.78 158.4 306.16C157.82 306.54 156.94 306.62 155.66 306.6C155.6 306.02 155.34 305.04 155.04 304.4C155.78 304.44 156.46 304.44 156.7 304.42C156.94 304.42 157.04 304.34 157.04 304.08V299.86L154.98 300.46L154.46 298.18C155.18 298 156.06 297.78 157.04 297.54V294.04H154.78V291.84H157.04V288.08H159.22V291.84H160.92V294.04H159.22V296.98L160.8 296.54ZM162.5 301.28L164.38 300.22C165.22 301.22 166.22 302.64 166.62 303.62L164.6 304.78C164.24 303.8 163.32 302.34 162.5 301.28ZM173.36 296.4H171.02V297.98H173.22V300.14H171.02V304.22C171.02 305.42 170.8 306 170.02 306.36C169.3 306.7 168.22 306.74 166.8 306.74C166.7 306.08 166.4 305.14 166.12 304.5C167.02 304.54 168.06 304.54 168.36 304.52C168.68 304.52 168.76 304.46 168.76 304.18V300.14H161.4V297.98H168.76V296.4H161.22V294.24H166.18V292.5H162.08V290.34H166.18V288.16H168.44V290.34H172.48V292.5H168.44V294.24H173.36V296.4ZM178.7 291.8V294.1H176.36V289.64H183.56V288.08H186V289.64H193.32V294.1H190.88V291.8H178.7ZM191.46 295.22L193.32 296.82C192.18 297.68 190.8 298.58 189.64 299.24C190.74 301 192.22 302.42 194.1 303.26C193.58 303.72 192.82 304.66 192.44 305.32C188.88 303.42 186.9 299.74 185.76 295.08H185.72C185.22 295.5 184.66 295.88 184.06 296.24C187.82 299.52 187.68 304.5 185.7 305.94C184.96 306.58 184.3 306.78 183.26 306.78C182.76 306.8 182.14 306.78 181.56 306.74C181.52 306.08 181.32 305.12 180.88 304.46C181.64 304.52 182.28 304.56 182.8 304.56C183.3 304.56 183.68 304.5 184 304.14C184.46 303.78 184.74 302.96 184.66 301.9C182.48 303.5 179.52 305 177.02 305.86C176.74 305.26 176.22 304.4 175.78 303.88C178.66 303.16 182.14 301.52 184.12 299.84C184 299.6 183.88 299.36 183.74 299.14C182.04 300.28 179.58 301.48 177.68 302.14C177.42 301.62 176.92 300.8 176.48 300.34C178.5 299.86 181.16 298.76 182.66 297.74C182.5 297.58 182.34 297.42 182.16 297.26C180.64 297.96 179 298.54 177.42 298.96C177.18 298.5 176.58 297.56 176.2 297.1C178.34 296.68 180.56 295.98 182.32 295.08H179.4V293.08H190.14V295.08H187.86C188.08 295.88 188.36 296.66 188.68 297.4C189.68 296.72 190.74 295.9 191.46 295.22Z" fill="#066AD5"/>
<path d="M231.773 305.636C228.561 305.636 225.697 305.045 223.182 303.864C220.682 302.682 218.697 301.053 217.227 298.977C215.758 296.902 214.992 294.523 214.932 291.841H224.477C224.583 293.644 225.341 295.106 226.75 296.227C228.159 297.348 229.833 297.909 231.773 297.909C233.318 297.909 234.682 297.568 235.864 296.886C237.061 296.189 237.992 295.227 238.659 294C239.341 292.758 239.682 291.333 239.682 289.727C239.682 288.091 239.333 286.652 238.636 285.409C237.955 284.167 237.008 283.197 235.795 282.5C234.583 281.803 233.197 281.447 231.636 281.432C230.273 281.432 228.947 281.712 227.659 282.273C226.386 282.833 225.394 283.598 224.682 284.568L215.932 283L218.136 258.455H246.591V266.5H226.25L225.045 278.159H225.318C226.136 277.008 227.371 276.053 229.023 275.295C230.674 274.538 232.523 274.159 234.568 274.159C237.371 274.159 239.871 274.818 242.068 276.136C244.265 277.455 246 279.265 247.273 281.568C248.545 283.856 249.174 286.492 249.159 289.477C249.174 292.614 248.447 295.402 246.977 297.841C245.523 300.265 243.485 302.174 240.864 303.568C238.258 304.947 235.227 305.636 231.773 305.636ZM275.583 305.636C272.371 305.636 269.507 305.045 266.992 303.864C264.492 302.682 262.507 301.053 261.037 298.977C259.568 296.902 258.802 294.523 258.742 291.841H268.287C268.393 293.644 269.151 295.106 270.56 296.227C271.969 297.348 273.643 297.909 275.583 297.909C277.128 297.909 278.492 297.568 279.674 296.886C280.871 296.189 281.802 295.227 282.469 294C283.151 292.758 283.492 291.333 283.492 289.727C283.492 288.091 283.143 286.652 282.446 285.409C281.765 284.167 280.818 283.197 279.605 282.5C278.393 281.803 277.007 281.447 275.446 281.432C274.083 281.432 272.757 281.712 271.469 282.273C270.196 282.833 269.204 283.598 268.492 284.568L259.742 283L261.946 258.455H290.401V266.5H270.06L268.855 278.159H269.128C269.946 277.008 271.181 276.053 272.833 275.295C274.484 274.538 276.333 274.159 278.378 274.159C281.181 274.159 283.681 274.818 285.878 276.136C288.075 277.455 289.81 279.265 291.083 281.568C292.355 283.856 292.984 286.492 292.969 289.477C292.984 292.614 292.257 295.402 290.787 297.841C289.333 300.265 287.295 302.174 284.674 303.568C282.068 304.947 279.037 305.636 275.583 305.636Z" fill="#066AD5"/>
<path d="M322.141 302.273V301.506C322.141 300.923 322.264 300.388 322.51 299.901C322.761 299.408 323.123 299.015 323.597 298.722C324.075 298.423 324.657 298.274 325.344 298.274C326.04 298.274 326.625 298.421 327.098 298.714C327.576 299.008 327.936 299.401 328.178 299.893C328.424 300.381 328.547 300.919 328.547 301.506V302.273C328.547 302.855 328.424 303.393 328.178 303.885C327.931 304.373 327.569 304.763 327.091 305.057C326.613 305.355 326.03 305.504 325.344 305.504C324.648 305.504 324.063 305.355 323.589 305.057C323.116 304.763 322.756 304.373 322.51 303.885C322.264 303.393 322.141 302.855 322.141 302.273ZM324.207 301.506V302.273C324.207 302.609 324.288 302.926 324.449 303.224C324.615 303.523 324.913 303.672 325.344 303.672C325.775 303.672 326.068 303.525 326.224 303.232C326.385 302.938 326.466 302.618 326.466 302.273V301.506C326.466 301.16 326.39 300.838 326.239 300.54C326.087 300.241 325.789 300.092 325.344 300.092C324.918 300.092 324.622 300.241 324.456 300.54C324.29 300.838 324.207 301.16 324.207 301.506ZM314.676 293.949V293.182C314.676 292.595 314.802 292.057 315.053 291.57C315.304 291.077 315.666 290.684 316.139 290.391C316.617 290.097 317.195 289.95 317.872 289.95C318.573 289.95 319.16 290.097 319.634 290.391C320.107 290.684 320.467 291.077 320.713 291.57C320.959 292.057 321.082 292.595 321.082 293.182V293.949C321.082 294.536 320.957 295.073 320.706 295.561C320.46 296.049 320.098 296.439 319.619 296.733C319.146 297.022 318.563 297.166 317.872 297.166C317.181 297.166 316.596 297.019 316.118 296.726C315.644 296.428 315.285 296.037 315.038 295.554C314.797 295.066 314.676 294.531 314.676 293.949ZM316.757 293.182V293.949C316.757 294.295 316.838 294.614 316.999 294.908C317.164 295.201 317.455 295.348 317.872 295.348C318.308 295.348 318.604 295.201 318.76 294.908C318.921 294.614 319.001 294.295 319.001 293.949V293.182C319.001 292.836 318.926 292.514 318.774 292.216C318.623 291.918 318.322 291.768 317.872 291.768C317.451 291.768 317.16 291.92 316.999 292.223C316.838 292.526 316.757 292.846 316.757 293.182ZM315.614 305L325.614 290.455H327.474L317.474 305H315.614Z" fill="#066AD5"/>
<path d="M80.5 354.08V353.28C79.38 353.34 78.28 353.36 77.24 353.38C77.18 352.98 76.98 352.32 76.78 351.92C79.88 351.82 83.5 351.56 85.64 351.16L86.84 352.62C85.66 352.84 84.26 353 82.78 353.12V354.08H87.86V355.74H82.78V356.66H87.2V358.3H76.46V356.66H80.5V355.74H75.8V354.08H80.5ZM72.66 358.44V355.64C72.12 356.04 71.58 356.4 71.06 356.7C70.68 356.24 69.86 355.36 69.34 354.96C71.28 354.06 73.3 352.6 74.48 351.06L76.64 351.88C76.14 352.52 75.56 353.18 74.9 353.8V358.44H72.66ZM74.82 364.52V365.34H83.44V364.52H74.82ZM74.82 362.44V363.24H83.44V362.44H74.82ZM74.82 360.38V361.16H83.44V360.38H74.82ZM85.86 366.7H82.72C84.66 367.32 86.78 368.12 88.08 368.68L85.22 369.74C84.1 369.14 82.1 368.3 80.1 367.64L81.82 366.7H76.28L77.86 367.42C76.2 368.4 73.66 369.3 71.62 369.8C71.24 369.34 70.4 368.5 69.9 368.1C71.76 367.78 73.8 367.28 75.2 366.7H72.52V359.02H85.86V366.7ZM94.08 357.76V355.32C93.36 355.82 92.62 356.26 91.92 356.64C91.54 356.18 90.74 355.3 90.24 354.94C92.4 354 94.62 352.52 95.9 350.92L98.06 351.72C97.58 352.34 97 352.94 96.36 353.52V357.76H94.08ZM95.56 364.08V364.96H104.24V364.08H95.56ZM95.56 361.88V362.74H104.24V361.88H95.56ZM95.56 359.68V360.54H104.24V359.68H95.56ZM106.64 366.38H103.18C105.22 367.1 107.52 368.06 108.88 368.72L106.12 369.78C104.98 369.12 102.94 368.18 100.92 367.42L102.72 366.38H96.88L98.7 367.18C97.04 368.26 94.48 369.24 92.46 369.8C92.04 369.34 91.2 368.48 90.7 368.06C92.64 367.7 94.82 367.06 96.2 366.38H93.26V358.26H105.62C103.6 358.04 101.74 356.86 100.5 355L97.12 355.2L96.94 353.44L99.64 353.28C99.4 352.6 99.22 351.86 99.12 351.06H101.34C101.44 351.82 101.68 352.52 102 353.16L105.12 352.98C104.36 352.66 103.42 352.36 102.64 352.16L103.7 351C104.8 351.2 106.34 351.68 107.14 352.12L106.44 352.9L108.5 352.78L108.68 354.5L103.24 354.82C104.18 355.72 105.32 356.24 106.4 356.24C106.92 356.22 107.06 355.9 107.16 354.88C107.6 355.24 108.36 355.56 108.9 355.7C108.64 357.7 108.02 358.22 106.64 358.3V366.38ZM120.6 357.84C122 357.84 123.16 359 123.16 360.4C123.16 361.8 122 362.96 120.6 362.96C119.2 362.96 118.04 361.8 118.04 360.4C118.04 359 119.2 357.84 120.6 357.84ZM140.9 362.36L139.46 364.3C139.04 363.74 138.36 362.94 137.68 362.2V369.74H135.32V362.84C134.52 363.58 133.68 364.24 132.84 364.76C132.64 364.12 132.08 362.96 131.72 362.5C133.9 361.32 136 359.22 137.3 356.92H132.48V354.76H135.32V351.08H137.68V354.76H138.58L139 354.66L140.34 355.52C139.74 357.04 138.94 358.48 137.98 359.8C138.94 360.58 140.48 361.96 140.9 362.36ZM146.66 366.84H150.92V369.16H139.6V366.84H144.22V359.52H140.42V357.22H144.22V351.24H146.66V357.22H150.44V359.52H146.66V366.84ZM156.08 355.06V357.52H153.66V352.82H160.88V351.08H163.4V352.82H170.76V357.52H168.22V355.06H156.08ZM164.12 367.26H167.52C168.6 367.26 168.78 366.84 168.94 364.5C169.48 364.92 170.58 365.32 171.3 365.48C170.98 368.7 170.24 369.6 167.72 369.6H163.86C160.94 369.6 160.14 368.84 160.14 366.28V363.8L153.52 364.5L153.24 362.2L160.14 361.52V359.5C158.72 359.72 157.3 359.9 155.94 360.04C155.86 359.44 155.52 358.5 155.24 357.96C159.14 357.5 163.34 356.72 165.9 355.62L167.76 357.58C166.3 358.16 164.58 358.64 162.76 359.02V361.26L170.82 360.46L171.1 362.66L162.76 363.54V366.24C162.76 367.14 162.94 367.26 164.12 367.26ZM192.12 361.9H188.14V363.1H191.52V365.1H188.14V367.26C188.14 368.44 187.9 369 187.04 369.36C186.2 369.7 185.06 369.72 183.58 369.72C183.44 369.04 183.04 368.12 182.72 367.5C183.74 367.54 184.94 367.54 185.26 367.54C185.58 367.54 185.68 367.46 185.68 367.22V365.1H179.74C180.7 365.82 181.66 366.72 182.16 367.42L180.32 368.9C179.76 368 178.46 366.76 177.3 365.9L178.36 365.1H174.68V363.1H185.68V361.9H173.92V359.88H181.74V358.74H175.94V356.78H181.74V355.82H182.94C182.52 355.56 182.08 355.28 181.78 355.12C182.04 354.92 182.28 354.68 182.5 354.44H179.82C180.08 354.9 180.3 355.36 180.42 355.7L178.38 356.54C178.24 355.98 177.84 355.16 177.46 354.44H177.26C176.66 355.32 176 356.1 175.4 356.72C174.94 356.34 173.96 355.68 173.42 355.4C174.72 354.32 175.9 352.6 176.6 350.9L178.88 351.5C178.74 351.84 178.58 352.16 178.4 352.5H182.78V354.12C183.58 353.2 184.24 352.04 184.64 350.9L186.92 351.48C186.82 351.8 186.66 352.16 186.5 352.5H192.02V354.44H188.7C189.02 354.9 189.3 355.36 189.46 355.7L187.42 356.56C187.2 356 186.7 355.16 186.18 354.44H185.4C185.02 355.02 184.64 355.54 184.22 355.98V356.78H190.28V358.74H184.22V359.88H192.12V361.9Z" fill="#066AD5"/>
<path d="M212.068 359.818V352.068L231.5 321.455H238.182V332.182H234.227L221.977 351.568V351.932H249.591V359.818H212.068ZM234.409 368V357.455L234.591 354.023V321.455H243.818V368H234.409ZM275.708 368.636C272.496 368.636 269.632 368.045 267.117 366.864C264.617 365.682 262.632 364.053 261.162 361.977C259.693 359.902 258.927 357.523 258.867 354.841H268.412C268.518 356.644 269.276 358.106 270.685 359.227C272.094 360.348 273.768 360.909 275.708 360.909C277.253 360.909 278.617 360.568 279.799 359.886C280.996 359.189 281.927 358.227 282.594 357C283.276 355.758 283.617 354.333 283.617 352.727C283.617 351.091 283.268 349.652 282.571 348.409C281.89 347.167 280.943 346.197 279.73 345.5C278.518 344.803 277.132 344.447 275.571 344.432C274.208 344.432 272.882 344.712 271.594 345.273C270.321 345.833 269.329 346.598 268.617 347.568L259.867 346L262.071 321.455H290.526V329.5H270.185L268.98 341.159H269.253C270.071 340.008 271.306 339.053 272.958 338.295C274.609 337.538 276.458 337.159 278.503 337.159C281.306 337.159 283.806 337.818 286.003 339.136C288.2 340.455 289.935 342.265 291.208 344.568C292.48 346.856 293.109 349.492 293.094 352.477C293.109 355.614 292.382 358.402 290.912 360.841C289.458 363.265 287.42 365.174 284.799 366.568C282.193 367.947 279.162 368.636 275.708 368.636Z" fill="#066AD5"/>
<path d="M322.141 365.273V364.506C322.141 363.923 322.264 363.388 322.51 362.901C322.761 362.408 323.123 362.015 323.597 361.722C324.075 361.423 324.657 361.274 325.344 361.274C326.04 361.274 326.625 361.421 327.098 361.714C327.576 362.008 327.936 362.401 328.178 362.893C328.424 363.381 328.547 363.919 328.547 364.506V365.273C328.547 365.855 328.424 366.393 328.178 366.885C327.931 367.373 327.569 367.763 327.091 368.057C326.613 368.355 326.03 368.504 325.344 368.504C324.648 368.504 324.063 368.355 323.589 368.057C323.116 367.763 322.756 367.373 322.51 366.885C322.264 366.393 322.141 365.855 322.141 365.273ZM324.207 364.506V365.273C324.207 365.609 324.288 365.926 324.449 366.224C324.615 366.523 324.913 366.672 325.344 366.672C325.775 366.672 326.068 366.525 326.224 366.232C326.385 365.938 326.466 365.618 326.466 365.273V364.506C326.466 364.16 326.39 363.838 326.239 363.54C326.087 363.241 325.789 363.092 325.344 363.092C324.918 363.092 324.622 363.241 324.456 363.54C324.29 363.838 324.207 364.16 324.207 364.506ZM314.676 356.949V356.182C314.676 355.595 314.802 355.057 315.053 354.57C315.304 354.077 315.666 353.684 316.139 353.391C316.617 353.097 317.195 352.95 317.872 352.95C318.573 352.95 319.16 353.097 319.634 353.391C320.107 353.684 320.467 354.077 320.713 354.57C320.959 355.057 321.082 355.595 321.082 356.182V356.949C321.082 357.536 320.957 358.073 320.706 358.561C320.46 359.049 320.098 359.439 319.619 359.733C319.146 360.022 318.563 360.166 317.872 360.166C317.181 360.166 316.596 360.019 316.118 359.726C315.644 359.428 315.285 359.037 315.038 358.554C314.797 358.066 314.676 357.531 314.676 356.949ZM316.757 356.182V356.949C316.757 357.295 316.838 357.614 316.999 357.908C317.164 358.201 317.455 358.348 317.872 358.348C318.308 358.348 318.604 358.201 318.76 357.908C318.921 357.614 319.001 357.295 319.001 356.949V356.182C319.001 355.836 318.926 355.514 318.774 355.216C318.623 354.918 318.322 354.768 317.872 354.768C317.451 354.768 317.16 354.92 316.999 355.223C316.838 355.526 316.757 355.846 316.757 356.182ZM315.614 368L325.614 353.455H327.474L317.474 368H315.614Z" fill="#066AD5"/>
<path fill-rule="evenodd" clip-rule="evenodd" d="M196 114V218C167.281 218 144 194.719 144 166C144 137.281 167.281 114 196 114Z" fill="#066AD5"/>
<path fill-rule="evenodd" clip-rule="evenodd" d="M204 114V218C232.719 218 256 194.719 256 166C256 137.281 232.719 114 204 114Z" fill="#E5F2FF"/>
</svg>
