<svg width="400" height="400" viewBox="0 0 400 400" fill="none" xmlns="http://www.w3.org/2000/svg">
<rect width="400" height="400" fill="white"/>
<mask id="mask0_482_848" style="mask-type:alpha" maskUnits="userSpaceOnUse" x="116" y="114" width="168" height="168">
<rect x="116" y="114" width="168" height="168" fill="#D9D9D9"/>
</mask>
<g mask="url(#mask0_482_848)">
<path d="M180.704 114L133 161.701V282H265.963V114H180.704ZM254.935 270.97H144.03V168.138H187.141V125.027H254.935V270.97Z" fill="#77A7DA"/>
<path d="M198.753 230.107C197.289 229.834 196.157 228.775 195.221 227.901C194.726 227.441 194.049 226.808 193.7 226.716C193.654 226.702 193.57 226.689 193.424 226.689C192.964 226.689 192.314 226.838 191.686 226.981C190.861 227.17 190.005 227.366 189.132 227.366C188.308 227.366 187.581 227.185 186.961 226.827C186.765 226.713 186.584 226.586 186.42 226.451L180.103 240.094L187.954 239.859L192.853 246L199.481 231.682L200.212 230.107C199.977 230.154 199.733 230.178 199.481 230.178C199.23 230.178 198.986 230.154 198.753 230.107Z" fill="#77A7DA"/>
<path d="M212.004 226.824C211.385 227.184 210.654 227.366 209.834 227.366C209.834 227.366 209.834 227.366 209.831 227.366C208.957 227.366 208.104 227.17 207.279 226.981C206.651 226.838 206.002 226.689 205.538 226.689C205.395 226.689 205.308 226.702 205.262 226.715C204.914 226.807 204.237 227.441 203.744 227.901C203.511 228.118 203.267 228.346 203.011 228.57L200.526 233.936L206.11 246L211.011 239.859L218.863 240.094L212.543 226.447C212.378 226.586 212.199 226.71 212.004 226.824Z" fill="#77A7DA"/>
<path d="M199.482 192.148C192.307 192.148 186.49 197.965 186.49 205.14C186.49 212.315 192.307 218.132 199.482 218.132C206.657 218.132 212.474 212.315 212.474 205.14C212.474 197.965 206.657 192.148 199.482 192.148Z" fill="#77A7DA"/>
<path d="M219.226 210.433C219.707 208.633 222.623 207.093 222.623 205.141C222.623 203.19 219.707 201.65 219.226 199.85C218.728 197.988 220.468 195.197 219.526 193.568C218.568 191.914 215.274 192.033 213.931 190.691C212.589 189.351 212.708 186.055 211.054 185.096C209.426 184.155 206.634 185.895 204.773 185.397C202.975 184.918 201.433 182 199.481 182C197.533 182 195.99 184.918 194.19 185.397C192.33 185.895 189.54 184.155 187.908 185.096C186.257 186.055 186.373 189.351 185.033 190.691C183.691 192.033 180.394 191.914 179.439 193.568C178.494 195.197 180.237 197.988 179.74 199.85C179.257 201.65 176.34 203.19 176.34 205.141C176.34 207.093 179.257 208.633 179.74 210.433C180.237 212.295 178.494 215.086 179.439 216.715C180.394 218.369 183.691 218.249 185.033 219.591C185.65 220.209 185.957 221.238 186.27 222.261C186.536 223.132 186.806 224.001 187.272 224.61C187.45 224.846 187.659 225.043 187.908 225.186C189.537 226.128 192.33 224.388 194.19 224.886C195.34 225.192 196.385 226.491 197.497 227.392C198.125 227.901 198.778 228.283 199.481 228.283C200.185 228.283 200.837 227.901 201.467 227.392C202.559 226.51 203.584 225.243 204.705 224.907C204.726 224.899 204.751 224.891 204.773 224.886C206.634 224.388 209.426 226.129 211.054 225.186C211.303 225.043 211.515 224.843 211.694 224.607C212.706 223.278 212.792 220.729 213.931 219.592C215.274 218.249 218.568 218.369 219.526 216.715C220.468 215.086 218.728 212.295 219.226 210.433ZM199.481 220.569C199.181 220.569 198.883 220.561 198.588 220.542C194.877 220.331 191.518 218.81 188.969 216.43C185.942 213.613 184.053 209.599 184.053 205.141C184.053 196.621 190.961 189.713 199.481 189.713C208.002 189.713 214.908 196.621 214.908 205.141C214.908 213.662 208.002 220.569 199.481 220.569Z" fill="#77A7DA"/>
</g>
</svg>
