<svg width="256" height="256" viewBox="0 0 256 256" fill="none" xmlns="http://www.w3.org/2000/svg">
<path d="M153.953 196.311H223.834V125.871H153.953V196.311ZM206.675 134.214H217.426V144.965H206.675V134.214ZM206.675 148.835H217.426V159.586H206.675V148.835ZM206.675 164.703H217.426V175.454H206.675V164.703ZM191.237 134.214H201.988V144.965H191.237V134.214ZM191.237 148.835H201.988V159.586H191.237V148.835ZM191.237 164.703H201.988V175.454H191.237V164.703ZM175.799 134.214H186.55V144.965H175.799V134.214ZM175.799 148.835H186.55V159.586H175.799V148.835ZM175.799 164.703H186.55V175.454H175.799V164.703ZM160.361 134.214H171.112V144.965H160.361V134.214ZM160.361 148.835H171.112V159.586H160.361V148.835ZM160.361 164.703H171.112V175.454H160.361V164.703Z" fill="white"/>
<path d="M27.1348 196.311H97.0155V125.871H27.1348V196.311ZM79.8571 134.214H90.608V144.965H79.8571V134.214ZM79.8571 148.835H90.608V159.586H79.8571V148.835ZM79.8571 164.703H90.608V175.454H79.8571V164.703ZM64.4188 134.214H75.1697V144.965H64.4188V134.214ZM64.4188 148.835H75.1697V159.586H64.4188V148.835ZM64.4188 164.703H75.1697V175.454H64.4188V164.703ZM48.9806 134.214H59.7314V144.965H48.9806V134.214ZM48.9806 148.835H59.7314V159.586H48.9806V148.835ZM48.9806 164.703H59.7314V175.454H48.9806V164.703ZM33.5423 134.214H44.2932V144.965H33.5423V134.214ZM33.5423 148.835H44.2932V159.586H33.5423V148.835ZM33.5423 164.703H44.2932V175.454H33.5423V164.703Z" fill="white"/>
<path d="M134.128 196.827V169.692C134.128 164.918 130.258 161.048 125.485 161.048C120.711 161.048 116.841 164.918 116.841 169.692V196.827H134.171H134.128Z" fill="white"/>
<path d="M125.485 156.705C132.623 156.705 138.429 162.51 138.429 169.649V196.784H148.836V74.267L125.442 50.873L102.048 74.267V196.827H112.455V169.692C112.455 162.51 118.26 156.748 125.399 156.748L125.485 156.705ZM125.485 73.9229C132.279 73.9229 137.741 79.4274 137.741 86.1789C137.741 92.9305 132.236 98.4349 125.485 98.4349C118.733 98.4349 113.229 92.9305 113.229 86.1789C113.229 79.4274 118.733 73.9229 125.485 73.9229Z" fill="white"/>
<path d="M126.559 78.0518H124.409V87.2545H132.924V85.1043H126.559V78.0518Z" fill="white"/>
</svg>
