<svg width="832" height="288" viewBox="0 0 832 288" fill="none" xmlns="http://www.w3.org/2000/svg">
<rect y="222" width="160" height="66" fill="#333333"/>
<rect x="168" y="222" width="160" height="66" fill="#F2F2F2"/>
<rect x="504" y="222" width="160" height="66" fill="#F2F2F2"/>
<rect x="672" y="222" width="160" height="66" fill="#F2F2F2"/>
<rect x="336" y="222" width="160" height="66" fill="#F2F2F2"/>
<path d="M581.464 264C581.776 257.832 582.808 253.896 586.192 249.192H578.2V246.216H590.008V248.376C585.88 253.416 585.328 257.04 585.04 264H581.464Z" fill="#130F31"/>
<path d="M33.032 264V261.96C37.856 257.64 40.712 254.304 40.712 251.568C40.712 249.768 39.752 248.688 38.048 248.688C36.752 248.688 35.696 249.528 34.784 250.512L32.864 248.592C34.496 246.84 36.08 245.904 38.504 245.904C41.864 245.904 44.096 248.064 44.096 251.376C44.096 254.592 41.432 258.048 38.192 261.216C39.08 261.12 40.256 261.024 41.096 261.024H44.936V264H33.032ZM57.0528 264.336C53.4288 264.336 51.0288 261.168 51.0288 255.048C51.0288 248.904 53.4288 245.904 57.0528 245.904C60.6768 245.904 63.0528 248.928 63.0528 255.048C63.0528 261.168 60.6768 264.336 57.0528 264.336ZM57.0528 261.576C58.5888 261.576 59.7168 260.04 59.7168 255.048C59.7168 250.08 58.5888 248.64 57.0528 248.64C55.5168 248.64 54.3648 250.08 54.3648 255.048C54.3648 260.04 55.5168 261.576 57.0528 261.576ZM68.9776 264V261.96C73.8016 257.64 76.6576 254.304 76.6576 251.568C76.6576 249.768 75.6976 248.688 73.9936 248.688C72.6976 248.688 71.6416 249.528 70.7296 250.512L68.8096 248.592C70.4416 246.84 72.0256 245.904 74.4496 245.904C77.8096 245.904 80.0416 248.064 80.0416 251.376C80.0416 254.592 77.3776 258.048 74.1376 261.216C75.0256 261.12 76.2016 261.024 77.0416 261.024H80.8816V264H68.9776ZM86.9504 264V261.96C91.7744 257.64 94.6304 254.304 94.6304 251.568C94.6304 249.768 93.6704 248.688 91.9664 248.688C90.6704 248.688 89.6144 249.528 88.7024 250.512L86.7824 248.592C88.4144 246.84 89.9984 245.904 92.4224 245.904C95.7824 245.904 98.0144 248.064 98.0144 251.376C98.0144 254.592 95.3504 258.048 92.1104 261.216C92.9984 261.12 94.1744 261.024 95.0144 261.024H98.8544V264H86.9504ZM111.571 258.24H115.723V254.592H111.571V258.24ZM126.883 258.24V260.976H118.675V266.112H115.723V260.976H104.923V258.24H108.715V251.928H115.723V249.072H110.587C109.603 250.776 108.451 252.312 107.323 253.44C106.771 252.96 105.547 252 104.851 251.592C107.011 249.768 108.859 246.696 109.891 243.6L112.795 244.344C112.579 245.016 112.315 245.664 112.003 246.312H125.563V249.072H118.675V251.928H125.011V254.592H118.675V258.24H126.883Z" fill="white"/>
<path d="M718.056 264.336C714.672 264.336 712.128 262.368 712.128 259.584C712.128 257.304 713.52 255.816 715.176 254.952V254.832C713.808 253.848 712.824 252.504 712.824 250.608C712.824 247.752 715.104 245.928 718.176 245.928C721.32 245.928 723.336 247.824 723.336 250.656C723.336 252.408 722.232 253.872 721.056 254.712V254.832C722.688 255.72 724.032 257.16 724.032 259.584C724.032 262.272 721.656 264.336 718.056 264.336ZM719.184 253.848C720.048 252.936 720.456 251.928 720.456 250.872C720.456 249.432 719.592 248.4 718.104 248.4C716.904 248.4 715.944 249.192 715.944 250.608C715.944 252.288 717.312 253.104 719.184 253.848ZM718.152 261.84C719.664 261.84 720.744 261 720.744 259.464C720.744 257.616 719.112 256.848 716.808 255.912C715.848 256.68 715.176 257.88 715.176 259.2C715.176 260.808 716.496 261.84 718.152 261.84ZM734.157 264.336C731.349 264.336 729.477 263.232 728.157 261.912L729.789 259.656C730.797 260.64 732.045 261.456 733.701 261.456C735.549 261.456 736.845 260.28 736.845 258.192C736.845 256.128 735.645 254.976 733.845 254.976C732.789 254.976 732.213 255.24 731.181 255.912L729.573 254.856L730.053 246.216H739.557V249.192H733.101L732.765 252.96C733.485 252.624 734.085 252.456 734.901 252.456C737.877 252.456 740.373 254.232 740.373 258.096C740.373 262.056 737.445 264.336 734.157 264.336ZM747.954 264.336C746.706 264.336 745.77 263.328 745.77 262.032C745.77 260.712 746.706 259.728 747.954 259.728C749.226 259.728 750.162 260.712 750.162 262.032C750.162 263.328 749.226 264.336 747.954 264.336ZM758.734 264C759.046 257.832 760.078 253.896 763.462 249.192H755.47V246.216H767.278V248.376C763.15 253.416 762.598 257.04 762.31 264H758.734ZM775.891 257.16C773.347 257.16 771.571 255.072 771.571 251.496C771.571 247.944 773.347 245.904 775.891 245.904C778.435 245.904 780.235 247.944 780.235 251.496C780.235 255.072 778.435 257.16 775.891 257.16ZM775.891 255.168C776.923 255.168 777.739 254.112 777.739 251.496C777.739 248.88 776.923 247.896 775.891 247.896C774.859 247.896 774.067 248.88 774.067 251.496C774.067 254.112 774.859 255.168 775.891 255.168ZM776.491 264.336L786.139 245.904H788.227L778.579 264.336H776.491ZM788.803 264.336C786.283 264.336 784.483 262.224 784.483 258.672C784.483 255.096 786.283 253.056 788.803 253.056C791.323 253.056 793.147 255.096 793.147 258.672C793.147 262.224 791.323 264.336 788.803 264.336ZM788.803 262.32C789.835 262.32 790.651 261.288 790.651 258.672C790.651 256.056 789.835 255.048 788.803 255.048C787.771 255.048 786.979 256.056 786.979 258.672C786.979 261.288 787.771 262.32 788.803 262.32Z" fill="#130F31"/>
<rect x="504" width="160" height="66" fill="#F2F2F2"/>
<path d="M248.392 255.312C247.432 255.312 246.304 255.84 245.488 257.184C245.824 260.424 247.024 261.672 248.512 261.672C249.832 261.672 250.936 260.568 250.936 258.384C250.936 256.296 249.928 255.312 248.392 255.312ZM248.584 264.336C245.2 264.336 242.2 261.624 242.2 255.36C242.2 248.736 245.488 245.904 249.064 245.904C251.248 245.904 252.808 246.816 253.888 247.92L252.016 250.032C251.392 249.312 250.312 248.736 249.28 248.736C247.24 248.736 245.56 250.272 245.416 254.736C246.376 253.536 247.912 252.816 249.064 252.816C252.04 252.816 254.152 254.592 254.152 258.384C254.152 262.032 251.608 264.336 248.584 264.336Z" fill="#130F31"/>
<path d="M410.968 264V261.144H414.784V249.912H411.568V247.728C413.344 247.392 414.568 246.936 415.696 246.216H418.312V261.144H421.648V264H410.968Z" fill="#130F31"/>
<path d="M575.776 36.792H566.296V40.704H575.776V36.792ZM563.488 44.112V34.272H578.704V44.112H575.776V43.224H566.296V44.112H563.488ZM566.152 29.376H575.848C573.856 27.816 572.08 26.088 570.928 24.504C569.8 26.112 568.12 27.816 566.152 29.376ZM569.32 21.696H572.272C574.84 25.368 578.728 28.416 582.544 29.952C581.848 30.696 581.2 31.632 580.696 32.52C579.472 31.896 578.224 31.104 577.024 30.24V31.896H565.072V30.216C563.896 31.08 562.624 31.872 561.352 32.568C560.968 31.872 560.176 30.84 559.552 30.24C563.68 28.248 567.52 24.624 569.32 21.696ZM595.096 22.416V24.576H587.488V22.416H595.096ZM596.008 25.632V27.888H586.192V25.632H596.008ZM592.48 37.824H589.744V40.584H592.48V37.824ZM594.976 35.568V42.816H589.744V43.752H587.272V35.568H594.976ZM587.344 34.392V32.256H595.048V34.392H587.344ZM587.344 31.152V28.968H595.048V31.152H587.344ZM608.824 29.688V32.52H603.808V44.088H600.928V32.52H595.912V29.688H600.928V21.768H603.808V29.688H608.824Z" fill="#130F31"/>
<rect x="672" width="160" height="66" fill="#F2F2F2"/>
<rect width="160" height="66" fill="#333333"/>
<rect x="504" y="148" width="160" height="66" fill="#F2F2F2"/>
<rect x="168" width="160" height="66" fill="#F2F2F2"/>
<path d="M718.56 26.808V30.096H715.752V24.096H724.464V21.696H727.488V24.096H736.272V30.096H733.32V26.808H718.56ZM727.464 37.272V40.848C728.328 40.944 729.24 40.992 730.2 40.992C731.496 40.992 735.456 40.992 737.064 40.92C736.656 41.616 736.2 42.984 736.056 43.824H730.056C725.64 43.824 722.352 43.104 720.144 39.696C719.376 41.52 718.32 43.056 716.952 44.232C716.472 43.728 715.272 42.72 714.6 42.288C717.192 40.368 718.368 37.056 718.8 32.952L721.776 33.24C721.632 34.32 721.464 35.328 721.248 36.288C721.968 38.208 723.096 39.36 724.512 40.056V31.584H719.4V28.872H732.6V31.584H727.464V34.584H734.064V37.272H727.464ZM757.944 35.544H749.568V36.408H757.944V35.544ZM749.568 41.328H757.944V40.44H749.568V41.328ZM757.944 38.856V37.992H749.568V38.856H757.944ZM762.984 32.568H749.496C749.376 32.904 749.256 33.216 749.112 33.528H760.92V44.04H757.944V43.344H749.568V44.04H746.712V37.68C745.632 39.12 744.384 40.368 743.064 41.352C742.608 40.776 741.552 39.696 740.928 39.216C743.304 37.728 745.248 35.328 746.424 32.568H741.816V30.336H750.912V29.304H744.096V27.24H750.912V26.232H742.896V24.024H746.904C746.616 23.472 746.256 22.896 745.872 22.416L748.392 21.624C749.016 22.32 749.664 23.28 749.928 23.976L749.808 24.024H755.088L754.92 23.976C755.376 23.28 755.928 22.296 756.168 21.624L759.288 22.368C758.808 22.992 758.352 23.544 757.944 24.024H762.024V26.232H753.816V27.24H760.776V29.304H753.816V30.336H762.984V32.568ZM774.24 33.48L775.512 33.432C775.968 33 776.424 32.544 776.88 32.088C776.016 31.344 774.864 30.504 773.856 29.832L772.104 31.32C771.36 30.552 769.776 29.4 768.504 28.68L770.4 27.12C771.504 27.72 772.968 28.656 773.856 29.4L774.96 28.08L775.536 28.416C775.92 27.84 776.328 27.168 776.664 26.568H768.816V24.024H777.264V21.696H780.192V24.024H788.856V26.568H778.92L779.448 26.76C778.704 27.72 777.912 28.704 777.216 29.52C777.648 29.832 778.056 30.12 778.416 30.408C779.232 29.424 780 28.464 780.6 27.6L782.832 28.632C781.512 30.192 779.904 31.872 778.368 33.312L780.84 33.192C780.576 32.736 780.264 32.304 779.976 31.896L781.992 31.056C782.376 31.56 782.808 32.136 783.192 32.712L784.656 31.536C786.312 32.352 788.544 33.672 789.672 34.608L787.608 36.312C786.792 35.592 785.256 34.536 783.792 33.696C784.152 34.32 784.44 34.92 784.608 35.424L782.448 36.384C782.328 36.024 782.16 35.616 781.944 35.184C779.04 35.448 776.112 35.664 773.808 35.832L773.52 34.176C772.008 34.92 770.424 35.664 769.128 36.24L767.784 33.936C769.296 33.456 771.6 32.568 773.808 31.704L774.24 33.48ZM785.328 31.056L783.24 29.928C784.32 29.112 785.664 27.864 786.48 26.88L789.024 28.104C787.8 29.232 786.408 30.312 785.328 31.056ZM780.192 35.64V37.176H789.6V39.816H780.192V44.088H777.264V39.816H768.048V37.176H777.264V35.64H780.192Z" fill="#130F31"/>
<path d="M581.2 177.832C581.2 179.92 582.184 180.904 583.72 180.904C584.704 180.904 585.832 180.352 586.648 178.984C586.336 175.768 585.112 174.568 583.6 174.568C582.28 174.568 581.2 175.648 581.2 177.832ZM583.12 190.336C580.912 190.336 579.304 189.4 578.248 188.32L580.12 186.184C580.768 186.904 581.848 187.456 582.904 187.456C584.896 187.456 586.528 185.944 586.696 181.504C585.76 182.704 584.248 183.424 583.048 183.424C580.096 183.424 577.96 181.6 577.96 177.832C577.96 174.184 580.504 171.904 583.552 171.904C586.912 171.904 589.936 174.544 589.936 180.712C589.936 187.432 586.648 190.336 583.12 190.336Z" fill="#130F31"/>
<rect x="336" width="160" height="66" fill="#F2F2F2"/>
<rect x="504" y="74" width="160" height="66" fill="#F2F2F2"/>
<rect x="672" y="148" width="160" height="66" fill="#F2F2F2"/>
<path d="M228.24 29.064V30.744H232.464V29.064H228.24ZM228.24 25.2V26.856H232.464V25.2H228.24ZM239.64 26.856V25.2H235.344V26.856H239.64ZM239.64 30.744V29.064H235.344V30.744H239.64ZM234.72 34.752H243.456C243.456 34.752 243.408 35.52 243.36 35.904C242.976 40.272 242.496 42.24 241.728 43.008C241.056 43.68 240.336 43.872 239.328 43.944C238.488 44.016 237.024 43.992 235.512 43.968C235.464 43.152 235.08 42.072 234.576 41.352C236.064 41.472 237.576 41.496 238.224 41.496C238.728 41.496 239.016 41.472 239.28 41.256C239.712 40.896 240.072 39.696 240.336 37.32H234.024C232.824 40.416 230.28 42.744 224.232 44.064C224.016 43.32 223.32 42.192 222.744 41.568C227.424 40.656 229.656 39.24 230.784 37.32H223.776V34.752H231.72C231.816 34.224 231.912 33.672 231.984 33.096H225.384V22.848H242.64V33.096H234.984C234.912 33.672 234.816 34.2 234.72 34.752ZM267.264 40.608H272.928V43.32H258V40.608H264.408V35.808H259.776V33.144H264.408V29.208H261.768C261.408 30.456 260.928 31.608 260.424 32.52C259.848 32.16 258.552 31.512 257.88 31.224C258.12 30.792 258.36 30.336 258.6 29.832L257.232 30.456C257.088 29.736 256.728 28.68 256.32 27.696V44.088H253.464V26.928C253.32 28.944 252.936 31.584 252.384 33.288L250.272 32.52C250.848 30.936 251.28 28.248 251.448 26.28L253.464 26.568V21.672H256.32V26.208L257.712 25.632C258.192 26.568 258.696 27.72 259.032 28.656C259.632 26.904 260.064 24.84 260.304 22.8L263.088 23.184C262.92 24.312 262.728 25.44 262.488 26.52H264.408V21.816H267.264V26.52H272.16V29.208H267.264V33.144H271.656V35.808H267.264V40.608Z" fill="#130F31"/>
<path d="M584.392 107.312C583.432 107.312 582.304 107.84 581.488 109.184C581.824 112.424 583.024 113.672 584.512 113.672C585.832 113.672 586.936 112.568 586.936 110.384C586.936 108.296 585.928 107.312 584.392 107.312ZM584.584 116.336C581.2 116.336 578.2 113.624 578.2 107.36C578.2 100.736 581.488 97.904 585.064 97.904C587.248 97.904 588.808 98.816 589.888 99.92L588.016 102.032C587.392 101.312 586.312 100.736 585.28 100.736C583.24 100.736 581.56 102.272 581.416 106.736C582.376 105.536 583.912 104.816 585.064 104.816C588.04 104.816 590.152 106.592 590.152 110.384C590.152 114.032 587.608 116.336 584.584 116.336Z" fill="#130F31"/>
<path d="M407.104 29.976H400.792C400.168 31.536 399.52 33.048 398.92 34.464C400.552 35.04 402.352 35.736 404.152 36.528C405.52 34.896 406.456 32.76 407.104 29.976ZM413.92 29.976H410.368C409.648 33.312 408.64 35.88 407.152 37.872C409.648 39.072 411.952 40.368 413.536 41.52L411.352 44.208C409.816 42.984 407.464 41.568 404.848 40.224C402.256 42.264 398.704 43.416 393.856 44.136C393.592 43.224 392.944 42.048 392.344 41.28C396.376 40.824 399.376 40.056 401.632 38.664C400.336 38.064 399.04 37.512 397.768 37.008L397.36 37.896L394.48 36.84C395.392 34.968 396.472 32.544 397.528 29.976H392.152V27.072H398.704C399.424 25.2 400.12 23.352 400.696 21.696L403.84 22.224C403.264 23.76 402.64 25.416 401.968 27.072H413.92V29.976ZM434.824 40.608H440.488V43.32H425.56V40.608H431.968V35.808H427.336V33.144H431.968V29.208H429.328C428.968 30.456 428.488 31.608 427.984 32.52C427.408 32.16 426.112 31.512 425.44 31.224C425.68 30.792 425.92 30.336 426.16 29.832L424.792 30.456C424.648 29.736 424.288 28.68 423.88 27.696V44.088H421.024V26.928C420.88 28.944 420.496 31.584 419.944 33.288L417.832 32.52C418.408 30.936 418.84 28.248 419.008 26.28L421.024 26.568V21.672H423.88V26.208L425.272 25.632C425.752 26.568 426.256 27.72 426.592 28.656C427.192 26.904 427.624 24.84 427.864 22.8L430.648 23.184C430.48 24.312 430.288 25.44 430.048 26.52H431.968V21.816H434.824V26.52H439.72V29.208H434.824V33.144H439.216V35.808H434.824V40.608Z" fill="#130F31"/>
<path d="M717.968 190V187.144H721.784V175.912H718.568V173.728C720.344 173.392 721.568 172.936 722.696 172.216H725.312V187.144H728.648V190H717.968ZM739.613 190.336C735.989 190.336 733.589 187.168 733.589 181.048C733.589 174.904 735.989 171.904 739.613 171.904C743.237 171.904 745.613 174.928 745.613 181.048C745.613 187.168 743.237 190.336 739.613 190.336ZM739.613 187.576C741.149 187.576 742.277 186.04 742.277 181.048C742.277 176.08 741.149 174.64 739.613 174.64C738.077 174.64 736.925 176.08 736.925 181.048C736.925 186.04 738.077 187.576 739.613 187.576ZM756.146 190.336C752.522 190.336 750.122 187.168 750.122 181.048C750.122 174.904 752.522 171.904 756.146 171.904C759.77 171.904 762.146 174.928 762.146 181.048C762.146 187.168 759.77 190.336 756.146 190.336ZM756.146 187.576C757.682 187.576 758.81 186.04 758.81 181.048C758.81 176.08 757.682 174.64 756.146 174.64C754.61 174.64 753.458 176.08 753.458 181.048C753.458 186.04 754.61 187.576 756.146 187.576ZM770.686 183.16C768.142 183.16 766.366 181.072 766.366 177.496C766.366 173.944 768.142 171.904 770.686 171.904C773.23 171.904 775.03 173.944 775.03 177.496C775.03 181.072 773.23 183.16 770.686 183.16ZM770.686 181.168C771.718 181.168 772.534 180.112 772.534 177.496C772.534 174.88 771.718 173.896 770.686 173.896C769.654 173.896 768.862 174.88 768.862 177.496C768.862 180.112 769.654 181.168 770.686 181.168ZM771.286 190.336L780.934 171.904H783.022L773.374 190.336H771.286ZM783.598 190.336C781.078 190.336 779.278 188.224 779.278 184.672C779.278 181.096 781.078 179.056 783.598 179.056C786.118 179.056 787.942 181.096 787.942 184.672C787.942 188.224 786.118 190.336 783.598 190.336ZM783.598 188.32C784.63 188.32 785.446 187.288 785.446 184.672C785.446 182.056 784.63 181.048 783.598 181.048C782.566 181.048 781.774 182.056 781.774 184.672C781.774 187.288 782.566 188.32 783.598 188.32Z" fill="#130F31"/>
<rect y="148" width="160" height="66" fill="#333333"/>
<rect x="168" y="148" width="160" height="66" fill="#F2F2F2"/>
<rect x="672" y="74" width="160" height="66" fill="#F2F2F2"/>
<rect x="336" y="148" width="160" height="66" fill="#F2F2F2"/>
<path d="M33.032 190V187.96C37.856 183.64 40.712 180.304 40.712 177.568C40.712 175.768 39.752 174.688 38.048 174.688C36.752 174.688 35.696 175.528 34.784 176.512L32.864 174.592C34.496 172.84 36.08 171.904 38.504 171.904C41.864 171.904 44.096 174.064 44.096 177.376C44.096 180.592 41.432 184.048 38.192 187.216C39.08 187.12 40.256 187.024 41.096 187.024H44.936V190H33.032ZM57.0528 190.336C53.4288 190.336 51.0288 187.168 51.0288 181.048C51.0288 174.904 53.4288 171.904 57.0528 171.904C60.6768 171.904 63.0528 174.928 63.0528 181.048C63.0528 187.168 60.6768 190.336 57.0528 190.336ZM57.0528 187.576C58.5888 187.576 59.7168 186.04 59.7168 181.048C59.7168 176.08 58.5888 174.64 57.0528 174.64C55.5168 174.64 54.3648 176.08 54.3648 181.048C54.3648 186.04 55.5168 187.576 57.0528 187.576ZM68.9776 190V187.96C73.8016 183.64 76.6576 180.304 76.6576 177.568C76.6576 175.768 75.6976 174.688 73.9936 174.688C72.6976 174.688 71.6416 175.528 70.7296 176.512L68.8096 174.592C70.4416 172.84 72.0256 171.904 74.4496 171.904C77.8096 171.904 80.0416 174.064 80.0416 177.376C80.0416 180.592 77.3776 184.048 74.1376 187.216C75.0256 187.12 76.2016 187.024 77.0416 187.024H80.8816V190H68.9776ZM92.4944 190.336C89.6864 190.336 87.7904 189.28 86.5424 187.864L88.1984 185.632C89.2544 186.664 90.5504 187.456 92.1584 187.456C93.9584 187.456 95.1824 186.568 95.1824 184.96C95.1824 183.232 94.1504 182.128 90.2864 182.128V179.608C93.5504 179.608 94.6064 178.48 94.6064 176.896C94.6064 175.504 93.7424 174.688 92.2304 174.688C90.9584 174.688 89.9264 175.264 88.8704 176.248L87.0704 174.088C88.6064 172.744 90.3104 171.904 92.3984 171.904C95.8304 171.904 98.1584 173.608 98.1584 176.632C98.1584 178.552 97.0784 179.944 95.2064 180.688V180.808C97.1984 181.36 98.7344 182.848 98.7344 185.176C98.7344 188.44 95.8784 190.336 92.4944 190.336ZM111.571 184.24H115.723V180.592H111.571V184.24ZM126.883 184.24V186.976H118.675V192.112H115.723V186.976H104.923V184.24H108.715V177.928H115.723V175.072H110.587C109.603 176.776 108.451 178.312 107.323 179.44C106.771 178.96 105.547 178 104.851 177.592C107.011 175.768 108.859 172.696 109.891 169.6L112.795 170.344C112.579 171.016 112.315 171.664 112.003 172.312H125.563V175.072H118.675V177.928H125.011V180.592H118.675V184.24H126.883Z" fill="white"/>
<path d="M717.968 116V113.144H721.784V101.912H718.568V99.728C720.344 99.392 721.568 98.936 722.696 98.216H725.312V113.144H728.648V116H717.968ZM739.613 116.336C735.989 116.336 733.589 113.168 733.589 107.048C733.589 100.904 735.989 97.904 739.613 97.904C743.237 97.904 745.613 100.928 745.613 107.048C745.613 113.168 743.237 116.336 739.613 116.336ZM739.613 113.576C741.149 113.576 742.277 112.04 742.277 107.048C742.277 102.08 741.149 100.64 739.613 100.64C738.077 100.64 736.925 102.08 736.925 107.048C736.925 112.04 738.077 113.576 739.613 113.576ZM756.146 116.336C752.522 116.336 750.122 113.168 750.122 107.048C750.122 100.904 752.522 97.904 756.146 97.904C759.77 97.904 762.146 100.928 762.146 107.048C762.146 113.168 759.77 116.336 756.146 116.336ZM756.146 113.576C757.682 113.576 758.81 112.04 758.81 107.048C758.81 102.08 757.682 100.64 756.146 100.64C754.61 100.64 753.458 102.08 753.458 107.048C753.458 112.04 754.61 113.576 756.146 113.576ZM770.686 109.16C768.142 109.16 766.366 107.072 766.366 103.496C766.366 99.944 768.142 97.904 770.686 97.904C773.23 97.904 775.03 99.944 775.03 103.496C775.03 107.072 773.23 109.16 770.686 109.16ZM770.686 107.168C771.718 107.168 772.534 106.112 772.534 103.496C772.534 100.88 771.718 99.896 770.686 99.896C769.654 99.896 768.862 100.88 768.862 103.496C768.862 106.112 769.654 107.168 770.686 107.168ZM771.286 116.336L780.934 97.904H783.022L773.374 116.336H771.286ZM783.598 116.336C781.078 116.336 779.278 114.224 779.278 110.672C779.278 107.096 781.078 105.056 783.598 105.056C786.118 105.056 787.942 107.096 787.942 110.672C787.942 114.224 786.118 116.336 783.598 116.336ZM783.598 114.32C784.63 114.32 785.446 113.288 785.446 110.672C785.446 108.056 784.63 107.048 783.598 107.048C782.566 107.048 781.774 108.056 781.774 110.672C781.774 113.288 782.566 114.32 783.598 114.32Z" fill="#130F31"/>
<path d="M248.392 181.312C247.432 181.312 246.304 181.84 245.488 183.184C245.824 186.424 247.024 187.672 248.512 187.672C249.832 187.672 250.936 186.568 250.936 184.384C250.936 182.296 249.928 181.312 248.392 181.312ZM248.584 190.336C245.2 190.336 242.2 187.624 242.2 181.36C242.2 174.736 245.488 171.904 249.064 171.904C251.248 171.904 252.808 172.816 253.888 173.92L252.016 176.032C251.392 175.312 250.312 174.736 249.28 174.736C247.24 174.736 245.56 176.272 245.416 180.736C246.376 179.536 247.912 178.816 249.064 178.816C252.04 178.816 254.152 180.592 254.152 184.384C254.152 188.032 251.608 190.336 248.584 190.336Z" fill="#130F31"/>
<path d="M415.576 190.336C412.768 190.336 410.872 189.28 409.624 187.864L411.28 185.632C412.336 186.664 413.632 187.456 415.24 187.456C417.04 187.456 418.264 186.568 418.264 184.96C418.264 183.232 417.232 182.128 413.368 182.128V179.608C416.632 179.608 417.688 178.48 417.688 176.896C417.688 175.504 416.824 174.688 415.312 174.688C414.04 174.688 413.008 175.264 411.952 176.248L410.152 174.088C411.688 172.744 413.392 171.904 415.48 171.904C418.912 171.904 421.24 173.608 421.24 176.632C421.24 178.552 420.16 179.944 418.288 180.688V180.808C420.28 181.36 421.816 182.848 421.816 185.176C421.816 188.44 418.96 190.336 415.576 190.336Z" fill="#130F31"/>
<rect y="74" width="160" height="66" fill="#333333"/>
<rect x="168" y="74" width="160" height="66" fill="#F2F2F2"/>
<rect x="336" y="74" width="160" height="66" fill="#F2F2F2"/>
<path d="M33.032 116V113.96C37.856 109.64 40.712 106.304 40.712 103.568C40.712 101.768 39.752 100.688 38.048 100.688C36.752 100.688 35.696 101.528 34.784 102.512L32.864 100.592C34.496 98.84 36.08 97.904 38.504 97.904C41.864 97.904 44.096 100.064 44.096 103.376C44.096 106.592 41.432 110.048 38.192 113.216C39.08 113.12 40.256 113.024 41.096 113.024H44.936V116H33.032ZM57.0528 116.336C53.4288 116.336 51.0288 113.168 51.0288 107.048C51.0288 100.904 53.4288 97.904 57.0528 97.904C60.6768 97.904 63.0528 100.928 63.0528 107.048C63.0528 113.168 60.6768 116.336 57.0528 116.336ZM57.0528 113.576C58.5888 113.576 59.7168 112.04 59.7168 107.048C59.7168 102.08 58.5888 100.64 57.0528 100.64C55.5168 100.64 54.3648 102.08 54.3648 107.048C54.3648 112.04 55.5168 113.576 57.0528 113.576ZM68.9776 116V113.96C73.8016 109.64 76.6576 106.304 76.6576 103.568C76.6576 101.768 75.6976 100.688 73.9936 100.688C72.6976 100.688 71.6416 101.528 70.7296 102.512L68.8096 100.592C70.4416 98.84 72.0256 97.904 74.4496 97.904C77.8096 97.904 80.0416 100.064 80.0416 103.376C80.0416 106.592 77.3776 110.048 74.1376 113.216C75.0256 113.12 76.2016 113.024 77.0416 113.024H80.8816V116H68.9776ZM89.8544 108.704H94.0064V105.08C94.0064 104.048 94.0784 102.44 94.1264 101.384H94.0304C93.5984 102.344 93.1184 103.328 92.6144 104.288L89.8544 108.704ZM94.0064 116V111.392H86.4224V108.992L93.0464 98.216H97.2944V108.704H99.3824V111.392H97.2944V116H94.0064ZM111.571 110.24H115.723V106.592H111.571V110.24ZM126.883 110.24V112.976H118.675V118.112H115.723V112.976H104.923V110.24H108.715V103.928H115.723V101.072H110.587C109.603 102.776 108.451 104.312 107.323 105.44C106.771 104.96 105.547 104 104.851 103.592C107.011 101.768 108.859 98.696 109.891 95.6L112.795 96.344C112.579 97.016 112.315 97.664 112.003 98.312H125.563V101.072H118.675V103.928H125.011V106.592H118.675V110.24H126.883Z" fill="white"/>
<path d="M247.624 116.336C244.816 116.336 242.944 115.232 241.624 113.912L243.256 111.656C244.264 112.64 245.512 113.456 247.168 113.456C249.016 113.456 250.312 112.28 250.312 110.192C250.312 108.128 249.112 106.976 247.312 106.976C246.256 106.976 245.68 107.24 244.648 107.912L243.04 106.856L243.52 98.216H253.024V101.192H246.568L246.232 104.96C246.952 104.624 247.552 104.456 248.368 104.456C251.344 104.456 253.84 106.232 253.84 110.096C253.84 114.056 250.912 116.336 247.624 116.336Z" fill="#130F31"/>
<path d="M410.968 116V113.144H414.784V101.912H411.568V99.728C413.344 99.392 414.568 98.936 415.696 98.216H418.312V113.144H421.648V116H410.968Z" fill="#130F31"/>
</svg>
