<svg width="400" height="400" viewBox="0 0 400 400" fill="none" xmlns="http://www.w3.org/2000/svg">
<rect width="400" height="400" fill="white"/>
<path d="M137.023 258.455V305H127.182V267.795H126.909L116.25 274.477V265.75L127.773 258.455H137.023ZM168.509 305.636C166.115 305.621 163.804 305.22 161.577 304.432C159.365 303.644 157.38 302.364 155.623 300.591C153.865 298.818 152.471 296.47 151.441 293.545C150.426 290.621 149.918 287.03 149.918 282.773C149.933 278.864 150.38 275.371 151.259 272.295C152.153 269.205 153.426 266.583 155.077 264.432C156.744 262.28 158.736 260.644 161.054 259.523C163.373 258.386 165.971 257.818 168.85 257.818C171.956 257.818 174.698 258.424 177.077 259.636C179.456 260.833 181.365 262.462 182.804 264.523C184.259 266.583 185.138 268.894 185.441 271.455H175.736C175.357 269.833 174.562 268.561 173.35 267.636C172.138 266.712 170.638 266.25 168.85 266.25C165.819 266.25 163.516 267.568 161.941 270.205C160.38 272.841 159.585 276.424 159.554 280.955H159.873C160.569 279.576 161.509 278.402 162.691 277.432C163.888 276.447 165.244 275.697 166.759 275.182C168.289 274.652 169.903 274.386 171.6 274.386C174.357 274.386 176.812 275.038 178.963 276.341C181.115 277.629 182.812 279.402 184.054 281.659C185.297 283.917 185.918 286.5 185.918 289.409C185.918 292.561 185.183 295.364 183.713 297.818C182.259 300.273 180.221 302.197 177.6 303.591C174.994 304.97 171.963 305.652 168.509 305.636ZM168.463 297.909C169.979 297.909 171.335 297.545 172.532 296.818C173.729 296.091 174.668 295.106 175.35 293.864C176.032 292.621 176.373 291.227 176.373 289.682C176.373 288.136 176.032 286.75 175.35 285.523C174.683 284.295 173.759 283.318 172.577 282.591C171.395 281.864 170.047 281.5 168.532 281.5C167.395 281.5 166.342 281.712 165.373 282.136C164.418 282.561 163.577 283.152 162.85 283.909C162.138 284.667 161.577 285.545 161.168 286.545C160.759 287.53 160.554 288.583 160.554 289.705C160.554 291.205 160.895 292.576 161.577 293.818C162.274 295.061 163.213 296.053 164.395 296.795C165.592 297.538 166.948 297.909 168.463 297.909ZM199.268 305.591C197.768 305.591 196.48 305.061 195.404 304C194.343 302.924 193.813 301.636 193.813 300.136C193.813 298.652 194.343 297.379 195.404 296.318C196.48 295.258 197.768 294.727 199.268 294.727C200.722 294.727 201.995 295.258 203.086 296.318C204.177 297.379 204.722 298.652 204.722 300.136C204.722 301.136 204.465 302.053 203.95 302.886C203.45 303.705 202.79 304.364 201.972 304.864C201.154 305.348 200.253 305.591 199.268 305.591ZM230.845 305.636C227.451 305.636 224.428 305.053 221.777 303.886C219.14 302.705 217.057 301.083 215.527 299.023C214.011 296.947 213.231 294.553 213.186 291.841H223.095C223.155 292.977 223.527 293.977 224.208 294.841C224.905 295.689 225.83 296.348 226.981 296.818C228.133 297.288 229.428 297.523 230.868 297.523C232.368 297.523 233.693 297.258 234.845 296.727C235.996 296.197 236.898 295.462 237.549 294.523C238.201 293.583 238.527 292.5 238.527 291.273C238.527 290.03 238.178 288.932 237.481 287.977C236.799 287.008 235.814 286.25 234.527 285.705C233.254 285.159 231.739 284.886 229.981 284.886H225.64V277.659H229.981C231.466 277.659 232.777 277.402 233.913 276.886C235.064 276.371 235.958 275.659 236.595 274.75C237.231 273.826 237.549 272.75 237.549 271.523C237.549 270.356 237.269 269.333 236.708 268.455C236.163 267.561 235.39 266.864 234.39 266.364C233.405 265.864 232.254 265.614 230.936 265.614C229.602 265.614 228.383 265.856 227.277 266.341C226.171 266.811 225.284 267.485 224.618 268.364C223.951 269.242 223.595 270.273 223.549 271.455H214.118C214.163 268.773 214.928 266.409 216.413 264.364C217.898 262.318 219.898 260.72 222.413 259.568C224.943 258.402 227.799 257.818 230.981 257.818C234.193 257.818 237.004 258.402 239.413 259.568C241.822 260.735 243.693 262.311 245.027 264.295C246.375 266.265 247.042 268.477 247.027 270.932C247.042 273.538 246.231 275.712 244.595 277.455C242.974 279.197 240.86 280.303 238.254 280.773V281.136C241.678 281.576 244.284 282.765 246.072 284.705C247.875 286.629 248.769 289.038 248.754 291.932C248.769 294.583 248.004 296.939 246.458 299C244.928 301.061 242.814 302.682 240.118 303.864C237.421 305.045 234.33 305.636 230.845 305.636Z" fill="#066AD5"/>
<path d="M278.141 302.273V301.506C278.141 300.923 278.264 300.388 278.51 299.901C278.761 299.408 279.123 299.015 279.597 298.722C280.075 298.423 280.657 298.274 281.344 298.274C282.04 298.274 282.625 298.421 283.098 298.714C283.576 299.008 283.936 299.401 284.178 299.893C284.424 300.381 284.547 300.919 284.547 301.506V302.273C284.547 302.855 284.424 303.393 284.178 303.885C283.931 304.373 283.569 304.763 283.091 305.057C282.613 305.355 282.03 305.504 281.344 305.504C280.648 305.504 280.063 305.355 279.589 305.057C279.116 304.763 278.756 304.373 278.51 303.885C278.264 303.393 278.141 302.855 278.141 302.273ZM280.207 301.506V302.273C280.207 302.609 280.288 302.926 280.449 303.224C280.615 303.523 280.913 303.672 281.344 303.672C281.775 303.672 282.068 303.525 282.224 303.232C282.385 302.938 282.466 302.618 282.466 302.273V301.506C282.466 301.16 282.39 300.838 282.239 300.54C282.087 300.241 281.789 300.092 281.344 300.092C280.918 300.092 280.622 300.241 280.456 300.54C280.29 300.838 280.207 301.16 280.207 301.506ZM270.676 293.949V293.182C270.676 292.595 270.802 292.057 271.053 291.57C271.304 291.077 271.666 290.684 272.139 290.391C272.617 290.097 273.195 289.95 273.872 289.95C274.573 289.95 275.16 290.097 275.634 290.391C276.107 290.684 276.467 291.077 276.713 291.57C276.959 292.057 277.082 292.595 277.082 293.182V293.949C277.082 294.536 276.957 295.073 276.706 295.561C276.46 296.049 276.098 296.439 275.619 296.733C275.146 297.022 274.563 297.166 273.872 297.166C273.181 297.166 272.596 297.019 272.118 296.726C271.644 296.428 271.285 296.037 271.038 295.554C270.797 295.066 270.676 294.531 270.676 293.949ZM272.757 293.182V293.949C272.757 294.295 272.838 294.614 272.999 294.908C273.164 295.201 273.455 295.348 273.872 295.348C274.308 295.348 274.604 295.201 274.76 294.908C274.921 294.614 275.001 294.295 275.001 293.949V293.182C275.001 292.836 274.926 292.514 274.774 292.216C274.623 291.918 274.322 291.768 273.872 291.768C273.451 291.768 273.16 291.92 272.999 292.223C272.838 292.526 272.757 292.846 272.757 293.182ZM271.614 305L281.614 290.455H283.474L273.474 305H271.614Z" fill="#066AD5"/>
<g clip-path="url(#clip0_482_843)">
<path d="M169.754 197.651H186.132C187.282 197.651 188.213 196.787 188.213 195.721V166.528C188.213 165.463 187.282 164.599 186.132 164.599H169.754C168.604 164.599 167.672 165.463 167.672 166.528V195.721C167.672 196.787 168.604 197.651 169.754 197.651Z" fill="#066AD5"/>
<path d="M199.616 197.65H215.994C217.144 197.65 218.076 196.786 218.076 195.72V146.008C218.076 144.943 217.144 144.079 215.994 144.079H199.616C198.466 144.079 197.534 144.943 197.534 146.008V195.72C197.534 196.786 198.466 197.65 199.616 197.65Z" fill="#066AD5"/>
<path d="M229.477 197.65H245.856C247.005 197.65 247.937 196.786 247.937 195.72V122.618C247.937 121.552 247.005 120.688 245.856 120.688H229.477C228.328 120.688 227.396 121.552 227.396 122.618V195.721C227.396 196.786 228.328 197.65 229.477 197.65Z" fill="#066AD5"/>
<path d="M248.633 206.442H159.558V117.367V114H148V117.367V206.442V214.633V218H151.367H159.558H248.633H252V206.442H248.633Z" fill="#066AD5"/>
</g>
<defs>
<clipPath id="clip0_482_843">
<rect width="104" height="104" fill="white" transform="translate(148 114)"/>
</clipPath>
</defs>
</svg>
