<svg width="341" height="51" viewBox="0 0 341 51" fill="none" xmlns="http://www.w3.org/2000/svg">
<path d="M8.416 36.032H23.648V38.688H8.416V36.032ZM7.936 40.384H24V43.136H7.936V40.384ZM13.984 37.344H17.44V40.768C17.44 43.808 16.256 47.232 9.6 49.408C9.12 48.672 8.128 47.552 7.36 46.944C13.184 45.376 13.984 42.624 13.984 40.704V37.344ZM17.12 41.632C18.208 44.16 20.64 45.984 24.16 46.688C23.456 47.328 22.528 48.576 22.112 49.44C18.144 48.32 15.648 45.792 14.304 42.208L17.12 41.632ZM9.824 33.952L12.768 33.088C13.472 34.048 14.112 35.328 14.368 36.224L11.232 37.152C11.04 36.256 10.464 34.912 9.824 33.952ZM18.752 33.088L22.24 34.016C21.376 35.296 20.544 36.544 19.936 37.376L17.408 36.512C17.888 35.52 18.464 34.08 18.752 33.088ZM4.416 26.272H12.48V28.64H4.416V26.272ZM19.168 26.272H27.264V28.64H19.168V26.272ZM25.856 22.048H29.632V46.848C29.632 48.576 29.344 49.568 28.288 50.208C27.296 50.816 25.856 50.88 23.84 50.88C23.744 49.888 23.296 48.256 22.848 47.296C23.84 47.36 24.992 47.36 25.344 47.36C25.728 47.36 25.856 47.2 25.856 46.784V22.048ZM4.768 22.048H14.912V32.928H4.768V30.304H11.296V24.704H4.768V22.048ZM27.808 22.048V24.704H20.64V30.368H27.808V33.024H16.992V22.048H27.808ZM2.496 22.048H6.272V50.88H2.496V22.048ZM40.48 45.408H62.208V48.928H40.48V45.408ZM38.048 29.76H64.448V50.72H60.544V33.28H41.76V50.752H38.048V29.76ZM52.48 31.2H56.16V36.96C56.16 37.792 56.256 37.888 56.864 37.888C57.12 37.888 58.176 37.888 58.464 37.888C59.04 37.888 59.168 37.632 59.264 36.224C59.904 36.736 61.44 37.312 62.432 37.536C62.016 40.448 61.056 41.216 58.912 41.216C58.272 41.216 56.864 41.216 56.256 41.216C53.12 41.216 52.48 40.192 52.48 36.992V31.2ZM36.736 22.592H65.504V26.304H36.736V22.592ZM45.504 25.408H49.28V31.776H45.504V25.408ZM52.512 25.408H56.352V31.776H52.512V25.408ZM45.696 30.464H49.28V33.664C49.28 36.832 48.32 40.576 43.904 42.88C43.392 42.176 41.888 40.896 41.12 40.416C45.152 38.464 45.696 35.84 45.696 33.536V30.464ZM77.856 31.776H92.608V35.072H77.856V31.776ZM72.128 38.944H100.768V42.496H72.128V38.944ZM84.448 36.896H88.384V46.784C88.384 48.768 87.904 49.76 86.368 50.336C84.864 50.848 82.816 50.912 80.096 50.912C79.84 49.824 79.136 48.192 78.528 47.2C80.576 47.264 82.976 47.264 83.616 47.264C84.256 47.264 84.448 47.104 84.448 46.656V36.896ZM91.36 31.776H92.32L93.12 31.584L95.552 33.44C93.344 35.808 90.176 38.304 87.04 39.808C86.592 39.168 85.568 38.112 84.992 37.6C87.456 36.32 90.176 34.048 91.36 32.48V31.776ZM72.512 25.92H100.416V33.76H96.608V29.312H76.128V33.76H72.512V25.92ZM94.688 21.056L98.848 22.272C97.376 24.384 95.712 26.56 94.4 27.968L91.264 26.816C92.48 25.248 93.92 22.848 94.688 21.056ZM74.656 22.624L77.92 21.152C79.072 22.4 80.352 24.128 80.864 25.376L77.376 26.976C76.928 25.792 75.744 23.968 74.656 22.624ZM82.72 21.92L86.112 20.64C87.136 22.048 88.224 24 88.64 25.28L84.992 26.688C84.672 25.408 83.68 23.392 82.72 21.92ZM124.832 20.992H128.576V26.016H124.832V20.992ZM117.728 24.352H136.256V30.656H132.704V27.616H121.12V30.688H117.728V24.352ZM120.096 30.208H133.792V33.504H120.096V30.208ZM118.176 35.808H136.128V39.232H118.176V35.808ZM121.792 37.472H125.44C125.152 44.352 124.192 48.576 117.312 50.88C116.992 49.952 116.032 48.544 115.296 47.84C121.088 46.112 121.6 43.04 121.792 37.472ZM127.68 37.088H131.296V46.176C131.296 47.104 131.36 47.232 131.776 47.232C131.968 47.232 132.64 47.232 132.864 47.232C133.376 47.232 133.472 46.72 133.536 43.456C134.24 44.032 135.776 44.64 136.736 44.864C136.416 49.376 135.52 50.592 133.28 50.592C132.704 50.592 131.648 50.592 131.136 50.592C128.32 50.592 127.68 49.504 127.68 46.208V37.088ZM107.872 22.208H115.424V25.632H111.232V50.912H107.872V22.208ZM114.24 22.208H114.88L115.424 22.08L117.92 23.488C117.088 26.24 116.032 29.728 115.104 32.224C117.088 34.72 117.472 36.864 117.472 38.72C117.472 40.8 117.056 42.144 116.032 42.848C115.52 43.2 114.912 43.424 114.208 43.52C113.632 43.584 112.864 43.616 112.128 43.616C112.096 42.688 111.808 41.248 111.296 40.32C111.872 40.352 112.288 40.384 112.672 40.352C113.024 40.352 113.344 40.288 113.568 40.096C113.952 39.808 114.112 39.168 114.112 38.272C114.112 36.768 113.696 34.784 111.872 32.64C112.768 29.76 113.792 25.344 114.24 23.296V22.208ZM142.592 29.44H171.072V33.408H142.592V29.44ZM159.008 31.04C160.928 38.368 164.992 44.448 171.776 47.136C170.816 48 169.536 49.664 168.896 50.784C161.568 47.36 157.568 40.736 155.136 31.936L159.008 31.04ZM154.592 20.832H158.816C158.656 30.592 158.592 44.16 144.864 50.784C144.256 49.728 143.072 48.352 141.952 47.52C155.072 41.664 154.496 29.504 154.592 20.832ZM183.456 31.776H198.208V35.072H183.456V31.776ZM177.728 38.944H206.368V42.496H177.728V38.944ZM190.048 36.896H193.984V46.784C193.984 48.768 193.504 49.76 191.968 50.336C190.464 50.848 188.416 50.912 185.696 50.912C185.44 49.824 184.736 48.192 184.128 47.2C186.176 47.264 188.576 47.264 189.216 47.264C189.856 47.264 190.048 47.104 190.048 46.656V36.896ZM196.96 31.776H197.92L198.72 31.584L201.152 33.44C198.944 35.808 195.776 38.304 192.64 39.808C192.192 39.168 191.168 38.112 190.592 37.6C193.056 36.32 195.776 34.048 196.96 32.48V31.776ZM178.112 25.92H206.016V33.76H202.208V29.312H181.728V33.76H178.112V25.92ZM200.288 21.056L204.448 22.272C202.976 24.384 201.312 26.56 200 27.968L196.864 26.816C198.08 25.248 199.52 22.848 200.288 21.056ZM180.256 22.624L183.52 21.152C184.672 22.4 185.952 24.128 186.464 25.376L182.976 26.976C182.528 25.792 181.344 23.968 180.256 22.624ZM188.32 21.92L191.712 20.64C192.736 22.048 193.824 24 194.24 25.28L190.592 26.688C190.272 25.408 189.28 23.392 188.32 21.92Z" fill="#333333"/>
<path d="M227.998 48V40.9091L244.566 25.5682C245.975 24.2045 247.157 22.9773 248.111 21.8864C249.081 20.7955 249.816 19.7273 250.316 18.6818C250.816 17.6212 251.066 16.4773 251.066 15.25C251.066 13.8864 250.755 12.7121 250.134 11.7273C249.513 10.7273 248.664 9.96212 247.589 9.43182C246.513 8.88636 245.293 8.61364 243.93 8.61364C242.505 8.61364 241.263 8.90151 240.202 9.47727C239.142 10.053 238.323 10.8788 237.748 11.9545C237.172 13.0303 236.884 14.3106 236.884 15.7955H227.543C227.543 12.75 228.233 10.1061 229.611 7.86364C230.99 5.62121 232.922 3.88636 235.407 2.65909C237.892 1.43182 240.755 0.81818 243.998 0.81818C247.331 0.81818 250.233 1.40909 252.702 2.59091C255.187 3.75757 257.119 5.37879 258.498 7.45454C259.877 9.5303 260.566 11.9091 260.566 14.5909C260.566 16.3485 260.217 18.0833 259.52 19.7955C258.839 21.5076 257.619 23.4091 255.861 25.5C254.104 27.5758 251.627 30.0682 248.43 32.9773L241.634 39.6364V39.9545H261.18V48H227.998ZM276.551 48L295.847 9.81818V9.5H273.369V1.45454H306.028V9.61364L286.71 48H276.551Z" fill="#333333"/>
<path d="M325.928 46.992H337.136V49.08H325.928V46.992ZM324.92 30.144H333.608V32.16H324.92V30.144ZM325.808 27.648L328.376 28.152C326.456 31.44 323.576 34.68 319.352 37.2C319.016 36.648 318.248 35.832 317.744 35.424C321.704 33.288 324.416 30.264 325.808 27.648ZM332.864 30.144H333.296L333.704 30.024L335.24 30.84C332.384 38.184 325.784 43.032 318.968 45.288C318.704 44.664 318.128 43.728 317.648 43.248C324.056 41.4 330.488 36.72 332.864 30.528V30.144ZM321.872 34.848L323.552 33.384C325.352 34.632 327.608 36.456 328.688 37.776L326.84 39.408C325.88 38.088 323.672 36.144 321.872 34.848ZM336.056 39.528H338.408V50.064H336.056V39.528ZM326.912 39.528H337.208V41.592H326.912V50.016H324.632V41.256L326.408 39.528H326.912Z" fill="#333333"/>
</svg>
