<svg width="221" height="32" viewBox="0 0 221 32" fill="none" xmlns="http://www.w3.org/2000/svg">
<path d="M13.344 8.512H21.168V10.624H13.344V8.512ZM20.544 8.512H22.656C22.656 8.512 22.656 9.328 22.632 9.592C22.44 20.944 22.272 24.736 21.456 25.888C20.952 26.632 20.424 26.848 19.656 26.968C18.888 27.088 17.664 27.064 16.464 27.016C16.416 26.392 16.176 25.456 15.816 24.856C17.04 24.976 18.168 24.976 18.672 24.976C19.08 24.976 19.32 24.904 19.536 24.544C20.16 23.776 20.376 19.864 20.544 9.016V8.512ZM13.488 4.792L15.72 5.272C14.88 8.584 13.488 11.872 11.88 13.984C11.448 13.624 10.512 12.904 9.984 12.592C11.568 10.72 12.792 7.768 13.488 4.792ZM13.176 13.24H18.48V21.352H13.176V19.456H16.608V15.136H13.176V13.24ZM12.24 13.24H14.112V22.912H12.24V13.24ZM3.072 9.352H10.176V11.104H3.072V9.352ZM3.072 12.976H10.176V14.728H3.072V12.976ZM1.968 16.6H9.84V18.4H1.968V16.6ZM5.856 6.76H7.68V17.608H5.856V6.76ZM6.84 19.576L7.8 19.24C8.352 20.2 8.856 21.496 9.072 22.336L8.04 22.72C7.872 21.856 7.344 20.56 6.84 19.576ZM5.208 19.936L6.264 19.744C6.696 20.968 7.056 22.576 7.128 23.584L6.048 23.848C5.976 22.792 5.616 21.16 5.208 19.936ZM3.528 20.128L4.608 20.008C4.872 21.424 4.968 23.248 4.944 24.424L3.816 24.568C3.864 23.368 3.768 21.568 3.528 20.128ZM1.776 19.72L3.096 19.984C2.976 22.168 2.736 24.424 1.776 25.72L0.552 25.048C1.416 23.848 1.68 21.76 1.776 19.72ZM1.968 5.68H10.656V7.552H3.864V17.272H1.968V5.68ZM9.12 16.6H11.016C11.016 16.6 11.016 17.176 10.992 17.44C10.752 23.344 10.488 25.504 9.912 26.248C9.552 26.704 9.144 26.896 8.568 26.944C8.088 27.04 7.272 27.04 6.432 26.992C6.384 26.44 6.216 25.696 5.952 25.192C6.672 25.264 7.344 25.288 7.632 25.288C7.92 25.288 8.112 25.24 8.28 25C8.664 24.52 8.904 22.552 9.12 16.936V16.6ZM36.144 5.848H38.424V12.712C38.424 16.984 37.92 23.152 34.464 27.112C34.056 26.68 33.072 26.032 32.496 25.792C35.832 22.072 36.144 16.672 36.144 12.712V5.848ZM28.56 6.568L29.808 4.912C31.344 5.536 33.312 6.616 34.248 7.48L32.928 9.328C32.016 8.44 30.096 7.264 28.56 6.568ZM27.216 13.072L28.416 11.368C29.952 11.944 31.944 13 32.928 13.816L31.656 15.688C30.72 14.848 28.776 13.744 27.216 13.072ZM27.864 25.24C29.064 23.392 30.768 20.272 32.088 17.488L33.816 18.928C32.64 21.472 31.152 24.4 29.832 26.704L27.864 25.24ZM37.44 5.848H48.384V15.736H37.44V13.48H46.032V8.08H37.44V5.848ZM42.72 14.632C43.848 19.192 46.176 23.152 49.848 24.952C49.272 25.432 48.504 26.392 48.144 27.04C44.184 24.832 41.88 20.464 40.584 15.088L42.72 14.632ZM54.216 11.464H75.432V13.792H54.216V11.464ZM66.192 12.4C67.704 18.064 70.872 22.768 75.888 24.832C75.312 25.336 74.568 26.32 74.184 26.968C68.856 24.472 65.712 19.456 63.912 12.928L66.192 12.4ZM63.552 4.768H66.024C65.928 11.512 65.88 22.096 55.464 26.968C55.104 26.368 54.408 25.552 53.76 25.072C63.792 20.656 63.48 10.84 63.552 4.768ZM84.72 12.904H96.264V14.872H84.72V12.904ZM80.568 18.328H101.904V20.44H80.568V18.328ZM90.048 16.672H92.376V24.472C92.376 25.744 92.064 26.368 91.056 26.704C90.048 27.016 88.608 27.04 86.496 27.04C86.328 26.416 85.896 25.456 85.536 24.856C87.24 24.904 88.944 24.904 89.448 24.88C89.928 24.88 90.048 24.76 90.048 24.424V16.672ZM95.544 12.904H96.096L96.576 12.784L98.016 13.888C96.384 15.592 93.936 17.344 91.608 18.4C91.344 18.016 90.744 17.392 90.384 17.08C92.328 16.168 94.512 14.536 95.544 13.336V12.904ZM80.976 8.656H101.568V14.248H99.312V10.696H83.112V14.248H80.976V8.656ZM97.896 4.912L100.32 5.656C99.264 7.192 97.992 8.824 97.008 9.88L95.16 9.16C96.12 8.008 97.272 6.208 97.896 4.912ZM82.608 5.896L84.528 5.008C85.416 5.992 86.4 7.336 86.784 8.272L84.744 9.232C84.384 8.32 83.448 6.928 82.608 5.896ZM88.704 5.368L90.696 4.624C91.488 5.728 92.328 7.24 92.64 8.224L90.504 9.064C90.24 8.056 89.472 6.52 88.704 5.368Z" fill="#333333"/>
<path d="M178.983 31.3977C176.975 31.3977 175.186 31.0284 173.614 30.2898C172.051 29.5511 170.811 28.5331 169.892 27.2358C168.973 25.9384 168.495 24.4517 168.457 22.7756H174.423C174.49 23.9025 174.963 24.8163 175.844 25.517C176.724 26.2178 177.771 26.5682 178.983 26.5682C179.949 26.5682 180.801 26.3551 181.54 25.929C182.288 25.4934 182.87 24.892 183.287 24.125C183.713 23.3485 183.926 22.4583 183.926 21.4545C183.926 20.4318 183.708 19.5322 183.273 18.7557C182.847 17.9792 182.255 17.3731 181.497 16.9375C180.74 16.5019 179.873 16.2794 178.898 16.2699C178.045 16.2699 177.217 16.4451 176.412 16.7955C175.616 17.1458 174.996 17.6241 174.551 18.2301L169.082 17.25L170.46 1.90909H188.244V6.9375H175.531L174.778 14.2244H174.949C175.46 13.5047 176.232 12.9081 177.264 12.4347C178.296 11.9612 179.452 11.7244 180.73 11.7244C182.482 11.7244 184.045 12.1364 185.418 12.9602C186.791 13.7841 187.875 14.9157 188.67 16.3551C189.466 17.785 189.859 19.4328 189.849 21.2983C189.859 23.2585 189.404 25.0009 188.486 26.5256C187.577 28.0407 186.303 29.2339 184.665 30.1051C183.036 30.9669 181.142 31.3977 178.983 31.3977Z" fill="#333333"/>
<path d="M205.928 27.992H217.136V30.08H205.928V27.992ZM204.92 11.144H213.608V13.16H204.92V11.144ZM205.808 8.648L208.376 9.152C206.456 12.44 203.576 15.68 199.352 18.2C199.016 17.648 198.248 16.832 197.744 16.424C201.704 14.288 204.416 11.264 205.808 8.648ZM212.864 11.144H213.296L213.704 11.024L215.24 11.84C212.384 19.184 205.784 24.032 198.968 26.288C198.704 25.664 198.128 24.728 197.648 24.248C204.056 22.4 210.488 17.72 212.864 11.528V11.144ZM201.872 15.848L203.552 14.384C205.352 15.632 207.608 17.456 208.688 18.776L206.84 20.408C205.88 19.088 203.672 17.144 201.872 15.848ZM216.056 20.528H218.408V31.064H216.056V20.528ZM206.912 20.528H217.208V22.592H206.912V31.016H204.632V22.256L206.408 20.528H206.912Z" fill="#333333"/>
<path d="M128 1H143V31H128" stroke="#7F7F7F" stroke-linecap="round" stroke-linejoin="round" stroke-dasharray="1 2"/>
<path d="M143 16.5H158" stroke="#7F7F7F" stroke-linecap="round" stroke-dasharray="1 2"/>
</svg>
