<svg width="400" height="400" viewBox="0 0 400 400" fill="none" xmlns="http://www.w3.org/2000/svg">
<rect width="400" height="400" fill="white"/>
<path d="M130.023 258.455V305H120.182V267.795H119.909L109.25 274.477V265.75L120.773 258.455H130.023ZM165.349 305.636C162.955 305.621 160.644 305.22 158.417 304.432C156.205 303.644 154.22 302.364 152.463 300.591C150.705 298.818 149.311 296.47 148.281 293.545C147.266 290.621 146.758 287.03 146.758 282.773C146.773 278.864 147.22 275.371 148.099 272.295C148.993 269.205 150.266 266.583 151.917 264.432C153.584 262.28 155.576 260.644 157.894 259.523C160.213 258.386 162.811 257.818 165.69 257.818C168.796 257.818 171.538 258.424 173.917 259.636C176.296 260.833 178.205 262.462 179.644 264.523C181.099 266.583 181.978 268.894 182.281 271.455H172.576C172.197 269.833 171.402 268.561 170.19 267.636C168.978 266.712 167.478 266.25 165.69 266.25C162.659 266.25 160.356 267.568 158.781 270.205C157.22 272.841 156.425 276.424 156.394 280.955H156.713C157.409 279.576 158.349 278.402 159.531 277.432C160.728 276.447 162.084 275.697 163.599 275.182C165.129 274.652 166.743 274.386 168.44 274.386C171.197 274.386 173.652 275.038 175.803 276.341C177.955 277.629 179.652 279.402 180.894 281.659C182.137 283.917 182.758 286.5 182.758 289.409C182.758 292.561 182.023 295.364 180.553 297.818C179.099 300.273 177.061 302.197 174.44 303.591C171.834 304.97 168.803 305.652 165.349 305.636ZM165.303 297.909C166.819 297.909 168.175 297.545 169.372 296.818C170.569 296.091 171.508 295.106 172.19 293.864C172.872 292.621 173.213 291.227 173.213 289.682C173.213 288.136 172.872 286.75 172.19 285.523C171.523 284.295 170.599 283.318 169.417 282.591C168.235 281.864 166.887 281.5 165.372 281.5C164.235 281.5 163.182 281.712 162.213 282.136C161.258 282.561 160.417 283.152 159.69 283.909C158.978 284.667 158.417 285.545 158.008 286.545C157.599 287.53 157.394 288.583 157.394 289.705C157.394 291.205 157.735 292.576 158.417 293.818C159.114 295.061 160.053 296.053 161.235 296.795C162.432 297.538 163.788 297.909 165.303 297.909ZM199.948 305.591C198.448 305.591 197.16 305.061 196.084 304C195.023 302.924 194.493 301.636 194.493 300.136C194.493 298.652 195.023 297.379 196.084 296.318C197.16 295.258 198.448 294.727 199.948 294.727C201.402 294.727 202.675 295.258 203.766 296.318C204.857 297.379 205.402 298.652 205.402 300.136C205.402 301.136 205.145 302.053 204.63 302.886C204.13 303.705 203.47 304.364 202.652 304.864C201.834 305.348 200.933 305.591 199.948 305.591ZM236.035 306.023C232.126 306.008 228.762 305.045 225.944 303.136C223.141 301.227 220.982 298.462 219.467 294.841C217.967 291.22 217.225 286.864 217.24 281.773C217.24 276.697 217.99 272.371 219.49 268.795C221.005 265.22 223.164 262.5 225.967 260.636C228.785 258.758 232.141 257.818 236.035 257.818C239.929 257.818 243.278 258.758 246.081 260.636C248.899 262.515 251.066 265.242 252.581 268.818C254.096 272.379 254.846 276.697 254.831 281.773C254.831 286.879 254.073 291.242 252.558 294.864C251.058 298.485 248.906 301.25 246.103 303.159C243.3 305.068 239.944 306.023 236.035 306.023ZM236.035 297.864C238.702 297.864 240.831 296.523 242.422 293.841C244.012 291.159 244.8 287.136 244.785 281.773C244.785 278.242 244.422 275.303 243.694 272.955C242.982 270.606 241.967 268.841 240.649 267.659C239.346 266.477 237.808 265.886 236.035 265.886C233.384 265.886 231.262 267.212 229.672 269.864C228.081 272.515 227.278 276.485 227.262 281.773C227.262 285.348 227.619 288.333 228.331 290.727C229.058 293.106 230.081 294.894 231.399 296.091C232.717 297.273 234.262 297.864 236.035 297.864Z" fill="#066AD5"/>
<path d="M278.52 289.56H291.62V306.3H290.04V291.08H280.06V306.38H278.52V289.56ZM279.54 296.5H290.7V297.98H279.54V296.5ZM279.52 303.58H290.74V305.08H279.52V303.58Z" fill="#066AD5"/>
<path d="M178.305 135.029C181.553 135.029 184.188 132.394 184.188 129.144V119.883C184.188 116.635 181.553 114 178.305 114C175.054 114 172.419 116.635 172.419 119.883V129.144C172.419 132.394 175.054 135.029 178.305 135.029Z" fill="#066AD5"/>
<path d="M221.696 135.029C224.945 135.029 227.58 132.394 227.58 129.144V119.883C227.58 116.635 224.945 114 221.696 114C218.446 114 215.812 116.635 215.812 119.883V129.144C215.812 132.394 218.446 135.029 221.696 135.029Z" fill="#066AD5"/>
<path d="M236.393 122.387H232.751V129.144C232.751 135.241 227.792 140.2 221.697 140.2C215.6 140.2 210.641 135.241 210.641 129.144V122.387H189.359V129.144C189.359 135.241 184.4 140.2 178.305 140.2C172.208 140.2 167.248 135.241 167.248 129.144V122.387H163.607C155.781 122.387 149.437 128.731 149.437 136.557V203.829C149.437 211.656 155.781 218 163.607 218H236.393C244.219 218 250.563 211.656 250.563 203.829V136.557C250.563 128.731 244.219 122.387 236.393 122.387ZM239.411 201.342C239.411 204.963 236.465 207.908 232.844 207.908H167.156C163.535 207.908 160.589 204.963 160.589 201.342V148.709H239.411L239.411 201.342Z" fill="#066AD5"/>
<path d="M207.188 182.028H192.805V196.409H207.188V182.028Z" fill="#066AD5"/>
<path d="M184.897 182.028H170.514V196.409H184.897V182.028Z" fill="#066AD5"/>
<path d="M229.486 159.733H215.1V174.116H229.486V159.733Z" fill="#066AD5"/>
<path d="M229.486 182.028H215.1V196.409H229.486V182.028Z" fill="#066AD5"/>
<path d="M207.188 159.733H192.805V174.116H207.188V159.733Z" fill="#066AD5"/>
<path d="M184.897 159.733H170.514V174.116H184.897V159.733Z" fill="#066AD5"/>
</svg>
