<svg width="400" height="400" viewBox="0 0 400 400" fill="none" xmlns="http://www.w3.org/2000/svg">
<rect width="400" height="400" fill="white"/>
<path d="M121.023 258.455V305H111.182V267.795H110.909L100.25 274.477V265.75L111.773 258.455H121.023ZM155.69 305.636C152.296 305.636 149.273 305.053 146.622 303.886C143.985 302.705 141.902 301.083 140.372 299.023C138.856 296.947 138.076 294.553 138.031 291.841H147.94C148 292.977 148.372 293.977 149.053 294.841C149.75 295.689 150.675 296.348 151.826 296.818C152.978 297.288 154.273 297.523 155.713 297.523C157.213 297.523 158.538 297.258 159.69 296.727C160.841 296.197 161.743 295.462 162.394 294.523C163.046 293.583 163.372 292.5 163.372 291.273C163.372 290.03 163.023 288.932 162.326 287.977C161.644 287.008 160.659 286.25 159.372 285.705C158.099 285.159 156.584 284.886 154.826 284.886H150.485V277.659H154.826C156.311 277.659 157.622 277.402 158.758 276.886C159.909 276.371 160.803 275.659 161.44 274.75C162.076 273.826 162.394 272.75 162.394 271.523C162.394 270.356 162.114 269.333 161.553 268.455C161.008 267.561 160.235 266.864 159.235 266.364C158.25 265.864 157.099 265.614 155.781 265.614C154.447 265.614 153.228 265.856 152.122 266.341C151.016 266.811 150.129 267.485 149.463 268.364C148.796 269.242 148.44 270.273 148.394 271.455H138.963C139.008 268.773 139.773 266.409 141.258 264.364C142.743 262.318 144.743 260.72 147.258 259.568C149.788 258.402 152.644 257.818 155.826 257.818C159.038 257.818 161.849 258.402 164.258 259.568C166.667 260.735 168.538 262.311 169.872 264.295C171.22 266.265 171.887 268.477 171.872 270.932C171.887 273.538 171.076 275.712 169.44 277.455C167.819 279.197 165.705 280.303 163.099 280.773V281.136C166.523 281.576 169.129 282.765 170.917 284.705C172.72 286.629 173.614 289.038 173.599 291.932C173.614 294.583 172.849 296.939 171.303 299C169.773 301.061 167.659 302.682 164.963 303.864C162.266 305.045 159.175 305.636 155.69 305.636ZM191.51 305.591C190.01 305.591 188.722 305.061 187.647 304C186.586 302.924 186.056 301.636 186.056 300.136C186.056 298.652 186.586 297.379 187.647 296.318C188.722 295.258 190.01 294.727 191.51 294.727C192.965 294.727 194.238 295.258 195.328 296.318C196.419 297.379 196.965 298.652 196.965 300.136C196.965 301.136 196.707 302.053 196.192 302.886C195.692 303.705 195.033 304.364 194.215 304.864C193.397 305.348 192.495 305.591 191.51 305.591ZM226.711 305.636C223.211 305.636 220.098 305.068 217.37 303.932C214.658 302.78 212.53 301.212 210.984 299.227C209.439 297.242 208.666 294.992 208.666 292.477C208.666 290.538 209.105 288.758 209.984 287.136C210.878 285.5 212.09 284.144 213.62 283.068C215.151 281.977 216.863 281.28 218.757 280.977V280.659C216.272 280.159 214.257 278.955 212.711 277.045C211.166 275.121 210.393 272.886 210.393 270.341C210.393 267.932 211.098 265.788 212.507 263.909C213.916 262.015 215.848 260.53 218.302 259.455C220.772 258.364 223.575 257.818 226.711 257.818C229.848 257.818 232.643 258.364 235.098 259.455C237.567 260.545 239.507 262.038 240.916 263.932C242.325 265.811 243.037 267.947 243.052 270.341C243.037 272.902 242.249 275.136 240.689 277.045C239.128 278.955 237.128 280.159 234.689 280.659V280.977C236.552 281.28 238.242 281.977 239.757 283.068C241.287 284.144 242.499 285.5 243.393 287.136C244.302 288.758 244.764 290.538 244.78 292.477C244.764 294.992 243.984 297.242 242.439 299.227C240.893 301.212 238.757 302.78 236.03 303.932C233.317 305.068 230.211 305.636 226.711 305.636ZM226.711 298.409C228.272 298.409 229.636 298.129 230.802 297.568C231.969 296.992 232.878 296.205 233.53 295.205C234.196 294.189 234.53 293.023 234.53 291.705C234.53 290.356 234.189 289.167 233.507 288.136C232.825 287.091 231.901 286.273 230.734 285.682C229.567 285.076 228.227 284.773 226.711 284.773C225.211 284.773 223.87 285.076 222.689 285.682C221.507 286.273 220.575 287.091 219.893 288.136C219.227 289.167 218.893 290.356 218.893 291.705C218.893 293.023 219.219 294.189 219.87 295.205C220.522 296.205 221.439 296.992 222.62 297.568C223.802 298.129 225.166 298.409 226.711 298.409ZM226.711 277.614C228.014 277.614 229.173 277.348 230.189 276.818C231.204 276.288 231.999 275.553 232.575 274.614C233.151 273.674 233.439 272.591 233.439 271.364C233.439 270.152 233.151 269.091 232.575 268.182C231.999 267.258 231.211 266.538 230.211 266.023C229.211 265.492 228.045 265.227 226.711 265.227C225.393 265.227 224.227 265.492 223.211 266.023C222.196 266.538 221.401 267.258 220.825 268.182C220.264 269.091 219.984 270.152 219.984 271.364C219.984 272.591 220.272 273.674 220.848 274.614C221.423 275.553 222.219 276.288 223.234 276.818C224.249 277.348 225.408 277.614 226.711 277.614Z" fill="#066AD5"/>
<path d="M272.42 290.6H282.42V291.92H272.42V290.6ZM271.56 294.48H283.28V295.82H271.56V294.48ZM271.66 298.1H283.06V299.44H271.66V298.1ZM276.62 288.2H278.1V295.3H276.62V288.2ZM279.26 295.62H280.72V304.82C280.72 305.68 280.52 306.12 279.9 306.34C279.28 306.56 278.26 306.58 276.66 306.58C276.6 306.18 276.36 305.58 276.14 305.18C277.38 305.22 278.5 305.22 278.82 305.2C279.16 305.18 279.26 305.1 279.26 304.8V295.62ZM272.88 300.84L274.08 300.12C275.12 301.16 276.24 302.58 276.72 303.56L275.42 304.36C274.98 303.38 273.9 301.88 272.88 300.84ZM266.22 289.52H271.22V302.66H266.22V301.3H269.82V290.88H266.22V289.52ZM266.28 295.34H270.48V296.68H266.28V295.34ZM265.5 289.52H266.92V304.3H265.5V289.52ZM290.94 300.46H297V301.62H290.94V300.46ZM290.88 297.44H297.7V304.74H290.88V303.58H296.28V298.62H290.88V297.44ZM290.22 297.44H291.6V305.76H290.22V297.44ZM286.54 291.9H292.1V293H286.54V291.9ZM295.76 291.9H301.42V293H295.76V291.9ZM300.8 289.06H302.3V304.62C302.3 305.58 302.08 306.08 301.44 306.34C300.8 306.58 299.72 306.6 298.04 306.6C297.98 306.18 297.74 305.48 297.52 305.06C298.74 305.12 299.96 305.1 300.32 305.08C300.68 305.08 300.8 304.96 300.8 304.62V289.06ZM286.66 289.06H293.06V295.94H286.66V294.78H291.64V290.22H286.66V289.06ZM301.54 289.06V290.22H296.3V294.82H301.54V295.96H294.86V289.06H301.54ZM285.8 289.06H287.28V306.62H285.8V289.06Z" fill="#066AD5"/>
<g clip-path="url(#clip0_481_818)">
<path d="M200 114C171.327 114 148 137.328 148 166C148 194.674 171.327 218 200 218C228.673 218 252 194.674 252 166C252 137.328 228.673 114 200 114ZM200 205.619C178.155 205.619 160.381 187.847 160.381 166C160.381 144.155 178.155 126.381 200 126.381C221.845 126.381 239.619 144.155 239.619 166C239.619 187.847 221.845 205.619 200 205.619Z" fill="#066AD5"/>
<path d="M200.494 137.514C197.892 137.514 195.783 139.623 195.783 142.225V163.555L180.742 178.596C178.902 180.435 178.902 183.418 180.742 185.259C182.582 187.098 185.565 187.098 187.406 185.259L205.206 167.459V162.631V142.225C205.206 139.623 203.097 137.514 200.494 137.514Z" fill="#066AD5"/>
</g>
<defs>
<clipPath id="clip0_481_818">
<rect width="104" height="104" fill="white" transform="translate(148 114)"/>
</clipPath>
</defs>
</svg>
