<svg width="328" height="436" viewBox="0 0 328 436" fill="none" xmlns="http://www.w3.org/2000/svg">
<rect x="168" width="160" height="66" fill="#F2F2F2"/>
<path d="M221.008 42V39.984C225.856 35.64 228.688 32.304 228.688 29.568C228.688 27.792 227.752 26.688 226.048 26.688C224.728 26.688 223.696 27.528 222.784 28.536L220.84 26.616C222.472 24.864 224.08 23.928 226.504 23.928C229.84 23.928 232.096 26.064 232.096 29.376C232.096 32.616 229.408 36.072 226.168 39.24C227.056 39.144 228.232 39.024 229.072 39.024H232.912V42H221.008ZM243.108 42.336C240.3 42.336 238.404 41.304 237.156 39.864L238.836 37.632C239.892 38.664 241.164 39.48 242.772 39.48C244.596 39.48 245.82 38.568 245.82 36.984C245.82 35.232 244.788 34.152 240.924 34.152V31.608C244.188 31.608 245.244 30.504 245.244 28.92C245.244 27.528 244.38 26.688 242.868 26.688C241.596 26.688 240.564 27.288 239.508 28.272L237.708 26.088C239.244 24.768 240.948 23.928 243.012 23.928C246.444 23.928 248.772 25.608 248.772 28.656C248.772 30.552 247.716 31.968 245.82 32.688V32.808C247.836 33.384 249.372 34.848 249.372 37.2C249.372 40.464 246.516 42.336 243.108 42.336ZM258.2 35.184C255.656 35.184 253.856 33.072 253.856 29.52C253.856 25.968 255.656 23.928 258.2 23.928C260.744 23.928 262.544 25.968 262.544 29.52C262.544 33.072 260.744 35.184 258.2 35.184ZM258.2 33.192C259.232 33.192 260.024 32.112 260.024 29.52C260.024 26.904 259.232 25.92 258.2 25.92C257.144 25.92 256.352 26.904 256.352 29.52C256.352 32.112 257.144 33.192 258.2 33.192ZM258.776 42.336L268.424 23.928H270.536L260.864 42.336H258.776ZM271.113 42.336C268.593 42.336 266.793 40.248 266.793 36.672C266.793 33.12 268.593 31.056 271.113 31.056C273.632 31.056 275.433 33.12 275.433 36.672C275.433 40.248 273.632 42.336 271.113 42.336ZM271.113 40.344C272.145 40.344 272.96 39.288 272.96 36.672C272.96 34.056 272.145 33.072 271.113 33.072C270.08 33.072 269.265 34.056 269.265 36.672C269.265 39.288 270.08 40.344 271.113 40.344Z" fill="#130F31"/>
<rect y="74" width="160" height="66" fill="#A3C9F0"/>
<rect x="168" y="74" width="160" height="66" fill="#F2F2F2"/>
<path d="M36.368 96.728H46.64V99.2H36.368V96.728ZM37.256 109.616H48.464V112.16H37.256V109.616ZM35.792 114.968H49.472V117.512H35.792V114.968ZM45.8 96.728H46.352L46.88 96.632L48.8 97.472C46.904 103.16 42.584 106.328 37.184 108.032C36.848 107.312 36.152 106.208 35.6 105.632C40.376 104.408 44.384 101.456 45.8 97.184V96.728ZM40.088 98.888C41.744 102.176 45.248 104.576 49.808 105.56C49.208 106.112 48.44 107.192 48.056 107.888C43.208 106.592 39.68 103.808 37.568 99.704L40.088 98.888ZM41.336 106.76H44.168V116.6H41.336V106.76ZM30.56 95.648L33.056 96.584C32.072 98.408 30.968 100.544 30.032 101.888L28.112 101.048C28.976 99.632 30.008 97.328 30.56 95.648ZM33.32 98.48L35.648 99.536C33.92 102.296 31.568 105.632 29.744 107.72L28.088 106.784C29.864 104.6 32.072 101.072 33.32 98.48ZM26.864 101.336L28.232 99.368C29.504 100.472 30.992 101.984 31.616 103.088L30.128 105.32C29.552 104.168 28.088 102.488 26.864 101.336ZM32.6 104.216L34.496 103.424C35.432 105.032 36.344 107.144 36.632 108.536L34.592 109.448C34.328 108.056 33.512 105.872 32.6 104.216ZM26.84 106.208C29.048 106.136 32.288 106.016 35.456 105.872L35.432 108.152C32.48 108.368 29.408 108.56 27.08 108.728L26.84 106.208ZM33.128 110.192L35.144 109.544C35.744 110.912 36.368 112.712 36.632 113.912L34.52 114.656C34.28 113.456 33.656 111.608 33.128 110.192ZM27.872 109.736L30.248 110.144C30.008 112.448 29.48 114.848 28.784 116.384C28.28 116.072 27.2 115.568 26.6 115.328C27.296 113.912 27.68 111.776 27.872 109.736ZM30.56 107.48H33.08V118.184H30.56V107.48ZM61.856 97.784H77.048V100.256H61.856V97.784ZM65.336 107.624H73.76V110.024H65.336V107.624ZM65.36 111.656H73.832V114.056H65.36V111.656ZM67.928 95.648H70.904V98.888H67.928V95.648ZM72.392 106.616H75.224V118.112H72.392V106.616ZM72.296 99.272L74.984 100.04C72.536 104.024 67.664 105.992 62.24 107.048C61.976 106.424 61.328 105.2 60.872 104.624C65.936 103.928 70.472 102.392 72.296 99.272ZM56.12 97.856L57.68 95.744C59.168 96.32 61.112 97.304 62.072 98.12L60.416 100.472C59.528 99.632 57.632 98.528 56.12 97.856ZM54.728 104.384L56.288 102.224C57.776 102.752 59.768 103.712 60.752 104.504L59.096 106.904C58.184 106.088 56.264 105.032 54.728 104.384ZM55.424 116.024C56.648 114.2 58.376 111.152 59.72 108.344L61.928 110.144C60.728 112.688 59.288 115.472 57.944 117.848L55.424 116.024ZM63.728 106.544H66.488V109.4C66.488 111.92 66.056 115.952 63.032 118.424C62.504 117.968 61.4 117.224 60.728 116.864C63.392 114.752 63.728 111.392 63.728 109.352V106.544ZM65.912 99.056C68.936 102.68 72.896 103.616 77.624 104.264C77 104.912 76.352 105.968 76.088 106.856C71.12 105.92 66.872 104.528 63.56 100.064L65.912 99.056ZM87.512 103.832H98.576V106.304H87.512V103.832ZM83.216 109.208H104.696V111.872H83.216V109.208ZM92.456 107.672H95.408V115.088C95.408 116.576 95.048 117.32 93.896 117.752C92.768 118.136 91.232 118.184 89.192 118.184C89 117.368 88.472 116.144 88.016 115.4C89.552 115.448 91.352 115.448 91.832 115.448C92.312 115.448 92.456 115.328 92.456 114.992V107.672ZM97.64 103.832H98.36L98.96 103.688L100.784 105.08C99.128 106.856 96.752 108.728 94.4 109.856C94.064 109.376 93.296 108.584 92.864 108.2C94.712 107.24 96.752 105.536 97.64 104.36V103.832ZM83.504 99.44H104.432V105.32H101.576V101.984H86.216V105.32H83.504V99.44ZM100.136 95.792L103.256 96.704C102.152 98.288 100.904 99.92 99.92 100.976L97.568 100.112C98.48 98.936 99.56 97.136 100.136 95.792ZM85.112 96.968L87.56 95.864C88.424 96.8 89.384 98.096 89.768 99.032L87.152 100.232C86.816 99.344 85.928 97.976 85.112 96.968ZM91.16 96.44L93.704 95.48C94.472 96.536 95.288 98 95.6 98.96L92.864 100.016C92.624 99.056 91.88 97.544 91.16 96.44ZM123.728 96.992H130.712V99.704H126.536V118.16H123.728V96.992ZM111.08 97.928H122.696V100.424H111.08V97.928ZM110.576 104.648H122.984V107.24H110.576V104.648ZM115.496 95.792H118.28V99.488H115.496V95.792ZM112.472 101.096L114.848 100.592C115.328 101.672 115.688 103.136 115.832 104.096L113.312 104.696C113.24 103.712 112.88 102.224 112.472 101.096ZM118.904 100.496L121.592 101.072C121.064 102.416 120.584 103.784 120.152 104.696L117.896 104.144C118.28 103.136 118.712 101.6 118.904 100.496ZM112.928 114.488H120.344V116.984H112.928V114.488ZM111.944 108.824H121.904V118.088H119.12V111.32H114.608V118.184H111.944V108.824ZM129.968 96.992H130.52L130.976 96.896L133.088 98.216C132.224 100.544 131.168 103.304 130.232 105.368C132.224 107.504 132.608 109.4 132.632 111.008C132.632 112.784 132.224 113.96 131.312 114.584C130.832 114.92 130.28 115.112 129.656 115.208C129.104 115.28 128.432 115.28 127.736 115.256C127.712 114.464 127.472 113.24 127.016 112.448C127.544 112.472 128.024 112.496 128.384 112.472C128.72 112.472 129.032 112.4 129.272 112.256C129.68 111.992 129.848 111.464 129.848 110.624C129.824 109.328 129.32 107.576 127.376 105.704C128.336 103.4 129.44 99.68 129.968 98V96.992Z" fill="#066AD5"/>
<path d="M221.008 116V113.984C225.856 109.64 228.688 106.304 228.688 103.568C228.688 101.792 227.752 100.688 226.048 100.688C224.728 100.688 223.696 101.528 222.784 102.536L220.84 100.616C222.472 98.864 224.08 97.928 226.504 97.928C229.84 97.928 232.096 100.064 232.096 103.376C232.096 106.616 229.408 110.072 226.168 113.24C227.056 113.144 228.232 113.024 229.072 113.024H232.912V116H221.008ZM243.636 116.336C240.012 116.336 237.612 113.192 237.612 107.048C237.612 100.928 240.012 97.928 243.636 97.928C247.236 97.928 249.636 100.928 249.636 107.048C249.636 113.192 247.236 116.336 243.636 116.336ZM243.636 113.576C245.172 113.576 246.3 112.04 246.3 107.048C246.3 102.08 245.172 100.64 243.636 100.64C242.1 100.64 240.948 102.08 240.948 107.048C240.948 112.04 242.1 113.576 243.636 113.576ZM258.2 109.184C255.656 109.184 253.856 107.072 253.856 103.52C253.856 99.968 255.656 97.928 258.2 97.928C260.744 97.928 262.544 99.968 262.544 103.52C262.544 107.072 260.744 109.184 258.2 109.184ZM258.2 107.192C259.232 107.192 260.024 106.112 260.024 103.52C260.024 100.904 259.232 99.92 258.2 99.92C257.144 99.92 256.352 100.904 256.352 103.52C256.352 106.112 257.144 107.192 258.2 107.192ZM258.776 116.336L268.424 97.928H270.536L260.864 116.336H258.776ZM271.113 116.336C268.593 116.336 266.793 114.248 266.793 110.672C266.793 107.12 268.593 105.056 271.113 105.056C273.632 105.056 275.433 107.12 275.433 110.672C275.433 114.248 273.632 116.336 271.113 116.336ZM271.113 114.344C272.145 114.344 272.96 113.288 272.96 110.672C272.96 108.056 272.145 107.072 271.113 107.072C270.08 107.072 269.265 108.056 269.265 110.672C269.265 113.288 270.08 114.344 271.113 114.344Z" fill="#130F31"/>
<rect y="148" width="160" height="66" fill="#7AB0E7"/>
<rect x="168" y="148" width="160" height="66" fill="#F2F2F2"/>
<path d="M41.624 171.448H62.72V174.04H41.624V171.448ZM50.552 169.624H53.528V172.984H50.552V169.624ZM42.416 175.936H60.872V178.408H45.152V192.112H42.416V175.936ZM59.384 175.936H62.168V189.04C62.168 190.432 61.88 191.248 60.944 191.68C59.984 192.112 58.64 192.184 56.744 192.184C56.624 191.416 56.192 190.144 55.808 189.424C57.056 189.496 58.448 189.496 58.856 189.472C59.264 189.472 59.384 189.352 59.384 189.016V175.936ZM48.464 178.096H51.008C50.816 180.976 50 182.608 46.184 183.472C45.968 182.872 45.368 181.936 44.864 181.48C47.84 180.952 48.344 180.016 48.464 178.096ZM52.904 178.096H55.4V179.92C55.4 180.448 55.448 180.496 55.88 180.496C56.096 180.496 56.888 180.496 57.128 180.496C57.512 180.496 57.608 180.328 57.68 179.152C58.136 179.488 59.144 179.824 59.792 179.968C59.552 182.008 58.928 182.56 57.44 182.56C57.008 182.56 55.904 182.56 55.496 182.56C53.36 182.56 52.904 181.936 52.904 179.968V178.096ZM47.504 183.472H50.048V191.032H47.504V183.472ZM49.088 183.472H56.984V189.736H49.088V187.624H54.392V185.584H49.088V183.472ZM45.92 173.992L48.776 173.512C49.208 174.28 49.664 175.312 49.856 176.008L46.88 176.608C46.736 175.912 46.304 174.808 45.92 173.992ZM55.304 173.488L58.496 173.968C57.92 175.024 57.416 175.888 56.984 176.536L54.128 176.056C54.536 175.312 55.04 174.232 55.304 173.488ZM73.592 177.832H84.656V180.304H73.592V177.832ZM69.296 183.208H90.776V185.872H69.296V183.208ZM78.536 181.672H81.488V189.088C81.488 190.576 81.128 191.32 79.976 191.752C78.848 192.136 77.312 192.184 75.272 192.184C75.08 191.368 74.552 190.144 74.096 189.4C75.632 189.448 77.432 189.448 77.912 189.448C78.392 189.448 78.536 189.328 78.536 188.992V181.672ZM83.72 177.832H84.44L85.04 177.688L86.864 179.08C85.208 180.856 82.832 182.728 80.48 183.856C80.144 183.376 79.376 182.584 78.944 182.2C80.792 181.24 82.832 179.536 83.72 178.36V177.832ZM69.584 173.44H90.512V179.32H87.656V175.984H72.296V179.32H69.584V173.44ZM86.216 169.792L89.336 170.704C88.232 172.288 86.984 173.92 86 174.976L83.648 174.112C84.56 172.936 85.64 171.136 86.216 169.792ZM71.192 170.968L73.64 169.864C74.504 170.8 75.464 172.096 75.848 173.032L73.232 174.232C72.896 173.344 72.008 171.976 71.192 170.968ZM77.24 170.44L79.784 169.48C80.552 170.536 81.368 172 81.68 172.96L78.944 174.016C78.704 173.056 77.96 171.544 77.24 170.44ZM109.808 170.992H116.792V173.704H112.616V192.16H109.808V170.992ZM97.16 171.928H108.776V174.424H97.16V171.928ZM96.656 178.648H109.064V181.24H96.656V178.648ZM101.576 169.792H104.36V173.488H101.576V169.792ZM98.552 175.096L100.928 174.592C101.408 175.672 101.768 177.136 101.912 178.096L99.392 178.696C99.32 177.712 98.96 176.224 98.552 175.096ZM104.984 174.496L107.672 175.072C107.144 176.416 106.664 177.784 106.232 178.696L103.976 178.144C104.36 177.136 104.792 175.6 104.984 174.496ZM99.008 188.488H106.424V190.984H99.008V188.488ZM98.024 182.824H107.984V192.088H105.2V185.32H100.688V192.184H98.024V182.824ZM116.048 170.992H116.6L117.056 170.896L119.168 172.216C118.304 174.544 117.248 177.304 116.312 179.368C118.304 181.504 118.688 183.4 118.712 185.008C118.712 186.784 118.304 187.96 117.392 188.584C116.912 188.92 116.36 189.112 115.736 189.208C115.184 189.28 114.512 189.28 113.816 189.256C113.792 188.464 113.552 187.24 113.096 186.448C113.624 186.472 114.104 186.496 114.464 186.472C114.8 186.472 115.112 186.4 115.352 186.256C115.76 185.992 115.928 185.464 115.928 184.624C115.904 183.328 115.4 181.576 113.456 179.704C114.416 177.4 115.52 173.68 116.048 172V170.992Z" fill="white"/>
<path d="M221.944 190V187.144H225.784V175.912H222.544V173.728C224.344 173.392 225.544 172.936 226.696 172.24H229.312V187.144H232.648V190H221.944ZM238.5 190V187.144H242.34V175.912H239.1V173.728C240.9 173.392 242.1 172.936 243.252 172.24H245.868V187.144H249.204V190H238.5ZM258.2 183.184C255.656 183.184 253.856 181.072 253.856 177.52C253.856 173.968 255.656 171.928 258.2 171.928C260.744 171.928 262.544 173.968 262.544 177.52C262.544 181.072 260.744 183.184 258.2 183.184ZM258.2 181.192C259.232 181.192 260.024 180.112 260.024 177.52C260.024 174.904 259.232 173.92 258.2 173.92C257.144 173.92 256.352 174.904 256.352 177.52C256.352 180.112 257.144 181.192 258.2 181.192ZM258.776 190.336L268.424 171.928H270.536L260.864 190.336H258.776ZM271.113 190.336C268.593 190.336 266.793 188.248 266.793 184.672C266.793 181.12 268.593 179.056 271.113 179.056C273.632 179.056 275.433 181.12 275.433 184.672C275.433 188.248 273.632 190.336 271.113 190.336ZM271.113 188.344C272.145 188.344 272.96 187.288 272.96 184.672C272.96 182.056 272.145 181.072 271.113 181.072C270.08 181.072 269.265 182.056 269.265 184.672C269.265 187.288 270.08 188.344 271.113 188.344Z" fill="#130F31"/>
<rect y="222" width="160" height="66" fill="#5298DE"/>
<rect x="168" y="222" width="160" height="66" fill="#F2F2F2"/>
<path d="M36.368 244.728H46.64V247.2H36.368V244.728ZM37.256 257.616H48.464V260.16H37.256V257.616ZM35.792 262.968H49.472V265.512H35.792V262.968ZM45.8 244.728H46.352L46.88 244.632L48.8 245.472C46.904 251.16 42.584 254.328 37.184 256.032C36.848 255.312 36.152 254.208 35.6 253.632C40.376 252.408 44.384 249.456 45.8 245.184V244.728ZM40.088 246.888C41.744 250.176 45.248 252.576 49.808 253.56C49.208 254.112 48.44 255.192 48.056 255.888C43.208 254.592 39.68 251.808 37.568 247.704L40.088 246.888ZM41.336 254.76H44.168V264.6H41.336V254.76ZM30.56 243.648L33.056 244.584C32.072 246.408 30.968 248.544 30.032 249.888L28.112 249.048C28.976 247.632 30.008 245.328 30.56 243.648ZM33.32 246.48L35.648 247.536C33.92 250.296 31.568 253.632 29.744 255.72L28.088 254.784C29.864 252.6 32.072 249.072 33.32 246.48ZM26.864 249.336L28.232 247.368C29.504 248.472 30.992 249.984 31.616 251.088L30.128 253.32C29.552 252.168 28.088 250.488 26.864 249.336ZM32.6 252.216L34.496 251.424C35.432 253.032 36.344 255.144 36.632 256.536L34.592 257.448C34.328 256.056 33.512 253.872 32.6 252.216ZM26.84 254.208C29.048 254.136 32.288 254.016 35.456 253.872L35.432 256.152C32.48 256.368 29.408 256.56 27.08 256.728L26.84 254.208ZM33.128 258.192L35.144 257.544C35.744 258.912 36.368 260.712 36.632 261.912L34.52 262.656C34.28 261.456 33.656 259.608 33.128 258.192ZM27.872 257.736L30.248 258.144C30.008 260.448 29.48 262.848 28.784 264.384C28.28 264.072 27.2 263.568 26.6 263.328C27.296 261.912 27.68 259.776 27.872 257.736ZM30.56 255.48H33.08V266.184H30.56V255.48ZM62.504 253.104V254.808H69.632V253.104H62.504ZM59.84 250.992H72.44V256.896H59.84V250.992ZM64.352 256.008L67.64 256.2C67.16 257.496 66.56 258.72 66.128 259.584L63.608 259.224C63.92 258.264 64.232 256.968 64.352 256.008ZM57.824 258.36H74.72V266.208H71.84V260.832H60.56V266.208H57.824V258.36ZM59.36 262.944H73.064V265.416H59.36V262.944ZM55.976 247.368H76.448V252.504H73.664V249.816H58.592V252.504H55.976V247.368ZM72.08 243.744L75.176 244.68C74.144 246.048 73.064 247.44 72.2 248.352L69.872 247.464C70.64 246.432 71.576 244.896 72.08 243.744ZM57.296 245.016L59.792 243.96C60.608 244.872 61.544 246.144 61.928 247.032L59.288 248.184C58.952 247.32 58.088 245.976 57.296 245.016ZM63.32 244.416L65.84 243.528C66.512 244.488 67.328 245.856 67.664 246.744L65 247.728C64.712 246.84 63.968 245.424 63.32 244.416ZM87.512 251.832H98.576V254.304H87.512V251.832ZM83.216 257.208H104.696V259.872H83.216V257.208ZM92.456 255.672H95.408V263.088C95.408 264.576 95.048 265.32 93.896 265.752C92.768 266.136 91.232 266.184 89.192 266.184C89 265.368 88.472 264.144 88.016 263.4C89.552 263.448 91.352 263.448 91.832 263.448C92.312 263.448 92.456 263.328 92.456 262.992V255.672ZM97.64 251.832H98.36L98.96 251.688L100.784 253.08C99.128 254.856 96.752 256.728 94.4 257.856C94.064 257.376 93.296 256.584 92.864 256.2C94.712 255.24 96.752 253.536 97.64 252.36V251.832ZM83.504 247.44H104.432V253.32H101.576V249.984H86.216V253.32H83.504V247.44ZM100.136 243.792L103.256 244.704C102.152 246.288 100.904 247.92 99.92 248.976L97.568 248.112C98.48 246.936 99.56 245.136 100.136 243.792ZM85.112 244.968L87.56 243.864C88.424 244.8 89.384 246.096 89.768 247.032L87.152 248.232C86.816 247.344 85.928 245.976 85.112 244.968ZM91.16 244.44L93.704 243.48C94.472 244.536 95.288 246 95.6 246.96L92.864 248.016C92.624 247.056 91.88 245.544 91.16 244.44ZM123.728 244.992H130.712V247.704H126.536V266.16H123.728V244.992ZM111.08 245.928H122.696V248.424H111.08V245.928ZM110.576 252.648H122.984V255.24H110.576V252.648ZM115.496 243.792H118.28V247.488H115.496V243.792ZM112.472 249.096L114.848 248.592C115.328 249.672 115.688 251.136 115.832 252.096L113.312 252.696C113.24 251.712 112.88 250.224 112.472 249.096ZM118.904 248.496L121.592 249.072C121.064 250.416 120.584 251.784 120.152 252.696L117.896 252.144C118.28 251.136 118.712 249.6 118.904 248.496ZM112.928 262.488H120.344V264.984H112.928V262.488ZM111.944 256.824H121.904V266.088H119.12V259.32H114.608V266.184H111.944V256.824ZM129.968 244.992H130.52L130.976 244.896L133.088 246.216C132.224 248.544 131.168 251.304 130.232 253.368C132.224 255.504 132.608 257.4 132.632 259.008C132.632 260.784 132.224 261.96 131.312 262.584C130.832 262.92 130.28 263.112 129.656 263.208C129.104 263.28 128.432 263.28 127.736 263.256C127.712 262.464 127.472 261.24 127.016 260.448C127.544 260.472 128.024 260.496 128.384 260.472C128.72 260.472 129.032 260.4 129.272 260.256C129.68 259.992 129.848 259.464 129.848 258.624C129.824 257.328 129.32 255.576 127.376 253.704C128.336 251.4 129.44 247.68 129.968 246V244.992Z" fill="white"/>
<path d="M227.056 264.336C223.648 264.336 221.128 262.392 221.128 259.608C221.128 257.328 222.52 255.816 224.152 254.952V254.856C222.808 253.872 221.8 252.504 221.8 250.632C221.8 247.776 224.08 245.952 227.176 245.952C230.32 245.952 232.336 247.824 232.336 250.656C232.336 252.432 231.208 253.896 230.056 254.736V254.856C231.688 255.744 233.032 257.16 233.032 259.608C233.032 262.296 230.632 264.336 227.056 264.336ZM228.184 253.872C229.048 252.96 229.456 251.952 229.456 250.896C229.456 249.432 228.568 248.424 227.104 248.424C225.88 248.424 224.92 249.216 224.92 250.632C224.92 252.288 226.312 253.128 228.184 253.872ZM227.128 261.84C228.664 261.84 229.744 261 229.744 259.464C229.744 257.616 228.088 256.872 225.808 255.912C224.824 256.68 224.152 257.88 224.152 259.2C224.152 260.808 225.472 261.84 227.128 261.84ZM241.644 257.184C239.1 257.184 237.3 255.072 237.3 251.52C237.3 247.968 239.1 245.928 241.644 245.928C244.188 245.928 245.988 247.968 245.988 251.52C245.988 255.072 244.188 257.184 241.644 257.184ZM241.644 255.192C242.676 255.192 243.468 254.112 243.468 251.52C243.468 248.904 242.676 247.92 241.644 247.92C240.588 247.92 239.796 248.904 239.796 251.52C239.796 254.112 240.588 255.192 241.644 255.192ZM242.22 264.336L251.868 245.928H253.98L244.308 264.336H242.22ZM254.556 264.336C252.036 264.336 250.236 262.248 250.236 258.672C250.236 255.12 252.036 253.056 254.556 253.056C257.076 253.056 258.876 255.12 258.876 258.672C258.876 262.248 257.076 264.336 254.556 264.336ZM254.556 262.344C255.588 262.344 256.404 261.288 256.404 258.672C256.404 256.056 255.588 255.072 254.556 255.072C253.524 255.072 252.708 256.056 252.708 258.672C252.708 261.288 253.524 262.344 254.556 262.344Z" fill="#130F31"/>
<rect width="160" height="66" fill="#CCE2F9"/>
<rect y="296" width="160" height="66" fill="#297FD5"/>
<rect y="370" width="160" height="66" fill="#0066CC"/>
<rect x="168" y="296" width="160" height="66" fill="#F2F2F2"/>
<rect x="168" y="370" width="160" height="66" fill="#F2F2F2"/>
<path d="M56.312 324.248H47.888C48.92 326.84 50.336 329.144 52.184 331.088C53.912 329.216 55.28 326.96 56.312 324.248ZM63.128 324.248H59.672C58.376 327.8 56.624 330.704 54.416 333.104C56.888 335 59.912 336.416 63.56 337.232C62.864 337.928 61.952 339.272 61.52 340.088C57.656 339.104 54.536 337.496 52.016 335.36C49.4 337.448 46.304 339.008 42.656 340.16C42.32 339.416 41.432 338.072 40.856 337.376C44.408 336.44 47.408 335.072 49.832 333.224C47.672 330.752 46.016 327.752 44.72 324.248H41.288V321.464H50.696V317.672H53.6V321.464H63.128V324.248ZM72.344 323.984V327.296H69.656V321.464H72.92C72.488 320.672 71.84 319.736 71.264 318.992L73.688 317.912C74.528 318.848 75.488 320.12 75.872 321.056L75.008 321.464H78.776C78.44 320.528 77.84 319.376 77.264 318.464L79.784 317.552C80.552 318.584 81.344 320.048 81.656 321.008L80.504 321.464H84.128C84.92 320.336 85.736 318.944 86.192 317.816L89.288 318.752C88.64 319.664 87.92 320.624 87.272 321.464H90.464V327.296H87.656V323.984H72.344ZM90.704 331.208V333.824H81.464V337.016C81.464 338.504 81.152 339.248 79.976 339.656C78.848 340.064 77.36 340.112 75.32 340.112C75.128 339.296 74.576 338.096 74.144 337.328C75.68 337.4 77.456 337.4 77.936 337.376C78.44 337.376 78.56 337.28 78.56 336.944V333.824H69.344V331.208H78.56V329.624H79.928C80.552 329.24 81.2 328.784 81.776 328.304H73.64V325.832H84.416L85.04 325.688L86.84 327.08C85.472 328.544 83.6 330.08 81.632 331.208H90.704ZM108.8 319.976V322.448H97.232V319.976H101.624V317.84H104.384V319.976H108.8ZM105.224 333.272H100.736V336.44H105.224V333.272ZM98.096 340.112V330.8H108.008V340.016H105.224V338.912H100.736V340.112H98.096ZM105.008 322.52L107.696 323.096C107.192 324.416 106.688 325.712 106.28 326.648H109.064V329.24H96.728V326.648H99.464C99.392 325.688 99.032 324.2 98.624 323.096L100.952 322.616C101.456 323.696 101.84 325.136 101.936 326.12L99.68 326.648H105.968L104.024 326.144C104.384 325.136 104.816 323.624 105.008 322.52ZM117.008 318.944L119.096 320.24C118.256 322.544 117.2 325.304 116.24 327.344C118.28 329.504 118.64 331.376 118.64 332.96C118.64 334.712 118.256 335.888 117.344 336.536C116.888 336.848 116.312 337.04 115.712 337.136C115.16 337.208 114.464 337.208 113.792 337.184C113.792 336.416 113.552 335.192 113.096 334.4C113.624 334.424 114.08 334.448 114.44 334.424C114.776 334.424 115.088 334.352 115.328 334.232C115.76 333.968 115.904 333.416 115.904 332.6C115.904 331.304 115.376 329.576 113.456 327.704C114.152 326 114.92 323.552 115.496 321.728H112.592V340.088H109.808V319.04H116.576L117.008 318.944Z" fill="white"/>
<path d="M46.04 393.64C46.808 393.712 47.504 393.736 48.32 393.736C49.352 393.736 53.84 393.52 55.304 393.352C56.096 393.28 56.648 393.16 56.984 393.064L58.88 395.272C58.376 395.584 57.464 396.184 56.984 396.592C55.256 397.96 52.904 399.928 51.272 401.224C54.488 400.888 58.472 400.648 61.376 400.648L61.4 403.48C59.096 403.336 56.672 403.336 55.208 403.528C53.024 403.84 51.176 405.4 51.176 407.368C51.176 409.264 52.664 410.008 54.824 410.248C56.168 410.392 57.584 410.368 58.472 410.296L57.848 413.464C51.68 413.728 48.104 411.856 48.104 407.872C48.104 406.384 48.968 404.896 49.856 404.08C47.648 404.248 44.984 404.608 42.56 405.04L42.296 402.136C43.568 401.992 45.248 401.8 46.496 401.656C48.632 400.24 51.776 397.528 53.264 396.184C52.28 396.256 49.304 396.4 48.32 396.496C47.744 396.544 46.928 396.64 46.184 396.712L46.04 393.64ZM82.184 395.56C81.848 398.008 81.368 400.816 80.528 403.648C79.088 408.496 77.024 411.472 74.408 411.472C71.72 411.472 69.512 408.52 69.512 404.464C69.512 398.944 74.336 394.192 80.552 394.192C86.48 394.192 90.248 398.32 90.248 403.576C90.248 408.616 87.152 412.192 81.104 413.128L79.28 410.296C80.216 410.176 80.888 410.056 81.536 409.912C84.584 409.168 86.984 406.984 86.984 403.456C86.984 399.688 84.632 397 80.48 397C75.392 397 72.608 401.152 72.608 404.176C72.608 406.6 73.568 407.776 74.48 407.776C75.512 407.776 76.424 406.24 77.432 403C78.128 400.744 78.656 397.984 78.896 395.464L82.184 395.56ZM110.408 391.72H113.096V408.448H110.408V391.72ZM102.296 401.128L116.552 395.584L117.632 398.08L103.4 403.672L102.296 401.128ZM105.224 394.312H108.08V409.552C108.08 410.992 108.32 411.208 109.904 411.208C110.624 411.208 113.912 411.208 114.752 411.208C116.144 411.208 116.408 410.632 116.624 407.896C117.272 408.352 118.424 408.832 119.24 409.024C118.856 412.624 117.992 413.8 114.968 413.8C114.152 413.8 110.408 413.8 109.664 413.8C106.184 413.8 105.224 412.888 105.224 409.552V394.312ZM115.568 396.064H115.4L115.904 395.704L116.408 395.32L118.376 396.088L118.256 396.52C118.232 400.72 118.208 403.624 118.064 404.656C117.944 405.88 117.512 406.504 116.696 406.864C115.976 407.176 114.848 407.224 113.984 407.2C113.936 406.384 113.672 405.184 113.36 404.56C113.864 404.584 114.56 404.584 114.824 404.584C115.16 404.584 115.328 404.512 115.448 404.032C115.544 403.504 115.568 401.104 115.568 396.064ZM101.624 391.72L104.288 392.56C102.752 396.616 100.256 400.936 97.664 403.672C97.4 403 96.632 401.44 96.152 400.744C98.336 398.56 100.4 395.152 101.624 391.72ZM99.2 398.344L102.032 395.536V395.56V414.136H99.2V398.344Z" fill="white"/>
<path d="M227.392 329.312C226.432 329.312 225.304 329.84 224.488 331.184C224.824 334.424 226.024 335.672 227.512 335.672C228.832 335.672 229.936 334.568 229.936 332.384C229.936 330.296 228.928 329.312 227.392 329.312ZM227.584 338.336C224.2 338.336 221.2 335.624 221.2 329.36C221.2 322.736 224.488 319.904 228.064 319.904C230.248 319.904 231.808 320.816 232.888 321.92L231.016 324.032C230.392 323.312 229.312 322.736 228.28 322.736C226.24 322.736 224.56 324.272 224.416 328.736C225.376 327.536 226.912 326.816 228.064 326.816C231.04 326.816 233.152 328.592 233.152 332.384C233.152 336.032 230.608 338.336 227.584 338.336ZM241.621 331.16C239.077 331.16 237.301 329.072 237.301 325.496C237.301 321.944 239.077 319.904 241.621 319.904C244.165 319.904 245.965 321.944 245.965 325.496C245.965 329.072 244.165 331.16 241.621 331.16ZM241.621 329.168C242.653 329.168 243.469 328.112 243.469 325.496C243.469 322.88 242.653 321.896 241.621 321.896C240.589 321.896 239.797 322.88 239.797 325.496C239.797 328.112 240.589 329.168 241.621 329.168ZM242.221 338.336L251.869 319.904H253.957L244.309 338.336H242.221ZM254.533 338.336C252.013 338.336 250.213 336.224 250.213 332.672C250.213 329.096 252.013 327.056 254.533 327.056C257.053 327.056 258.877 329.096 258.877 332.672C258.877 336.224 257.053 338.336 254.533 338.336ZM254.533 336.32C255.565 336.32 256.381 335.288 256.381 332.672C256.381 330.056 255.565 329.048 254.533 329.048C253.501 329.048 252.709 330.056 252.709 332.672C252.709 335.288 253.501 336.32 254.533 336.32Z" fill="#130F31"/>
<path d="M226.552 412.336C223.744 412.336 221.848 411.304 220.6 409.864L222.28 407.632C223.336 408.664 224.608 409.48 226.216 409.48C228.04 409.48 229.264 408.568 229.264 406.984C229.264 405.232 228.232 404.152 224.368 404.152V401.608C227.632 401.608 228.688 400.504 228.688 398.92C228.688 397.528 227.824 396.688 226.312 396.688C225.04 396.688 224.008 397.288 222.952 398.272L221.152 396.088C222.688 394.768 224.392 393.928 226.456 393.928C229.888 393.928 232.216 395.608 232.216 398.656C232.216 400.552 231.16 401.968 229.264 402.688V402.808C231.28 403.384 232.816 404.848 232.816 407.2C232.816 410.464 229.96 412.336 226.552 412.336ZM237.564 412V409.984C242.412 405.64 245.244 402.304 245.244 399.568C245.244 397.792 244.308 396.688 242.604 396.688C241.284 396.688 240.252 397.528 239.34 398.536L237.396 396.616C239.028 394.864 240.636 393.928 243.06 393.928C246.396 393.928 248.652 396.064 248.652 399.376C248.652 402.616 245.964 406.072 242.724 409.24C243.612 409.144 244.788 409.024 245.628 409.024H249.468V412H237.564ZM258.2 405.184C255.656 405.184 253.856 403.072 253.856 399.52C253.856 395.968 255.656 393.928 258.2 393.928C260.744 393.928 262.544 395.968 262.544 399.52C262.544 403.072 260.744 405.184 258.2 405.184ZM258.2 403.192C259.232 403.192 260.024 402.112 260.024 399.52C260.024 396.904 259.232 395.92 258.2 395.92C257.144 395.92 256.352 396.904 256.352 399.52C256.352 402.112 257.144 403.192 258.2 403.192ZM258.776 412.336L268.424 393.928H270.536L260.864 412.336H258.776ZM271.113 412.336C268.593 412.336 266.793 410.248 266.793 406.672C266.793 403.12 268.593 401.056 271.113 401.056C273.632 401.056 275.433 403.12 275.433 406.672C275.433 410.248 273.632 412.336 271.113 412.336ZM271.113 410.344C272.145 410.344 272.96 409.288 272.96 406.672C272.96 404.056 272.145 403.072 271.113 403.072C270.08 403.072 269.265 404.056 269.265 406.672C269.265 409.288 270.08 410.344 271.113 410.344Z" fill="#130F31"/>
<path d="M47.576 31.248H63.152V33.984H47.576V31.248ZM48.776 25.08H62V27.816H48.776V25.08ZM53.768 21.624H56.768V33.24H53.768V21.624ZM47.576 40.296C50.792 40.176 55.856 39.888 60.584 39.624V42.216C56.096 42.6 51.344 42.96 47.96 43.2L47.576 40.296ZM56.768 36.984L59.264 35.664C61.04 37.8 62.984 40.632 63.728 42.672L60.992 44.184C60.344 42.216 58.52 39.192 56.768 36.984ZM51.92 33.168L55.112 34.008C54.056 36.792 52.688 39.864 51.584 41.856L49.016 41.04C50.096 38.928 51.296 35.64 51.92 33.168ZM42.2 23.832L43.784 21.72C45.344 22.296 47.384 23.328 48.392 24.168L46.712 26.52C45.776 25.656 43.784 24.504 42.2 23.832ZM40.832 30.384L42.32 28.2C43.88 28.728 45.944 29.664 47 30.456L45.392 32.856C44.432 32.064 42.416 30.984 40.832 30.384ZM41.504 41.976C42.704 40.176 44.432 37.176 45.752 34.416L47.936 36.24C46.76 38.784 45.344 41.52 44 43.848L41.504 41.976ZM73.592 29.832H84.656V32.304H73.592V29.832ZM69.296 35.208H90.776V37.872H69.296V35.208ZM78.536 33.672H81.488V41.088C81.488 42.576 81.128 43.32 79.976 43.752C78.848 44.136 77.312 44.184 75.272 44.184C75.08 43.368 74.552 42.144 74.096 41.4C75.632 41.448 77.432 41.448 77.912 41.448C78.392 41.448 78.536 41.328 78.536 40.992V33.672ZM83.72 29.832H84.44L85.04 29.688L86.864 31.08C85.208 32.856 82.832 34.728 80.48 35.856C80.144 35.376 79.376 34.584 78.944 34.2C80.792 33.24 82.832 31.536 83.72 30.36V29.832ZM69.584 25.44H90.512V31.32H87.656V27.984H72.296V31.32H69.584V25.44ZM86.216 21.792L89.336 22.704C88.232 24.288 86.984 25.92 86 26.976L83.648 26.112C84.56 24.936 85.64 23.136 86.216 21.792ZM71.192 22.968L73.64 21.864C74.504 22.8 75.464 24.096 75.848 25.032L73.232 26.232C72.896 25.344 72.008 23.976 71.192 22.968ZM77.24 22.44L79.784 21.48C80.552 22.536 81.368 24 81.68 24.96L78.944 26.016C78.704 25.056 77.96 23.544 77.24 22.44ZM109.808 22.992H116.792V25.704H112.616V44.16H109.808V22.992ZM97.16 23.928H108.776V26.424H97.16V23.928ZM96.656 30.648H109.064V33.24H96.656V30.648ZM101.576 21.792H104.36V25.488H101.576V21.792ZM98.552 27.096L100.928 26.592C101.408 27.672 101.768 29.136 101.912 30.096L99.392 30.696C99.32 29.712 98.96 28.224 98.552 27.096ZM104.984 26.496L107.672 27.072C107.144 28.416 106.664 29.784 106.232 30.696L103.976 30.144C104.36 29.136 104.792 27.6 104.984 26.496ZM99.008 40.488H106.424V42.984H99.008V40.488ZM98.024 34.824H107.984V44.088H105.2V37.32H100.688V44.184H98.024V34.824ZM116.048 22.992H116.6L117.056 22.896L119.168 24.216C118.304 26.544 117.248 29.304 116.312 31.368C118.304 33.504 118.688 35.4 118.712 37.008C118.712 38.784 118.304 39.96 117.392 40.584C116.912 40.92 116.36 41.112 115.736 41.208C115.184 41.28 114.512 41.28 113.816 41.256C113.792 40.464 113.552 39.24 113.096 38.448C113.624 38.472 114.104 38.496 114.464 38.472C114.8 38.472 115.112 38.4 115.352 38.256C115.76 37.992 115.928 37.464 115.928 36.624C115.904 35.328 115.4 33.576 113.456 31.704C114.416 29.4 115.52 25.68 116.048 24V22.992Z" fill="#066AD5"/>
</svg>
