<svg width="400" height="400" viewBox="0 0 400 400" fill="none" xmlns="http://www.w3.org/2000/svg">
<rect width="400" height="400" fill="white"/>
<rect x="116" y="114" width="84" height="168" fill="#5399E6" fill-opacity="0.9"/>
<rect x="200" y="114" width="84" height="168" fill="#AECFF2"/>
<g clip-path="url(#clip0_482_842)">
<path d="M216.4 187.898V167.239H183.595V187.898L160.625 187.946V228.71H193.074V213.886H206.924V228.71H239.375V187.946L216.4 187.898ZM176.804 220.813H170.69V214.086H176.804V220.813ZM176.804 203.598H170.69V196.869H176.804V203.598ZM203.057 203.598H196.941V196.869H203.057V203.598ZM200 186.396C195.799 186.396 192.382 182.976 192.382 178.775C192.382 174.576 195.799 171.159 200 171.159C204.201 171.159 207.618 174.576 207.618 178.775C207.618 182.976 204.201 186.396 200 186.396ZM229.31 220.813H223.192V214.086H229.31V220.813ZM229.31 203.598H223.192V196.869H229.31V203.598Z" fill="white"/>
<path d="M200 172.899C196.758 172.899 194.122 175.536 194.122 178.775C194.122 182.017 196.758 184.654 200 184.654C203.24 184.654 205.878 182.017 205.878 178.775C205.878 175.536 203.24 172.899 200 172.899ZM201.168 179.153C201.168 179.573 200.894 179.924 200.524 180.059C200.365 180.162 200.173 180.227 199.966 180.227H196.953C196.393 180.227 195.938 179.773 195.938 179.215C195.938 178.655 196.393 178.201 196.953 178.201H199.236V175.002C199.236 174.471 199.668 174.039 200.202 174.039C200.735 174.039 201.168 174.471 201.168 175.002V179.153H201.168Z" fill="white"/>
</g>
<defs>
<clipPath id="clip0_482_842">
<rect width="78.75" height="78.75" fill="white" transform="translate(160.625 158.6)"/>
</clipPath>
</defs>
</svg>
