<svg width="400" height="400" viewBox="0 0 400 400" fill="none" xmlns="http://www.w3.org/2000/svg">
<rect width="400" height="400" fill="white"/>
<path d="M130.023 258.455V305H120.182V267.795H119.909L109.25 274.477V265.75L120.773 258.455H130.023ZM146.781 296.818V289.068L166.213 258.455H172.894V269.182H168.94L156.69 288.568V288.932H184.303V296.818H146.781ZM169.122 305V294.455L169.303 291.023V258.455H178.531V305H169.122ZM202.135 305.591C200.635 305.591 199.347 305.061 198.272 304C197.211 302.924 196.681 301.636 196.681 300.136C196.681 298.652 197.211 297.379 198.272 296.318C199.347 295.258 200.635 294.727 202.135 294.727C203.59 294.727 204.863 295.258 205.953 296.318C207.044 297.379 207.59 298.652 207.59 300.136C207.59 301.136 207.332 302.053 206.817 302.886C206.317 303.705 205.658 304.364 204.84 304.864C204.022 305.348 203.12 305.591 202.135 305.591ZM237.336 305.636C233.836 305.636 230.723 305.068 227.995 303.932C225.283 302.78 223.155 301.212 221.609 299.227C220.064 297.242 219.291 294.992 219.291 292.477C219.291 290.538 219.73 288.758 220.609 287.136C221.503 285.5 222.715 284.144 224.245 283.068C225.776 281.977 227.488 281.28 229.382 280.977V280.659C226.897 280.159 224.882 278.955 223.336 277.045C221.791 275.121 221.018 272.886 221.018 270.341C221.018 267.932 221.723 265.788 223.132 263.909C224.541 262.015 226.473 260.53 228.927 259.455C231.397 258.364 234.2 257.818 237.336 257.818C240.473 257.818 243.268 258.364 245.723 259.455C248.192 260.545 250.132 262.038 251.541 263.932C252.95 265.811 253.662 267.947 253.677 270.341C253.662 272.902 252.874 275.136 251.314 277.045C249.753 278.955 247.753 280.159 245.314 280.659V280.977C247.177 281.28 248.867 281.977 250.382 283.068C251.912 284.144 253.124 285.5 254.018 287.136C254.927 288.758 255.389 290.538 255.405 292.477C255.389 294.992 254.609 297.242 253.064 299.227C251.518 301.212 249.382 302.78 246.655 303.932C243.942 305.068 240.836 305.636 237.336 305.636ZM237.336 298.409C238.897 298.409 240.261 298.129 241.427 297.568C242.594 296.992 243.503 296.205 244.155 295.205C244.821 294.189 245.155 293.023 245.155 291.705C245.155 290.356 244.814 289.167 244.132 288.136C243.45 287.091 242.526 286.273 241.359 285.682C240.192 285.076 238.852 284.773 237.336 284.773C235.836 284.773 234.495 285.076 233.314 285.682C232.132 286.273 231.2 287.091 230.518 288.136C229.852 289.167 229.518 290.356 229.518 291.705C229.518 293.023 229.844 294.189 230.495 295.205C231.147 296.205 232.064 296.992 233.245 297.568C234.427 298.129 235.791 298.409 237.336 298.409ZM237.336 277.614C238.639 277.614 239.798 277.348 240.814 276.818C241.829 276.288 242.624 275.553 243.2 274.614C243.776 273.674 244.064 272.591 244.064 271.364C244.064 270.152 243.776 269.091 243.2 268.182C242.624 267.258 241.836 266.538 240.836 266.023C239.836 265.492 238.67 265.227 237.336 265.227C236.018 265.227 234.852 265.492 233.836 266.023C232.821 266.538 232.026 267.258 231.45 268.182C230.889 269.091 230.609 270.152 230.609 271.364C230.609 272.591 230.897 273.674 231.473 274.614C232.048 275.553 232.844 276.288 233.859 276.818C234.874 277.348 236.033 277.614 237.336 277.614Z" fill="#066AD5"/>
<path d="M280.54 288.14L282.04 288.52C280.94 291.48 279.16 294.26 277.3 296.06C277 295.8 276.38 295.3 276 295.1C277.9 293.44 279.56 290.84 280.54 288.14ZM280.22 290.62H293.12V292.08H279.5L280.22 290.62ZM279.24 295.16H292.68V296.56H280.74V301.3H279.24V295.16ZM275.94 300.54H294.06V302H275.94V300.54ZM285.24 291.38H286.78V306.62H285.24V291.38Z" fill="#066AD5"/>
<g clip-path="url(#clip0_482_837)">
<path d="M207.856 122.239C207.856 122.062 207.872 121.869 207.872 121.675C207.872 117.434 204.437 114 200.197 114C195.956 114 192.522 117.434 192.522 121.675C192.522 121.869 192.522 122.046 192.538 122.239H183.492V130.108H216.901V122.239H207.856ZM197.02 121.691C197.02 120.804 197.375 120.014 197.955 119.434C198.536 118.853 199.326 118.499 200.213 118.499C201.1 118.499 201.874 118.853 202.47 119.434C203.051 120.014 203.405 120.804 203.405 121.691C203.405 122.578 203.389 122.062 203.357 122.256H197.101C197.069 122.078 197.052 121.885 197.052 121.691H197.02Z" fill="#066AD5"/>
<path d="M200.278 167.516C189.587 167.532 180.945 176.174 180.929 186.864C180.945 197.555 189.587 206.197 200.278 206.213C210.968 206.197 219.61 197.555 219.626 186.864C219.61 176.174 210.968 167.532 200.278 167.516Z" fill="#066AD5"/>
<path d="M228.994 188.606C228.285 187.655 228.285 186.091 228.994 185.123L230.542 183.027C231.252 182.076 231.026 180.754 230.026 180.093L227.849 178.658C226.85 178.013 226.318 176.529 226.656 175.384L227.398 172.885C227.737 171.74 227.075 170.579 225.915 170.305L223.383 169.693C222.222 169.419 221.222 168.225 221.142 167.032L220.997 164.436C220.932 163.243 219.9 162.388 218.723 162.517L216.143 162.824C214.966 162.969 213.612 162.179 213.128 161.082L212.096 158.696C211.629 157.6 210.371 157.148 209.307 157.68L206.985 158.841C205.921 159.373 204.373 159.099 203.567 158.245L201.777 156.358C200.955 155.487 199.616 155.487 198.81 156.358L197.02 158.245C196.198 159.115 194.666 159.389 193.602 158.841L191.28 157.68C190.216 157.148 188.958 157.6 188.491 158.696L187.459 161.082C186.991 162.179 185.637 162.953 184.444 162.824L181.864 162.517C180.687 162.388 179.655 163.243 179.59 164.436L179.445 167.032C179.381 168.225 178.365 169.419 177.204 169.693L174.672 170.305C173.511 170.579 172.85 171.74 173.189 172.885L173.931 175.384C174.269 176.529 173.737 177.997 172.737 178.658L170.561 180.093C169.561 180.754 169.335 182.06 170.045 183.027L171.593 185.123C172.302 186.075 172.302 187.639 171.593 188.606L170.045 190.702C169.335 191.654 169.561 192.976 170.561 193.637L172.737 195.072C173.737 195.733 174.269 197.2 173.931 198.345L173.189 200.844C172.85 201.989 173.511 203.15 174.672 203.424L177.204 204.021C178.365 204.295 179.364 205.488 179.445 206.681L179.59 209.277C179.655 210.47 180.687 211.325 181.864 211.196L184.444 210.89C185.621 210.761 186.975 211.535 187.459 212.631L188.491 215.017C188.958 216.114 190.216 216.565 191.28 216.033L193.602 214.872C194.666 214.34 196.214 214.614 197.02 215.469L198.81 217.355C199.632 218.226 200.971 218.226 201.777 217.355L203.567 215.469C204.389 214.598 205.921 214.34 206.985 214.872L209.307 216.033C210.371 216.565 211.629 216.114 212.096 215.017L213.128 212.631C213.596 211.535 214.95 210.761 216.143 210.89L218.723 211.196C219.9 211.325 220.932 210.47 220.997 209.277L221.142 206.681C221.206 205.488 222.222 204.295 223.383 204.021L225.915 203.424C227.075 203.15 227.737 201.989 227.398 200.844L226.656 198.345C226.318 197.2 226.85 195.733 227.849 195.072L230.026 193.637C231.026 192.976 231.252 191.67 230.542 190.702L228.994 188.606ZM200.277 209.1C187.991 209.1 178.042 199.151 178.042 186.865C178.042 174.578 187.991 164.63 200.277 164.63C212.564 164.63 222.512 174.578 222.512 186.865C222.512 199.151 212.564 209.1 200.277 209.1Z" fill="#066AD5"/>
<path d="M212.741 155.52L213.773 157.906C214.241 159.002 215.595 159.776 216.788 159.647H216.82V133.462H212.322V154.875C212.499 155.052 212.644 155.262 212.741 155.503V155.52Z" fill="#066AD5"/>
<path d="M198.794 153.165C199.616 152.295 200.955 152.295 201.761 153.165L202.519 153.972V133.462H198.02V153.972L198.778 153.165H198.794Z" fill="#066AD5"/>
<path d="M183.444 159.647C184.621 159.792 185.975 159.002 186.459 157.906L187.491 155.52C187.588 155.278 187.733 155.068 187.91 154.891V133.462H183.412V159.631H183.444V159.647Z" fill="#066AD5"/>
</g>
<defs>
<clipPath id="clip0_482_837">
<rect width="82.555" height="104" fill="white" transform="translate(159 114)"/>
</clipPath>
</defs>
</svg>
