<svg width="246" height="32" viewBox="0 0 246 32" fill="none" xmlns="http://www.w3.org/2000/svg">
<path d="M1.968 9.256H22.152V11.488H1.968V9.256ZM1.176 23.776H22.848V26.032H1.176V23.776ZM10.752 4.744H13.128V10.504H10.752V4.744ZM16.344 12.472L18.96 12.928C17.976 16.888 16.584 21.592 15.408 24.544L13.2 24.04C14.376 21.016 15.696 16.096 16.344 12.472ZM5.136 13.144L7.296 12.592C8.52 15.664 9.408 19.552 9.624 22.168L7.296 22.768C7.152 20.2 6.264 16.192 5.136 13.144ZM38.304 6.856C36.216 9.472 32.256 12.496 28.176 14.44C27.888 13.888 27.264 13.024 26.784 12.544C30.984 10.696 35.064 7.456 37.008 4.72H39.36C42.072 7.96 46.2 10.816 50.088 12.28C49.512 12.856 48.984 13.648 48.576 14.32C44.88 12.616 40.56 9.568 38.304 6.856ZM33.552 10.936H43.32V12.976H33.552V10.936ZM30.48 14.824H37.176V23.248H30.48V21.256H35.112V16.816H30.48V14.824ZM39.024 14.824H46.056V16.816H41.184V27.088H39.024V14.824ZM45.384 14.824H47.568V22.216C47.568 23.248 47.376 23.872 46.608 24.208C45.864 24.568 44.736 24.568 43.032 24.568C42.96 23.944 42.672 23.08 42.384 22.504C43.56 22.552 44.64 22.552 44.976 22.528C45.288 22.528 45.384 22.456 45.384 22.144V14.824ZM29.52 14.824H31.56V25.24H29.52V14.824ZM66.096 23.92H74.256V25.864H66.096V23.92ZM65.184 11.248H67.248V27.016H65.184V11.248ZM66.096 11.248H74.112V17.464H66.096V15.616H72.024V13.096H66.096V11.248ZM63.768 7.336H75.696V11.584H73.56V9.184H65.808V11.584H63.768V7.336ZM68.496 4.72H70.704V8.296H68.496V4.72ZM66.096 19.264H75.144V26.872H73.032V21.16H66.096V19.264ZM58.344 9.04H60.24V12.016H58.344V9.04ZM55.2 11.176H57.216V24.544H55.2V11.176ZM56.496 14.416H61.896V15.928H56.496V14.416ZM53.616 24.064C55.656 23.656 58.752 22.936 61.728 22.216L61.944 24.016C59.28 24.808 56.448 25.576 54.288 26.152L53.616 24.064ZM59.28 20.632L61.056 19.84C62.304 21.544 63.528 23.824 63.984 25.336L62.064 26.248C61.632 24.736 60.456 22.36 59.28 20.632ZM56.304 11.176H62.856V19.24H56.304V17.56H60.84V12.856H56.304V11.176ZM57.768 4.744H58.992V5.2H59.64V5.824C58.68 7.672 57.072 10.192 54.552 12.28C54.264 11.8 53.616 11.104 53.136 10.792C55.392 9.04 56.928 6.664 57.768 4.744ZM58.32 4.744H59.88C61.344 5.944 63.048 7.672 63.84 8.896L62.376 10.576C61.656 9.376 60.096 7.408 58.704 6.304H58.32V4.744ZM80.616 11.464H101.832V13.792H80.616V11.464ZM92.592 12.4C94.104 18.064 97.272 22.768 102.288 24.832C101.712 25.336 100.968 26.32 100.584 26.968C95.256 24.472 92.112 19.456 90.312 12.928L92.592 12.4ZM89.952 4.768H92.424C92.328 11.512 92.28 22.096 81.864 26.968C81.504 26.368 80.808 25.552 80.16 25.072C90.192 20.656 89.88 10.84 89.952 4.768ZM111.12 12.904H122.664V14.872H111.12V12.904ZM106.968 18.328H128.304V20.44H106.968V18.328ZM116.448 16.672H118.776V24.472C118.776 25.744 118.464 26.368 117.456 26.704C116.448 27.016 115.008 27.04 112.896 27.04C112.728 26.416 112.296 25.456 111.936 24.856C113.64 24.904 115.344 24.904 115.848 24.88C116.328 24.88 116.448 24.76 116.448 24.424V16.672ZM121.944 12.904H122.496L122.976 12.784L124.416 13.888C122.784 15.592 120.336 17.344 118.008 18.4C117.744 18.016 117.144 17.392 116.784 17.08C118.728 16.168 120.912 14.536 121.944 13.336V12.904ZM107.376 8.656H127.968V14.248H125.712V10.696H109.512V14.248H107.376V8.656ZM124.296 4.912L126.72 5.656C125.664 7.192 124.392 8.824 123.408 9.88L121.56 9.16C122.52 8.008 123.672 6.208 124.296 4.912ZM109.008 5.896L110.928 5.008C111.816 5.992 112.8 7.336 113.184 8.272L111.144 9.232C110.784 8.32 109.848 6.928 109.008 5.896ZM115.104 5.368L117.096 4.624C117.888 5.728 118.728 7.24 119.04 8.224L116.904 9.064C116.64 8.056 115.872 6.52 115.104 5.368Z" fill="#333333"/>
<path d="M154 1H169V31H154" stroke="#7F7F7F" stroke-linecap="round" stroke-linejoin="round" stroke-dasharray="1 2"/>
<path d="M169 16.5H184" stroke="#7F7F7F" stroke-linecap="round" stroke-dasharray="1 2"/>
<path d="M205.477 1.51136C206.973 1.51136 208.413 1.76231 209.795 2.2642C211.188 2.7661 212.428 3.56629 213.517 4.66477C214.616 5.76326 215.482 7.22159 216.116 9.03977C216.76 10.8485 217.087 13.0691 217.097 15.7017C217.097 18.1733 216.817 20.3797 216.259 22.321C215.709 24.2528 214.919 25.8958 213.886 27.25C212.854 28.6042 211.609 29.6364 210.151 30.3466C208.692 31.0473 207.063 31.3977 205.264 31.3977C203.323 31.3977 201.609 31.0237 200.122 30.2756C198.635 29.518 197.438 28.4905 196.528 27.1932C195.629 25.8864 195.084 24.4186 194.895 22.7898H200.96C201.197 23.8504 201.694 24.6742 202.452 25.2614C203.209 25.839 204.147 26.1278 205.264 26.1278C207.158 26.1278 208.598 25.304 209.582 23.6562C210.567 21.9991 211.064 19.7311 211.074 16.8523H210.875C210.439 17.7045 209.852 18.4384 209.114 19.054C208.375 19.66 207.527 20.1288 206.571 20.4602C205.624 20.7917 204.616 20.9574 203.545 20.9574C201.831 20.9574 200.302 20.5549 198.957 19.75C197.613 18.9451 196.552 17.8371 195.776 16.4261C194.999 15.0152 194.611 13.4053 194.611 11.5966C194.601 9.64583 195.051 7.90814 195.96 6.38352C196.869 4.8589 198.138 3.66572 199.767 2.80398C201.405 1.93276 203.309 1.50189 205.477 1.51136ZM205.52 6.34091C204.563 6.34091 203.711 6.56818 202.963 7.02273C202.224 7.47727 201.637 8.08807 201.202 8.85511C200.776 9.62216 200.567 10.4792 200.577 11.4261C200.577 12.3826 200.785 13.2443 201.202 14.0114C201.628 14.7689 202.205 15.375 202.935 15.8295C203.673 16.2746 204.516 16.4972 205.463 16.4972C206.173 16.4972 206.831 16.3646 207.438 16.0994C208.044 15.8343 208.569 15.4697 209.014 15.0057C209.469 14.5322 209.824 13.9877 210.08 13.3722C210.335 12.7566 210.463 12.1032 210.463 11.4119C210.454 10.4934 210.236 9.65057 209.81 8.88352C209.384 8.11648 208.796 7.50095 208.048 7.03693C207.3 6.57292 206.457 6.34091 205.52 6.34091Z" fill="#333333"/>
<path d="M230.928 27.992H242.136V30.08H230.928V27.992ZM229.92 11.144H238.608V13.16H229.92V11.144ZM230.808 8.648L233.376 9.152C231.456 12.44 228.576 15.68 224.352 18.2C224.016 17.648 223.248 16.832 222.744 16.424C226.704 14.288 229.416 11.264 230.808 8.648ZM237.864 11.144H238.296L238.704 11.024L240.24 11.84C237.384 19.184 230.784 24.032 223.968 26.288C223.704 25.664 223.128 24.728 222.648 24.248C229.056 22.4 235.488 17.72 237.864 11.528V11.144ZM226.872 15.848L228.552 14.384C230.352 15.632 232.608 17.456 233.688 18.776L231.84 20.408C230.88 19.088 228.672 17.144 226.872 15.848ZM241.056 20.528H243.408V31.064H241.056V20.528ZM231.912 20.528H242.208V22.592H231.912V31.016H229.632V22.256L231.408 20.528H231.912Z" fill="#333333"/>
</svg>
