<svg width="433" height="32" viewBox="0 0 433 32" fill="none" xmlns="http://www.w3.org/2000/svg">
<path d="M11.304 13.6H21.576V15.544H11.304V13.6ZM11.28 18.28H21.912V20.32H11.28V18.28ZM15.216 4.768H17.4V27.016H15.216V4.768ZM10.176 8.896H22.656V21.184H20.472V10.936H12.264V21.304H10.176V8.896ZM1.248 9.232H8.472V11.296H1.248V9.232ZM4.368 4.768H6.576V10.216H4.368V4.768ZM6.792 14.752C7.464 15.208 9.624 17.152 10.128 17.656L8.808 19.504C8.088 18.544 6.312 16.648 5.52 15.856L6.792 14.752ZM7.656 9.232H8.112L8.496 9.136L9.768 9.952C8.112 14.44 4.728 18.568 1.488 20.824C1.272 20.224 0.72 19.12 0.36 18.712C3.36 16.84 6.384 13.24 7.656 9.664V9.232ZM4.368 16.864L6.576 14.2V27.016H4.368V16.864ZM27.984 6.064H48.888V8.248H27.984V6.064ZM31.656 17.224H45.816V19.336H31.656V17.224ZM31.848 10.552H47.16V20.704H44.856V12.664H31.848V10.552ZM30.264 10.552H32.568V15.976C32.568 19.384 32.016 24.136 28.824 27.136C28.488 26.68 27.552 25.84 27.048 25.552C29.952 22.816 30.264 18.928 30.264 15.928V10.552ZM54.216 11.464H75.432V13.792H54.216V11.464ZM66.192 12.4C67.704 18.064 70.872 22.768 75.888 24.832C75.312 25.336 74.568 26.32 74.184 26.968C68.856 24.472 65.712 19.456 63.912 12.928L66.192 12.4ZM63.552 4.768H66.024C65.928 11.512 65.88 22.096 55.464 26.968C55.104 26.368 54.408 25.552 53.76 25.072C63.792 20.656 63.48 10.84 63.552 4.768ZM84.72 12.904H96.264V14.872H84.72V12.904ZM80.568 18.328H101.904V20.44H80.568V18.328ZM90.048 16.672H92.376V24.472C92.376 25.744 92.064 26.368 91.056 26.704C90.048 27.016 88.608 27.04 86.496 27.04C86.328 26.416 85.896 25.456 85.536 24.856C87.24 24.904 88.944 24.904 89.448 24.88C89.928 24.88 90.048 24.76 90.048 24.424V16.672ZM95.544 12.904H96.096L96.576 12.784L98.016 13.888C96.384 15.592 93.936 17.344 91.608 18.4C91.344 18.016 90.744 17.392 90.384 17.08C92.328 16.168 94.512 14.536 95.544 13.336V12.904ZM80.976 8.656H101.568V14.248H99.312V10.696H83.112V14.248H80.976V8.656ZM97.896 4.912L100.32 5.656C99.264 7.192 97.992 8.824 97.008 9.88L95.16 9.16C96.12 8.008 97.272 6.208 97.896 4.912ZM82.608 5.896L84.528 5.008C85.416 5.992 86.4 7.336 86.784 8.272L84.744 9.232C84.384 8.32 83.448 6.928 82.608 5.896ZM88.704 5.368L90.696 4.624C91.488 5.728 92.328 7.24 92.64 8.224L90.504 9.064C90.24 8.056 89.472 6.52 88.704 5.368ZM117.6 13.12C119.112 13.12 120.36 14.368 120.36 15.88C120.36 17.416 119.112 18.664 117.6 18.664C116.064 18.664 114.816 17.416 114.816 15.88C114.816 14.368 116.064 13.12 117.6 13.12ZM147.504 11.824H149.832V19.336H147.504V11.824ZM133.176 18.52H154.848V20.68H133.176V18.52ZM138.288 11.104H153.72V13.216H138.288V11.104ZM145.776 22.624L147.528 21.112C149.856 22.264 153.192 24.088 154.896 25.312L153.024 27.088C151.464 25.864 148.2 23.92 145.776 22.624ZM137.088 6.256L139.392 6.784V19.432H137.088V6.256ZM150.192 4.768L152.16 6.568C148.344 7.648 142.968 8.344 138.36 8.728C138.264 8.176 137.952 7.312 137.688 6.808C142.152 6.376 147.24 5.632 150.192 4.768ZM140.16 21.064L142.272 22.528C140.304 24.16 137.28 25.96 134.832 27.088C134.448 26.56 133.704 25.792 133.176 25.336C135.624 24.304 138.6 22.48 140.16 21.064ZM164.448 10.432H180.6V12.184H164.448V10.432ZM163.416 22.432H181.416V24.28H163.416V22.432ZM171.12 8.872H173.28V27.064H171.12V8.872ZM167.256 17.944V19.504H177.336V17.944H167.256ZM167.256 15.04V16.552H177.336V15.04H167.256ZM165.264 13.576H179.424V20.968H165.264V13.576ZM169.944 4.744H172.296V7.96H169.944V4.744ZM162.192 6.76H181.224V8.752H162.192V6.76ZM161.136 6.76H163.296V14.416C163.296 18.16 162.96 23.56 160.848 27.04C160.464 26.632 159.528 25.984 159.024 25.768C160.968 22.504 161.136 17.848 161.136 14.416V6.76ZM193.752 10.36V11.992H202.656V10.36H193.752ZM193.752 13.504V15.136H202.656V13.504H193.752ZM193.752 7.24V8.848H202.656V7.24H193.752ZM191.616 5.656H204.888V16.744H191.616V5.656ZM200.112 22.264L202.032 21.04C203.88 22.312 206.424 24.16 207.72 25.408L205.68 26.824C204.504 25.6 202.032 23.632 200.112 22.264ZM195.6 19.144H198V27.016H195.6V19.144ZM188.568 18.28H207.576V20.296H188.568V18.28ZM187.224 6.952H189.504V20.896H187.224V6.952ZM191.136 21.16L193.512 22.024C191.976 23.8 189.696 25.648 187.68 26.8C187.2 26.32 186.384 25.624 185.856 25.264C187.8 24.256 190.032 22.576 191.136 21.16ZM213.168 9.256H233.352V11.488H213.168V9.256ZM212.376 23.776H234.048V26.032H212.376V23.776ZM221.952 4.744H224.328V10.504H221.952V4.744ZM227.544 12.472L230.16 12.928C229.176 16.888 227.784 21.592 226.608 24.544L224.4 24.04C225.576 21.016 226.896 16.096 227.544 12.472ZM216.336 13.144L218.496 12.592C219.72 15.664 220.608 19.552 220.824 22.168L218.496 22.768C218.352 20.2 217.464 16.192 216.336 13.144ZM239.016 11.464H260.232V13.792H239.016V11.464ZM250.992 12.4C252.504 18.064 255.672 22.768 260.688 24.832C260.112 25.336 259.368 26.32 258.984 26.968C253.656 24.472 250.512 19.456 248.712 12.928L250.992 12.4ZM248.352 4.768H250.824C250.728 11.512 250.68 22.096 240.264 26.968C239.904 26.368 239.208 25.552 238.56 25.072C248.592 20.656 248.28 10.84 248.352 4.768ZM269.52 12.904H281.064V14.872H269.52V12.904ZM265.368 18.328H286.704V20.44H265.368V18.328ZM274.848 16.672H277.176V24.472C277.176 25.744 276.864 26.368 275.856 26.704C274.848 27.016 273.408 27.04 271.296 27.04C271.128 26.416 270.696 25.456 270.336 24.856C272.04 24.904 273.744 24.904 274.248 24.88C274.728 24.88 274.848 24.76 274.848 24.424V16.672ZM280.344 12.904H280.896L281.376 12.784L282.816 13.888C281.184 15.592 278.736 17.344 276.408 18.4C276.144 18.016 275.544 17.392 275.184 17.08C277.128 16.168 279.312 14.536 280.344 13.336V12.904ZM265.776 8.656H286.368V14.248H284.112V10.696H267.912V14.248H265.776V8.656ZM282.696 4.912L285.12 5.656C284.064 7.192 282.792 8.824 281.808 9.88L279.96 9.16C280.92 8.008 282.072 6.208 282.696 4.912ZM267.408 5.896L269.328 5.008C270.216 5.992 271.2 7.336 271.584 8.272L269.544 9.232C269.184 8.32 268.248 6.928 267.408 5.896ZM273.504 5.368L275.496 4.624C276.288 5.728 277.128 7.24 277.44 8.224L275.304 9.064C275.04 8.056 274.272 6.52 273.504 5.368Z" fill="#333333"/>
<path d="M312 1H327V31H312" stroke="#7F7F7F" stroke-linecap="round" stroke-linejoin="round" stroke-dasharray="1 2"/>
<path d="M327 16.5H342" stroke="#7F7F7F" stroke-linecap="round" stroke-dasharray="1 2"/>
<path d="M355.976 28.064H368.288V30.08H355.976V28.064ZM358.856 8.528L361.016 9.272C359.048 12.584 355.928 15.584 352.904 17.456C352.544 17.024 351.704 16.16 351.2 15.8C354.248 14.144 357.176 11.456 358.856 8.528ZM367.616 11.168H368.096L368.48 11.048L370.088 12.104C366.512 17.84 358.76 21.392 351.752 22.976C351.536 22.376 351.032 21.44 350.624 20.936C357.2 19.664 364.688 16.256 367.616 11.528V11.168ZM357.272 12.392C360.416 16.424 366.656 19.568 373.4 20.768C372.872 21.272 372.248 22.232 371.912 22.856C365.144 21.44 359 18.032 355.376 13.28L357.272 12.392ZM354.8 22.256H369.248V31.016H366.848V24.32H357.08V31.112H354.8V22.256ZM358.304 11.168H368.144V13.16H356.936L358.304 11.168Z" fill="#333333"/>
<path d="M391.111 31.3977C388.99 31.3977 387.1 31.0331 385.443 30.304C383.795 29.5653 382.493 28.5521 381.537 27.2642C380.59 25.9669 380.102 24.4706 380.074 22.7756H386.267C386.305 23.4858 386.537 24.1108 386.963 24.6506C387.399 25.1809 387.976 25.5928 388.696 25.8864C389.416 26.1799 390.225 26.3267 391.125 26.3267C392.062 26.3267 392.891 26.161 393.611 25.8295C394.33 25.4981 394.894 25.0388 395.301 24.4517C395.708 23.8646 395.912 23.1875 395.912 22.4205C395.912 21.6439 395.694 20.9574 395.259 20.3608C394.832 19.7547 394.217 19.2812 393.412 18.9403C392.616 18.5994 391.67 18.429 390.571 18.429H387.858V13.9119H390.571C391.499 13.9119 392.318 13.7509 393.028 13.429C393.748 13.107 394.307 12.6619 394.705 12.0938C395.102 11.5161 395.301 10.8438 395.301 10.0767C395.301 9.34754 395.126 8.70833 394.776 8.15909C394.435 7.60038 393.952 7.16477 393.327 6.85227C392.711 6.53977 391.991 6.38352 391.168 6.38352C390.334 6.38352 389.572 6.53504 388.881 6.83807C388.189 7.13163 387.635 7.55303 387.219 8.10227C386.802 8.65151 386.58 9.29545 386.551 10.0341H380.656C380.685 8.35795 381.163 6.88068 382.091 5.60227C383.019 4.32386 384.269 3.32481 385.841 2.60511C387.422 1.87595 389.207 1.51136 391.196 1.51136C393.204 1.51136 394.96 1.87595 396.466 2.60511C397.972 3.33428 399.141 4.31913 399.974 5.55966C400.817 6.79072 401.234 8.1733 401.224 9.70739C401.234 11.3362 400.727 12.6951 399.705 13.7841C398.691 14.8731 397.37 15.5644 395.741 15.858V16.0852C397.882 16.3598 399.51 17.1032 400.628 18.3153C401.755 19.518 402.313 21.0237 402.304 22.8324C402.313 24.4896 401.835 25.9621 400.869 27.25C399.913 28.5379 398.592 29.5511 396.906 30.2898C395.221 31.0284 393.289 31.3977 391.111 31.3977Z" fill="#333333"/>
<path d="M417.928 27.992H429.136V30.08H417.928V27.992ZM416.92 11.144H425.608V13.16H416.92V11.144ZM417.808 8.648L420.376 9.152C418.456 12.44 415.576 15.68 411.352 18.2C411.016 17.648 410.248 16.832 409.744 16.424C413.704 14.288 416.416 11.264 417.808 8.648ZM424.864 11.144H425.296L425.704 11.024L427.24 11.84C424.384 19.184 417.784 24.032 410.968 26.288C410.704 25.664 410.128 24.728 409.648 24.248C416.056 22.4 422.488 17.72 424.864 11.528V11.144ZM413.872 15.848L415.552 14.384C417.352 15.632 419.608 17.456 420.688 18.776L418.84 20.408C417.88 19.088 415.672 17.144 413.872 15.848ZM428.056 20.528H430.408V31.064H428.056V20.528ZM418.912 20.528H429.208V22.592H418.912V31.016H416.632V22.256L418.408 20.528H418.912Z" fill="#333333"/>
</svg>
