<svg width="220" height="32" viewBox="0 0 220 32" fill="none" xmlns="http://www.w3.org/2000/svg">
<path d="M10.848 7.12H13.248V27.016H10.848V7.12ZM2.904 6.208H21.216V20.8H18.792V8.392H5.232V20.848H2.904V6.208ZM4.008 11.848H19.896V13.984H4.008V11.848ZM4.008 17.368H19.872V19.576H4.008V17.368ZM27.792 6.976H49.008V9.112H27.792V6.976ZM32.88 16.912H43.968V18.712H32.88V16.912ZM32.376 20.776H44.448V22.624H32.376V20.776ZM37.224 17.776H39.384V26.464H37.224V17.776ZM28.92 11.32H46.296V13.408H31.2V26.992H28.92V11.32ZM45.576 11.32H47.904V24.568C47.904 25.768 47.616 26.344 46.752 26.656C45.888 26.992 44.496 27.016 42.528 27.016C42.432 26.416 42.072 25.576 41.76 25.024C43.128 25.096 44.616 25.096 45.024 25.072C45.456 25.048 45.576 24.928 45.576 24.568V11.32ZM33.96 14.152L35.76 13.6C36.384 14.416 36.96 15.568 37.224 16.336L35.328 16.984C35.112 16.192 34.512 15.016 33.96 14.152ZM41.04 13.6L42.984 14.152C42.336 15.376 41.64 16.6 41.04 17.464L39.432 16.96C39.984 16.024 40.68 14.584 41.04 13.6ZM37.152 4.816H39.648V12.76H37.152V4.816ZM54.216 11.464H75.432V13.792H54.216V11.464ZM66.192 12.4C67.704 18.064 70.872 22.768 75.888 24.832C75.312 25.336 74.568 26.32 74.184 26.968C68.856 24.472 65.712 19.456 63.912 12.928L66.192 12.4ZM63.552 4.768H66.024C65.928 11.512 65.88 22.096 55.464 26.968C55.104 26.368 54.408 25.552 53.76 25.072C63.792 20.656 63.48 10.84 63.552 4.768ZM84.72 12.904H96.264V14.872H84.72V12.904ZM80.568 18.328H101.904V20.44H80.568V18.328ZM90.048 16.672H92.376V24.472C92.376 25.744 92.064 26.368 91.056 26.704C90.048 27.016 88.608 27.04 86.496 27.04C86.328 26.416 85.896 25.456 85.536 24.856C87.24 24.904 88.944 24.904 89.448 24.88C89.928 24.88 90.048 24.76 90.048 24.424V16.672ZM95.544 12.904H96.096L96.576 12.784L98.016 13.888C96.384 15.592 93.936 17.344 91.608 18.4C91.344 18.016 90.744 17.392 90.384 17.08C92.328 16.168 94.512 14.536 95.544 13.336V12.904ZM80.976 8.656H101.568V14.248H99.312V10.696H83.112V14.248H80.976V8.656ZM97.896 4.912L100.32 5.656C99.264 7.192 97.992 8.824 97.008 9.88L95.16 9.16C96.12 8.008 97.272 6.208 97.896 4.912ZM82.608 5.896L84.528 5.008C85.416 5.992 86.4 7.336 86.784 8.272L84.744 9.232C84.384 8.32 83.448 6.928 82.608 5.896ZM88.704 5.368L90.696 4.624C91.488 5.728 92.328 7.24 92.64 8.224L90.504 9.064C90.24 8.056 89.472 6.52 88.704 5.368Z" fill="#333333"/>
<path d="M128 1H143V31H128" stroke="#7F7F7F" stroke-linecap="round" stroke-linejoin="round" stroke-dasharray="1 2"/>
<path d="M143 16.5H158" stroke="#7F7F7F" stroke-linecap="round" stroke-dasharray="1 2"/>
<path d="M180.116 31.3977C178.62 31.3883 177.176 31.1373 175.784 30.6449C174.402 30.1525 173.161 29.3523 172.062 28.2443C170.964 27.1364 170.093 25.6686 169.449 23.8409C168.814 22.0133 168.497 19.7689 168.497 17.108C168.507 14.6648 168.786 12.482 169.335 10.5597C169.894 8.62784 170.689 6.98958 171.722 5.64489C172.763 4.30019 174.009 3.27746 175.457 2.5767C176.906 1.86648 178.53 1.51136 180.33 1.51136C182.271 1.51136 183.985 1.89015 185.472 2.64773C186.958 3.39583 188.152 4.41383 189.051 5.7017C189.96 6.98958 190.509 8.43371 190.699 10.0341H184.634C184.397 9.02083 183.9 8.22538 183.142 7.64773C182.384 7.07008 181.447 6.78125 180.33 6.78125C178.436 6.78125 176.996 7.60511 176.011 9.25284C175.036 10.9006 174.539 13.1402 174.52 15.9716H174.719C175.154 15.1098 175.741 14.3759 176.48 13.7699C177.228 13.1544 178.076 12.6856 179.023 12.3636C179.979 12.0322 180.988 11.8665 182.048 11.8665C183.772 11.8665 185.306 12.2737 186.651 13.0881C187.995 13.893 189.056 15.0009 189.832 16.4119C190.609 17.8229 190.997 19.4375 190.997 21.2557C190.997 23.2254 190.538 24.9773 189.619 26.5114C188.71 28.0455 187.437 29.2481 185.798 30.1193C184.17 30.9811 182.276 31.4072 180.116 31.3977ZM180.088 26.5682C181.035 26.5682 181.883 26.3409 182.631 25.8864C183.379 25.4318 183.966 24.8163 184.392 24.0398C184.818 23.2633 185.031 22.392 185.031 21.4261C185.031 20.4602 184.818 19.5937 184.392 18.8267C183.975 18.0597 183.398 17.4489 182.659 16.9943C181.92 16.5398 181.078 16.3125 180.131 16.3125C179.42 16.3125 178.762 16.4451 178.156 16.7102C177.56 16.9754 177.034 17.3447 176.58 17.8182C176.134 18.2917 175.784 18.8409 175.528 19.4659C175.273 20.0814 175.145 20.7396 175.145 21.4403C175.145 22.3778 175.358 23.2348 175.784 24.0114C176.22 24.7879 176.807 25.4081 177.545 25.8722C178.294 26.3362 179.141 26.5682 180.088 26.5682Z" fill="#333333"/>
<path d="M204.928 27.992H216.136V30.08H204.928V27.992ZM203.92 11.144H212.608V13.16H203.92V11.144ZM204.808 8.648L207.376 9.152C205.456 12.44 202.576 15.68 198.352 18.2C198.016 17.648 197.248 16.832 196.744 16.424C200.704 14.288 203.416 11.264 204.808 8.648ZM211.864 11.144H212.296L212.704 11.024L214.24 11.84C211.384 19.184 204.784 24.032 197.968 26.288C197.704 25.664 197.128 24.728 196.648 24.248C203.056 22.4 209.488 17.72 211.864 11.528V11.144ZM200.872 15.848L202.552 14.384C204.352 15.632 206.608 17.456 207.688 18.776L205.84 20.408C204.88 19.088 202.672 17.144 200.872 15.848ZM215.056 20.528H217.408V31.064H215.056V20.528ZM205.912 20.528H216.208V22.592H205.912V31.016H203.632V22.256L205.408 20.528H205.912Z" fill="#333333"/>
</svg>
