<svg width="400" height="400" viewBox="0 0 400 400" fill="none" xmlns="http://www.w3.org/2000/svg">
<rect width="400" height="400" fill="white"/>
<path d="M194.773 161V153.909L211.341 138.568C212.75 137.205 213.932 135.977 214.886 134.886C215.856 133.795 216.591 132.727 217.091 131.682C217.591 130.621 217.841 129.477 217.841 128.25C217.841 126.886 217.53 125.712 216.909 124.727C216.288 123.727 215.439 122.962 214.364 122.432C213.288 121.886 212.068 121.614 210.705 121.614C209.28 121.614 208.038 121.902 206.977 122.477C205.917 123.053 205.098 123.879 204.523 124.955C203.947 126.03 203.659 127.311 203.659 128.795H194.318C194.318 125.75 195.008 123.106 196.386 120.864C197.765 118.621 199.697 116.886 202.182 115.659C204.667 114.432 207.53 113.818 210.773 113.818C214.106 113.818 217.008 114.409 219.477 115.591C221.962 116.758 223.894 118.379 225.273 120.455C226.652 122.53 227.341 124.909 227.341 127.591C227.341 129.348 226.992 131.083 226.295 132.795C225.614 134.508 224.394 136.409 222.636 138.5C220.879 140.576 218.402 143.068 215.205 145.977L208.409 152.636V152.955H227.955V161H194.773Z" fill="#066AD5"/>
<path d="M254.4 156.2H257.86V153.16H254.4V156.2ZM267.16 156.2V158.48H260.32V162.76H257.86V158.48H248.86V156.2H252.02V150.94H257.86V148.56H253.58C252.76 149.98 251.8 151.26 250.86 152.2C250.4 151.8 249.38 151 248.8 150.66C250.6 149.14 252.14 146.58 253 144L255.42 144.62C255.24 145.18 255.02 145.72 254.76 146.26H266.06V148.56H260.32V150.94H265.6V153.16H260.32V156.2H267.16ZM277.06 146.54H273.98V147.6H277.06V146.54ZM273.98 150.34H277.06V149.2H273.98V150.34ZM279.28 152.04H273.98V162.74H271.62V144.82H279.28V152.04ZM282.92 150.38H286.1V149.2H282.92V150.38ZM286.1 146.54H282.92V147.6H286.1V146.54ZM278.3 159.14H281.6V157.9H278.3V159.14ZM281.6 156.2V155H278.3V156.2H281.6ZM288.5 144.82V159.92C288.5 161.2 288.24 161.9 287.44 162.28C286.66 162.68 285.5 162.74 283.78 162.74C283.72 162.24 283.5 161.5 283.26 160.88H278.3V161.9H276.14V153.26H277.12V153.24L283.84 153.26V160.34C284.62 160.36 285.36 160.36 285.62 160.34C285.98 160.34 286.1 160.22 286.1 159.9V152.08H280.66V144.82H288.5Z" fill="#066AD5"/>
<path d="M125.2 145.16L127.14 144.34C127.92 145.68 129.38 147.2 130.58 148.08C130.04 148.48 129.32 149.28 128.94 149.82C127.68 148.7 126.12 146.76 125.2 145.16ZM129.86 153.72L127.92 154.74C127.78 154.34 127.54 153.84 127.26 153.32C124.66 153.54 121.98 153.74 119.98 153.88L119.58 151.74C120.2 151.72 120.92 151.7 121.7 151.66C122.2 150.4 122.7 148.78 122.98 147.56L125.36 148.12C124.88 149.26 124.36 150.5 123.86 151.58L126.16 151.48C125.88 151.04 125.58 150.62 125.3 150.24L127.1 149.36C128.16 150.68 129.36 152.48 129.86 153.72ZM122.04 154.88L123.54 153.62C124.84 154.2 126.22 155.24 126.94 156.06L125.38 157.52C124.7 156.6 123.3 155.52 122.04 154.88ZM121.6 144.36L123.84 144.92C123.1 146.92 121.82 148.84 120.48 150.06C120.06 149.66 119.16 148.96 118.64 148.62C119.94 147.62 121.02 146.02 121.6 144.36ZM112.34 155.72L114.26 156.04C114.06 157.94 113.64 159.92 113.06 161.2C112.66 160.94 111.8 160.54 111.34 160.36C111.9 159.2 112.18 157.4 112.34 155.72ZM117.62 154.26L116.62 154.38V162.72H114.56V154.6L111.86 154.88L111.54 152.82L112.96 152.74C113.26 152.36 113.56 151.94 113.86 151.5C113.32 150.6 112.38 149.52 111.58 148.68L112.74 147.1C112.9 147.24 113.04 147.38 113.2 147.52C113.76 146.42 114.32 145.1 114.66 144.06L116.7 144.82C116 146.18 115.16 147.72 114.46 148.86C114.68 149.12 114.9 149.4 115.08 149.66C115.78 148.54 116.42 147.42 116.88 146.44L118.8 147.34C117.7 149.02 116.36 151 115.1 152.58L116.86 152.46C116.64 152 116.42 151.58 116.2 151.18L117.88 150.48C118.68 151.84 119.5 153.58 119.76 154.72L117.98 155.54C117.9 155.16 117.78 154.74 117.62 154.26ZM116.68 156.22L118.38 155.7C118.78 156.68 119.18 157.9 119.44 158.86C119.64 158.2 119.78 157.5 119.88 156.86L121.78 157.18C121.58 158.8 121.08 160.7 120.32 161.92L118.46 161.1C118.76 160.68 119.02 160.12 119.24 159.48L117.76 159.98C117.6 158.98 117.12 157.42 116.68 156.22ZM126.44 157.36L128.24 156.46C129.3 157.88 130.28 159.72 130.58 161.04L128.6 162.02C128.48 161.4 128.2 160.6 127.82 159.8C127.6 162.12 127.02 162.72 125.7 162.72H124.12C122.3 162.72 121.94 162.08 121.94 160.14V156.42H124.1V160.12C124.1 160.66 124.16 160.72 124.5 160.72H125.42C125.78 160.72 125.86 160.5 125.9 158.8C126.28 159.14 127.14 159.46 127.74 159.62C127.36 158.84 126.92 158.04 126.44 157.36ZM146.98 156.66H139.08V159.92H146.98V156.66ZM136.74 162.76V154.56H149.42V162.76H146.98V162.02H139.08V162.76H136.74ZM138.96 150.48H147.04C145.38 149.18 143.9 147.74 142.94 146.42C142 147.76 140.6 149.18 138.96 150.48ZM141.6 144.08H144.06C146.2 147.14 149.44 149.68 152.62 150.96C152.04 151.58 151.5 152.36 151.08 153.1C150.06 152.58 149.02 151.92 148.02 151.2V152.58H138.06V151.18C137.08 151.9 136.02 152.56 134.96 153.14C134.64 152.56 133.98 151.7 133.46 151.2C136.9 149.54 140.1 146.52 141.6 144.08ZM164.88 158.6H166.72V157.4H164.88V158.6ZM166.72 154.66H164.88V155.86H166.72V154.66ZM166.66 147.64H164.68C164.98 148.4 165.16 149.42 165.2 150.08L164.3 150.3H167.16L166.14 150.08C166.34 149.38 166.56 148.36 166.66 147.64ZM159.98 149.06V146.9H158.66V149.06H159.98ZM158.66 157.48L159.98 157.24V155.06H158.66V157.48ZM159.98 153.14V150.98H158.66V153.14H159.98ZM172.26 152.88L174.16 153.3C173.62 155.22 172.88 156.94 171.94 158.44C172.12 159.4 172.34 159.94 172.58 159.96C172.82 159.96 172.98 159.04 173.06 157.46C173.4 157.94 174.26 158.56 174.6 158.78C174.1 162.02 173.16 162.72 172.48 162.72C171.58 162.7 170.92 161.9 170.44 160.44C169.66 161.34 168.78 162.12 167.82 162.78C167.56 162.38 166.88 161.6 166.46 161.22C166.96 160.92 167.44 160.58 167.88 160.22H164.88V161.38H163.06V153.02H168.56V159.6C169.04 159.14 169.48 158.62 169.88 158.06C169.62 156.44 169.44 154.44 169.34 152.14H162.32V150.3H163.58C163.54 149.64 163.38 148.66 163.14 147.92L164.3 147.64H162.72V146.9H161.96V162.74H159.98V159.32C158.56 159.62 157.14 159.92 155.94 160.16L155.54 157.98C155.9 157.94 156.3 157.88 156.72 157.8V146.9H155.94V144.82H162.8V145.9H164.76V144.1H166.78V145.9H168.82V147.64H167.1L168.46 147.9C168.16 148.76 167.88 149.66 167.66 150.3H169.26C169.2 148.4 169.16 146.3 169.14 144.08H171.22V145.58L172.5 144.9C173.32 145.88 174.1 147.18 174.44 148.08L172.8 149C172.52 148.2 171.88 147.02 171.22 146.08C171.22 147.56 171.24 148.96 171.28 150.3H174.36V152.14H171.36C171.4 153.2 171.46 154.18 171.54 155.08C171.82 154.38 172.06 153.64 172.26 152.88Z" fill="#066AD5"/>
<path d="M215.023 201.455V248H205.182V210.795H204.909L194.25 217.477V208.75L205.773 201.455H215.023Z" fill="#066AD5"/>
<path d="M245.4 243.2H248.86V240.16H245.4V243.2ZM258.16 243.2V245.48H251.32V249.76H248.86V245.48H239.86V243.2H243.02V237.94H248.86V235.56H244.58C243.76 236.98 242.8 238.26 241.86 239.2C241.4 238.8 240.38 238 239.8 237.66C241.6 236.14 243.14 233.58 244 231L246.42 231.62C246.24 232.18 246.02 232.72 245.76 233.26H257.06V235.56H251.32V237.94H256.6V240.16H251.32V243.2H258.16ZM268.06 233.54H264.98V234.6H268.06V233.54ZM264.98 237.34H268.06V236.2H264.98V237.34ZM270.28 239.04H264.98V249.74H262.62V231.82H270.28V239.04ZM273.92 237.38H277.1V236.2H273.92V237.38ZM277.1 233.54H273.92V234.6H277.1V233.54ZM269.3 246.14H272.6V244.9H269.3V246.14ZM272.6 243.2V242H269.3V243.2H272.6ZM279.5 231.82V246.92C279.5 248.2 279.24 248.9 278.44 249.28C277.66 249.68 276.5 249.74 274.78 249.74C274.72 249.24 274.5 248.5 274.26 247.88H269.3V248.9H267.14V240.26H268.12V240.24L274.84 240.26V247.34C275.62 247.36 276.36 247.36 276.62 247.34C276.98 247.34 277.1 247.22 277.1 246.9V239.08H271.66V231.82H279.5Z" fill="#066AD5"/>
<path d="M111.82 238.92H130.22V241.5H111.82V238.92ZM137 236.62L138.38 236.06C138.86 236.82 139.28 237.84 139.4 238.54L137.9 239.14C137.8 238.46 137.44 237.4 137 236.62ZM136.8 235.6V239.74C137.7 239.66 138.66 239.56 139.64 239.46V235.6H136.8ZM142.46 240.98L141.56 241.08V247.62C141.56 248.52 141.42 249.04 140.84 249.38C140.28 249.7 139.54 249.74 138.4 249.74C138.34 249.22 138.08 248.38 137.84 247.88C138.48 247.9 139.14 247.9 139.34 247.9C139.58 247.9 139.64 247.82 139.64 247.58V241.3L136.8 241.6C136.76 244.24 136.48 247.58 135.14 249.72C134.8 249.4 134 248.88 133.54 248.68C134.7 246.78 134.9 244.1 134.94 241.82L133.78 241.94L133.54 240.04L134.94 239.92V233.76H136.76C136.98 232.9 137.22 231.84 137.3 231.04L139.84 231.44C139.54 232.26 139.22 233.08 138.94 233.76H141.56V239.26L142.4 239.16L142.46 240.98ZM138.82 241.86V246.42H137.46V241.86H138.82ZM148.74 241.58H145.34C145.74 242.66 146.28 243.64 146.98 244.5C147.72 243.66 148.32 242.68 148.74 241.58ZM150.08 239.42L151.58 239.92C151 242.46 150 244.48 148.66 246.04C149.76 246.82 151.08 247.42 152.64 247.76C152.14 248.22 151.54 249.12 151.22 249.72C149.56 249.26 148.18 248.54 147.04 247.58C145.88 248.5 144.52 249.2 143.02 249.74C142.76 249.16 142.2 248.24 141.76 247.76C143.14 247.36 144.4 246.74 145.46 245.92C144.62 244.8 143.94 243.5 143.42 242L145.26 241.58H142.82V239.5H143.66C143.3 239.14 142.44 238.44 142 238.18C143.42 237.08 143.56 235.62 143.56 234.4V231.78H149.92V236.2C149.92 236.54 149.9 236.74 149.94 236.8C149.98 236.88 150.06 236.9 150.14 236.9H150.46C150.56 236.9 150.66 236.88 150.72 236.82C150.8 236.78 150.84 236.66 150.88 236.4C150.92 236.12 150.94 235.5 150.96 234.74C151.34 235.06 152.08 235.44 152.66 235.62C152.6 236.44 152.52 237.32 152.38 237.68C152.24 238.06 152 238.34 151.7 238.48C151.42 238.64 150.98 238.72 150.62 238.72H149.58C149.1 238.72 148.56 238.56 148.24 238.22C147.92 237.9 147.78 237.46 147.78 236.22V233.84H145.66V234.44C145.66 236.14 145.34 238.22 143.7 239.5H149.7L150.08 239.42ZM164.88 245.6H166.72V244.4H164.88V245.6ZM166.72 241.66H164.88V242.86H166.72V241.66ZM166.66 234.64H164.68C164.98 235.4 165.16 236.42 165.2 237.08L164.3 237.3H167.16L166.14 237.08C166.34 236.38 166.56 235.36 166.66 234.64ZM159.98 236.06V233.9H158.66V236.06H159.98ZM158.66 244.48L159.98 244.24V242.06H158.66V244.48ZM159.98 240.14V237.98H158.66V240.14H159.98ZM172.26 239.88L174.16 240.3C173.62 242.22 172.88 243.94 171.94 245.44C172.12 246.4 172.34 246.94 172.58 246.96C172.82 246.96 172.98 246.04 173.06 244.46C173.4 244.94 174.26 245.56 174.6 245.78C174.1 249.02 173.16 249.72 172.48 249.72C171.58 249.7 170.92 248.9 170.44 247.44C169.66 248.34 168.78 249.12 167.82 249.78C167.56 249.38 166.88 248.6 166.46 248.22C166.96 247.92 167.44 247.58 167.88 247.22H164.88V248.38H163.06V240.02H168.56V246.6C169.04 246.14 169.48 245.62 169.88 245.06C169.62 243.44 169.44 241.44 169.34 239.14H162.32V237.3H163.58C163.54 236.64 163.38 235.66 163.14 234.92L164.3 234.64H162.72V233.9H161.96V249.74H159.98V246.32C158.56 246.62 157.14 246.92 155.94 247.16L155.54 244.98C155.9 244.94 156.3 244.88 156.72 244.8V233.9H155.94V231.82H162.8V232.9H164.76V231.1H166.78V232.9H168.82V234.64H167.1L168.46 234.9C168.16 235.76 167.88 236.66 167.66 237.3H169.26C169.2 235.4 169.16 233.3 169.14 231.08H171.22V232.58L172.5 231.9C173.32 232.88 174.1 234.18 174.44 235.08L172.8 236C172.52 235.2 171.88 234.02 171.22 233.08C171.22 234.56 171.24 235.96 171.28 237.3H174.36V239.14H171.36C171.4 240.2 171.46 241.18 171.54 242.08C171.82 241.38 172.06 240.64 172.26 239.88Z" fill="#066AD5"/>
</svg>
