<svg width="1068" height="362" viewBox="0 0 1068 362" fill="none" xmlns="http://www.w3.org/2000/svg">
<rect y="222" width="228" height="66" fill="#333333"/>
<rect y="296" width="228" height="66" fill="#333333"/>
<rect x="236" y="222" width="160" height="66" fill="#F2F2F2"/>
<rect x="572" y="222" width="160" height="66" fill="#F2F2F2"/>
<rect x="236" y="296" width="160" height="66" fill="#F2F2F2"/>
<rect x="572" y="296" width="160" height="66" fill="#F2F2F2"/>
<rect x="404" y="222" width="160" height="66" fill="#F2F2F2"/>
<rect x="740" y="222" width="160" height="66" fill="#F2F2F2"/>
<rect x="908" y="222" width="160" height="66" fill="#F2F2F2"/>
<rect x="404" y="296" width="160" height="66" fill="#F2F2F2"/>
<rect x="740" y="296" width="160" height="66" fill="#F2F2F2"/>
<rect x="908" y="296" width="160" height="66" fill="#F2F2F2"/>
<path d="M53.032 264V261.96C57.856 257.64 60.712 254.304 60.712 251.568C60.712 249.768 59.752 248.688 58.048 248.688C56.752 248.688 55.696 249.528 54.784 250.512L52.864 248.592C54.496 246.84 56.08 245.904 58.504 245.904C61.864 245.904 64.096 248.064 64.096 251.376C64.096 254.592 61.432 258.048 58.192 261.216C59.08 261.12 60.256 261.024 61.096 261.024H64.936V264H53.032ZM77.0528 264.336C73.4288 264.336 71.0288 261.168 71.0288 255.048C71.0288 248.904 73.4288 245.904 77.0528 245.904C80.6768 245.904 83.0528 248.928 83.0528 255.048C83.0528 261.168 80.6768 264.336 77.0528 264.336ZM77.0528 261.576C78.5888 261.576 79.7168 260.04 79.7168 255.048C79.7168 250.08 78.5888 248.64 77.0528 248.64C75.5168 248.64 74.3648 250.08 74.3648 255.048C74.3648 260.04 75.5168 261.576 77.0528 261.576ZM88.9776 264V261.96C93.8016 257.64 96.6576 254.304 96.6576 251.568C96.6576 249.768 95.6976 248.688 93.9936 248.688C92.6976 248.688 91.6416 249.528 90.7296 250.512L88.8096 248.592C90.4416 246.84 92.0256 245.904 94.4496 245.904C97.8096 245.904 100.042 248.064 100.042 251.376C100.042 254.592 97.3776 258.048 94.1376 261.216C95.0256 261.12 96.2016 261.024 97.0416 261.024H100.882V264H88.9776ZM112.494 264.336C109.686 264.336 107.79 263.28 106.542 261.864L108.198 259.632C109.254 260.664 110.55 261.456 112.158 261.456C113.958 261.456 115.182 260.568 115.182 258.96C115.182 257.232 114.15 256.128 110.286 256.128V253.608C113.55 253.608 114.606 252.48 114.606 250.896C114.606 249.504 113.742 248.688 112.23 248.688C110.958 248.688 109.926 249.264 108.87 250.248L107.07 248.088C108.606 246.744 110.31 245.904 112.398 245.904C115.83 245.904 118.158 247.608 118.158 250.632C118.158 252.552 117.078 253.944 115.206 254.688V254.808C117.198 255.36 118.734 256.848 118.734 259.176C118.734 262.44 115.878 264.336 112.494 264.336ZM131.571 258.24H135.723V254.592H131.571V258.24ZM146.883 258.24V260.976H138.675V266.112H135.723V260.976H124.923V258.24H128.715V251.928H135.723V249.072H130.587C129.603 250.776 128.451 252.312 127.323 253.44C126.771 252.96 125.547 252 124.851 251.592C127.011 249.768 128.859 246.696 129.891 243.6L132.795 244.344C132.579 245.016 132.315 245.664 132.003 246.312H145.563V249.072H138.675V251.928H145.011V254.592H138.675V258.24H146.883ZM157.179 248.376V252.552C157.179 256.44 156.819 262.32 154.635 266.016C154.155 265.536 152.955 264.744 152.307 264.456C154.299 261.048 154.443 256.056 154.443 252.552V245.832H162.987V243.696H165.963V245.832H174.483V248.376H157.179ZM168.075 252.648H163.707V254.232H168.075V252.648ZM170.907 256.392H161.019V252.648H157.779V250.392H161.019V248.808H163.707V250.392H168.075V248.808H170.907V250.392H174.363V252.648H170.907V256.392ZM168.963 259.584H163.275C163.995 260.352 164.955 261 166.083 261.552C167.187 261.024 168.171 260.352 168.963 259.584ZM171.387 257.232L173.163 258.12C172.203 260.04 170.787 261.528 169.059 262.68C170.811 263.184 172.803 263.52 174.963 263.712C174.387 264.312 173.643 265.416 173.283 266.16C170.523 265.824 168.075 265.2 165.987 264.264C163.635 265.2 160.947 265.776 158.091 266.136C157.875 265.416 157.371 264.336 156.939 263.736C159.147 263.544 161.259 263.208 163.155 262.656C162.099 261.912 161.163 261.024 160.395 259.992L161.523 259.584H157.947V257.352H170.883L171.387 257.232Z" fill="white"/>
<path d="M25.032 338V335.96C29.856 331.64 32.712 328.304 32.712 325.568C32.712 323.768 31.752 322.688 30.048 322.688C28.752 322.688 27.696 323.528 26.784 324.512L24.864 322.592C26.496 320.84 28.08 319.904 30.504 319.904C33.864 319.904 36.096 322.064 36.096 325.376C36.096 328.592 33.432 332.048 30.192 335.216C31.08 335.12 32.256 335.024 33.096 335.024H36.936V338H25.032ZM49.0528 338.336C45.4288 338.336 43.0288 335.168 43.0288 329.048C43.0288 322.904 45.4288 319.904 49.0528 319.904C52.6768 319.904 55.0528 322.928 55.0528 329.048C55.0528 335.168 52.6768 338.336 49.0528 338.336ZM49.0528 335.576C50.5888 335.576 51.7168 334.04 51.7168 329.048C51.7168 324.08 50.5888 322.64 49.0528 322.64C47.5168 322.64 46.3648 324.08 46.3648 329.048C46.3648 334.04 47.5168 335.576 49.0528 335.576ZM60.9776 338V335.96C65.8016 331.64 68.6576 328.304 68.6576 325.568C68.6576 323.768 67.6976 322.688 65.9936 322.688C64.6976 322.688 63.6416 323.528 62.7296 324.512L60.8096 322.592C62.4416 320.84 64.0256 319.904 66.4496 319.904C69.8096 319.904 72.0416 322.064 72.0416 325.376C72.0416 328.592 69.3776 332.048 66.1376 335.216C67.0256 335.12 68.2016 335.024 69.0416 335.024H72.8816V338H60.9776ZM81.8544 330.704H86.0064V327.08C86.0064 326.048 86.0784 324.44 86.1264 323.384H86.0304C85.5984 324.344 85.1184 325.328 84.6144 326.288L81.8544 330.704ZM86.0064 338V333.392H78.4224V330.992L85.0464 320.216H89.2944V330.704H91.3824V333.392H89.2944V338H86.0064ZM103.571 332.24H107.723V328.592H103.571V332.24ZM118.883 332.24V334.976H110.675V340.112H107.723V334.976H96.9233V332.24H100.715V325.928H107.723V323.072H102.587C101.603 324.776 100.451 326.312 99.3233 327.44C98.7713 326.96 97.5473 326 96.8513 325.592C99.0113 323.768 100.859 320.696 101.891 317.6L104.795 318.344C104.579 319.016 104.315 319.664 104.003 320.312H117.563V323.072H110.675V325.928H117.011V328.592H110.675V332.24H118.883ZM129.179 322.376V326.552C129.179 330.44 128.819 336.32 126.635 340.016C126.155 339.536 124.955 338.744 124.307 338.456C126.299 335.048 126.443 330.056 126.443 326.552V319.832H134.987V317.696H137.963V319.832H146.483V322.376H129.179ZM140.075 326.648H135.707V328.232H140.075V326.648ZM142.907 330.392H133.019V326.648H129.779V324.392H133.019V322.808H135.707V324.392H140.075V322.808H142.907V324.392H146.363V326.648H142.907V330.392ZM140.963 333.584H135.275C135.995 334.352 136.955 335 138.083 335.552C139.187 335.024 140.171 334.352 140.963 333.584ZM143.387 331.232L145.163 332.12C144.203 334.04 142.787 335.528 141.059 336.68C142.811 337.184 144.803 337.52 146.963 337.712C146.387 338.312 145.643 339.416 145.283 340.16C142.523 339.824 140.075 339.2 137.987 338.264C135.635 339.2 132.947 339.776 130.091 340.136C129.875 339.416 129.371 338.336 128.939 337.736C131.147 337.544 133.259 337.208 135.155 336.656C134.099 335.912 133.163 335.024 132.395 333.992L133.523 333.584H129.947V331.352H142.883L143.387 331.232ZM164.339 336.032H174.491V338.912H152.675V336.032H161.267V317.96H164.339V324.824H172.811V327.728H164.339V336.032ZM184.931 330.272V331.904H187.907V330.272H184.931ZM187.907 323H184.931V324.392H187.907V323ZM184.931 326.576V328.088H187.907V326.576H184.931ZM191.987 331.904V334.4H180.203V331.904H182.363V323H180.491V320.504H182.363V317.96H184.931V320.504H187.907V317.96H190.523V320.504H192.155V323H190.523V331.904H191.987ZM183.179 334.568L185.843 335.36C185.003 337.112 183.587 338.984 182.291 340.16C181.763 339.656 180.659 338.84 180.011 338.456C181.259 337.52 182.507 336.008 183.179 334.568ZM195.611 329.6H199.091V326.648H195.635V327.536C195.635 328.16 195.635 328.856 195.611 329.6ZM199.091 321.32H195.635V324.128H199.091V321.32ZM201.851 318.728V336.92C201.851 338.336 201.587 339.08 200.747 339.536C199.907 339.992 198.683 340.064 196.907 340.04C196.811 339.296 196.451 338.048 196.091 337.328C197.123 337.4 198.275 337.376 198.611 337.376C198.971 337.376 199.091 337.256 199.091 336.872V332.144H195.443C195.179 334.976 194.579 337.976 193.283 340.136C192.827 339.632 191.651 338.768 191.027 338.528C191.099 338.384 191.195 338.264 191.267 338.12L189.275 339.248C188.795 338.312 187.643 336.728 186.707 335.624L188.867 334.448C189.731 335.408 190.859 336.728 191.459 337.712C192.851 334.712 192.971 330.656 192.971 327.536V318.728H201.851Z" fill="white"/>
<path d="M310.944 264V261.144H314.784V249.912H311.544V247.728C313.344 247.392 314.544 246.936 315.696 246.24H318.312V261.144H321.648V264H310.944Z" fill="#130F31"/>
<path d="M646.968 264V261.144H650.784V249.912H647.568V247.728C649.344 247.392 650.568 246.936 651.696 246.216H654.312V261.144H657.648V264H646.968Z" fill="#130F31"/>
<path d="M315.576 338.336C312.768 338.336 310.872 337.28 309.624 335.864L311.28 333.632C312.336 334.664 313.632 335.456 315.24 335.456C317.04 335.456 318.264 334.568 318.264 332.96C318.264 331.232 317.232 330.128 313.368 330.128V327.608C316.632 327.608 317.688 326.48 317.688 324.896C317.688 323.504 316.824 322.688 315.312 322.688C314.04 322.688 313.008 323.264 311.952 324.248L310.152 322.088C311.688 320.744 313.392 319.904 315.48 319.904C318.912 319.904 321.24 321.608 321.24 324.632C321.24 326.552 320.16 327.944 318.288 328.688V328.808C320.28 329.36 321.816 330.848 321.816 333.176C321.816 336.44 318.96 338.336 315.576 338.336Z" fill="#130F31"/>
<path d="M651.576 338.336C648.768 338.336 646.872 337.28 645.624 335.864L647.28 333.632C648.336 334.664 649.632 335.456 651.24 335.456C653.04 335.456 654.264 334.568 654.264 332.96C654.264 331.232 653.232 330.128 649.368 330.128V327.608C652.632 327.608 653.688 326.48 653.688 324.896C653.688 323.504 652.824 322.688 651.312 322.688C650.04 322.688 649.008 323.264 647.952 324.248L646.152 322.088C647.688 320.744 649.392 319.904 651.48 319.904C654.912 319.904 657.24 321.608 657.24 324.632C657.24 326.552 656.16 327.944 654.288 328.688V328.808C656.28 329.36 657.816 330.848 657.816 333.176C657.816 336.44 654.96 338.336 651.576 338.336Z" fill="#130F31"/>
<path d="M484.08 264.336C480.456 264.336 478.056 261.168 478.056 255.048C478.056 248.904 480.456 245.904 484.08 245.904C487.704 245.904 490.08 248.928 490.08 255.048C490.08 261.168 487.704 264.336 484.08 264.336ZM484.08 261.576C485.616 261.576 486.744 260.04 486.744 255.048C486.744 250.08 485.616 248.64 484.08 248.64C482.544 248.64 481.392 250.08 481.392 255.048C481.392 260.04 482.544 261.576 484.08 261.576Z" fill="#130F31"/>
<path d="M820.08 264.336C816.456 264.336 814.056 261.168 814.056 255.048C814.056 248.904 816.456 245.904 820.08 245.904C823.704 245.904 826.08 248.928 826.08 255.048C826.08 261.168 823.704 264.336 820.08 264.336ZM820.08 261.576C821.616 261.576 822.744 260.04 822.744 255.048C822.744 250.08 821.616 248.64 820.08 248.64C818.544 248.64 817.392 250.08 817.392 255.048C817.392 260.04 818.544 261.576 820.08 261.576Z" fill="#130F31"/>
<path d="M953.968 264V261.144H957.784V249.912H954.568V247.728C956.344 247.392 957.568 246.936 958.696 246.216H961.312V261.144H964.648V264H953.968ZM975.613 264.336C971.989 264.336 969.589 261.168 969.589 255.048C969.589 248.904 971.989 245.904 975.613 245.904C979.237 245.904 981.613 248.928 981.613 255.048C981.613 261.168 979.237 264.336 975.613 264.336ZM975.613 261.576C977.149 261.576 978.277 260.04 978.277 255.048C978.277 250.08 977.149 248.64 975.613 248.64C974.077 248.64 972.925 250.08 972.925 255.048C972.925 260.04 974.077 261.576 975.613 261.576ZM992.146 264.336C988.522 264.336 986.122 261.168 986.122 255.048C986.122 248.904 988.522 245.904 992.146 245.904C995.77 245.904 998.146 248.928 998.146 255.048C998.146 261.168 995.77 264.336 992.146 264.336ZM992.146 261.576C993.682 261.576 994.81 260.04 994.81 255.048C994.81 250.08 993.682 248.64 992.146 248.64C990.61 248.64 989.458 250.08 989.458 255.048C989.458 260.04 990.61 261.576 992.146 261.576ZM1006.69 257.16C1004.14 257.16 1002.37 255.072 1002.37 251.496C1002.37 247.944 1004.14 245.904 1006.69 245.904C1009.23 245.904 1011.03 247.944 1011.03 251.496C1011.03 255.072 1009.23 257.16 1006.69 257.16ZM1006.69 255.168C1007.72 255.168 1008.53 254.112 1008.53 251.496C1008.53 248.88 1007.72 247.896 1006.69 247.896C1005.65 247.896 1004.86 248.88 1004.86 251.496C1004.86 254.112 1005.65 255.168 1006.69 255.168ZM1007.29 264.336L1016.93 245.904H1019.02L1009.37 264.336H1007.29ZM1019.6 264.336C1017.08 264.336 1015.28 262.224 1015.28 258.672C1015.28 255.096 1017.08 253.056 1019.6 253.056C1022.12 253.056 1023.94 255.096 1023.94 258.672C1023.94 262.224 1022.12 264.336 1019.6 264.336ZM1019.6 262.32C1020.63 262.32 1021.45 261.288 1021.45 258.672C1021.45 256.056 1020.63 255.048 1019.6 255.048C1018.57 255.048 1017.77 256.056 1017.77 258.672C1017.77 261.288 1018.57 262.32 1019.6 262.32Z" fill="#130F31"/>
<path d="M478.968 338V335.144H482.784V323.912H479.568V321.728C481.344 321.392 482.568 320.936 483.696 320.216H486.312V335.144H489.648V338H478.968Z" fill="#130F31"/>
<path d="M814.968 338V335.144H818.784V323.912H815.568V321.728C817.344 321.392 818.568 320.936 819.696 320.216H822.312V335.144H825.648V338H814.968Z" fill="#130F31"/>
<path d="M953.968 338V335.144H957.784V323.912H954.568V321.728C956.344 321.392 957.568 320.936 958.696 320.216H961.312V335.144H964.648V338H953.968ZM975.613 338.336C971.989 338.336 969.589 335.168 969.589 329.048C969.589 322.904 971.989 319.904 975.613 319.904C979.237 319.904 981.613 322.928 981.613 329.048C981.613 335.168 979.237 338.336 975.613 338.336ZM975.613 335.576C977.149 335.576 978.277 334.04 978.277 329.048C978.277 324.08 977.149 322.64 975.613 322.64C974.077 322.64 972.925 324.08 972.925 329.048C972.925 334.04 974.077 335.576 975.613 335.576ZM992.146 338.336C988.522 338.336 986.122 335.168 986.122 329.048C986.122 322.904 988.522 319.904 992.146 319.904C995.77 319.904 998.146 322.928 998.146 329.048C998.146 335.168 995.77 338.336 992.146 338.336ZM992.146 335.576C993.682 335.576 994.81 334.04 994.81 329.048C994.81 324.08 993.682 322.64 992.146 322.64C990.61 322.64 989.458 324.08 989.458 329.048C989.458 334.04 990.61 335.576 992.146 335.576ZM1006.69 331.16C1004.14 331.16 1002.37 329.072 1002.37 325.496C1002.37 321.944 1004.14 319.904 1006.69 319.904C1009.23 319.904 1011.03 321.944 1011.03 325.496C1011.03 329.072 1009.23 331.16 1006.69 331.16ZM1006.69 329.168C1007.72 329.168 1008.53 328.112 1008.53 325.496C1008.53 322.88 1007.72 321.896 1006.69 321.896C1005.65 321.896 1004.86 322.88 1004.86 325.496C1004.86 328.112 1005.65 329.168 1006.69 329.168ZM1007.29 338.336L1016.93 319.904H1019.02L1009.37 338.336H1007.29ZM1019.6 338.336C1017.08 338.336 1015.28 336.224 1015.28 332.672C1015.28 329.096 1017.08 327.056 1019.6 327.056C1022.12 327.056 1023.94 329.096 1023.94 332.672C1023.94 336.224 1022.12 338.336 1019.6 338.336ZM1019.6 336.32C1020.63 336.32 1021.45 335.288 1021.45 332.672C1021.45 330.056 1020.63 329.048 1019.6 329.048C1018.57 329.048 1017.77 330.056 1017.77 332.672C1017.77 335.288 1018.57 336.32 1019.6 336.32Z" fill="#130F31"/>
<rect width="228" height="140" fill="#333333"/>
<rect x="236" width="328" height="66" fill="#333333"/>
<rect x="572" width="328" height="66" fill="#333333"/>
<rect x="908" width="160" height="140" fill="#333333"/>
<path d="M95.68 73.24H99.832V69.592H95.68V73.24ZM110.992 73.24V75.976H102.784V81.112H99.832V75.976H89.032V73.24H92.824V66.928H99.832V64.072H94.696C93.712 65.776 92.56 67.312 91.432 68.44C90.88 67.96 89.656 67 88.96 66.592C91.12 64.768 92.968 61.696 94 58.6L96.904 59.344C96.688 60.016 96.424 60.664 96.112 61.312H109.672V64.072H102.784V66.928H109.12V69.592H102.784V73.24H110.992ZM121.288 63.376V67.552C121.288 71.44 120.928 77.32 118.744 81.016C118.264 80.536 117.064 79.744 116.416 79.456C118.408 76.048 118.552 71.056 118.552 67.552V60.832H127.096V58.696H130.072V60.832H138.592V63.376H121.288ZM132.184 67.648H127.816V69.232H132.184V67.648ZM135.016 71.392H125.128V67.648H121.888V65.392H125.128V63.808H127.816V65.392H132.184V63.808H135.016V65.392H138.472V67.648H135.016V71.392ZM133.072 74.584H127.384C128.104 75.352 129.064 76 130.192 76.552C131.296 76.024 132.28 75.352 133.072 74.584ZM135.496 72.232L137.272 73.12C136.312 75.04 134.896 76.528 133.168 77.68C134.92 78.184 136.912 78.52 139.072 78.712C138.496 79.312 137.752 80.416 137.392 81.16C134.632 80.824 132.184 80.2 130.096 79.264C127.744 80.2 125.056 80.776 122.2 81.136C121.984 80.416 121.48 79.336 121.048 78.736C123.256 78.544 125.368 78.208 127.264 77.656C126.208 76.912 125.272 76.024 124.504 74.992L125.632 74.584H122.056V72.352H134.992L135.496 72.232Z" fill="white"/>
<rect y="148" width="228" height="66" fill="#333333"/>
<rect x="236" y="148" width="160" height="66" fill="#F2F2F2"/>
<rect x="572" y="148" width="160" height="66" fill="#F2F2F2"/>
<rect x="404" y="148" width="160" height="66" fill="#F2F2F2"/>
<rect x="740" y="148" width="160" height="66" fill="#F2F2F2"/>
<rect x="908" y="148" width="160" height="66" fill="#F2F2F2"/>
<path d="M53.032 190V187.96C57.856 183.64 60.712 180.304 60.712 177.568C60.712 175.768 59.752 174.688 58.048 174.688C56.752 174.688 55.696 175.528 54.784 176.512L52.864 174.592C54.496 172.84 56.08 171.904 58.504 171.904C61.864 171.904 64.096 174.064 64.096 177.376C64.096 180.592 61.432 184.048 58.192 187.216C59.08 187.12 60.256 187.024 61.096 187.024H64.936V190H53.032ZM77.0528 190.336C73.4288 190.336 71.0288 187.168 71.0288 181.048C71.0288 174.904 73.4288 171.904 77.0528 171.904C80.6768 171.904 83.0528 174.928 83.0528 181.048C83.0528 187.168 80.6768 190.336 77.0528 190.336ZM77.0528 187.576C78.5888 187.576 79.7168 186.04 79.7168 181.048C79.7168 176.08 78.5888 174.64 77.0528 174.64C75.5168 174.64 74.3648 176.08 74.3648 181.048C74.3648 186.04 75.5168 187.576 77.0528 187.576ZM88.9776 190V187.96C93.8016 183.64 96.6576 180.304 96.6576 177.568C96.6576 175.768 95.6976 174.688 93.9936 174.688C92.6976 174.688 91.6416 175.528 90.7296 176.512L88.8096 174.592C90.4416 172.84 92.0256 171.904 94.4496 171.904C97.8096 171.904 100.042 174.064 100.042 177.376C100.042 180.592 97.3776 184.048 94.1376 187.216C95.0256 187.12 96.2016 187.024 97.0416 187.024H100.882V190H88.9776ZM106.95 190V187.96C111.774 183.64 114.63 180.304 114.63 177.568C114.63 175.768 113.67 174.688 111.966 174.688C110.67 174.688 109.614 175.528 108.702 176.512L106.782 174.592C108.414 172.84 109.998 171.904 112.422 171.904C115.782 171.904 118.014 174.064 118.014 177.376C118.014 180.592 115.35 184.048 112.11 187.216C112.998 187.12 114.174 187.024 115.014 187.024H118.854V190H106.95ZM131.571 184.24H135.723V180.592H131.571V184.24ZM146.883 184.24V186.976H138.675V192.112H135.723V186.976H124.923V184.24H128.715V177.928H135.723V175.072H130.587C129.603 176.776 128.451 178.312 127.323 179.44C126.771 178.96 125.547 178 124.851 177.592C127.011 175.768 128.859 172.696 129.891 169.6L132.795 170.344C132.579 171.016 132.315 171.664 132.003 172.312H145.563V175.072H138.675V177.928H145.011V180.592H138.675V184.24H146.883ZM157.179 174.376V178.552C157.179 182.44 156.819 188.32 154.635 192.016C154.155 191.536 152.955 190.744 152.307 190.456C154.299 187.048 154.443 182.056 154.443 178.552V171.832H162.987V169.696H165.963V171.832H174.483V174.376H157.179ZM168.075 178.648H163.707V180.232H168.075V178.648ZM170.907 182.392H161.019V178.648H157.779V176.392H161.019V174.808H163.707V176.392H168.075V174.808H170.907V176.392H174.363V178.648H170.907V182.392ZM168.963 185.584H163.275C163.995 186.352 164.955 187 166.083 187.552C167.187 187.024 168.171 186.352 168.963 185.584ZM171.387 183.232L173.163 184.12C172.203 186.04 170.787 187.528 169.059 188.68C170.811 189.184 172.803 189.52 174.963 189.712C174.387 190.312 173.643 191.416 173.283 192.16C170.523 191.824 168.075 191.2 165.987 190.264C163.635 191.2 160.947 191.776 158.091 192.136C157.875 191.416 157.371 190.336 156.939 189.736C159.147 189.544 161.259 189.208 163.155 188.656C162.099 187.912 161.163 187.024 160.395 185.992L161.523 185.584H157.947V183.352H170.883L171.387 183.232Z" fill="white"/>
<path d="M315.576 190.336C312.768 190.336 310.872 189.28 309.624 187.864L311.28 185.632C312.336 186.664 313.632 187.456 315.24 187.456C317.04 187.456 318.264 186.568 318.264 184.96C318.264 183.232 317.232 182.128 313.368 182.128V179.608C316.632 179.608 317.688 178.48 317.688 176.896C317.688 175.504 316.824 174.688 315.312 174.688C314.04 174.688 313.008 175.264 311.952 176.248L310.152 174.088C311.688 172.744 313.392 171.904 315.48 171.904C318.912 171.904 321.24 173.608 321.24 176.632C321.24 178.552 320.16 179.944 318.288 180.688V180.808C320.28 181.36 321.816 182.848 321.816 185.176C321.816 188.44 318.96 190.336 315.576 190.336Z" fill="#130F31"/>
<path d="M651.576 190.336C648.768 190.336 646.872 189.28 645.624 187.864L647.28 185.632C648.336 186.664 649.632 187.456 651.24 187.456C653.04 187.456 654.264 186.568 654.264 184.96C654.264 183.232 653.232 182.128 649.368 182.128V179.608C652.632 179.608 653.688 178.48 653.688 176.896C653.688 175.504 652.824 174.688 651.312 174.688C650.04 174.688 649.008 175.264 647.952 176.248L646.152 174.088C647.688 172.744 649.392 171.904 651.48 171.904C654.912 171.904 657.24 173.608 657.24 176.632C657.24 178.552 656.16 179.944 654.288 180.688V180.808C656.28 181.36 657.816 182.848 657.816 185.176C657.816 188.44 654.96 190.336 651.576 190.336Z" fill="#130F31"/>
<path d="M478.968 190V187.144H482.784V175.912H479.568V173.728C481.344 173.392 482.568 172.936 483.696 172.216H486.312V187.144H489.648V190H478.968Z" fill="#130F31"/>
<path d="M814.968 190V187.144H818.784V175.912H815.568V173.728C817.344 173.392 818.568 172.936 819.696 172.216H822.312V187.144H825.648V190H814.968Z" fill="#130F31"/>
<path d="M953.968 190V187.144H957.784V175.912H954.568V173.728C956.344 173.392 957.568 172.936 958.696 172.216H961.312V187.144H964.648V190H953.968ZM975.613 190.336C971.989 190.336 969.589 187.168 969.589 181.048C969.589 174.904 971.989 171.904 975.613 171.904C979.237 171.904 981.613 174.928 981.613 181.048C981.613 187.168 979.237 190.336 975.613 190.336ZM975.613 187.576C977.149 187.576 978.277 186.04 978.277 181.048C978.277 176.08 977.149 174.64 975.613 174.64C974.077 174.64 972.925 176.08 972.925 181.048C972.925 186.04 974.077 187.576 975.613 187.576ZM992.146 190.336C988.522 190.336 986.122 187.168 986.122 181.048C986.122 174.904 988.522 171.904 992.146 171.904C995.77 171.904 998.146 174.928 998.146 181.048C998.146 187.168 995.77 190.336 992.146 190.336ZM992.146 187.576C993.682 187.576 994.81 186.04 994.81 181.048C994.81 176.08 993.682 174.64 992.146 174.64C990.61 174.64 989.458 176.08 989.458 181.048C989.458 186.04 990.61 187.576 992.146 187.576ZM1006.69 183.16C1004.14 183.16 1002.37 181.072 1002.37 177.496C1002.37 173.944 1004.14 171.904 1006.69 171.904C1009.23 171.904 1011.03 173.944 1011.03 177.496C1011.03 181.072 1009.23 183.16 1006.69 183.16ZM1006.69 181.168C1007.72 181.168 1008.53 180.112 1008.53 177.496C1008.53 174.88 1007.72 173.896 1006.69 173.896C1005.65 173.896 1004.86 174.88 1004.86 177.496C1004.86 180.112 1005.65 181.168 1006.69 181.168ZM1007.29 190.336L1016.93 171.904H1019.02L1009.37 190.336H1007.29ZM1019.6 190.336C1017.08 190.336 1015.28 188.224 1015.28 184.672C1015.28 181.096 1017.08 179.056 1019.6 179.056C1022.12 179.056 1023.94 181.096 1023.94 184.672C1023.94 188.224 1022.12 190.336 1019.6 190.336ZM1019.6 188.32C1020.63 188.32 1021.45 187.288 1021.45 184.672C1021.45 182.056 1020.63 181.048 1019.6 181.048C1018.57 181.048 1017.77 182.056 1017.77 184.672C1017.77 187.288 1018.57 188.32 1019.6 188.32Z" fill="#130F31"/>
<rect x="236" y="74" width="160" height="66" fill="#333333"/>
<rect x="572" y="74" width="160" height="66" fill="#333333"/>
<rect x="404" y="74" width="160" height="66" fill="#333333"/>
<rect x="740" y="74" width="160" height="66" fill="#333333"/>
<path d="M296.24 103.064V104.744H300.464V103.064H296.24ZM296.24 99.2V100.856H300.464V99.2H296.24ZM307.64 100.856V99.2H303.344V100.856H307.64ZM307.64 104.744V103.064H303.344V104.744H307.64ZM302.72 108.752H311.456C311.456 108.752 311.408 109.52 311.36 109.904C310.976 114.272 310.496 116.24 309.728 117.008C309.056 117.68 308.336 117.872 307.328 117.944C306.488 118.016 305.024 117.992 303.512 117.968C303.464 117.152 303.08 116.072 302.576 115.352C304.064 115.472 305.576 115.496 306.224 115.496C306.728 115.496 307.016 115.472 307.28 115.256C307.712 114.896 308.072 113.696 308.336 111.32H302.024C300.824 114.416 298.28 116.744 292.232 118.064C292.016 117.32 291.32 116.192 290.744 115.568C295.424 114.656 297.656 113.24 298.784 111.32H291.776V108.752H299.72C299.816 108.224 299.912 107.672 299.984 107.096H293.384V96.848H310.64V107.096H302.984C302.912 107.672 302.816 108.2 302.72 108.752ZM335.264 114.608H340.928V117.32H326V114.608H332.408V109.808H327.776V107.144H332.408V103.208H329.768C329.408 104.456 328.928 105.608 328.424 106.52C327.848 106.16 326.552 105.512 325.88 105.224C326.12 104.792 326.36 104.336 326.6 103.832L325.232 104.456C325.088 103.736 324.728 102.68 324.32 101.696V118.088H321.464V100.928C321.32 102.944 320.936 105.584 320.384 107.288L318.272 106.52C318.848 104.936 319.28 102.248 319.448 100.28L321.464 100.568V95.672H324.32V100.208L325.712 99.632C326.192 100.568 326.696 101.72 327.032 102.656C327.632 100.904 328.064 98.84 328.304 96.8L331.088 97.184C330.92 98.312 330.728 99.44 330.488 100.52H332.408V95.816H335.264V100.52H340.16V103.208H335.264V107.144H339.656V109.808H335.264V114.608Z" fill="white"/>
<path d="M632.24 103.064V104.744H636.464V103.064H632.24ZM632.24 99.2V100.856H636.464V99.2H632.24ZM643.64 100.856V99.2H639.344V100.856H643.64ZM643.64 104.744V103.064H639.344V104.744H643.64ZM638.72 108.752H647.456C647.456 108.752 647.408 109.52 647.36 109.904C646.976 114.272 646.496 116.24 645.728 117.008C645.056 117.68 644.336 117.872 643.328 117.944C642.488 118.016 641.024 117.992 639.512 117.968C639.464 117.152 639.08 116.072 638.576 115.352C640.064 115.472 641.576 115.496 642.224 115.496C642.728 115.496 643.016 115.472 643.28 115.256C643.712 114.896 644.072 113.696 644.336 111.32H638.024C636.824 114.416 634.28 116.744 628.232 118.064C628.016 117.32 627.32 116.192 626.744 115.568C631.424 114.656 633.656 113.24 634.784 111.32H627.776V108.752H635.72C635.816 108.224 635.912 107.672 635.984 107.096H629.384V96.848H646.64V107.096H638.984C638.912 107.672 638.816 108.2 638.72 108.752ZM671.264 114.608H676.928V117.32H662V114.608H668.408V109.808H663.776V107.144H668.408V103.208H665.768C665.408 104.456 664.928 105.608 664.424 106.52C663.848 106.16 662.552 105.512 661.88 105.224C662.12 104.792 662.36 104.336 662.6 103.832L661.232 104.456C661.088 103.736 660.728 102.68 660.32 101.696V118.088H657.464V100.928C657.32 102.944 656.936 105.584 656.384 107.288L654.272 106.52C654.848 104.936 655.28 102.248 655.448 100.28L657.464 100.568V95.672H660.32V100.208L661.712 99.632C662.192 100.568 662.696 101.72 663.032 102.656C663.632 100.904 664.064 98.84 664.304 96.8L667.088 97.184C666.92 98.312 666.728 99.44 666.488 100.52H668.408V95.816H671.264V100.52H676.16V103.208H671.264V107.144H675.656V109.808H671.264V114.608Z" fill="white"/>
<path d="M475.104 103.976H468.792C468.168 105.536 467.52 107.048 466.92 108.464C468.552 109.04 470.352 109.736 472.152 110.528C473.52 108.896 474.456 106.76 475.104 103.976ZM481.92 103.976H478.368C477.648 107.312 476.64 109.88 475.152 111.872C477.648 113.072 479.952 114.368 481.536 115.52L479.352 118.208C477.816 116.984 475.464 115.568 472.848 114.224C470.256 116.264 466.704 117.416 461.856 118.136C461.592 117.224 460.944 116.048 460.344 115.28C464.376 114.824 467.376 114.056 469.632 112.664C468.336 112.064 467.04 111.512 465.768 111.008L465.36 111.896L462.48 110.84C463.392 108.968 464.472 106.544 465.528 103.976H460.152V101.072H466.704C467.424 99.2 468.12 97.352 468.696 95.696L471.84 96.224C471.264 97.76 470.64 99.416 469.968 101.072H481.92V103.976ZM502.824 114.608H508.488V117.32H493.56V114.608H499.968V109.808H495.336V107.144H499.968V103.208H497.328C496.968 104.456 496.488 105.608 495.984 106.52C495.408 106.16 494.112 105.512 493.44 105.224C493.68 104.792 493.92 104.336 494.16 103.832L492.792 104.456C492.648 103.736 492.288 102.68 491.88 101.696V118.088H489.024V100.928C488.88 102.944 488.496 105.584 487.944 107.288L485.832 106.52C486.408 104.936 486.84 102.248 487.008 100.28L489.024 100.568V95.672H491.88V100.208L493.272 99.632C493.752 100.568 494.256 101.72 494.592 102.656C495.192 100.904 495.624 98.84 495.864 96.8L498.648 97.184C498.48 98.312 498.288 99.44 498.048 100.52H499.968V95.816H502.824V100.52H507.72V103.208H502.824V107.144H507.216V109.808H502.824V114.608Z" fill="white"/>
<path d="M811.104 103.976H804.792C804.168 105.536 803.52 107.048 802.92 108.464C804.552 109.04 806.352 109.736 808.152 110.528C809.52 108.896 810.456 106.76 811.104 103.976ZM817.92 103.976H814.368C813.648 107.312 812.64 109.88 811.152 111.872C813.648 113.072 815.952 114.368 817.536 115.52L815.352 118.208C813.816 116.984 811.464 115.568 808.848 114.224C806.256 116.264 802.704 117.416 797.856 118.136C797.592 117.224 796.944 116.048 796.344 115.28C800.376 114.824 803.376 114.056 805.632 112.664C804.336 112.064 803.04 111.512 801.768 111.008L801.36 111.896L798.48 110.84C799.392 108.968 800.472 106.544 801.528 103.976H796.152V101.072H802.704C803.424 99.2 804.12 97.352 804.696 95.696L807.84 96.224C807.264 97.76 806.64 99.416 805.968 101.072H817.92V103.976ZM838.824 114.608H844.488V117.32H829.56V114.608H835.968V109.808H831.336V107.144H835.968V103.208H833.328C832.968 104.456 832.488 105.608 831.984 106.52C831.408 106.16 830.112 105.512 829.44 105.224C829.68 104.792 829.92 104.336 830.16 103.832L828.792 104.456C828.648 103.736 828.288 102.68 827.88 101.696V118.088H825.024V100.928C824.88 102.944 824.496 105.584 823.944 107.288L821.832 106.52C822.408 104.936 822.84 102.248 823.008 100.28L825.024 100.568V95.672H827.88V100.208L829.272 99.632C829.752 100.568 830.256 101.72 830.592 102.656C831.192 100.904 831.624 98.84 831.864 96.8L834.648 97.184C834.48 98.312 834.288 99.44 834.048 100.52H835.968V95.816H838.824V100.52H843.72V103.208H838.824V107.144H843.216V109.808H838.824V114.608Z" fill="white"/>
<path d="M369.968 28.488L372.752 28.848C372.296 31.44 371.648 33.768 370.784 35.832C371.84 37.224 372.704 38.568 373.256 39.72L370.976 41.664C370.592 40.8 370.04 39.792 369.344 38.712C368.072 40.824 366.44 42.552 364.424 43.896C364.088 43.32 363.104 42.192 362.504 41.664C364.736 40.368 366.392 38.52 367.616 36.216C366.344 34.512 364.928 32.808 363.608 31.344L365.648 29.736C366.68 30.84 367.76 32.064 368.816 33.336C369.32 31.848 369.704 30.24 369.968 28.488ZM373.496 32.736L375.776 31.632C376.904 33.216 378.056 35.28 378.44 36.696L375.968 37.968C375.608 36.552 374.576 34.368 373.496 32.736ZM385.136 27V29.736H382.568V40.536C382.568 42.144 382.28 42.984 381.368 43.44C380.456 43.944 379.04 44.064 377.048 44.064C376.952 43.224 376.544 41.856 376.136 40.992C377.48 41.064 378.776 41.04 379.184 41.04C379.616 41.04 379.76 40.92 379.76 40.536V29.736H373.736V28.008H363.176V25.368H367.352V21.696H370.088V25.368H374.528V27H379.76V21.672H382.568V27H385.136ZM394.832 28.632V30.48H398.936V28.632H394.832ZM400.832 25.296H396.368C395.984 25.728 395.552 26.136 395.096 26.544H399.872C400.208 26.16 400.544 25.728 400.832 25.296ZM406.184 30.48V28.632H401.72V30.48H406.184ZM399.656 41.328C400.232 40.968 400.496 40.152 400.28 39.168C399.008 40.056 397.52 40.896 395.984 41.592C396.8 41.688 397.592 41.688 398.192 41.688C398.768 41.688 399.272 41.64 399.656 41.328ZM408.728 32.592L411.032 34.272C409.448 35.304 407.552 36.336 405.968 37.08C407.384 38.832 409.232 40.176 411.536 40.968C410.936 41.544 410.12 42.648 409.712 43.368C405.152 41.496 402.512 37.752 401 32.64C400.376 33.024 399.704 33.384 399.008 33.72C403.904 37.008 403.904 41.856 401.456 43.416C400.52 44.016 399.824 44.184 398.672 44.208C398.096 44.208 397.4 44.184 396.752 44.16C396.704 43.368 396.44 42.36 395.936 41.616C394.328 42.36 392.624 42.984 391.064 43.416C390.68 42.84 389.96 41.88 389.432 41.352C392.912 40.584 396.944 38.976 399.344 37.224C399.2 37.008 399.032 36.792 398.84 36.576C396.68 37.896 393.824 39.024 391.376 39.624C391.016 39.048 390.344 38.184 389.84 37.704C392.384 37.224 395.312 36.336 397.328 35.256C397.088 35.088 396.824 34.92 396.56 34.752C394.784 35.4 392.912 35.952 391.208 36.36C390.92 35.88 390.224 34.824 389.768 34.344C392.096 33.96 394.592 33.336 396.68 32.544H392.144V28.824C391.88 29.016 391.616 29.184 391.328 29.352C390.92 28.728 390.032 27.768 389.432 27.336C392.48 25.728 394.688 23.52 395.936 21.576L398.912 22.152C398.672 22.488 398.432 22.824 398.192 23.16H402.416L402.848 23.04L404.792 24.312C404.36 25.008 403.808 25.8 403.184 26.544H408.968V32.544H403.52C403.856 33.504 404.264 34.416 404.744 35.28C406.16 34.488 407.696 33.432 408.728 32.592ZM426.584 26.736V28.92H427.904C428.816 28.224 429.68 27.504 430.496 26.736H426.584ZM431.816 37.224V35.688H423.56V37.224H431.816ZM423.56 41.016H431.816V39.384H423.56V41.016ZM437.552 31.44H428.912C427.976 32.112 427.064 32.736 426.08 33.36H434.816V44.016H431.816V43.392H423.56V44.112H420.704V36.264C419.504 36.792 418.256 37.32 417.032 37.776C416.696 37.152 415.832 36 415.304 35.424C418.448 34.44 421.448 33.072 424.208 31.44H416.048V28.92H423.752V26.736H418.112V24.264H423.752V21.672H426.584V24.264H431.792V25.44C432.704 24.456 433.52 23.448 434.264 22.392L436.712 23.64C435.344 25.536 433.736 27.312 431.984 28.92H437.552V31.44Z" fill="white"/>
<path d="M709.616 25.656V41.448C711.2 40.56 712.592 39.264 713.768 37.632C712.304 34.968 711.272 31.752 710.528 28.128L713.264 27.576C713.744 30.144 714.464 32.568 715.472 34.68C716.408 32.616 717.128 30.216 717.536 27.528H710.456V25.656H709.616ZM703.448 35.448V38.064C704.552 37.92 705.704 37.752 706.856 37.608V35.448H703.448ZM703.448 30.504V32.904H706.856V30.504H703.448ZM706.856 25.656H703.448V27.936H706.856V25.656ZM718.808 24.648L720.68 25.104C720.176 30.336 719.024 34.464 717.224 37.68C718.4 39.288 719.84 40.632 721.568 41.568C720.92 42.096 720.032 43.176 719.6 43.92C717.968 42.936 716.624 41.712 715.472 40.248C714.248 41.736 712.832 42.936 711.2 43.92C710.84 43.296 710.192 42.408 709.616 41.832V44.088H706.856V40.248C704.096 40.728 701.288 41.16 699.08 41.496L698.528 38.64C699.176 38.568 699.92 38.496 700.736 38.4V25.656H699.104V23.016H711.152V24.72H718.328L718.808 24.648ZM743.12 25.56V24.36H736.88V25.56H743.12ZM743.12 28.68V27.432H736.88V28.68H743.12ZM746 22.368V30.672H734.12V22.368H746ZM729.992 21.696L732.704 22.8C731.12 25.008 728.672 27.36 726.416 28.824C726.128 28.176 725.432 27 725 26.4C726.872 25.248 728.984 23.304 729.992 21.696ZM730.616 26.928L733.112 28.008C732.536 29.016 731.816 30.024 731.024 31.032V44.064H728.264V34.104C727.544 34.824 726.824 35.496 726.104 36.048C725.888 35.424 725.168 33.792 724.736 33.096C726.872 31.608 729.224 29.28 730.616 26.928ZM747.272 35.424L747.296 37.848H744.008V41.256C744.008 42.576 743.768 43.248 742.832 43.656C741.944 44.064 740.744 44.064 739.112 44.064C738.992 43.296 738.584 42.24 738.224 41.52C739.232 41.568 740.36 41.568 740.672 41.568C741.008 41.544 741.104 41.448 741.104 41.184V37.848H736.064C737.024 38.76 738.2 40.008 738.8 40.848L736.664 42.36C736.136 41.448 734.912 40.032 733.904 39.024L735.68 37.848H732.32V35.424H741.104V34.056H732.896V31.728H746.792V34.056H744.008V35.424H747.272ZM762.584 26.736V28.92H763.904C764.816 28.224 765.68 27.504 766.496 26.736H762.584ZM767.816 37.224V35.688H759.56V37.224H767.816ZM759.56 41.016H767.816V39.384H759.56V41.016ZM773.552 31.44H764.912C763.976 32.112 763.064 32.736 762.08 33.36H770.816V44.016H767.816V43.392H759.56V44.112H756.704V36.264C755.504 36.792 754.256 37.32 753.032 37.776C752.696 37.152 751.832 36 751.304 35.424C754.448 34.44 757.448 33.072 760.208 31.44H752.048V28.92H759.752V26.736H754.112V24.264H759.752V21.672H762.584V24.264H767.792V25.44C768.704 24.456 769.52 23.448 770.264 22.392L772.712 23.64C771.344 25.536 769.736 27.312 767.984 28.92H773.552V31.44Z" fill="white"/>
<path d="M972.696 75.832H967.92V77.872H972.696V75.832ZM965.352 81.064V73.696H975.408V80.848H972.696V80.008H967.92V81.064H965.352ZM974.04 64.744V62.968H966.528V64.744H968.976V63.448H971.592V64.744H974.04ZM971.64 58.816V60.832H976.68V64.936H975.432V66.76H971.592V67.768H975.096V69.664H971.592V70.696H976.416V72.88H964.08V70.696H968.976V69.664H965.424V67.768H968.976V66.76H965.184V64.936H964.008V60.832H968.904V58.816H971.64ZM980.4 61.216V74.632H977.688V61.216H980.4ZM982.656 59.104H985.416V77.608C985.416 79.192 985.128 80.008 984.168 80.44C983.232 80.92 981.744 81.016 979.776 81.016C979.656 80.2 979.248 78.88 978.84 78.064C980.232 78.136 981.6 78.112 982.08 78.112C982.488 78.112 982.656 77.968 982.656 77.584V59.104ZM1006.18 73.792H996.696V77.704H1006.18V73.792ZM993.888 81.112V71.272H1009.1V81.112H1006.18V80.224H996.696V81.112H993.888ZM996.552 66.376H1006.25C1004.26 64.816 1002.48 63.088 1001.33 61.504C1000.2 63.112 998.52 64.816 996.552 66.376ZM999.72 58.696H1002.67C1005.24 62.368 1009.13 65.416 1012.94 66.952C1012.25 67.696 1011.6 68.632 1011.1 69.52C1009.87 68.896 1008.62 68.104 1007.42 67.24V68.896H995.472V67.216C994.296 68.08 993.024 68.872 991.752 69.568C991.368 68.872 990.576 67.84 989.952 67.24C994.08 65.248 997.92 61.624 999.72 58.696Z" fill="white"/>
</svg>
