<svg width="400" height="400" viewBox="0 0 400 400" fill="none" xmlns="http://www.w3.org/2000/svg">
<rect width="400" height="400" fill="white"/>
<path d="M144.636 305.636C142.242 305.621 139.932 305.22 137.705 304.432C135.492 303.644 133.508 302.364 131.75 300.591C129.992 298.818 128.598 296.47 127.568 293.545C126.553 290.621 126.045 287.03 126.045 282.773C126.061 278.864 126.508 275.371 127.386 272.295C128.28 269.205 129.553 266.583 131.205 264.432C132.871 262.28 134.864 260.644 137.182 259.523C139.5 258.386 142.098 257.818 144.977 257.818C148.083 257.818 150.826 258.424 153.205 259.636C155.583 260.833 157.492 262.462 158.932 264.523C160.386 266.583 161.265 268.894 161.568 271.455H151.864C151.485 269.833 150.689 268.561 149.477 267.636C148.265 266.712 146.765 266.25 144.977 266.25C141.947 266.25 139.644 267.568 138.068 270.205C136.508 272.841 135.712 276.424 135.682 280.955H136C136.697 279.576 137.636 278.402 138.818 277.432C140.015 276.447 141.371 275.697 142.886 275.182C144.417 274.652 146.03 274.386 147.727 274.386C150.485 274.386 152.939 275.038 155.091 276.341C157.242 277.629 158.939 279.402 160.182 281.659C161.424 283.917 162.045 286.5 162.045 289.409C162.045 292.561 161.311 295.364 159.841 297.818C158.386 300.273 156.348 302.197 153.727 303.591C151.121 304.97 148.091 305.652 144.636 305.636ZM144.591 297.909C146.106 297.909 147.462 297.545 148.659 296.818C149.856 296.091 150.795 295.106 151.477 293.864C152.159 292.621 152.5 291.227 152.5 289.682C152.5 288.136 152.159 286.75 151.477 285.523C150.811 284.295 149.886 283.318 148.705 282.591C147.523 281.864 146.174 281.5 144.659 281.5C143.523 281.5 142.47 281.712 141.5 282.136C140.545 282.561 139.705 283.152 138.977 283.909C138.265 284.667 137.705 285.545 137.295 286.545C136.886 287.53 136.682 288.583 136.682 289.705C136.682 291.205 137.023 292.576 137.705 293.818C138.402 295.061 139.341 296.053 140.523 296.795C141.72 297.538 143.076 297.909 144.591 297.909ZM170.878 296.818V289.068L190.31 258.455H196.992V269.182H193.037L180.787 288.568V288.932H208.401V296.818H170.878ZM193.219 305V294.455L193.401 291.023V258.455H202.628V305H193.219ZM234.359 257.818C236.753 257.818 239.056 258.22 241.268 259.023C243.495 259.826 245.48 261.106 247.222 262.864C248.98 264.621 250.366 266.955 251.381 269.864C252.412 272.758 252.934 276.311 252.95 280.523C252.95 284.477 252.503 288.008 251.609 291.114C250.73 294.205 249.465 296.833 247.813 299C246.162 301.167 244.169 302.818 241.836 303.955C239.503 305.076 236.897 305.636 234.018 305.636C230.912 305.636 228.169 305.038 225.79 303.841C223.412 302.629 221.495 300.985 220.04 298.909C218.601 296.818 217.73 294.47 217.427 291.864H227.131C227.51 293.561 228.306 294.879 229.518 295.818C230.73 296.742 232.23 297.205 234.018 297.205C237.048 297.205 239.351 295.886 240.927 293.25C242.503 290.598 243.298 286.97 243.313 282.364H242.995C242.298 283.727 241.359 284.902 240.177 285.886C238.995 286.856 237.639 287.606 236.109 288.136C234.593 288.667 232.98 288.932 231.268 288.932C228.525 288.932 226.078 288.288 223.927 287C221.775 285.712 220.078 283.939 218.836 281.682C217.593 279.424 216.972 276.848 216.972 273.955C216.957 270.833 217.677 268.053 219.131 265.614C220.586 263.174 222.616 261.265 225.222 259.886C227.843 258.492 230.889 257.803 234.359 257.818ZM234.427 265.545C232.897 265.545 231.533 265.909 230.336 266.636C229.154 267.364 228.215 268.341 227.518 269.568C226.836 270.795 226.503 272.167 226.518 273.682C226.518 275.212 226.851 276.591 227.518 277.818C228.2 279.03 229.124 280 230.29 280.727C231.472 281.439 232.821 281.795 234.336 281.795C235.472 281.795 236.525 281.583 237.495 281.159C238.465 280.735 239.306 280.152 240.018 279.409C240.745 278.652 241.313 277.78 241.722 276.795C242.131 275.811 242.336 274.765 242.336 273.659C242.321 272.189 241.972 270.841 241.29 269.614C240.609 268.386 239.669 267.402 238.472 266.659C237.275 265.917 235.927 265.545 234.427 265.545Z" fill="#066AD5"/>
<path d="M283.38 292.82H286.16C286.36 292.36 286.56 291.84 286.7 291.36H282.74C283 291.84 283.24 292.38 283.38 292.82ZM278.96 289.64H283.52V288.18H285.9V289.64H290.8V291.36H289.2C288.92 291.88 288.64 292.38 288.38 292.82H291.38V294.66H278.16V292.82H281.16C281.02 292.38 280.82 291.88 280.6 291.48L281.24 291.36H278.96V289.64ZM287.66 297.68V296.86H281.9V297.68H287.66ZM287.66 299.78V298.94H281.9V299.78H287.66ZM290.02 295.44V301.2H285.56C286.08 301.62 286.56 302.06 286.86 302.44L285.32 303.66C284.88 303.02 283.86 302.1 283 301.52L283.42 301.2H279.64V295.44H290.02ZM277 288.1L279.18 288.82C278.64 290.18 277.94 291.6 277.16 292.92V306.72H274.92V296.22C274.46 296.8 273.98 297.34 273.5 297.82C273.3 297.24 272.68 295.96 272.26 295.36C274.12 293.64 275.94 290.88 277 288.1ZM279.06 306.3L277.32 305.08C278.16 304.3 278.88 303.06 279.24 301.94L281.08 302.68C280.64 303.92 280 305.36 279.06 306.3ZM284.22 304.86H285.98C286.46 304.86 286.56 304.7 286.64 303.54C287.02 303.86 287.92 304.14 288.5 304.28C288.28 306.2 287.7 306.7 286.22 306.7H283.9C281.82 306.7 281.36 306.12 281.36 304.34V302.04H283.52V304.32C283.52 304.8 283.6 304.86 284.22 304.86ZM287.3 302.7L289.08 301.74C290.08 302.74 291.18 304.16 291.64 305.18L289.74 306.24C289.34 305.26 288.28 303.78 287.3 302.7ZM303.92 296.72H308.92V291.68H303.92V296.72ZM296.84 291.68V296.72H301.56V291.68H296.84ZM311.32 289.32V303.94C311.32 305.24 311.04 305.9 310.2 306.28C309.4 306.68 308.2 306.72 306.42 306.72C306.3 306.06 305.9 304.96 305.56 304.34C306.7 304.42 308 304.4 308.4 304.4C308.78 304.38 308.92 304.26 308.92 303.92V299.08H296.84V306.72H294.44V289.32H311.32Z" fill="#066AD5"/>
<path d="M88.42 299.76L90.38 300.1C90.18 301.98 89.76 303.98 89.18 305.26C88.76 305 87.88 304.58 87.36 304.4C87.94 303.22 88.26 301.44 88.42 299.76ZM92.88 300.2L94.64 299.64C95.18 300.82 95.7 302.38 95.94 303.4L94.06 304.06C93.9 303.04 93.38 301.42 92.88 300.2ZM99.12 291.44H105.94C105.94 291.44 105.94 292.24 105.92 292.54C105.66 301.3 105.38 304.46 104.54 305.52C103.98 306.28 103.46 306.5 102.62 306.62C101.9 306.74 100.66 306.72 99.5 306.68C99.46 306 99.14 304.96 98.7 304.28C99.96 304.4 101.1 304.4 101.64 304.4C102.02 304.4 102.24 304.32 102.48 304.06C103.08 303.44 103.38 300.52 103.6 293.7H98.08C97.54 294.68 96.98 295.56 96.38 296.28C95.98 295.92 95.1 295.32 94.5 294.96C95.2 296.22 95.84 297.7 96.06 298.7L94.26 299.54C94.2 299.22 94.1 298.86 93.98 298.46L92.84 298.54V306.76H90.74V298.7L87.78 298.9L87.58 296.82L89.06 296.76C89.36 296.38 89.68 295.96 89.98 295.52C89.4 294.66 88.42 293.58 87.58 292.78L88.7 291.14C88.86 291.28 89.02 291.42 89.18 291.56C89.74 290.46 90.3 289.12 90.64 288.08L92.74 288.82C92.02 290.2 91.2 291.74 90.48 292.86C90.74 293.14 90.98 293.44 91.18 293.7C91.9 292.58 92.54 291.42 93.02 290.42L95.04 291.26C93.92 293.02 92.52 295.06 91.22 296.68L93.24 296.6C93.02 296.12 92.78 295.64 92.54 295.22L94.22 294.48L94.36 294.72C95.84 293.14 97.02 290.58 97.66 288.06L100.1 288.58C99.84 289.56 99.5 290.52 99.12 291.44ZM101.38 300.58L99.32 301.68C98.94 300.42 97.9 298.5 96.88 297.06L98.78 296.1C99.82 297.48 100.96 299.32 101.38 300.58Z" fill="#066AD5"/>
<g clip-path="url(#clip0_482_845)">
<path d="M173.622 137.271H222.24C223.076 137.271 223.856 136.871 224.342 136.2C224.829 135.523 224.963 134.651 224.696 133.867L216.273 108.602C215.924 107.551 214.934 106.838 213.822 106.838H182.045C180.927 106.838 179.938 107.551 179.589 108.602L171.171 133.867C170.904 134.652 171.038 135.523 171.524 136.2C172.007 136.871 172.791 137.271 173.622 137.271ZM184.029 110.632H202.302L179.743 123.501L184.029 110.632Z" fill="#066AD5"/>
<path d="M161.24 180.492C160.891 179.441 159.902 178.729 158.785 178.729H127.013C125.895 178.729 124.906 179.441 124.557 180.492L116.134 205.758C115.867 206.542 116.005 207.414 116.487 208.09C116.974 208.762 117.759 209.162 118.589 209.162H167.208C168.039 209.162 168.823 208.762 169.305 208.09C169.792 207.414 169.926 206.542 169.659 205.758L161.24 180.492ZM124.705 195.396L128.997 182.523H147.269L124.705 195.396Z" fill="#066AD5"/>
<path d="M218.344 180.492C217.995 179.441 217.006 178.729 215.883 178.729H184.112C182.999 178.729 182.01 179.441 181.661 180.492L173.237 205.758C172.97 206.542 173.104 207.414 173.591 208.09C174.073 208.762 174.857 209.162 175.688 209.162H224.307C225.143 209.162 225.922 208.762 226.409 208.09C226.896 207.414 227.029 206.542 226.763 205.758L218.344 180.492ZM181.81 195.396L186.096 182.523H204.369L181.81 195.396Z" fill="#066AD5"/>
<path d="M283.867 205.758L275.443 180.492C275.094 179.441 274.105 178.729 272.987 178.729H241.216C240.098 178.729 239.109 179.441 238.76 180.492L230.342 205.758C230.075 206.542 230.208 207.414 230.695 208.09C231.177 208.762 231.962 209.162 232.792 209.162H281.411C282.242 209.162 283.026 208.762 283.513 208.09C283.995 207.414 284.133 206.542 283.867 205.758ZM238.908 195.396L243.2 182.523H261.472L238.908 195.396Z" fill="#066AD5"/>
<path d="M144.055 173.145H192.674C193.509 173.145 194.294 172.745 194.776 172.068C195.263 171.396 195.396 170.525 195.129 169.74L186.711 144.475C186.362 143.424 185.373 142.711 184.255 142.711H152.478C151.366 142.711 150.376 143.424 150.023 144.475L141.604 169.74C141.338 170.525 141.471 171.396 141.958 172.068C142.445 172.745 143.224 173.145 144.055 173.145ZM154.468 146.505H172.74L150.176 159.374L154.468 146.505Z" fill="#066AD5"/>
<path d="M207.095 144.475L198.677 169.74C198.41 170.525 198.544 171.396 199.031 172.068C199.513 172.745 200.297 173.145 201.128 173.145H249.747C250.583 173.145 251.362 172.745 251.849 172.068C252.336 171.396 252.469 170.525 252.202 169.74L243.779 144.475C243.43 143.424 242.441 142.711 241.323 142.711H209.551C208.434 142.711 207.444 143.424 207.095 144.475ZM229.808 146.505L207.244 159.374L211.535 146.505H229.808Z" fill="#066AD5"/>
</g>
<defs>
<clipPath id="clip0_482_845">
<rect width="168" height="168" fill="white" transform="translate(116 74)"/>
</clipPath>
</defs>
</svg>
