<svg width="400" height="400" viewBox="0 0 400 400" fill="none" xmlns="http://www.w3.org/2000/svg">
<rect width="400" height="400" fill="white"/>
<path d="M133.773 305.636C130.561 305.636 127.697 305.045 125.182 303.864C122.682 302.682 120.697 301.053 119.227 298.977C117.758 296.902 116.992 294.523 116.932 291.841H126.477C126.583 293.644 127.341 295.106 128.75 296.227C130.159 297.348 131.833 297.909 133.773 297.909C135.318 297.909 136.682 297.568 137.864 296.886C139.061 296.189 139.992 295.227 140.659 294C141.341 292.758 141.682 291.333 141.682 289.727C141.682 288.091 141.333 286.652 140.636 285.409C139.955 284.167 139.008 283.197 137.795 282.5C136.583 281.803 135.197 281.447 133.636 281.432C132.273 281.432 130.947 281.712 129.659 282.273C128.386 282.833 127.394 283.598 126.682 284.568L117.932 283L120.136 258.455H148.591V266.5H128.25L127.045 278.159H127.318C128.136 277.008 129.371 276.053 131.023 275.295C132.674 274.538 134.523 274.159 136.568 274.159C139.371 274.159 141.871 274.818 144.068 276.136C146.265 277.455 148 279.265 149.273 281.568C150.545 283.856 151.174 286.492 151.159 289.477C151.174 292.614 150.447 295.402 148.977 297.841C147.523 300.265 145.485 302.174 142.864 303.568C140.258 304.947 137.227 305.636 133.773 305.636ZM180.833 258.455V305H170.992V267.795H170.719L160.06 274.477V265.75L171.583 258.455H180.833ZM197.705 305.591C196.205 305.591 194.917 305.061 193.842 304C192.781 302.924 192.251 301.636 192.251 300.136C192.251 298.652 192.781 297.379 193.842 296.318C194.917 295.258 196.205 294.727 197.705 294.727C199.16 294.727 200.433 295.258 201.523 296.318C202.614 297.379 203.16 298.652 203.16 300.136C203.16 301.136 202.902 302.053 202.387 302.886C201.887 303.705 201.228 304.364 200.41 304.864C199.592 305.348 198.69 305.591 197.705 305.591ZM212.873 296.818V289.068L232.305 258.455H238.987V269.182H235.032L222.782 288.568V288.932H250.396V296.818H212.873ZM235.214 305V294.455L235.396 291.023V258.455H244.623V305H235.214Z" fill="#066AD5"/>
<path d="M279.141 302.273V301.506C279.141 300.923 279.264 300.388 279.51 299.901C279.761 299.408 280.123 299.015 280.597 298.722C281.075 298.423 281.657 298.274 282.344 298.274C283.04 298.274 283.625 298.421 284.098 298.714C284.576 299.008 284.936 299.401 285.178 299.893C285.424 300.381 285.547 300.919 285.547 301.506V302.273C285.547 302.855 285.424 303.393 285.178 303.885C284.931 304.373 284.569 304.763 284.091 305.057C283.613 305.355 283.03 305.504 282.344 305.504C281.648 305.504 281.063 305.355 280.589 305.057C280.116 304.763 279.756 304.373 279.51 303.885C279.264 303.393 279.141 302.855 279.141 302.273ZM281.207 301.506V302.273C281.207 302.609 281.288 302.926 281.449 303.224C281.615 303.523 281.913 303.672 282.344 303.672C282.775 303.672 283.068 303.525 283.224 303.232C283.385 302.938 283.466 302.618 283.466 302.273V301.506C283.466 301.16 283.39 300.838 283.239 300.54C283.087 300.241 282.789 300.092 282.344 300.092C281.918 300.092 281.622 300.241 281.456 300.54C281.29 300.838 281.207 301.16 281.207 301.506ZM271.676 293.949V293.182C271.676 292.595 271.802 292.057 272.053 291.57C272.304 291.077 272.666 290.684 273.139 290.391C273.617 290.097 274.195 289.95 274.872 289.95C275.573 289.95 276.16 290.097 276.634 290.391C277.107 290.684 277.467 291.077 277.713 291.57C277.959 292.057 278.082 292.595 278.082 293.182V293.949C278.082 294.536 277.957 295.073 277.706 295.561C277.46 296.049 277.098 296.439 276.619 296.733C276.146 297.022 275.563 297.166 274.872 297.166C274.181 297.166 273.596 297.019 273.118 296.726C272.644 296.428 272.285 296.037 272.038 295.554C271.797 295.066 271.676 294.531 271.676 293.949ZM273.757 293.182V293.949C273.757 294.295 273.838 294.614 273.999 294.908C274.164 295.201 274.455 295.348 274.872 295.348C275.308 295.348 275.604 295.201 275.76 294.908C275.921 294.614 276.001 294.295 276.001 293.949V293.182C276.001 292.836 275.926 292.514 275.774 292.216C275.623 291.918 275.322 291.768 274.872 291.768C274.451 291.768 274.16 291.92 273.999 292.223C273.838 292.526 273.757 292.846 273.757 293.182ZM272.614 305L282.614 290.455H284.474L274.474 305H272.614Z" fill="#066AD5"/>
<path fill-rule="evenodd" clip-rule="evenodd" d="M196 114V218C167.281 218 144 194.719 144 166C144 137.281 167.281 114 196 114Z" fill="#066AD5"/>
<path fill-rule="evenodd" clip-rule="evenodd" d="M204 114V218C232.719 218 256 194.719 256 166C256 137.281 232.719 114 204 114Z" fill="#E5F2FF"/>
</svg>
