<svg width="221" height="32" viewBox="0 0 221 32" fill="none" xmlns="http://www.w3.org/2000/svg">
<path d="M1.896 25.6L0.72 24.952C1.536 23.752 1.824 21.688 1.92 19.672L3.192 19.912C3.096 22.072 2.856 24.28 1.896 25.6ZM3.648 20.056L4.704 19.936C4.968 21.352 5.064 23.128 5.016 24.304L3.912 24.448C3.984 23.248 3.864 21.472 3.648 20.056ZM3.96 14.728V16.576H5.928V14.728H3.96ZM5.928 7.624H3.96V9.4H5.928V7.624ZM5.928 12.976V11.152H3.96V12.976H5.928ZM7.752 16.576H11.04C11.04 16.576 11.04 17.152 11.016 17.392C10.776 23.224 10.512 25.384 9.96 26.104C9.576 26.56 9.168 26.752 8.616 26.8C8.136 26.896 7.344 26.896 6.504 26.848C6.48 26.32 6.312 25.552 6.024 25.096C6.744 25.168 7.392 25.168 7.704 25.168C7.968 25.168 8.16 25.12 8.328 24.904C8.568 24.616 8.736 23.896 8.88 22.336L8.088 22.624C7.92 21.784 7.416 20.488 6.912 19.528L7.872 19.192C8.28 19.936 8.688 20.848 8.928 21.616C9 20.752 9.072 19.672 9.12 18.352H2.088V5.776H10.68V7.624H7.752V9.4H10.224V11.152H7.752V12.976H10.224V14.728H7.752V16.576ZM7.2 23.488L6.12 23.728C6.048 22.696 5.688 21.088 5.304 19.864L6.336 19.672C6.744 20.896 7.104 22.48 7.2 23.488ZM16.584 15.112H14.064V19.408H16.584V15.112ZM22.536 8.584V9.664C22.344 20.848 22.152 24.616 21.36 25.744C20.856 26.512 20.352 26.704 19.584 26.824C18.816 26.944 17.592 26.92 16.416 26.872C16.392 26.272 16.128 25.36 15.792 24.76C17.016 24.856 18.12 24.856 18.6 24.856C19.008 24.88 19.248 24.784 19.488 24.448C20.064 23.728 20.28 20.176 20.448 10.648H13.848C13.392 11.608 12.912 12.496 12.384 13.264H18.432V21.256H14.064V22.816H12.264V13.456C12.144 13.648 12 13.816 11.88 13.984C11.448 13.648 10.536 12.928 10.032 12.616C11.592 10.744 12.792 7.84 13.488 4.912L15.696 5.392C15.408 6.472 15.072 7.552 14.688 8.584H22.536ZM33.6 7.432L32.256 9.208C31.488 8.416 29.808 7.336 28.44 6.64L29.712 5.056C31.056 5.656 32.784 6.64 33.6 7.432ZM32.568 13.672L31.248 15.496C30.432 14.728 28.728 13.696 27.312 13.096L28.56 11.44C29.952 11.992 31.704 12.904 32.568 13.672ZM29.832 26.584L27.84 25.384C28.824 23.512 30.24 20.464 31.248 17.752L33.048 18.976C32.112 21.496 30.912 24.328 29.832 26.584ZM43.296 19.192L42.984 19.12C43.272 18.568 43.608 17.872 43.848 17.272H38.688C39.024 17.872 39.312 18.568 39.456 19.072L39 19.192H43.296ZM38.424 9.592V7.288H36.264V9.592H38.424ZM40.128 7.288V9.592H42.36V7.288H40.128ZM44.064 7.288V9.592H46.32V7.288H44.064ZM49.416 15.544V17.272H45.936L46.152 17.32C45.792 18.04 45.384 18.688 45.072 19.192H48.96V20.92H42.312V22.336H48.312V24.064H42.312V26.896H40.128V24.064H34.392V22.336H40.128V20.92H33.72V19.192H37.32C37.128 18.64 36.84 17.944 36.552 17.392L37.056 17.272H33.096V15.544H40.128V14.224H34.872V12.52H40.128V11.296H34.296V5.608H48.384V11.296H42.312V12.52H47.856V14.224H42.312V15.544H49.416ZM75.336 13.816H66.576C68.208 18.808 71.232 22.864 75.768 24.76C75.216 25.24 74.472 26.176 74.112 26.848C69.624 24.76 66.72 20.872 64.848 15.784C63.624 20.128 61.032 24.28 55.584 26.848C55.224 26.248 54.504 25.456 53.88 24.976C59.592 22.48 61.92 18.16 62.88 13.816H54.36V11.512H63.288C63.576 9.112 63.552 6.808 63.576 4.888H66C65.976 6.832 65.952 9.136 65.664 11.512H75.336V13.816ZM83.208 10.72V14.248H81.12V8.752H84.576C84.144 7.888 83.4 6.808 82.704 5.992L84.624 5.128C85.488 6.088 86.448 7.432 86.856 8.344L85.992 8.752H90.432C90.096 7.792 89.4 6.472 88.752 5.464L90.696 4.744C91.512 5.824 92.328 7.336 92.64 8.296L91.464 8.752H95.52C96.36 7.648 97.296 6.136 97.848 5.008L100.2 5.752C99.504 6.784 98.712 7.84 97.968 8.752H101.448V14.248H99.24V10.72H83.208ZM101.808 18.304V20.368H92.352V24.376C92.352 25.6 92.04 26.224 91.056 26.56C90.072 26.872 88.656 26.896 86.568 26.896C86.4 26.272 85.968 25.36 85.632 24.736C87.312 24.808 88.992 24.808 89.472 24.784C89.952 24.76 90.072 24.664 90.072 24.304V20.368H80.712V18.304H90.072V16.648H91.2C92.136 16.144 93.096 15.496 93.912 14.848H84.792V12.904H96.048L96.528 12.784L97.968 13.864C96.528 15.4 94.416 16.936 92.352 17.992V18.304H101.808Z" fill="#333333"/>
<path d="M178.983 31.3977C176.975 31.3977 175.186 31.0284 173.614 30.2898C172.051 29.5511 170.811 28.5331 169.892 27.2358C168.973 25.9384 168.495 24.4517 168.457 22.7756H174.423C174.49 23.9025 174.963 24.8163 175.844 25.517C176.724 26.2178 177.771 26.5682 178.983 26.5682C179.949 26.5682 180.801 26.3551 181.54 25.929C182.288 25.4934 182.87 24.892 183.287 24.125C183.713 23.3485 183.926 22.4583 183.926 21.4545C183.926 20.4318 183.708 19.5322 183.273 18.7557C182.847 17.9792 182.255 17.3731 181.497 16.9375C180.74 16.5019 179.873 16.2794 178.898 16.2699C178.045 16.2699 177.217 16.4451 176.412 16.7955C175.616 17.1458 174.996 17.6241 174.551 18.2301L169.082 17.25L170.46 1.90909H188.244V6.9375H175.531L174.778 14.2244H174.949C175.46 13.5047 176.232 12.9081 177.264 12.4347C178.296 11.9612 179.452 11.7244 180.73 11.7244C182.482 11.7244 184.045 12.1364 185.418 12.9602C186.791 13.7841 187.875 14.9157 188.67 16.3551C189.466 17.785 189.859 19.4328 189.849 21.2983C189.859 23.2585 189.404 25.0009 188.486 26.5256C187.577 28.0407 186.303 29.2339 184.665 30.1051C183.036 30.9669 181.142 31.3977 178.983 31.3977Z" fill="#333333"/>
<path d="M205.928 27.992H217.136V30.08H205.928V27.992ZM204.92 11.144H213.608V13.16H204.92V11.144ZM205.808 8.648L208.376 9.152C206.456 12.44 203.576 15.68 199.352 18.2C199.016 17.648 198.248 16.832 197.744 16.424C201.704 14.288 204.416 11.264 205.808 8.648ZM212.864 11.144H213.296L213.704 11.024L215.24 11.84C212.384 19.184 205.784 24.032 198.968 26.288C198.704 25.664 198.128 24.728 197.648 24.248C204.056 22.4 210.488 17.72 212.864 11.528V11.144ZM201.872 15.848L203.552 14.384C205.352 15.632 207.608 17.456 208.688 18.776L206.84 20.408C205.88 19.088 203.672 17.144 201.872 15.848ZM216.056 20.528H218.408V31.064H216.056V20.528ZM206.912 20.528H217.208V22.592H206.912V31.016H204.632V22.256L206.408 20.528H206.912Z" fill="#333333"/>
<path d="M128 1H143V31H128" stroke="#7F7F7F" stroke-linecap="round" stroke-linejoin="round" stroke-dasharray="1 2"/>
<path d="M143 16.5H158" stroke="#7F7F7F" stroke-linecap="round" stroke-dasharray="1 2"/>
</svg>
