<svg width="400" height="400" viewBox="0 0 400 400" fill="none" xmlns="http://www.w3.org/2000/svg">
<rect width="400" height="400" fill="white"/>
<path d="M96.592 167.585C102.001 167.585 106.383 163.199 106.383 157.793C106.383 152.382 102.001 148 96.592 148C91.181 148 86.7988 152.382 86.7988 157.793C86.7988 163.199 91.181 167.585 96.592 167.585Z" fill="#77A7DA"/>
<path d="M105.077 172.225H96.4917H87.9067C83.1618 172.225 78 177.387 78 182.133V215.046C78 217.418 79.922 219.342 82.2942 219.342C83.4622 219.342 82.2942 219.342 85.2926 219.342L86.9254 247.411C86.9254 249.935 88.9737 251.982 91.4981 251.982C92.5635 251.982 94.5275 251.982 96.4917 251.982C98.4558 251.982 100.42 251.982 101.485 251.982C104.01 251.982 106.058 249.935 106.058 247.411L107.691 219.342C110.689 219.342 109.521 219.342 110.689 219.342C113.061 219.342 114.983 217.418 114.983 215.046V182.133C114.983 177.387 109.821 172.225 105.077 172.225Z" fill="#77A7DA"/>
<path d="M148.582 167.585C153.991 167.585 158.374 163.199 158.374 157.793C158.374 152.382 153.991 148 148.582 148C143.171 148 138.789 152.382 138.789 157.793C138.789 163.199 143.171 167.585 148.582 167.585Z" fill="#77A7DA"/>
<path d="M157.066 172.225H148.481H139.896C135.152 172.225 129.99 177.387 129.99 182.133V215.046C129.99 217.418 131.912 219.342 134.284 219.342C135.452 219.342 134.284 219.342 137.282 219.342L138.915 247.411C138.915 249.935 140.963 251.982 143.488 251.982C144.553 251.982 146.517 251.982 148.481 251.982C150.446 251.982 152.41 251.982 153.475 251.982C155.999 251.982 158.048 249.935 158.048 247.411L159.68 219.342C162.679 219.342 161.511 219.342 162.679 219.342C165.051 219.342 166.973 217.418 166.973 215.046V182.133C166.973 177.387 161.811 172.225 157.066 172.225Z" fill="#77A7DA"/>
<path d="M200.572 167.585C205.981 167.585 210.363 163.199 210.363 157.793C210.363 152.382 205.981 148 200.572 148C195.161 148 190.779 152.382 190.779 157.793C190.779 163.199 195.161 167.585 200.572 167.585Z" fill="#77A7DA"/>
<path d="M209.056 172.225H200.471H191.886C187.141 172.225 181.979 177.387 181.979 182.133V215.046C181.979 217.418 183.901 219.342 186.274 219.342C187.442 219.342 186.274 219.342 189.272 219.342L190.905 247.411C190.905 249.935 192.953 251.982 195.478 251.982C196.543 251.982 198.507 251.982 200.471 251.982C202.435 251.982 204.399 251.982 205.465 251.982C207.989 251.982 210.037 249.935 210.037 247.411L211.67 219.342C214.669 219.342 213.501 219.342 214.669 219.342C217.041 219.342 218.963 217.418 218.963 215.046V182.133C218.963 177.387 213.801 172.225 209.056 172.225Z" fill="#77A7DA"/>
<path d="M252.562 167.585C257.971 167.585 262.353 163.199 262.353 157.793C262.353 152.382 257.971 148 252.562 148C247.151 148 242.769 152.382 242.769 157.793C242.769 163.199 247.151 167.585 252.562 167.585Z" fill="#77A7DA"/>
<path d="M261.046 172.225H252.461H243.876C239.132 172.225 233.97 177.387 233.97 182.133V215.046C233.97 217.418 235.892 219.342 238.264 219.342C239.432 219.342 238.264 219.342 241.262 219.342L242.895 247.411C242.895 249.935 244.943 251.982 247.468 251.982C248.533 251.982 250.497 251.982 252.461 251.982C254.425 251.982 256.39 251.982 257.455 251.982C259.979 251.982 262.028 249.935 262.028 247.411L263.66 219.342C266.659 219.342 265.491 219.342 266.659 219.342C269.031 219.342 270.953 217.418 270.953 215.046V182.133C270.953 177.387 265.791 172.225 261.046 172.225Z" fill="#77A7DA"/>
<path d="M304.552 150.031C308.837 150.031 312.31 153.504 312.31 157.789C312.31 162.074 308.837 165.547 304.552 165.547C300.267 165.547 296.795 162.074 296.795 157.789C296.795 153.504 300.267 150.031 304.552 150.031ZM304.552 148C299.15 148 294.764 152.387 294.764 157.789C294.764 163.191 299.15 167.577 304.552 167.577C309.954 167.577 314.341 163.191 314.341 157.789C314.341 152.387 309.954 148 304.552 148Z" fill="#77A7DA"/>
<path d="M313.041 174.259C316.656 174.259 320.921 178.524 320.921 182.139V215.059C320.921 216.318 319.906 217.334 318.667 217.334H315.661C314.585 217.334 313.691 218.166 313.63 219.243L312.006 247.309C312.006 247.35 312.006 247.39 312.006 247.431C312.006 248.832 310.868 249.97 309.467 249.97H299.475C298.074 249.97 296.937 248.832 296.937 247.431C296.937 246.03 296.937 247.35 296.937 247.309L295.312 219.243C295.251 218.166 294.358 217.334 293.281 217.334H290.276C289.037 217.334 288.021 216.318 288.021 215.059V182.139C288.021 178.524 292.286 174.259 295.901 174.259H313.062M313.041 172.229H295.881C291.129 172.229 285.97 177.387 285.97 182.139V215.059C285.97 217.435 287.9 219.365 290.255 219.365H293.261L294.886 247.431C294.886 249.949 296.937 252 299.455 252H309.447C311.965 252 314.016 249.949 314.016 247.431L315.641 219.365H318.647C321.023 219.365 322.932 217.435 322.932 215.059V182.139C322.932 177.387 317.773 172.229 313.021 172.229H313.041Z" fill="#77A7DA"/>
</svg>
