<svg width="268" height="50" viewBox="0 0 268 50" fill="none" xmlns="http://www.w3.org/2000/svg">
<path d="M9.92 25.08H5.792V29.592H9.92V25.08ZM5.792 37.72H9.92V32.984H5.792V37.72ZM13.44 41.176H5.792V43.928H2.272V21.624H13.44V41.176ZM19.232 36.312H26.272V32.216H19.392V32.696C19.392 33.848 19.36 35.064 19.232 36.312ZM26.272 24.696H19.392V28.792H26.272V24.696ZM30.048 21.176V45.4C30.048 47.416 29.632 48.44 28.384 49.048C27.104 49.656 25.28 49.752 22.624 49.752C22.464 48.696 21.824 47.032 21.28 46.072C23.008 46.168 24.96 46.136 25.504 46.104C26.08 46.104 26.272 45.912 26.272 45.368V39.736H18.752C17.952 43.576 16.224 47.384 12.64 50.008C12.064 49.272 10.592 47.96 9.792 47.48C15.168 43.512 15.648 37.56 15.648 32.696V21.176H30.048ZM45.28 34.328L44.832 30.488C45.76 30.456 46.816 30.424 47.936 30.36C49.408 27.224 50.88 23.064 51.712 19.864L56.096 20.792C54.88 23.928 53.408 27.352 52 30.168C54.368 30.04 56.896 29.88 59.424 29.72C58.56 28.472 57.632 27.224 56.736 26.136L60.064 24.44C62.592 27.32 65.216 31.16 66.4 33.784L62.88 35.768C62.56 35 62.112 34.072 61.6 33.144C55.712 33.592 49.632 34.008 45.28 34.328ZM46.336 23.192L44.064 26.36C42.848 25.24 40.192 23.736 38.112 22.872L40.192 19.96C42.304 20.728 44.96 22.104 46.336 23.192ZM44.48 31.64L42.24 34.872C40.992 33.784 38.272 32.344 36.192 31.512L38.272 28.6C40.32 29.304 43.104 30.584 44.48 31.64ZM40.544 49.368L37.248 46.84C38.944 44.44 41.312 40.472 43.2 36.76L46.048 39.288C44.416 42.616 42.432 46.264 40.544 49.368ZM59.616 39.96H51.136V44.984H59.616V39.96ZM47.456 49.784V36.44H63.488V49.656H59.616V48.472H51.136V49.784H47.456ZM100.608 32.408H89.344C91.456 38.648 95.328 43.672 101.312 46.104C100.352 46.904 99.104 48.6 98.496 49.688C92.704 46.968 88.992 42.296 86.496 36.12C84.768 41.464 81.312 46.456 74.528 49.72C73.92 48.664 72.8 47.288 71.68 46.488C79.008 43.224 82.048 37.912 83.296 32.408H72.288V28.472H83.936C84.256 25.464 84.224 22.552 84.256 19.928H88.416C88.384 22.552 88.352 25.496 88.032 28.472H100.608V32.408ZM111.392 28.312V32.728H107.808V24.952H112.16C111.584 23.896 110.72 22.648 109.952 21.656L113.184 20.216C114.304 21.464 115.584 23.16 116.096 24.408L114.944 24.952H119.968C119.52 23.704 118.72 22.168 117.952 20.952L121.312 19.736C122.336 21.112 123.392 23.064 123.808 24.344L122.272 24.952H127.104C128.16 23.448 129.248 21.592 129.856 20.088L133.984 21.336C133.12 22.552 132.16 23.832 131.296 24.952H135.552V32.728H131.808V28.312H111.392ZM135.872 37.944V41.432H123.552V45.688C123.552 47.672 123.136 48.664 121.568 49.208C120.064 49.752 118.08 49.816 115.36 49.816C115.104 48.728 114.368 47.128 113.792 46.104C115.84 46.2 118.208 46.2 118.848 46.168C119.52 46.168 119.68 46.04 119.68 45.592V41.432H107.392V37.944H119.68V35.832H121.504C122.336 35.32 123.2 34.712 123.968 34.072H113.12V30.776H127.488L128.32 30.584L130.72 32.44C128.896 34.392 126.4 36.44 123.776 37.944H135.872Z" fill="#333333"/>
<path d="M178.935 0.454544V47H169.094V9.79545H168.822L158.162 16.4773V7.75L169.685 0.454544H178.935ZM195.693 38.8182V31.0682L215.125 0.454544H221.807V11.1818H217.852L205.602 30.5682V30.9318H233.216V38.8182H195.693ZM218.034 47V36.4545L218.216 33.0227V0.454544H227.443V47H218.034Z" fill="#333333"/>
<path d="M252.928 45.992H264.136V48.08H252.928V45.992ZM251.92 29.144H260.608V31.16H251.92V29.144ZM252.808 26.648L255.376 27.152C253.456 30.44 250.576 33.68 246.352 36.2C246.016 35.648 245.248 34.832 244.744 34.424C248.704 32.288 251.416 29.264 252.808 26.648ZM259.864 29.144H260.296L260.704 29.024L262.24 29.84C259.384 37.184 252.784 42.032 245.968 44.288C245.704 43.664 245.128 42.728 244.648 42.248C251.056 40.4 257.488 35.72 259.864 29.528V29.144ZM248.872 33.848L250.552 32.384C252.352 33.632 254.608 35.456 255.688 36.776L253.84 38.408C252.88 37.088 250.672 35.144 248.872 33.848ZM263.056 38.528H265.408V49.064H263.056V38.528ZM253.912 38.528H264.208V40.592H253.912V49.016H251.632V40.256L253.408 38.528H253.912Z" fill="#333333"/>
</svg>
