<svg width="264" height="51" viewBox="0 0 264 51" fill="none" xmlns="http://www.w3.org/2000/svg">
<path d="M8.352 31.008V33.312H23.424V31.008H8.352ZM8.352 25.568V27.904H23.424V25.568H8.352ZM30.688 40.32V43.936H17.856V50.752H13.92V43.936H1.44V40.32H13.92V36.672H4.608V22.208H27.36V36.672H17.856V40.32H30.688ZM44.16 33.504V34.336C45.024 35.072 47.488 37.568 48.064 38.208L45.952 41.12C45.568 40.384 44.864 39.264 44.16 38.176V50.784H40.544V39.808C39.68 42.112 38.688 44.256 37.632 45.76C37.312 44.672 36.48 43.104 35.904 42.144C37.472 40.064 39.008 36.576 39.936 33.504H36.416V30.048H40.544V26.176C39.392 26.4 38.24 26.56 37.152 26.72C36.992 25.952 36.544 24.672 36.128 23.968C39.424 23.392 43.04 22.464 45.216 21.44L47.552 23.776L47.456 23.616C52.704 23.136 58.624 22.24 62.176 21.056L64.832 23.904C60.224 25.28 53.888 26.112 48.416 26.528C48.352 25.888 48.032 24.928 47.712 24.192C46.624 24.64 45.44 25.024 44.16 25.344V30.048H47.36V33.504H44.16ZM48.32 50.72V33.92H51.808V50.72H48.32ZM47.872 27.84L50.88 26.912C51.904 28.512 52.8 30.72 53.088 32.256L49.856 33.344C49.632 31.808 48.8 29.536 47.872 27.84ZM58.528 31.68L55.2 32.64C55.072 31.104 54.368 28.736 53.6 26.976L56.736 26.112C57.568 27.84 58.272 30.144 58.528 31.68ZM57.024 46.208H61.568V43.36H57.024V46.208ZM61.568 37.6H57.024V40.256H61.568V37.6ZM61.888 25.44L65.6 26.464C64.576 29.312 63.232 32.384 62.176 34.368H65.12V50.688H61.568V49.44H57.024V50.848H53.632V34.368H61.792L58.944 33.504C59.968 31.36 61.248 27.968 61.888 25.44ZM88.128 44.64H95.808V37.536H88.128V44.64ZM76.896 37.536V44.64H84.256V37.536H76.896ZM84.256 26.688H76.896V33.728H84.256V26.688ZM95.808 33.728V26.688H88.128V33.728H95.808ZM73.088 23.008H99.776V50.432H95.808V48.48H76.896V50.432H73.088V23.008ZM135.808 33.408H124.544C126.656 39.648 130.528 44.672 136.512 47.104C135.552 47.904 134.304 49.6 133.696 50.688C127.904 47.968 124.192 43.296 121.696 37.12C119.968 42.464 116.512 47.456 109.728 50.72C109.12 49.664 108 48.288 106.88 47.488C114.208 44.224 117.248 38.912 118.496 33.408H107.488V29.472H119.136C119.456 26.464 119.424 23.552 119.456 20.928H123.616C123.584 23.552 123.552 26.496 123.232 29.472H135.808V33.408ZM146.592 29.312V33.728H143.008V25.952H147.36C146.784 24.896 145.92 23.648 145.152 22.656L148.384 21.216C149.504 22.464 150.784 24.16 151.296 25.408L150.144 25.952H155.168C154.72 24.704 153.92 23.168 153.152 21.952L156.512 20.736C157.536 22.112 158.592 24.064 159.008 25.344L157.472 25.952H162.304C163.36 24.448 164.448 22.592 165.056 21.088L169.184 22.336C168.32 23.552 167.36 24.832 166.496 25.952H170.752V33.728H167.008V29.312H146.592ZM171.072 38.944V42.432H158.752V46.688C158.752 48.672 158.336 49.664 156.768 50.208C155.264 50.752 153.28 50.816 150.56 50.816C150.304 49.728 149.568 48.128 148.992 47.104C151.04 47.2 153.408 47.2 154.048 47.168C154.72 47.168 154.88 47.04 154.88 46.592V42.432H142.592V38.944H154.88V36.832H156.704C157.536 36.32 158.4 35.712 159.168 35.072H148.32V31.776H162.688L163.52 31.584L165.92 33.44C164.096 35.392 161.6 37.44 158.976 38.944H171.072Z" fill="#333333"/>
<path d="M210.364 0.81818C212.758 0.81818 215.061 1.21969 217.273 2.02272C219.5 2.82576 221.485 4.10606 223.227 5.86364C224.985 7.62121 226.371 9.95455 227.386 12.8636C228.417 15.7576 228.939 19.3106 228.955 23.5227C228.955 27.4773 228.508 31.0076 227.614 34.1136C226.735 37.2045 225.47 39.8333 223.818 42C222.167 44.1667 220.174 45.8182 217.841 46.9545C215.508 48.0758 212.902 48.6364 210.023 48.6364C206.917 48.6364 204.174 48.0379 201.795 46.8409C199.417 45.6288 197.5 43.9848 196.045 41.9091C194.606 39.8182 193.735 37.4697 193.432 34.8636H203.136C203.515 36.5606 204.311 37.8788 205.523 38.8182C206.735 39.7424 208.235 40.2045 210.023 40.2045C213.053 40.2045 215.356 38.8864 216.932 36.25C218.508 33.5985 219.303 29.9697 219.318 25.3636H219C218.303 26.7273 217.364 27.9015 216.182 28.8864C215 29.8561 213.644 30.6061 212.114 31.1364C210.598 31.6667 208.985 31.9318 207.273 31.9318C204.53 31.9318 202.083 31.2879 199.932 30C197.78 28.7121 196.083 26.9394 194.841 24.6818C193.598 22.4242 192.977 19.8485 192.977 16.9545C192.962 13.8333 193.682 11.053 195.136 8.61364C196.591 6.17424 198.621 4.26515 201.227 2.88636C203.848 1.49242 206.894 0.803028 210.364 0.81818ZM210.432 8.54545C208.902 8.54545 207.538 8.90909 206.341 9.63636C205.159 10.3636 204.22 11.3409 203.523 12.5682C202.841 13.7955 202.508 15.1667 202.523 16.6818C202.523 18.2121 202.856 19.5909 203.523 20.8182C204.205 22.0303 205.129 23 206.295 23.7273C207.477 24.4394 208.826 24.7955 210.341 24.7955C211.477 24.7955 212.53 24.5833 213.5 24.1591C214.47 23.7348 215.311 23.1515 216.023 22.4091C216.75 21.6515 217.318 20.7803 217.727 19.7955C218.136 18.8106 218.341 17.7652 218.341 16.6591C218.326 15.1894 217.977 13.8409 217.295 12.6136C216.614 11.3864 215.674 10.4015 214.477 9.65909C213.28 8.91666 211.932 8.54545 210.432 8.54545Z" fill="#333333"/>
<path d="M248.928 46.992H260.136V49.08H248.928V46.992ZM247.92 30.144H256.608V32.16H247.92V30.144ZM248.808 27.648L251.376 28.152C249.456 31.44 246.576 34.68 242.352 37.2C242.016 36.648 241.248 35.832 240.744 35.424C244.704 33.288 247.416 30.264 248.808 27.648ZM255.864 30.144H256.296L256.704 30.024L258.24 30.84C255.384 38.184 248.784 43.032 241.968 45.288C241.704 44.664 241.128 43.728 240.648 43.248C247.056 41.4 253.488 36.72 255.864 30.528V30.144ZM244.872 34.848L246.552 33.384C248.352 34.632 250.608 36.456 251.688 37.776L249.84 39.408C248.88 38.088 246.672 36.144 244.872 34.848ZM259.056 39.528H261.408V50.064H259.056V39.528ZM249.912 39.528H260.208V41.592H249.912V50.016H247.632V41.256L249.408 39.528H249.912Z" fill="#333333"/>
</svg>
