<svg width="697" height="32" viewBox="0 0 697 32" fill="none" xmlns="http://www.w3.org/2000/svg">
<path d="M1.488 6.904H22.608V9.016H1.488V6.904ZM10.752 4.768H13.104V27.016H10.752V4.768ZM10.104 18.496L12.024 19.312C9.792 22.408 5.976 25.216 2.424 26.704C2.064 26.128 1.368 25.24 0.84 24.784C4.344 23.56 8.16 21.088 10.104 18.496ZM13.8 18.544C15.792 21.112 19.68 23.584 23.208 24.784C22.68 25.24 21.96 26.128 21.6 26.752C18.048 25.288 14.184 22.432 11.952 19.36L13.8 18.544ZM5.76 16.072V18.016H18.36V16.072H5.76ZM5.76 12.52V14.44H18.36V12.52H5.76ZM3.552 10.768H20.688V19.768H3.552V10.768ZM27.864 7.312H48.936V9.496H27.864V7.312ZM37.128 4.744H39.528V8.416H37.128V4.744ZM32.976 13.432V16.864H43.872V13.432H32.976ZM30.72 11.464H46.272V18.856H30.72V11.464ZM42.696 21.04L44.76 20.056C46.32 21.592 48.288 23.776 49.248 25.192L47.016 26.344C46.176 24.952 44.256 22.672 42.696 21.04ZM37.152 18.04H39.528V24.544C39.528 25.768 39.264 26.368 38.328 26.704C37.416 27.016 36.024 27.04 33.984 27.016C33.864 26.392 33.552 25.504 33.24 24.88C34.704 24.928 36.216 24.928 36.624 24.904C37.056 24.88 37.152 24.808 37.152 24.472V18.04ZM31.56 20.056L33.864 20.776C32.712 22.696 30.888 24.808 29.136 26.152C28.656 25.72 27.84 25.12 27.312 24.832C28.992 23.608 30.72 21.64 31.56 20.056ZM54.216 11.464H75.432V13.792H54.216V11.464ZM66.192 12.4C67.704 18.064 70.872 22.768 75.888 24.832C75.312 25.336 74.568 26.32 74.184 26.968C68.856 24.472 65.712 19.456 63.912 12.928L66.192 12.4ZM63.552 4.768H66.024C65.928 11.512 65.88 22.096 55.464 26.968C55.104 26.368 54.408 25.552 53.76 25.072C63.792 20.656 63.48 10.84 63.552 4.768ZM84.72 12.904H96.264V14.872H84.72V12.904ZM80.568 18.328H101.904V20.44H80.568V18.328ZM90.048 16.672H92.376V24.472C92.376 25.744 92.064 26.368 91.056 26.704C90.048 27.016 88.608 27.04 86.496 27.04C86.328 26.416 85.896 25.456 85.536 24.856C87.24 24.904 88.944 24.904 89.448 24.88C89.928 24.88 90.048 24.76 90.048 24.424V16.672ZM95.544 12.904H96.096L96.576 12.784L98.016 13.888C96.384 15.592 93.936 17.344 91.608 18.4C91.344 18.016 90.744 17.392 90.384 17.08C92.328 16.168 94.512 14.536 95.544 13.336V12.904ZM80.976 8.656H101.568V14.248H99.312V10.696H83.112V14.248H80.976V8.656ZM97.896 4.912L100.32 5.656C99.264 7.192 97.992 8.824 97.008 9.88L95.16 9.16C96.12 8.008 97.272 6.208 97.896 4.912ZM82.608 5.896L84.528 5.008C85.416 5.992 86.4 7.336 86.784 8.272L84.744 9.232C84.384 8.32 83.448 6.928 82.608 5.896ZM88.704 5.368L90.696 4.624C91.488 5.728 92.328 7.24 92.64 8.224L90.504 9.064C90.24 8.056 89.472 6.52 88.704 5.368ZM117.6 13.12C119.112 13.12 120.36 14.368 120.36 15.88C120.36 17.416 119.112 18.664 117.6 18.664C116.064 18.664 114.816 17.416 114.816 15.88C114.816 14.368 116.064 13.12 117.6 13.12ZM134.208 8.992H153.768V20.608H151.392V11.224H136.488V20.728H134.208V8.992ZM135.408 17.08H152.736V19.312H135.408V17.08ZM142.728 4.744H145.128V27.016H142.728V4.744ZM159.552 15.928H181.248V18.16H159.552V15.928ZM162.144 8.008H178.8V16.84H176.424V10.216H164.424V16.84H162.144V8.008ZM171.72 16.288C173.184 20.848 176.4 23.8 181.848 24.88C181.344 25.36 180.696 26.32 180.36 26.944C174.624 25.552 171.408 22.168 169.632 16.768L171.72 16.288ZM169.104 4.744H171.408V12.544C171.408 18.136 170.184 24.016 160.56 27.04C160.344 26.464 159.72 25.528 159.312 25.048C168.072 22.36 169.104 17.248 169.104 12.52V4.744ZM186.216 11.464H207.432V13.792H186.216V11.464ZM198.192 12.4C199.704 18.064 202.872 22.768 207.888 24.832C207.312 25.336 206.568 26.32 206.184 26.968C200.856 24.472 197.712 19.456 195.912 12.928L198.192 12.4ZM195.552 4.768H198.024C197.928 11.512 197.88 22.096 187.464 26.968C187.104 26.368 186.408 25.552 185.76 25.072C195.792 20.656 195.48 10.84 195.552 4.768ZM216.72 12.904H228.264V14.872H216.72V12.904ZM212.568 18.328H233.904V20.44H212.568V18.328ZM222.048 16.672H224.376V24.472C224.376 25.744 224.064 26.368 223.056 26.704C222.048 27.016 220.608 27.04 218.496 27.04C218.328 26.416 217.896 25.456 217.536 24.856C219.24 24.904 220.944 24.904 221.448 24.88C221.928 24.88 222.048 24.76 222.048 24.424V16.672ZM227.544 12.904H228.096L228.576 12.784L230.016 13.888C228.384 15.592 225.936 17.344 223.608 18.4C223.344 18.016 222.744 17.392 222.384 17.08C224.328 16.168 226.512 14.536 227.544 13.336V12.904ZM212.976 8.656H233.568V14.248H231.312V10.696H215.112V14.248H212.976V8.656ZM229.896 4.912L232.32 5.656C231.264 7.192 229.992 8.824 229.008 9.88L227.16 9.16C228.12 8.008 229.272 6.208 229.896 4.912ZM214.608 5.896L216.528 5.008C217.416 5.992 218.4 7.336 218.784 8.272L216.744 9.232C216.384 8.32 215.448 6.928 214.608 5.896ZM220.704 5.368L222.696 4.624C223.488 5.728 224.328 7.24 224.64 8.224L222.504 9.064C222.24 8.056 221.472 6.52 220.704 5.368ZM249.6 13.12C251.112 13.12 252.36 14.368 252.36 15.88C252.36 17.416 251.112 18.664 249.6 18.664C248.064 18.664 246.816 17.416 246.816 15.88C246.816 14.368 248.064 13.12 249.6 13.12ZM268.632 15.52H281.928V17.2H270.888V27.064H268.632V15.52ZM281.232 15.52H283.512V24.712C283.512 25.864 283.224 26.392 282.384 26.68C281.496 26.968 280.152 26.968 278.184 26.968C278.064 26.416 277.752 25.672 277.464 25.144C278.808 25.192 280.296 25.192 280.68 25.168C281.112 25.144 281.232 25.048 281.232 24.688V15.52ZM270.024 18.616H281.928V20.176H270.024V18.616ZM265.368 12.448H286.608V14.2H265.368V12.448ZM266.88 6.184H285.336V7.936H266.88V6.184ZM267.744 9.304H284.304V10.984H267.744V9.304ZM270.024 21.64H281.952V23.176H270.024V21.64ZM274.776 4.744H277.08V13.576H274.776V4.744ZM301.104 5.32H303.48V23.968H301.104V5.32ZM292.776 10.528H295.104V26.752H292.776V10.528ZM309.744 10.504H312.072V26.656H309.744V10.504ZM293.928 22.624H310.776V24.952H293.928V22.624ZM322.32 12.904H333.864V14.872H322.32V12.904ZM318.168 18.328H339.504V20.44H318.168V18.328ZM327.648 16.672H329.976V24.472C329.976 25.744 329.664 26.368 328.656 26.704C327.648 27.016 326.208 27.04 324.096 27.04C323.928 26.416 323.496 25.456 323.136 24.856C324.84 24.904 326.544 24.904 327.048 24.88C327.528 24.88 327.648 24.76 327.648 24.424V16.672ZM333.144 12.904H333.696L334.176 12.784L335.616 13.888C333.984 15.592 331.536 17.344 329.208 18.4C328.944 18.016 328.344 17.392 327.984 17.08C329.928 16.168 332.112 14.536 333.144 13.336V12.904ZM318.576 8.656H339.168V14.248H336.912V10.696H320.712V14.248H318.576V8.656ZM335.496 4.912L337.92 5.656C336.864 7.192 335.592 8.824 334.608 9.88L332.76 9.16C333.72 8.008 334.872 6.208 335.496 4.912ZM320.208 5.896L322.128 5.008C323.016 5.992 324 7.336 324.384 8.272L322.344 9.232C321.984 8.32 321.048 6.928 320.208 5.896ZM326.304 5.368L328.296 4.624C329.088 5.728 329.928 7.24 330.24 8.224L328.104 9.064C327.84 8.056 327.072 6.52 326.304 5.368ZM357.768 4.84H360V8.512H357.768V4.84ZM352.2 7.456H366.024V11.992H363.912V9.424H354.216V12.016H352.2V7.456ZM354.048 11.776H364.128V13.744H354.048V11.776ZM352.488 16.048H366V18.088H352.488V16.048ZM355.488 16.984H357.672C357.432 22.144 356.616 25.336 351.696 27.04C351.504 26.512 350.904 25.672 350.472 25.264C354.768 23.896 355.32 21.352 355.488 16.984ZM359.928 16.792H362.064V23.992C362.064 24.64 362.136 24.736 362.568 24.736C362.76 24.736 363.6 24.736 363.84 24.736C364.296 24.736 364.392 24.352 364.44 21.808C364.848 22.168 365.76 22.528 366.336 22.672C366.144 25.888 365.616 26.752 364.08 26.752C363.696 26.752 362.568 26.752 362.208 26.752C360.36 26.752 359.928 26.104 359.928 24.016V16.792ZM345.024 5.776H350.688V7.816H347.04V27.04H345.024V5.776ZM349.992 5.776H350.376L350.712 5.704L352.176 6.568C351.528 8.584 350.664 11.104 349.92 13C351.552 14.944 351.912 16.6 351.912 18.04C351.912 19.456 351.624 20.464 350.904 20.968C350.544 21.208 350.112 21.352 349.608 21.424C349.128 21.472 348.552 21.496 348 21.472C347.976 20.92 347.808 20.056 347.472 19.504C347.976 19.528 348.384 19.552 348.72 19.528C349.008 19.528 349.248 19.456 349.44 19.312C349.776 19.072 349.896 18.496 349.896 17.8C349.896 16.576 349.512 15.016 347.952 13.264C348.72 11.08 349.56 8.008 349.992 6.424V5.776ZM371.016 11.464H392.232V13.792H371.016V11.464ZM382.992 12.4C384.504 18.064 387.672 22.768 392.688 24.832C392.112 25.336 391.368 26.32 390.984 26.968C385.656 24.472 382.512 19.456 380.712 12.928L382.992 12.4ZM380.352 4.768H382.824C382.728 11.512 382.68 22.096 372.264 26.968C371.904 26.368 371.208 25.552 370.56 25.072C380.592 20.656 380.28 10.84 380.352 4.768ZM401.52 12.904H413.064V14.872H401.52V12.904ZM397.368 18.328H418.704V20.44H397.368V18.328ZM406.848 16.672H409.176V24.472C409.176 25.744 408.864 26.368 407.856 26.704C406.848 27.016 405.408 27.04 403.296 27.04C403.128 26.416 402.696 25.456 402.336 24.856C404.04 24.904 405.744 24.904 406.248 24.88C406.728 24.88 406.848 24.76 406.848 24.424V16.672ZM412.344 12.904H412.896L413.376 12.784L414.816 13.888C413.184 15.592 410.736 17.344 408.408 18.4C408.144 18.016 407.544 17.392 407.184 17.08C409.128 16.168 411.312 14.536 412.344 13.336V12.904ZM397.776 8.656H418.368V14.248H416.112V10.696H399.912V14.248H397.776V8.656ZM414.696 4.912L417.12 5.656C416.064 7.192 414.792 8.824 413.808 9.88L411.96 9.16C412.92 8.008 414.072 6.208 414.696 4.912ZM399.408 5.896L401.328 5.008C402.216 5.992 403.2 7.336 403.584 8.272L401.544 9.232C401.184 8.32 400.248 6.928 399.408 5.896ZM405.504 5.368L407.496 4.624C408.288 5.728 409.128 7.24 409.44 8.224L407.304 9.064C407.04 8.056 406.272 6.52 405.504 5.368ZM434.4 13.12C435.912 13.12 437.16 14.368 437.16 15.88C437.16 17.416 435.912 18.664 434.4 18.664C432.864 18.664 431.616 17.416 431.616 15.88C431.616 14.368 432.864 13.12 434.4 13.12ZM449.952 19.456H471.648V21.376H449.952V19.456ZM450.552 6.544H471.072V8.44H450.552V6.544ZM464.064 17.584H466.296V24.736C466.296 25.912 466.032 26.464 465.144 26.776C464.256 27.064 462.912 27.088 460.896 27.088C460.8 26.464 460.488 25.672 460.176 25.096C461.616 25.144 463.128 25.144 463.536 25.12C463.944 25.096 464.064 25 464.064 24.688V17.584ZM459.576 4.768H461.832V17.008H459.576V4.768ZM453.528 22.6L455.208 21.4C456.576 22.288 458.184 23.656 458.952 24.64L457.128 26.008C456.432 25.024 454.848 23.584 453.528 22.6ZM454.44 14.584V16.24H467.16V14.584H454.44ZM454.44 11.44V13.072H467.16V11.44H454.44ZM452.304 9.832H469.392V17.848H452.304V9.832ZM491.88 15.736L493.56 16.432C492.072 17.944 489.648 19.144 487.392 19.888C487.104 19.456 486.576 18.904 486.144 18.568C488.232 17.968 490.632 16.912 491.88 15.736ZM494.184 17.992L495.864 18.688C493.992 20.728 490.8 22.192 487.536 23.056C487.272 22.624 486.816 22 486.408 21.592C489.432 20.944 492.576 19.648 494.184 17.992ZM496.224 20.656L498.168 21.472C495.72 24.376 491.304 26.032 486.288 26.92C486.072 26.392 485.568 25.624 485.136 25.12C489.792 24.472 494.112 23.032 496.224 20.656ZM488.64 4.72L490.728 5.248C489.6 8.104 487.752 10.816 485.832 12.568C485.472 12.184 484.632 11.536 484.128 11.224C486.024 9.688 487.704 7.264 488.64 4.72ZM488.328 7.288H498.072V9.136H487.224L488.328 7.288ZM494.472 7.72L496.608 8.2C494.688 12.808 490.656 15.424 485.712 16.936C485.448 16.48 484.776 15.592 484.368 15.184C489.144 14.008 492.936 11.704 494.472 7.72ZM488.232 8.392C489.72 11.176 493.32 13.96 498.84 14.92C498.432 15.352 497.856 16.192 497.592 16.744C492.072 15.496 488.448 12.376 486.816 9.376L488.232 8.392ZM482.544 7.696H484.512V23.032H482.544V7.696ZM480.528 4.864L482.616 5.464C481.272 9.64 479.088 14.008 476.664 16.84C476.472 16.288 475.896 15.04 475.536 14.44C477.552 12.112 479.424 8.488 480.528 4.864ZM478.632 11.032L480.72 8.944L480.792 8.992V27.016H478.632V11.032ZM503.016 11.464H524.232V13.792H503.016V11.464ZM514.992 12.4C516.504 18.064 519.672 22.768 524.688 24.832C524.112 25.336 523.368 26.32 522.984 26.968C517.656 24.472 514.512 19.456 512.712 12.928L514.992 12.4ZM512.352 4.768H514.824C514.728 11.512 514.68 22.096 504.264 26.968C503.904 26.368 503.208 25.552 502.56 25.072C512.592 20.656 512.28 10.84 512.352 4.768ZM533.52 12.904H545.064V14.872H533.52V12.904ZM529.368 18.328H550.704V20.44H529.368V18.328ZM538.848 16.672H541.176V24.472C541.176 25.744 540.864 26.368 539.856 26.704C538.848 27.016 537.408 27.04 535.296 27.04C535.128 26.416 534.696 25.456 534.336 24.856C536.04 24.904 537.744 24.904 538.248 24.88C538.728 24.88 538.848 24.76 538.848 24.424V16.672ZM544.344 12.904H544.896L545.376 12.784L546.816 13.888C545.184 15.592 542.736 17.344 540.408 18.4C540.144 18.016 539.544 17.392 539.184 17.08C541.128 16.168 543.312 14.536 544.344 13.336V12.904ZM529.776 8.656H550.368V14.248H548.112V10.696H531.912V14.248H529.776V8.656ZM546.696 4.912L549.12 5.656C548.064 7.192 546.792 8.824 545.808 9.88L543.96 9.16C544.92 8.008 546.072 6.208 546.696 4.912ZM531.408 5.896L533.328 5.008C534.216 5.992 535.2 7.336 535.584 8.272L533.544 9.232C533.184 8.32 532.248 6.928 531.408 5.896ZM537.504 5.368L539.496 4.624C540.288 5.728 541.128 7.24 541.44 8.224L539.304 9.064C539.04 8.056 538.272 6.52 537.504 5.368Z" fill="#333333"/>
<path d="M619.976 28.064H632.288V30.08H619.976V28.064ZM622.856 8.528L625.016 9.272C623.048 12.584 619.928 15.584 616.904 17.456C616.544 17.024 615.704 16.16 615.2 15.8C618.248 14.144 621.176 11.456 622.856 8.528ZM631.616 11.168H632.096L632.48 11.048L634.088 12.104C630.512 17.84 622.76 21.392 615.752 22.976C615.536 22.376 615.032 21.44 614.624 20.936C621.2 19.664 628.688 16.256 631.616 11.528V11.168ZM621.272 12.392C624.416 16.424 630.656 19.568 637.4 20.768C636.872 21.272 636.248 22.232 635.912 22.856C629.144 21.44 623 18.032 619.376 13.28L621.272 12.392ZM618.8 22.256H633.248V31.016H630.848V24.32H621.08V31.112H618.8V22.256ZM622.304 11.168H632.144V13.16H620.936L622.304 11.168Z" fill="#333333"/>
<path d="M655.111 31.3977C652.99 31.3977 651.1 31.0331 649.443 30.304C647.795 29.5653 646.493 28.5521 645.537 27.2642C644.59 25.9669 644.102 24.4706 644.074 22.7756H650.267C650.305 23.4858 650.537 24.1108 650.963 24.6506C651.399 25.1809 651.976 25.5928 652.696 25.8864C653.416 26.1799 654.225 26.3267 655.125 26.3267C656.062 26.3267 656.891 26.161 657.611 25.8295C658.33 25.4981 658.894 25.0388 659.301 24.4517C659.708 23.8646 659.912 23.1875 659.912 22.4205C659.912 21.6439 659.694 20.9574 659.259 20.3608C658.832 19.7547 658.217 19.2812 657.412 18.9403C656.616 18.5994 655.67 18.429 654.571 18.429H651.858V13.9119H654.571C655.499 13.9119 656.318 13.7509 657.028 13.429C657.748 13.107 658.307 12.6619 658.705 12.0938C659.102 11.5161 659.301 10.8438 659.301 10.0767C659.301 9.34754 659.126 8.70833 658.776 8.15909C658.435 7.60038 657.952 7.16477 657.327 6.85227C656.711 6.53977 655.991 6.38352 655.168 6.38352C654.334 6.38352 653.572 6.53504 652.881 6.83807C652.189 7.13163 651.635 7.55303 651.219 8.10227C650.802 8.65151 650.58 9.29545 650.551 10.0341H644.656C644.685 8.35795 645.163 6.88068 646.091 5.60227C647.019 4.32386 648.269 3.32481 649.841 2.60511C651.422 1.87595 653.207 1.51136 655.196 1.51136C657.204 1.51136 658.96 1.87595 660.466 2.60511C661.972 3.33428 663.141 4.31913 663.974 5.55966C664.817 6.79072 665.234 8.1733 665.224 9.70739C665.234 11.3362 664.727 12.6951 663.705 13.7841C662.691 14.8731 661.37 15.5644 659.741 15.858V16.0852C661.882 16.3598 663.51 17.1032 664.628 18.3153C665.755 19.518 666.313 21.0237 666.304 22.8324C666.313 24.4896 665.835 25.9621 664.869 27.25C663.913 28.5379 662.592 29.5511 660.906 30.2898C659.221 31.0284 657.289 31.3977 655.111 31.3977Z" fill="#333333"/>
<path d="M681.928 27.992H693.136V30.08H681.928V27.992ZM680.92 11.144H689.608V13.16H680.92V11.144ZM681.808 8.648L684.376 9.152C682.456 12.44 679.576 15.68 675.352 18.2C675.016 17.648 674.248 16.832 673.744 16.424C677.704 14.288 680.416 11.264 681.808 8.648ZM688.864 11.144H689.296L689.704 11.024L691.24 11.84C688.384 19.184 681.784 24.032 674.968 26.288C674.704 25.664 674.128 24.728 673.648 24.248C680.056 22.4 686.488 17.72 688.864 11.528V11.144ZM677.872 15.848L679.552 14.384C681.352 15.632 683.608 17.456 684.688 18.776L682.84 20.408C681.88 19.088 679.672 17.144 677.872 15.848ZM692.056 20.528H694.408V31.064H692.056V20.528ZM682.912 20.528H693.208V22.592H682.912V31.016H680.632V22.256L682.408 20.528H682.912Z" fill="#333333"/>
<path d="M576 1H591V31H576" stroke="#7F7F7F" stroke-linecap="round" stroke-linejoin="round" stroke-dasharray="1 2"/>
<path d="M591 16.5H606" stroke="#7F7F7F" stroke-linecap="round" stroke-dasharray="1 2"/>
</svg>
