<svg width="400" height="400" viewBox="0 0 400 400" fill="none" xmlns="http://www.w3.org/2000/svg">
<rect width="400" height="400" fill="white"/>
<path d="M79.0682 287.818V280.068L98.5 249.455H105.182V260.182H101.227L88.9773 279.568V279.932H116.591V287.818H79.0682ZM101.409 296V285.455L101.591 282.023V249.455H110.818V296H101.409ZM129.548 296V288.909L146.116 273.568C147.525 272.205 148.707 270.977 149.661 269.886C150.631 268.795 151.366 267.727 151.866 266.682C152.366 265.621 152.616 264.477 152.616 263.25C152.616 261.886 152.305 260.712 151.684 259.727C151.063 258.727 150.214 257.962 149.139 257.432C148.063 256.886 146.843 256.614 145.48 256.614C144.055 256.614 142.813 256.902 141.752 257.477C140.692 258.053 139.873 258.879 139.298 259.955C138.722 261.03 138.434 262.311 138.434 263.795H129.093C129.093 260.75 129.783 258.106 131.161 255.864C132.54 253.621 134.472 251.886 136.957 250.659C139.442 249.432 142.305 248.818 145.548 248.818C148.881 248.818 151.783 249.409 154.252 250.591C156.737 251.758 158.669 253.379 160.048 255.455C161.427 257.53 162.116 259.909 162.116 262.591C162.116 264.348 161.767 266.083 161.07 267.795C160.389 269.508 159.169 271.409 157.411 273.5C155.654 275.576 153.177 278.068 149.98 280.977L143.184 287.636V287.955H162.73V296H129.548ZM182.01 296.591C180.51 296.591 179.222 296.061 178.147 295C177.086 293.924 176.556 292.636 176.556 291.136C176.556 289.652 177.086 288.379 178.147 287.318C179.222 286.258 180.51 285.727 182.01 285.727C183.465 285.727 184.738 286.258 185.828 287.318C186.919 288.379 187.465 289.652 187.465 291.136C187.465 292.136 187.207 293.053 186.692 293.886C186.192 294.705 185.533 295.364 184.715 295.864C183.897 296.348 182.995 296.591 182.01 296.591ZM217.427 296.636C214.033 296.636 211.011 296.053 208.359 294.886C205.723 293.705 203.639 292.083 202.109 290.023C200.594 287.947 199.814 285.553 199.768 282.841H209.677C209.738 283.977 210.109 284.977 210.791 285.841C211.488 286.689 212.412 287.348 213.564 287.818C214.715 288.288 216.011 288.523 217.45 288.523C218.95 288.523 220.276 288.258 221.427 287.727C222.579 287.197 223.48 286.462 224.132 285.523C224.783 284.583 225.109 283.5 225.109 282.273C225.109 281.03 224.761 279.932 224.064 278.977C223.382 278.008 222.397 277.25 221.109 276.705C219.836 276.159 218.321 275.886 216.564 275.886H212.223V268.659H216.564C218.048 268.659 219.359 268.402 220.495 267.886C221.647 267.371 222.541 266.659 223.177 265.75C223.814 264.826 224.132 263.75 224.132 262.523C224.132 261.356 223.852 260.333 223.291 259.455C222.745 258.561 221.973 257.864 220.973 257.364C219.988 256.864 218.836 256.614 217.518 256.614C216.185 256.614 214.965 256.856 213.859 257.341C212.753 257.811 211.867 258.485 211.2 259.364C210.533 260.242 210.177 261.273 210.132 262.455H200.7C200.745 259.773 201.511 257.409 202.995 255.364C204.48 253.318 206.48 251.72 208.995 250.568C211.526 249.402 214.382 248.818 217.564 248.818C220.776 248.818 223.586 249.402 225.995 250.568C228.405 251.735 230.276 253.311 231.609 255.295C232.958 257.265 233.624 259.477 233.609 261.932C233.624 264.538 232.814 266.712 231.177 268.455C229.556 270.197 227.442 271.303 224.836 271.773V272.136C228.261 272.576 230.867 273.765 232.655 275.705C234.458 277.629 235.352 280.038 235.336 282.932C235.352 285.583 234.586 287.939 233.041 290C231.511 292.061 229.397 293.682 226.7 294.864C224.003 296.045 220.912 296.636 217.427 296.636ZM265.651 248.818C268.045 248.818 270.348 249.22 272.56 250.023C274.788 250.826 276.772 252.106 278.515 253.864C280.272 255.621 281.659 257.955 282.674 260.864C283.704 263.758 284.227 267.311 284.242 271.523C284.242 275.477 283.795 279.008 282.901 282.114C282.022 285.205 280.757 287.833 279.106 290C277.454 292.167 275.462 293.818 273.128 294.955C270.795 296.076 268.189 296.636 265.31 296.636C262.204 296.636 259.462 296.038 257.083 294.841C254.704 293.629 252.788 291.985 251.333 289.909C249.894 287.818 249.022 285.47 248.719 282.864H258.424C258.803 284.561 259.598 285.879 260.81 286.818C262.022 287.742 263.522 288.205 265.31 288.205C268.341 288.205 270.644 286.886 272.219 284.25C273.795 281.598 274.591 277.97 274.606 273.364H274.288C273.591 274.727 272.651 275.902 271.469 276.886C270.288 277.856 268.931 278.606 267.401 279.136C265.886 279.667 264.272 279.932 262.56 279.932C259.818 279.932 257.371 279.288 255.219 278C253.068 276.712 251.371 274.939 250.128 272.682C248.886 270.424 248.265 267.848 248.265 264.955C248.25 261.833 248.969 259.053 250.424 256.614C251.878 254.174 253.909 252.265 256.515 250.886C259.136 249.492 262.181 248.803 265.651 248.818ZM265.719 256.545C264.189 256.545 262.825 256.909 261.628 257.636C260.447 258.364 259.507 259.341 258.81 260.568C258.128 261.795 257.795 263.167 257.81 264.682C257.81 266.212 258.144 267.591 258.81 268.818C259.492 270.03 260.416 271 261.583 271.727C262.765 272.439 264.113 272.795 265.628 272.795C266.765 272.795 267.818 272.583 268.788 272.159C269.757 271.735 270.598 271.152 271.31 270.409C272.038 269.652 272.606 268.78 273.015 267.795C273.424 266.811 273.628 265.765 273.628 264.659C273.613 263.189 273.265 261.841 272.583 260.614C271.901 259.386 270.962 258.402 269.765 257.659C268.568 256.917 267.219 256.545 265.719 256.545Z" fill="#066AD5"/>
<path d="M315.54 284.4H316.94C317.12 290.86 319.82 296.34 321.42 296.32C321.88 296.32 322.06 295.44 322.14 293.42C322.46 293.68 322.92 293.96 323.28 294.08C323.06 296.86 322.54 297.66 321.34 297.66C318.66 297.66 315.86 291.34 315.54 284.4ZM318.08 285.18L318.94 284.5C319.82 285 320.92 285.78 321.44 286.32L320.56 287.08C320.04 286.52 318.96 285.72 318.08 285.18ZM313.3 291.76L314.32 291.38C314.94 292.3 315.58 293.58 315.82 294.36L314.76 294.82C314.52 294 313.92 292.72 313.3 291.76ZM320.42 288.56L321.78 288.86C320.46 292.8 318.04 295.74 314.96 297.62C314.76 297.34 314.24 296.82 313.94 296.58C317 294.92 319.28 292.14 320.42 288.56ZM309.3 291.36L310.44 291.62C310.04 293.02 309.36 294.5 308.64 295.46C308.42 295.28 307.92 294.96 307.64 294.82C308.38 293.9 308.94 292.62 309.3 291.36ZM307.16 286.5H322.72V287.74H307.16V286.5ZM308.6 289.22H315.26V290.38H308.6V289.22ZM305.22 283.4H322.82V284.66H305.22V283.4ZM314.36 280.62H320.92V281.76H314.36V280.62ZM306.34 286.5H307.74V289.9C307.74 292.2 307.42 295.46 305.78 297.66C305.54 297.38 304.96 296.94 304.64 296.76C306.16 294.72 306.34 291.94 306.34 289.88V286.5ZM313.54 279.22H315V284H313.54V279.22ZM308.46 280.1H309.86V284.16H308.46V280.1ZM311.32 289.92H312.56V295.94C312.56 296.56 312.46 296.92 312.04 297.12C311.62 297.34 310.96 297.36 310.04 297.36C309.98 296.98 309.78 296.5 309.64 296.16C310.32 296.18 310.88 296.18 311.08 296.16C311.28 296.14 311.32 296.1 311.32 295.92V289.92Z" fill="#066AD5"/>
<g clip-path="url(#clip0_482_839)">
<path d="M185.474 149.809L195.837 157.802C196.236 161.024 198.952 163.528 202.282 163.528C205.888 163.528 208.81 160.604 208.81 157C208.81 156.862 208.779 156.73 208.769 156.594L223.954 138.629C225.012 137.441 225.032 135.729 223.997 134.81C222.964 133.89 221.268 134.109 220.21 135.299L205.291 151.239C204.385 150.764 203.374 150.471 202.282 150.471C201.115 150.471 200.035 150.802 199.087 151.34L189.331 144.547C188.073 143.62 186.186 144.049 185.119 145.504C184.056 146.955 184.213 148.884 185.474 149.809Z" fill="#066AD5"/>
<path d="M237.439 121.844C228.461 112.855 215.993 107.28 202.282 107.283V119.335C212.703 119.338 222.08 123.542 228.916 130.367C235.739 137.201 239.943 146.58 239.946 156.999C239.943 167.419 235.739 176.798 228.916 183.632C222.08 190.459 212.703 194.662 202.282 194.664C191.863 194.662 182.484 190.459 175.649 183.632C168.824 176.798 164.621 167.419 164.617 156.999C164.619 153.583 165.085 150.293 165.93 147.159L170.815 150.201C171.462 150.603 172.249 150.688 172.895 150.423C173.546 150.155 173.971 149.577 174.021 148.885L176.125 121.339C176.181 120.55 175.749 119.754 175.014 119.292C174.271 118.836 173.364 118.794 172.684 119.199L148.888 133.229C148.287 133.58 147.958 134.216 148.004 134.915C148.051 135.617 148.472 136.284 149.121 136.687L155.356 140.571C153.554 145.722 152.564 151.253 152.564 156.999C152.561 170.709 158.139 183.176 167.126 192.156C176.105 201.143 188.571 206.721 202.282 206.717C215.991 206.721 228.461 201.143 237.439 192.156C246.425 183.176 252.004 170.709 252 156.999C252.003 143.289 246.425 130.821 237.439 121.844Z" fill="#066AD5"/>
</g>
<defs>
<clipPath id="clip0_482_839">
<rect width="104" height="104" fill="white" transform="translate(148 105)"/>
</clipPath>
</defs>
</svg>
