<svg width="309" height="51" viewBox="0 0 309 51" fill="none" xmlns="http://www.w3.org/2000/svg">
<path d="M8.168 28.256H24.168V31.488H8.168V28.256ZM9.672 33.92H13.192V46.816H9.672V33.92ZM11.592 33.92H22.76V44.704H11.592V41.504H19.208V37.056H11.592V33.92ZM2.6 22.336H28.2V25.984H6.312V50.912H2.6V22.336ZM26.056 22.336H29.832V46.496C29.832 48.48 29.448 49.568 28.2 50.176C26.984 50.816 25.224 50.912 22.504 50.912C22.376 49.856 21.8 48.096 21.224 47.136C22.92 47.2 24.776 47.2 25.32 47.2C25.864 47.168 26.056 46.976 26.056 46.432V22.336ZM37.064 24.8H65.8V28.448H37.064V24.8ZM39.144 32.448H63.848V36.064H39.144V32.448ZM49.32 20.832H53.192V35.008H49.32V20.832ZM44.552 39.68H48.36V45.792C48.36 46.816 48.616 46.944 50.152 46.944C50.792 46.944 53.672 46.944 54.536 46.944C55.816 46.944 56.072 46.496 56.2 43.456C57 44.032 58.6 44.608 59.624 44.832C59.208 49.216 58.12 50.368 54.888 50.368C53.992 50.368 50.504 50.368 49.704 50.368C45.576 50.368 44.552 49.28 44.552 45.856V39.68ZM46.856 37.856L49.448 35.552C51.528 36.64 54.12 38.4 55.336 39.808L52.552 42.368C51.464 40.96 48.968 39.072 46.856 37.856ZM57.704 40.832L60.904 39.2C63.176 41.6 65.544 44.864 66.408 47.296L62.92 49.152C62.152 46.816 59.944 43.392 57.704 40.832ZM40.072 39.936L43.528 41.024C42.792 44.224 41.64 47.456 39.368 49.504L36.104 47.392C38.184 45.664 39.464 42.88 40.072 39.936ZM83.688 46.208H101.928V49.984H83.688V46.208ZM85 30.752H101.16V34.432H85V30.752ZM91.112 21.152H95.048V48.032H91.112V21.152ZM72.2 26.752H82.696V30.24H72.2V26.752ZM76.776 37.696L80.584 33.152V50.912H76.776V37.696ZM76.776 20.864H80.584V28.384H76.776V20.864ZM80.2 34.24C81.32 35.008 84.936 38.208 85.8 39.008L83.464 42.112C82.216 40.448 79.528 37.504 78.088 36.096L80.2 34.24ZM81.288 26.752H82.056L82.728 26.624L84.872 28.032C82.44 34.272 77.608 39.872 72.84 42.88C72.488 41.856 71.592 39.968 71.016 39.232C75.368 36.864 79.592 32.16 81.288 27.456V26.752ZM107.592 29.44H136.072V33.408H107.592V29.44ZM124.008 31.04C125.928 38.368 129.992 44.448 136.776 47.136C135.816 48 134.536 49.664 133.896 50.784C126.568 47.36 122.568 40.736 120.136 31.936L124.008 31.04ZM119.592 20.832H123.816C123.656 30.592 123.592 44.16 109.864 50.784C109.256 49.728 108.072 48.352 106.952 47.52C120.072 41.664 119.496 29.504 119.592 20.832ZM148.456 31.776H163.208V35.072H148.456V31.776ZM142.728 38.944H171.368V42.496H142.728V38.944ZM155.048 36.896H158.984V46.784C158.984 48.768 158.504 49.76 156.968 50.336C155.464 50.848 153.416 50.912 150.696 50.912C150.44 49.824 149.736 48.192 149.128 47.2C151.176 47.264 153.576 47.264 154.216 47.264C154.856 47.264 155.048 47.104 155.048 46.656V36.896ZM161.96 31.776H162.92L163.72 31.584L166.152 33.44C163.944 35.808 160.776 38.304 157.64 39.808C157.192 39.168 156.168 38.112 155.592 37.6C158.056 36.32 160.776 34.048 161.96 32.48V31.776ZM143.112 25.92H171.016V33.76H167.208V29.312H146.728V33.76H143.112V25.92ZM165.288 21.056L169.448 22.272C167.976 24.384 166.312 26.56 165 27.968L161.864 26.816C163.08 25.248 164.52 22.848 165.288 21.056ZM145.256 22.624L148.52 21.152C149.672 22.4 150.952 24.128 151.464 25.376L147.976 26.976C147.528 25.792 146.344 23.968 145.256 22.624ZM153.32 21.92L156.712 20.64C157.736 22.048 158.824 24 159.24 25.28L155.592 26.688C155.272 25.408 154.28 23.392 153.32 21.92Z" fill="#333333"/>
<path d="M193.748 48V40.9091L210.316 25.5682C211.725 24.2045 212.907 22.9773 213.861 21.8864C214.831 20.7955 215.566 19.7273 216.066 18.6818C216.566 17.6212 216.816 16.4773 216.816 15.25C216.816 13.8864 216.505 12.7121 215.884 11.7273C215.263 10.7273 214.414 9.96212 213.339 9.43182C212.263 8.88636 211.043 8.61364 209.68 8.61364C208.255 8.61364 207.013 8.90151 205.952 9.47727C204.892 10.053 204.073 10.8788 203.498 11.9545C202.922 13.0303 202.634 14.3106 202.634 15.7955H193.293C193.293 12.75 193.983 10.1061 195.361 7.86364C196.74 5.62121 198.672 3.88636 201.157 2.65909C203.642 1.43182 206.505 0.81818 209.748 0.81818C213.081 0.81818 215.983 1.40909 218.452 2.59091C220.937 3.75757 222.869 5.37879 224.248 7.45454C225.627 9.5303 226.316 11.9091 226.316 14.5909C226.316 16.3485 225.967 18.0833 225.27 19.7955C224.589 21.5076 223.369 23.4091 221.611 25.5C219.854 27.5758 217.377 30.0682 214.18 32.9773L207.384 39.6364V39.9545H226.93V48H193.748ZM240.46 48V40.9091L257.028 25.5682C258.438 24.2045 259.619 22.9773 260.574 21.8864C261.544 20.7955 262.278 19.7273 262.778 18.6818C263.278 17.6212 263.528 16.4773 263.528 15.25C263.528 13.8864 263.218 12.7121 262.597 11.7273C261.975 10.7273 261.127 9.96212 260.051 9.43182C258.975 8.88636 257.756 8.61364 256.392 8.61364C254.968 8.61364 253.725 8.90151 252.665 9.47727C251.604 10.053 250.786 10.8788 250.21 11.9545C249.634 13.0303 249.347 14.3106 249.347 15.7955H240.006C240.006 12.75 240.695 10.1061 242.074 7.86364C243.453 5.62121 245.384 3.88636 247.869 2.65909C250.354 1.43182 253.218 0.81818 256.46 0.81818C259.794 0.81818 262.695 1.40909 265.165 2.59091C267.65 3.75757 269.581 5.37879 270.96 7.45454C272.339 9.5303 273.028 11.9091 273.028 14.5909C273.028 16.3485 272.68 18.0833 271.983 19.7955C271.301 21.5076 270.081 23.4091 268.324 25.5C266.566 27.5758 264.089 30.0682 260.892 32.9773L254.097 39.6364V39.9545H273.642V48H240.46Z" fill="#333333"/>
<path d="M293.928 46.992H305.136V49.08H293.928V46.992ZM292.92 30.144H301.608V32.16H292.92V30.144ZM293.808 27.648L296.376 28.152C294.456 31.44 291.576 34.68 287.352 37.2C287.016 36.648 286.248 35.832 285.744 35.424C289.704 33.288 292.416 30.264 293.808 27.648ZM300.864 30.144H301.296L301.704 30.024L303.24 30.84C300.384 38.184 293.784 43.032 286.968 45.288C286.704 44.664 286.128 43.728 285.648 43.248C292.056 41.4 298.488 36.72 300.864 30.528V30.144ZM289.872 34.848L291.552 33.384C293.352 34.632 295.608 36.456 296.688 37.776L294.84 39.408C293.88 38.088 291.672 36.144 289.872 34.848ZM304.056 39.528H306.408V50.064H304.056V39.528ZM294.912 39.528H305.208V41.592H294.912V50.016H292.632V41.256L294.408 39.528H294.912Z" fill="#333333"/>
</svg>
