<svg width="328" height="362" viewBox="0 0 328 362" fill="none" xmlns="http://www.w3.org/2000/svg">
<rect x="168" width="160" height="66" fill="#F2F2F2"/>
<path d="M226.12 42.336C223.888 42.336 222.304 41.424 221.224 40.32L223.096 38.184C223.768 38.928 224.848 39.48 225.904 39.48C227.992 39.48 229.696 37.8 229.696 32.712C229.696 28.176 228.328 26.568 226.6 26.568C225.256 26.568 224.176 27.648 224.176 29.856C224.176 31.92 225.184 32.928 226.696 32.928C227.704 32.928 228.808 32.376 229.672 30.912L229.864 33.312C228.904 34.632 227.296 35.424 226.048 35.424C223.072 35.424 220.96 33.624 220.96 29.856C220.96 26.184 223.504 23.928 226.528 23.928C229.912 23.928 232.936 26.568 232.936 32.712C232.936 39.432 229.648 42.336 226.12 42.336ZM241.644 35.184C239.1 35.184 237.3 33.072 237.3 29.52C237.3 25.968 239.1 23.928 241.644 23.928C244.188 23.928 245.988 25.968 245.988 29.52C245.988 33.072 244.188 35.184 241.644 35.184ZM241.644 33.192C242.676 33.192 243.468 32.112 243.468 29.52C243.468 26.904 242.676 25.92 241.644 25.92C240.588 25.92 239.796 26.904 239.796 29.52C239.796 32.112 240.588 33.192 241.644 33.192ZM242.22 42.336L251.868 23.928H253.98L244.308 42.336H242.22ZM254.556 42.336C252.036 42.336 250.236 40.248 250.236 36.672C250.236 33.12 252.036 31.056 254.556 31.056C257.076 31.056 258.876 33.12 258.876 36.672C258.876 40.248 257.076 42.336 254.556 42.336ZM254.556 40.344C255.588 40.344 256.404 39.288 256.404 36.672C256.404 34.056 255.588 33.072 254.556 33.072C253.524 33.072 252.708 34.056 252.708 36.672C252.708 39.288 253.524 40.344 254.556 40.344Z" fill="#130F31"/>
<rect y="74" width="160" height="66" fill="#99C3EE"/>
<rect x="168" y="74" width="160" height="66" fill="#F2F2F2"/>
<path d="M56.6278 116.336C53.8198 116.336 51.9477 115.232 50.6037 113.912L52.2597 111.68C53.2437 112.664 54.5158 113.48 56.1478 113.48C58.0198 113.48 59.2918 112.304 59.2918 110.192C59.2918 108.128 58.0918 106.976 56.3158 106.976C55.2598 106.976 54.6838 107.24 53.6518 107.912L52.0197 106.856L52.5237 98.24H62.0278V101.192H55.5718L55.2358 104.96C55.9318 104.648 56.5557 104.48 57.3718 104.48C60.3478 104.48 62.8438 106.232 62.8438 110.12C62.8438 114.056 59.8918 116.336 56.6278 116.336ZM75.08 116.336C71.456 116.336 69.056 113.192 69.056 107.048C69.056 100.928 71.456 97.928 75.08 97.928C78.68 97.928 81.08 100.928 81.08 107.048C81.08 113.192 78.68 116.336 75.08 116.336ZM75.08 113.576C76.616 113.576 77.744 112.04 77.744 107.048C77.744 102.08 76.616 100.64 75.08 100.64C73.544 100.64 72.392 102.08 72.392 107.048C72.392 112.04 73.544 113.576 75.08 113.576ZM94.1323 103.712L108.748 101.768L109.156 104.504L94.5643 106.472L94.1323 103.712ZM103.18 97.136L105.34 95.792C106.588 96.944 108.1 98.552 108.772 99.68L106.468 101.168C105.868 100.064 104.404 98.36 103.18 97.136ZM92.8123 95.816L95.5483 96.728C93.7483 100.976 90.8203 105.416 87.8203 108.176C87.5323 107.48 86.7163 105.944 86.2123 105.248C88.8043 103.016 91.3243 99.44 92.8123 95.816ZM90.3163 102.704L93.2683 99.776L93.2923 99.824V118.112H90.3163V102.704ZM98.6203 95.984H101.548C101.716 106.256 103.108 114.224 106.012 114.632C106.564 114.68 106.876 113.432 107.044 110.792C107.596 111.392 108.892 112.16 109.42 112.424C108.796 117.08 107.5 118.184 106.156 118.112C100.468 117.584 99.0523 109.064 98.6203 95.984Z" fill="#066AD5"/>
<path d="M228.064 116V105.08C228.064 104.048 228.16 102.44 228.208 101.384H228.112C227.656 102.344 227.176 103.328 226.672 104.288L223.936 108.704H233.464V111.416H220.504V108.992L227.104 98.24H231.352V116H228.064ZM238.5 116V113.144H242.34V101.912H239.1V99.728C240.9 99.392 242.1 98.936 243.252 98.24H245.868V113.144H249.204V116H238.5ZM258.2 109.184C255.656 109.184 253.856 107.072 253.856 103.52C253.856 99.968 255.656 97.928 258.2 97.928C260.744 97.928 262.544 99.968 262.544 103.52C262.544 107.072 260.744 109.184 258.2 109.184ZM258.2 107.192C259.232 107.192 260.024 106.112 260.024 103.52C260.024 100.904 259.232 99.92 258.2 99.92C257.144 99.92 256.352 100.904 256.352 103.52C256.352 106.112 257.144 107.192 258.2 107.192ZM258.776 116.336L268.424 97.928H270.536L260.864 116.336H258.776ZM271.113 116.336C268.593 116.336 266.793 114.248 266.793 110.672C266.793 107.12 268.593 105.056 271.113 105.056C273.632 105.056 275.433 107.12 275.433 110.672C275.433 114.248 273.632 116.336 271.113 116.336ZM271.113 114.344C272.145 114.344 272.96 113.288 272.96 110.672C272.96 108.056 272.145 107.072 271.113 107.072C270.08 107.072 269.265 108.056 269.265 110.672C269.265 113.288 270.08 114.344 271.113 114.344Z" fill="#130F31"/>
<rect y="148" width="160" height="66" fill="#66A4E3"/>
<rect x="168" y="148" width="160" height="66" fill="#F2F2F2"/>
<path d="M58.0678 190V179.08C58.0678 178.048 58.1637 176.44 58.2118 175.384H58.1158C57.6597 176.344 57.1798 177.328 56.6758 178.288L53.9397 182.704H63.4678V185.416H50.5077V182.992L57.1077 172.24H61.3558V190H58.0678ZM75.08 190.336C71.456 190.336 69.056 187.192 69.056 181.048C69.056 174.928 71.456 171.928 75.08 171.928C78.68 171.928 81.08 174.928 81.08 181.048C81.08 187.192 78.68 190.336 75.08 190.336ZM75.08 187.576C76.616 187.576 77.744 186.04 77.744 181.048C77.744 176.08 76.616 174.64 75.08 174.64C73.544 174.64 72.392 176.08 72.392 181.048C72.392 186.04 73.544 187.576 75.08 187.576ZM94.1323 177.712L108.748 175.768L109.156 178.504L94.5643 180.472L94.1323 177.712ZM103.18 171.136L105.34 169.792C106.588 170.944 108.1 172.552 108.772 173.68L106.468 175.168C105.868 174.064 104.404 172.36 103.18 171.136ZM92.8123 169.816L95.5483 170.728C93.7483 174.976 90.8203 179.416 87.8203 182.176C87.5323 181.48 86.7163 179.944 86.2123 179.248C88.8043 177.016 91.3243 173.44 92.8123 169.816ZM90.3163 176.704L93.2683 173.776L93.2923 173.824V192.112H90.3163V176.704ZM98.6203 169.984H101.548C101.716 180.256 103.108 188.224 106.012 188.632C106.564 188.68 106.876 187.432 107.044 184.792C107.596 185.392 108.892 186.16 109.42 186.424C108.796 191.08 107.5 192.184 106.156 192.112C100.468 191.584 99.0523 183.064 98.6203 169.984Z" fill="white"/>
<path d="M221.944 190V187.144H225.784V175.912H222.544V173.728C224.344 173.392 225.544 172.936 226.696 172.24H229.312V187.144H232.648V190H221.944ZM243.18 190.336C240.372 190.336 238.5 189.232 237.156 187.912L238.812 185.68C239.796 186.664 241.068 187.48 242.7 187.48C244.572 187.48 245.844 186.304 245.844 184.192C245.844 182.128 244.644 180.976 242.868 180.976C241.812 180.976 241.236 181.24 240.204 181.912L238.572 180.856L239.076 172.24H248.58V175.192H242.124L241.788 178.96C242.484 178.648 243.108 178.48 243.924 178.48C246.9 178.48 249.396 180.232 249.396 184.12C249.396 188.056 246.444 190.336 243.18 190.336ZM258.2 183.184C255.656 183.184 253.856 181.072 253.856 177.52C253.856 173.968 255.656 171.928 258.2 171.928C260.744 171.928 262.544 173.968 262.544 177.52C262.544 181.072 260.744 183.184 258.2 183.184ZM258.2 181.192C259.232 181.192 260.024 180.112 260.024 177.52C260.024 174.904 259.232 173.92 258.2 173.92C257.144 173.92 256.352 174.904 256.352 177.52C256.352 180.112 257.144 181.192 258.2 181.192ZM258.776 190.336L268.424 171.928H270.536L260.864 190.336H258.776ZM271.113 190.336C268.593 190.336 266.793 188.248 266.793 184.672C266.793 181.12 268.593 179.056 271.113 179.056C273.632 179.056 275.433 181.12 275.433 184.672C275.433 188.248 273.632 190.336 271.113 190.336ZM271.113 188.344C272.145 188.344 272.96 187.288 272.96 184.672C272.96 182.056 272.145 181.072 271.113 181.072C270.08 181.072 269.265 182.056 269.265 184.672C269.265 187.288 270.08 188.344 271.113 188.344Z" fill="#130F31"/>
<rect y="222" width="160" height="66" fill="#3385D7"/>
<rect x="168" y="222" width="160" height="66" fill="#F2F2F2"/>
<path d="M56.5557 264.336C53.7477 264.336 51.8518 263.304 50.6037 261.864L52.2837 259.632C53.3398 260.664 54.6117 261.48 56.2197 261.48C58.0438 261.48 59.2678 260.568 59.2678 258.984C59.2678 257.232 58.2358 256.152 54.3718 256.152V253.608C57.6358 253.608 58.6918 252.504 58.6918 250.92C58.6918 249.528 57.8277 248.688 56.3158 248.688C55.0438 248.688 54.0118 249.288 52.9557 250.272L51.1557 248.088C52.6917 246.768 54.3958 245.928 56.4598 245.928C59.8918 245.928 62.2197 247.608 62.2197 250.656C62.2197 252.552 61.1638 253.968 59.2678 254.688V254.808C61.2838 255.384 62.8198 256.848 62.8198 259.2C62.8198 262.464 59.9638 264.336 56.5557 264.336ZM75.08 264.336C71.456 264.336 69.056 261.192 69.056 255.048C69.056 248.928 71.456 245.928 75.08 245.928C78.68 245.928 81.08 248.928 81.08 255.048C81.08 261.192 78.68 264.336 75.08 264.336ZM75.08 261.576C76.616 261.576 77.744 260.04 77.744 255.048C77.744 250.08 76.616 248.64 75.08 248.64C73.544 248.64 72.392 250.08 72.392 255.048C72.392 260.04 73.544 261.576 75.08 261.576ZM94.1323 251.712L108.748 249.768L109.156 252.504L94.5643 254.472L94.1323 251.712ZM103.18 245.136L105.34 243.792C106.588 244.944 108.1 246.552 108.772 247.68L106.468 249.168C105.868 248.064 104.404 246.36 103.18 245.136ZM92.8123 243.816L95.5483 244.728C93.7483 248.976 90.8203 253.416 87.8203 256.176C87.5323 255.48 86.7163 253.944 86.2123 253.248C88.8043 251.016 91.3243 247.44 92.8123 243.816ZM90.3163 250.704L93.2683 247.776L93.2923 247.824V266.112H90.3163V250.704ZM98.6203 243.984H101.548C101.716 254.256 103.108 262.224 106.012 262.632C106.564 262.68 106.876 261.432 107.044 258.792C107.596 259.392 108.892 260.16 109.42 260.424C108.796 265.08 107.5 266.184 106.156 266.112C100.468 265.584 99.0523 257.064 98.6203 243.984Z" fill="white"/>
<path d="M221.944 264V261.144H225.784V249.912H222.544V247.728C224.344 247.392 225.544 246.936 226.696 246.24H229.312V261.144H232.648V264H221.944ZM244.116 264.336C240.756 264.336 237.732 261.624 237.732 255.36C237.732 248.76 241.02 245.928 244.62 245.928C246.78 245.928 248.364 246.816 249.444 247.944L247.548 250.032C246.948 249.336 245.844 248.76 244.836 248.76C242.676 248.76 240.972 250.416 240.972 255.36C240.972 259.968 242.316 261.672 244.068 261.672C245.388 261.672 246.468 260.568 246.468 258.408C246.468 256.296 245.46 255.336 243.948 255.336C242.964 255.336 241.836 255.864 240.948 257.328L240.804 254.928C241.74 253.608 243.396 252.84 244.596 252.84C247.572 252.84 249.708 254.592 249.708 258.408C249.708 262.056 247.14 264.336 244.116 264.336ZM258.2 257.184C255.656 257.184 253.856 255.072 253.856 251.52C253.856 247.968 255.656 245.928 258.2 245.928C260.744 245.928 262.544 247.968 262.544 251.52C262.544 255.072 260.744 257.184 258.2 257.184ZM258.2 255.192C259.232 255.192 260.024 254.112 260.024 251.52C260.024 248.904 259.232 247.92 258.2 247.92C257.144 247.92 256.352 248.904 256.352 251.52C256.352 254.112 257.144 255.192 258.2 255.192ZM258.776 264.336L268.424 245.928H270.536L260.864 264.336H258.776ZM271.113 264.336C268.593 264.336 266.793 262.248 266.793 258.672C266.793 255.12 268.593 253.056 271.113 253.056C273.632 253.056 275.433 255.12 275.433 258.672C275.433 262.248 273.632 264.336 271.113 264.336ZM271.113 262.344C272.145 262.344 272.96 261.288 272.96 258.672C272.96 256.056 272.145 255.072 271.113 255.072C270.08 255.072 269.265 256.056 269.265 258.672C269.265 261.288 270.08 262.344 271.113 262.344Z" fill="#130F31"/>
<rect width="160" height="66" fill="#CCE2F9"/>
<rect y="296" width="160" height="66" fill="#0066CC"/>
<rect x="168" y="296" width="160" height="66" fill="#F2F2F2"/>
<path d="M51.0117 338V335.984C55.8598 331.64 58.6918 328.304 58.6918 325.568C58.6918 323.792 57.7558 322.688 56.0517 322.688C54.7318 322.688 53.6998 323.528 52.7877 324.536L50.8437 322.616C52.4758 320.864 54.0837 319.928 56.5078 319.928C59.8438 319.928 62.0998 322.064 62.0998 325.376C62.0998 328.616 59.4118 332.072 56.1717 335.24C57.0597 335.144 58.2358 335.024 59.0758 335.024H62.9158V338H51.0117ZM75.08 338.336C71.456 338.336 69.056 335.192 69.056 329.048C69.056 322.928 71.456 319.928 75.08 319.928C78.68 319.928 81.08 322.928 81.08 329.048C81.08 335.192 78.68 338.336 75.08 338.336ZM75.08 335.576C76.616 335.576 77.744 334.04 77.744 329.048C77.744 324.08 76.616 322.64 75.08 322.64C73.544 322.64 72.392 324.08 72.392 329.048C72.392 334.04 73.544 335.576 75.08 335.576ZM94.1323 325.712L108.748 323.768L109.156 326.504L94.5643 328.472L94.1323 325.712ZM103.18 319.136L105.34 317.792C106.588 318.944 108.1 320.552 108.772 321.68L106.468 323.168C105.868 322.064 104.404 320.36 103.18 319.136ZM92.8123 317.816L95.5483 318.728C93.7483 322.976 90.8203 327.416 87.8203 330.176C87.5323 329.48 86.7163 327.944 86.2123 327.248C88.8043 325.016 91.3243 321.44 92.8123 317.816ZM90.3163 324.704L93.2683 321.776L93.2923 321.824V340.112H90.3163V324.704ZM98.6203 317.984H101.548C101.716 328.256 103.108 336.224 106.012 336.632C106.564 336.68 106.876 335.432 107.044 332.792C107.596 333.392 108.892 334.16 109.42 334.424C108.796 339.08 107.5 340.184 106.156 340.112C100.468 339.584 99.0523 331.064 98.6203 317.984Z" fill="white"/>
<path d="M221.944 338V335.144H225.784V323.912H222.544V321.728C224.344 321.392 225.544 320.936 226.696 320.24H229.312V335.144H232.648V338H221.944ZM243.612 338.336C240.204 338.336 237.684 336.392 237.684 333.608C237.684 331.328 239.076 329.816 240.708 328.952V328.856C239.364 327.872 238.356 326.504 238.356 324.632C238.356 321.776 240.636 319.952 243.732 319.952C246.876 319.952 248.892 321.824 248.892 324.656C248.892 326.432 247.764 327.896 246.612 328.736V328.856C248.244 329.744 249.588 331.16 249.588 333.608C249.588 336.296 247.188 338.336 243.612 338.336ZM244.74 327.872C245.604 326.96 246.012 325.952 246.012 324.896C246.012 323.432 245.124 322.424 243.66 322.424C242.436 322.424 241.476 323.216 241.476 324.632C241.476 326.288 242.868 327.128 244.74 327.872ZM243.684 335.84C245.22 335.84 246.3 335 246.3 333.464C246.3 331.616 244.644 330.872 242.364 329.912C241.38 330.68 240.708 331.88 240.708 333.2C240.708 334.808 242.028 335.84 243.684 335.84ZM258.2 331.184C255.656 331.184 253.856 329.072 253.856 325.52C253.856 321.968 255.656 319.928 258.2 319.928C260.744 319.928 262.544 321.968 262.544 325.52C262.544 329.072 260.744 331.184 258.2 331.184ZM258.2 329.192C259.232 329.192 260.024 328.112 260.024 325.52C260.024 322.904 259.232 321.92 258.2 321.92C257.144 321.92 256.352 322.904 256.352 325.52C256.352 328.112 257.144 329.192 258.2 329.192ZM258.776 338.336L268.424 319.928H270.536L260.864 338.336H258.776ZM271.113 338.336C268.593 338.336 266.793 336.248 266.793 332.672C266.793 329.12 268.593 327.056 271.113 327.056C273.632 327.056 275.433 329.12 275.433 332.672C275.433 336.248 273.632 338.336 271.113 338.336ZM271.113 336.344C272.145 336.344 272.96 335.288 272.96 332.672C272.96 330.056 272.145 329.072 271.113 329.072C270.08 329.072 269.265 330.056 269.265 332.672C269.265 335.288 270.08 336.344 271.113 336.344Z" fill="#130F31"/>
<path d="M57.5638 42.336C54.2038 42.336 51.1797 39.624 51.1797 33.36C51.1797 26.76 54.4677 23.928 58.0678 23.928C60.2278 23.928 61.8118 24.816 62.8917 25.944L60.9958 28.032C60.3958 27.336 59.2918 26.76 58.2838 26.76C56.1238 26.76 54.4198 28.416 54.4198 33.36C54.4198 37.968 55.7638 39.672 57.5158 39.672C58.8358 39.672 59.9158 38.568 59.9158 36.408C59.9158 34.296 58.9078 33.336 57.3958 33.336C56.4118 33.336 55.2838 33.864 54.3958 35.328L54.2517 32.928C55.1877 31.608 56.8438 30.84 58.0438 30.84C61.0198 30.84 63.1558 32.592 63.1558 36.408C63.1558 40.056 60.5878 42.336 57.5638 42.336ZM75.08 42.336C71.456 42.336 69.056 39.192 69.056 33.048C69.056 26.928 71.456 23.928 75.08 23.928C78.68 23.928 81.08 26.928 81.08 33.048C81.08 39.192 78.68 42.336 75.08 42.336ZM75.08 39.576C76.616 39.576 77.744 38.04 77.744 33.048C77.744 28.08 76.616 26.64 75.08 26.64C73.544 26.64 72.392 28.08 72.392 33.048C72.392 38.04 73.544 39.576 75.08 39.576ZM94.1323 29.712L108.748 27.768L109.156 30.504L94.5643 32.472L94.1323 29.712ZM103.18 23.136L105.34 21.792C106.588 22.944 108.1 24.552 108.772 25.68L106.468 27.168C105.868 26.064 104.404 24.36 103.18 23.136ZM92.8123 21.816L95.5483 22.728C93.7483 26.976 90.8203 31.416 87.8203 34.176C87.5323 33.48 86.7163 31.944 86.2123 31.248C88.8043 29.016 91.3243 25.44 92.8123 21.816ZM90.3163 28.704L93.2683 25.776L93.2923 25.824V44.112H90.3163V28.704ZM98.6203 21.984H101.548C101.716 32.256 103.108 40.224 106.012 40.632C106.564 40.68 106.876 39.432 107.044 36.792C107.596 37.392 108.892 38.16 109.42 38.424C108.796 43.08 107.5 44.184 106.156 44.112C100.468 43.584 99.0523 35.064 98.6203 21.984Z" fill="#066AD5"/>
</svg>
