<svg width="237" height="32" viewBox="0 0 237 32" fill="none" xmlns="http://www.w3.org/2000/svg">
<path d="M6.192 16.24H17.808V17.872H6.192V16.24ZM5.832 19.504H18.144V21.184H5.832V19.504ZM10.752 17.032H12.816V19.504C12.816 21.688 12.024 24.256 6.84 25.912C6.552 25.48 5.952 24.808 5.496 24.424C10.2 23.152 10.752 20.968 10.752 19.456V17.032ZM12.696 20.224C13.536 22.264 15.432 23.704 18.192 24.232C17.76 24.616 17.208 25.384 16.944 25.888C13.968 25.072 11.976 23.224 10.992 20.584L12.696 20.224ZM7.512 14.44L9.264 13.912C9.816 14.632 10.344 15.616 10.536 16.312L8.664 16.888C8.496 16.192 8.016 15.184 7.512 14.44ZM14.376 13.888L16.44 14.488C15.84 15.424 15.216 16.384 14.736 17.032L13.224 16.48C13.632 15.736 14.136 14.632 14.376 13.888ZM3.168 8.92H9.6V10.408H3.168V8.92ZM14.208 8.92H20.688V10.408H14.208V8.92ZM19.848 5.728H22.08V24.496C22.08 25.624 21.888 26.248 21.168 26.632C20.496 26.992 19.44 27.016 17.928 27.016C17.856 26.44 17.568 25.456 17.304 24.88C18.216 24.928 19.152 24.928 19.44 24.904C19.752 24.904 19.848 24.784 19.848 24.472V5.728ZM3.36 5.728H11.016V13.672H3.36V12.064H8.88V7.36H3.36V5.728ZM20.976 5.728V7.36H15.048V12.112H20.976V13.72H12.888V5.728H20.976ZM2.016 5.728H4.248V27.04H2.016V5.728ZM30.168 23.392H46.848V25.504H30.168V23.392ZM28.704 11.488H48.168V26.872H45.864V13.6H30.912V26.92H28.704V11.488ZM39.672 12.4H41.856V17.152C41.856 17.728 41.928 17.8 42.48 17.8C42.696 17.8 43.8 17.8 44.088 17.8C44.568 17.8 44.664 17.584 44.736 16.216C45.144 16.528 46.032 16.864 46.632 17.008C46.392 19.216 45.816 19.792 44.352 19.792C43.92 19.792 42.552 19.792 42.144 19.792C40.104 19.792 39.672 19.192 39.672 17.176V12.4ZM27.696 6.208H49.008V8.416H27.696V6.208ZM34.392 7.792H36.624V12.688H34.392V7.792ZM39.672 7.792H41.952V12.688H39.672V7.792ZM34.488 11.992H36.624V14.368C36.624 16.672 35.856 19.408 32.448 21.136C32.136 20.704 31.272 19.96 30.816 19.672C33.984 18.136 34.488 16.072 34.488 14.296V11.992ZM54.216 11.464H75.432V13.792H54.216V11.464ZM66.192 12.4C67.704 18.064 70.872 22.768 75.888 24.832C75.312 25.336 74.568 26.32 74.184 26.968C68.856 24.472 65.712 19.456 63.912 12.928L66.192 12.4ZM63.552 4.768H66.024C65.928 11.512 65.88 22.096 55.464 26.968C55.104 26.368 54.408 25.552 53.76 25.072C63.792 20.656 63.48 10.84 63.552 4.768ZM84.72 12.904H96.264V14.872H84.72V12.904ZM80.568 18.328H101.904V20.44H80.568V18.328ZM90.048 16.672H92.376V24.472C92.376 25.744 92.064 26.368 91.056 26.704C90.048 27.016 88.608 27.04 86.496 27.04C86.328 26.416 85.896 25.456 85.536 24.856C87.24 24.904 88.944 24.904 89.448 24.88C89.928 24.88 90.048 24.76 90.048 24.424V16.672ZM95.544 12.904H96.096L96.576 12.784L98.016 13.888C96.384 15.592 93.936 17.344 91.608 18.4C91.344 18.016 90.744 17.392 90.384 17.08C92.328 16.168 94.512 14.536 95.544 13.336V12.904ZM80.976 8.656H101.568V14.248H99.312V10.696H83.112V14.248H80.976V8.656ZM97.896 4.912L100.32 5.656C99.264 7.192 97.992 8.824 97.008 9.88L95.16 9.16C96.12 8.008 97.272 6.208 97.896 4.912ZM82.608 5.896L84.528 5.008C85.416 5.992 86.4 7.336 86.784 8.272L84.744 9.232C84.384 8.32 83.448 6.928 82.608 5.896ZM88.704 5.368L90.696 4.624C91.488 5.728 92.328 7.24 92.64 8.224L90.504 9.064C90.24 8.056 89.472 6.52 88.704 5.368Z" fill="#333333"/>
<path d="M128 1H143V31H128" stroke="#7F7F7F" stroke-linecap="round" stroke-linejoin="round" stroke-dasharray="1 2"/>
<path d="M143 16.5H158" stroke="#7F7F7F" stroke-linecap="round" stroke-dasharray="1 2"/>
<path d="M181.874 1.90909V31H175.723V7.74716H175.553L168.891 11.9233V6.46875L176.092 1.90909H181.874ZM205.444 1.90909V31H199.293V7.74716H199.123L192.461 11.9233V6.46875L199.663 1.90909H205.444Z" fill="#333333"/>
<path d="M221.928 27.992H233.136V30.08H221.928V27.992ZM220.92 11.144H229.608V13.16H220.92V11.144ZM221.808 8.648L224.376 9.152C222.456 12.44 219.576 15.68 215.352 18.2C215.016 17.648 214.248 16.832 213.744 16.424C217.704 14.288 220.416 11.264 221.808 8.648ZM228.864 11.144H229.296L229.704 11.024L231.24 11.84C228.384 19.184 221.784 24.032 214.968 26.288C214.704 25.664 214.128 24.728 213.648 24.248C220.056 22.4 226.488 17.72 228.864 11.528V11.144ZM217.872 15.848L219.552 14.384C221.352 15.632 223.608 17.456 224.688 18.776L222.84 20.408C221.88 19.088 219.672 17.144 217.872 15.848ZM232.056 20.528H234.408V31.064H232.056V20.528ZM222.912 20.528H233.208V22.592H222.912V31.016H220.632V22.256L222.408 20.528H222.912Z" fill="#333333"/>
</svg>
