<svg width="433" height="32" viewBox="0 0 433 32" fill="none" xmlns="http://www.w3.org/2000/svg">
<path d="M4.176 14.536H21.6V16.048H4.176V14.536ZM8.448 7.96H10.44V12.952H8.448V7.96ZM14.04 7.96H16.056V12.952H14.04V7.96ZM4.512 9.376H21.768V13.552H4.512V12.208H19.68V10.72H4.512V9.376ZM10.704 19.24L12.696 19.672C10.92 21.4 8.52 22.84 5.304 23.992C5.04 23.584 4.488 22.936 4.08 22.672C7.104 21.76 9.408 20.464 10.704 19.24ZM10.32 20.704H18.312V22.024H9L10.32 20.704ZM17.832 20.704H18.24L18.6 20.632L19.896 21.472C16.944 24.88 10.704 26.368 4.896 26.992C4.728 26.536 4.344 25.816 4.032 25.408C9.456 24.976 15.432 23.632 17.832 20.992V20.704ZM9.624 21.592C12.144 23.824 17.472 24.952 23.064 25.264C22.656 25.696 22.176 26.488 21.912 27.016C16.2 26.536 10.848 25.12 7.944 22.288L9.624 21.592ZM9 16.624H10.824V17.92C10.824 18.4 10.992 18.472 11.856 18.472C12.264 18.472 14.376 18.472 14.904 18.472C15.552 18.472 15.672 18.304 15.768 17.32C16.128 17.56 16.8 17.752 17.28 17.848C17.136 19.432 16.608 19.84 15.168 19.84C14.712 19.84 12.096 19.84 11.664 19.84C9.504 19.84 9 19.456 9 17.92V16.624ZM21.096 14.536H21.432L21.768 14.488L23.256 14.824C22.752 16 22.152 17.32 21.648 18.16L19.848 17.752C20.256 16.984 20.784 15.808 21.096 14.8V14.536ZM6.96 16.408L8.52 17.08C7.968 18.208 7.176 19.384 5.952 20.128L4.464 19.144C5.568 18.544 6.48 17.416 6.96 16.408ZM11.136 16.312L12.336 15.4C13.272 15.856 14.4 16.576 14.976 17.104L13.728 18.136C13.152 17.56 12.024 16.744 11.136 16.312ZM16.56 17.008L18 16.24C19.08 17.032 20.28 18.256 20.856 19.12L19.32 19.96C18.816 19.096 17.64 17.872 16.56 17.008ZM11.544 4.744H13.896V7.6H11.544V4.744ZM3.768 6.28H22.704V8.032H3.768V6.28ZM2.712 6.28H4.776V13.552C4.776 17.44 4.464 23.224 2.328 26.992C1.968 26.608 1.056 25.96 0.576 25.744C2.544 22.192 2.712 17.152 2.712 13.552V6.28ZM38.784 13.096H47.952V14.296H38.784V13.096ZM38.784 15.448H47.952V16.648H38.784V15.448ZM37.944 17.848H48.936V19.288H37.944V17.848ZM43.536 8.56L45.6 9.088C45.072 9.976 44.52 10.816 44.088 11.392L42.48 10.912C42.84 10.216 43.32 9.232 43.536 8.56ZM34.896 8.44L36.768 8.992C35.544 11.464 33.672 13.912 31.872 15.496C31.584 15.16 30.864 14.392 30.456 14.056C32.184 12.664 33.888 10.552 34.896 8.44ZM39.24 8.368L41.136 8.896C40.128 11.2 38.544 13.552 37.008 15.064C36.696 14.728 35.928 14.08 35.472 13.792C36.984 12.448 38.4 10.408 39.24 8.368ZM42.432 11.2H44.352V18.376H42.432V11.2ZM36.264 21.376H38.328V24.4C38.328 24.952 38.496 25.048 39.408 25.048C39.84 25.048 41.928 25.048 42.48 25.048C43.224 25.048 43.368 24.808 43.44 23.104C43.872 23.416 44.736 23.704 45.288 23.848C45.072 26.272 44.472 26.872 42.696 26.872C42.216 26.872 39.648 26.872 39.168 26.872C36.816 26.872 36.264 26.32 36.264 24.424V21.376ZM37.56 20.416L38.856 19.192C40.272 19.816 42.048 20.848 42.936 21.64L41.544 23.008C40.728 22.216 38.976 21.112 37.56 20.416ZM44.304 21.784L46.08 20.92C47.448 22.336 48.936 24.256 49.536 25.648L47.616 26.608C47.088 25.264 45.672 23.248 44.304 21.784ZM33.264 21.208L35.088 21.856C34.56 23.584 33.768 25.432 32.352 26.536L30.624 25.432C31.896 24.448 32.808 22.792 33.264 21.208ZM39.144 10.576H48.576V11.992H38.136L39.144 10.576ZM37.944 12.208L39.864 10.624V18.736H37.944V12.208ZM37.944 4.744H40.296V7.648H37.944V4.744ZM30.12 6.544H49.296V8.416H30.12V6.544ZM28.896 6.544H30.984V13.696C30.984 17.512 30.672 23.296 28.728 27.064C28.368 26.656 27.456 25.96 27 25.744C28.752 22.24 28.896 17.248 28.896 13.696V6.544ZM33.384 12.256L35.28 10.36L35.304 10.408V19.768H33.384V12.256ZM55.152 7.168H74.472V8.896H55.152V7.168ZM56.424 10.12H73.2V11.728H56.424V10.12ZM54.072 13H75.528V14.752H54.072V13ZM54.048 18.448H75.6V20.176H54.048V18.448ZM63.576 8.104H65.928V13.864H63.576V8.104ZM68.76 4.696L71.208 5.248C70.584 6.208 69.888 7.144 69.384 7.768L67.44 7.216C67.896 6.496 68.472 5.44 68.76 4.696ZM53.952 21.928C56.76 21.784 61.032 21.496 65.208 21.184L65.184 22.768C61.224 23.128 57.096 23.464 54.168 23.704L53.952 21.928ZM59.016 15.904H61.2V24.928C61.2 26.008 60.96 26.488 60.168 26.752C59.352 27.016 58.176 27.04 56.376 27.04C56.256 26.512 55.968 25.768 55.704 25.264C56.904 25.336 58.2 25.312 58.536 25.288C58.896 25.288 59.016 25.192 59.016 24.88V15.904ZM63.504 14.848L64.848 16.216C62.184 16.864 58.2 17.248 54.912 17.392C54.84 16.984 54.6 16.36 54.408 15.952C57.6 15.784 61.392 15.376 63.504 14.848ZM65.568 15.112H67.728C67.992 20.728 70.536 24.976 73.344 24.952C73.992 24.928 74.136 24.448 74.256 22.864C74.712 23.272 75.432 23.608 75.984 23.776C75.648 26.392 74.928 27.016 73.224 27.016C68.976 27.016 65.928 21.904 65.568 15.112ZM71.928 20.272L73.896 20.944C71.688 23.848 67.656 25.816 63.744 26.992C63.528 26.536 62.952 25.624 62.592 25.168C66.312 24.304 70.08 22.648 71.928 20.272ZM69.12 16.24L70.368 14.896C71.76 15.4 73.488 16.288 74.352 17.032L73.056 18.496C72.216 17.776 70.512 16.792 69.12 16.24ZM58.656 5.44L60.624 4.744C61.296 5.44 61.944 6.424 62.232 7.12L60.144 7.936C59.904 7.24 59.256 6.184 58.656 5.44ZM80.28 24.568H102.12V26.44H80.28V24.568ZM82.512 20.896H100.104V22.696H82.512V20.896ZM89.976 19.384H92.28V25.528H89.976V19.384ZM80.376 6.352H91.104V7.864H80.376V6.352ZM91.008 12.616L92.112 11.152C94.104 12.256 96.624 13.96 97.848 15.208L96.648 16.84C95.496 15.592 93 13.792 91.008 12.616ZM84.744 4.768H86.856V7.24H84.744V4.768ZM84.912 14.992H86.832V18.496C86.832 19.36 86.64 19.744 85.944 19.984C85.248 20.2 84.192 20.2 82.632 20.2C82.536 19.72 82.296 19.168 82.056 18.736C83.136 18.784 84.216 18.76 84.504 18.76C84.816 18.76 84.912 18.688 84.912 18.424V14.992ZM80.208 15.76C82.944 15.688 87.144 15.544 91.248 15.4L91.224 16.864C87.24 17.032 83.136 17.2 80.328 17.296L80.208 15.76ZM81.648 12.88H88.68V14.224H81.648V12.88ZM91.464 7.888H99V9.88H91.464V7.888ZM88.128 12.88H88.632L89.016 12.784L90.144 13.744C89.04 14.656 87.528 15.544 86.328 16.168C86.112 15.904 85.704 15.448 85.44 15.256C86.352 14.704 87.504 13.864 88.128 13.192V12.88ZM97.992 7.888H100.032C99.984 13.48 100.032 17.896 100.992 17.896C101.28 17.896 101.4 16.6 101.424 14.896C101.784 15.352 102.312 15.88 102.696 16.168C102.528 18.808 102.192 19.864 100.824 19.864C98.088 19.864 98.04 14.728 97.992 7.888ZM83.304 9.832V10.96H88.104V9.832H83.304ZM81.384 8.632H90.12V12.136H81.384V8.632ZM94.176 5.008H96.12V8.656C96.12 12.064 95.568 16.576 91.44 19.648C91.152 19.216 90.48 18.52 90.072 18.184C93.744 15.448 94.176 11.512 94.176 8.632V5.008ZM107.016 11.464H128.232V13.792H107.016V11.464ZM118.992 12.4C120.504 18.064 123.672 22.768 128.688 24.832C128.112 25.336 127.368 26.32 126.984 26.968C121.656 24.472 118.512 19.456 116.712 12.928L118.992 12.4ZM116.352 4.768H118.824C118.728 11.512 118.68 22.096 108.264 26.968C107.904 26.368 107.208 25.552 106.56 25.072C116.592 20.656 116.28 10.84 116.352 4.768ZM137.52 12.904H149.064V14.872H137.52V12.904ZM133.368 18.328H154.704V20.44H133.368V18.328ZM142.848 16.672H145.176V24.472C145.176 25.744 144.864 26.368 143.856 26.704C142.848 27.016 141.408 27.04 139.296 27.04C139.128 26.416 138.696 25.456 138.336 24.856C140.04 24.904 141.744 24.904 142.248 24.88C142.728 24.88 142.848 24.76 142.848 24.424V16.672ZM148.344 12.904H148.896L149.376 12.784L150.816 13.888C149.184 15.592 146.736 17.344 144.408 18.4C144.144 18.016 143.544 17.392 143.184 17.08C145.128 16.168 147.312 14.536 148.344 13.336V12.904ZM133.776 8.656H154.368V14.248H152.112V10.696H135.912V14.248H133.776V8.656ZM150.696 4.912L153.12 5.656C152.064 7.192 150.792 8.824 149.808 9.88L147.96 9.16C148.92 8.008 150.072 6.208 150.696 4.912ZM135.408 5.896L137.328 5.008C138.216 5.992 139.2 7.336 139.584 8.272L137.544 9.232C137.184 8.32 136.248 6.928 135.408 5.896ZM141.504 5.368L143.496 4.624C144.288 5.728 145.128 7.24 145.44 8.224L143.304 9.064C143.04 8.056 142.272 6.52 141.504 5.368ZM170.4 13.12C171.912 13.12 173.16 14.368 173.16 15.88C173.16 17.416 171.912 18.664 170.4 18.664C168.864 18.664 167.616 17.416 167.616 15.88C167.616 14.368 168.864 13.12 170.4 13.12ZM186.288 6.904H207.408V9.016H186.288V6.904ZM195.552 4.768H197.904V27.016H195.552V4.768ZM194.904 18.496L196.824 19.312C194.592 22.408 190.776 25.216 187.224 26.704C186.864 26.128 186.168 25.24 185.64 24.784C189.144 23.56 192.96 21.088 194.904 18.496ZM198.6 18.544C200.592 21.112 204.48 23.584 208.008 24.784C207.48 25.24 206.76 26.128 206.4 26.752C202.848 25.288 198.984 22.432 196.752 19.36L198.6 18.544ZM190.56 16.072V18.016H203.16V16.072H190.56ZM190.56 12.52V14.44H203.16V12.52H190.56ZM188.352 10.768H205.488V19.768H188.352V10.768ZM219.072 19.528H234.312V21.688H219.072V19.528ZM219.624 9.184H233.784V11.32H219.624V9.184ZM220.392 14.32H232.968V16.432H220.392V14.32ZM225.408 10.552H227.736V27.04H225.408V10.552ZM220.752 5.632L222.792 4.792C223.728 5.968 224.688 7.6 225.048 8.68L222.888 9.64C222.576 8.56 221.664 6.856 220.752 5.632ZM230.136 4.72L232.56 5.488C231.792 6.952 230.88 8.512 230.16 9.544L228.072 8.824C228.792 7.72 229.68 5.992 230.136 4.72ZM213.36 6.568L214.608 4.912C216.144 5.536 218.112 6.616 219.048 7.48L217.728 9.328C216.816 8.44 214.896 7.264 213.36 6.568ZM212.016 13.072L213.216 11.368C214.752 11.944 216.744 13 217.728 13.816L216.456 15.688C215.52 14.848 213.576 13.744 212.016 13.072ZM212.808 25.216C214.032 23.368 215.784 20.296 217.128 17.56L218.832 19.024C217.632 21.544 216.096 24.448 214.752 26.704L212.808 25.216ZM239.016 11.464H260.232V13.792H239.016V11.464ZM250.992 12.4C252.504 18.064 255.672 22.768 260.688 24.832C260.112 25.336 259.368 26.32 258.984 26.968C253.656 24.472 250.512 19.456 248.712 12.928L250.992 12.4ZM248.352 4.768H250.824C250.728 11.512 250.68 22.096 240.264 26.968C239.904 26.368 239.208 25.552 238.56 25.072C248.592 20.656 248.28 10.84 248.352 4.768ZM269.52 12.904H281.064V14.872H269.52V12.904ZM265.368 18.328H286.704V20.44H265.368V18.328ZM274.848 16.672H277.176V24.472C277.176 25.744 276.864 26.368 275.856 26.704C274.848 27.016 273.408 27.04 271.296 27.04C271.128 26.416 270.696 25.456 270.336 24.856C272.04 24.904 273.744 24.904 274.248 24.88C274.728 24.88 274.848 24.76 274.848 24.424V16.672ZM280.344 12.904H280.896L281.376 12.784L282.816 13.888C281.184 15.592 278.736 17.344 276.408 18.4C276.144 18.016 275.544 17.392 275.184 17.08C277.128 16.168 279.312 14.536 280.344 13.336V12.904ZM265.776 8.656H286.368V14.248H284.112V10.696H267.912V14.248H265.776V8.656ZM282.696 4.912L285.12 5.656C284.064 7.192 282.792 8.824 281.808 9.88L279.96 9.16C280.92 8.008 282.072 6.208 282.696 4.912ZM267.408 5.896L269.328 5.008C270.216 5.992 271.2 7.336 271.584 8.272L269.544 9.232C269.184 8.32 268.248 6.928 267.408 5.896ZM273.504 5.368L275.496 4.624C276.288 5.728 277.128 7.24 277.44 8.224L275.304 9.064C275.04 8.056 274.272 6.52 273.504 5.368Z" fill="#333333"/>
<path d="M355.976 28.064H368.288V30.08H355.976V28.064ZM358.856 8.528L361.016 9.272C359.048 12.584 355.928 15.584 352.904 17.456C352.544 17.024 351.704 16.16 351.2 15.8C354.248 14.144 357.176 11.456 358.856 8.528ZM367.616 11.168H368.096L368.48 11.048L370.088 12.104C366.512 17.84 358.76 21.392 351.752 22.976C351.536 22.376 351.032 21.44 350.624 20.936C357.2 19.664 364.688 16.256 367.616 11.528V11.168ZM357.272 12.392C360.416 16.424 366.656 19.568 373.4 20.768C372.872 21.272 372.248 22.232 371.912 22.856C365.144 21.44 359 18.032 355.376 13.28L357.272 12.392ZM354.8 22.256H369.248V31.016H366.848V24.32H357.08V31.112H354.8V22.256ZM358.304 11.168H368.144V13.16H356.936L358.304 11.168Z" fill="#333333"/>
<path d="M379.918 25.8864V21.0426L392.062 1.90909H396.239V8.61364H393.767L386.111 20.7301V20.9574H403.369V25.8864H379.918ZM393.881 31V24.4091L393.994 22.2642V1.90909H399.761V31H393.881Z" fill="#333333"/>
<path d="M417.928 27.992H429.136V30.08H417.928V27.992ZM416.92 11.144H425.608V13.16H416.92V11.144ZM417.808 8.648L420.376 9.152C418.456 12.44 415.576 15.68 411.352 18.2C411.016 17.648 410.248 16.832 409.744 16.424C413.704 14.288 416.416 11.264 417.808 8.648ZM424.864 11.144H425.296L425.704 11.024L427.24 11.84C424.384 19.184 417.784 24.032 410.968 26.288C410.704 25.664 410.128 24.728 409.648 24.248C416.056 22.4 422.488 17.72 424.864 11.528V11.144ZM413.872 15.848L415.552 14.384C417.352 15.632 419.608 17.456 420.688 18.776L418.84 20.408C417.88 19.088 415.672 17.144 413.872 15.848ZM428.056 20.528H430.408V31.064H428.056V20.528ZM418.912 20.528H429.208V22.592H418.912V31.016H416.632V22.256L418.408 20.528H418.912Z" fill="#333333"/>
<path d="M312 1H327V31H312" stroke="#7F7F7F" stroke-linecap="round" stroke-linejoin="round" stroke-dasharray="1 2"/>
<path d="M327 16.5H342" stroke="#7F7F7F" stroke-linecap="round" stroke-dasharray="1 2"/>
</svg>
