<svg width="381" height="32" viewBox="0 0 381 32" fill="none" xmlns="http://www.w3.org/2000/svg">
<path d="M7.392 14.632H22.872V16.792H7.392V14.632ZM8.592 8.464H21.744V10.648H8.592V8.464ZM13.896 4.744H16.224V16.192H13.896V4.744ZM7.416 23.68C10.656 23.56 15.816 23.272 20.664 22.984V25.048C16.032 25.408 11.112 25.768 7.704 25.984L7.416 23.68ZM16.872 19.936L18.816 18.904C20.616 21.04 22.584 23.896 23.352 25.888L21.216 27.064C20.52 25.12 18.648 22.12 16.872 19.936ZM12.168 16.12L14.664 16.792C13.608 19.576 12.192 22.864 11.04 24.952L9.024 24.28C10.152 22.096 11.472 18.64 12.168 16.12ZM2.136 6.568L3.384 4.888C4.992 5.464 7.032 6.496 8.064 7.336L6.744 9.208C5.76 8.368 3.768 7.216 2.136 6.568ZM0.816 13.144L1.992 11.416C3.6 11.944 5.664 12.88 6.744 13.648L5.496 15.568C4.488 14.776 2.448 13.744 0.816 13.144ZM1.56 25.24C2.784 23.416 4.56 20.32 5.88 17.584L7.584 19.024C6.384 21.568 4.872 24.448 3.528 26.728L1.56 25.24ZM27.528 6.328H38.568V8.512H27.528V6.328ZM33.528 13.312H37.776V15.472H33.528V13.312ZM32.52 7.504H34.728V22.624H32.52V7.504ZM28.416 11.824H30.48V23.2H28.416V11.824ZM27.048 22.6C29.904 22.096 34.368 21.136 38.544 20.224L38.76 22.312C34.776 23.248 30.504 24.208 27.48 24.88L27.048 22.6ZM40.248 9.184H49.512V11.296H40.248V9.184ZM40.968 4.744L43.224 5.104C42.36 9.664 40.872 13.936 38.784 16.696C38.424 16.264 37.512 15.496 36.984 15.136C39 12.712 40.272 8.824 40.968 4.744ZM45.768 10.384L48.024 10.6C46.872 18.856 44.352 23.992 38.352 27.088C38.136 26.56 37.464 25.576 37.032 25.096C42.624 22.504 44.856 17.776 45.768 10.384ZM41.304 10.96C42.432 17.44 44.88 22.84 49.728 25.096C49.224 25.552 48.528 26.416 48.168 27.016C43.032 24.304 40.608 18.64 39.288 11.32L41.304 10.96ZM54.216 11.464H75.432V13.792H54.216V11.464ZM66.192 12.4C67.704 18.064 70.872 22.768 75.888 24.832C75.312 25.336 74.568 26.32 74.184 26.968C68.856 24.472 65.712 19.456 63.912 12.928L66.192 12.4ZM63.552 4.768H66.024C65.928 11.512 65.88 22.096 55.464 26.968C55.104 26.368 54.408 25.552 53.76 25.072C63.792 20.656 63.48 10.84 63.552 4.768ZM84.72 12.904H96.264V14.872H84.72V12.904ZM80.568 18.328H101.904V20.44H80.568V18.328ZM90.048 16.672H92.376V24.472C92.376 25.744 92.064 26.368 91.056 26.704C90.048 27.016 88.608 27.04 86.496 27.04C86.328 26.416 85.896 25.456 85.536 24.856C87.24 24.904 88.944 24.904 89.448 24.88C89.928 24.88 90.048 24.76 90.048 24.424V16.672ZM95.544 12.904H96.096L96.576 12.784L98.016 13.888C96.384 15.592 93.936 17.344 91.608 18.4C91.344 18.016 90.744 17.392 90.384 17.08C92.328 16.168 94.512 14.536 95.544 13.336V12.904ZM80.976 8.656H101.568V14.248H99.312V10.696H83.112V14.248H80.976V8.656ZM97.896 4.912L100.32 5.656C99.264 7.192 97.992 8.824 97.008 9.88L95.16 9.16C96.12 8.008 97.272 6.208 97.896 4.912ZM82.608 5.896L84.528 5.008C85.416 5.992 86.4 7.336 86.784 8.272L84.744 9.232C84.384 8.32 83.448 6.928 82.608 5.896ZM88.704 5.368L90.696 4.624C91.488 5.728 92.328 7.24 92.64 8.224L90.504 9.064C90.24 8.056 89.472 6.52 88.704 5.368ZM117.6 13.12C119.112 13.12 120.36 14.368 120.36 15.88C120.36 17.416 119.112 18.664 117.6 18.664C116.064 18.664 114.816 17.416 114.816 15.88C114.816 14.368 116.064 13.12 117.6 13.12ZM135.984 6.304H152.16V26.68H149.736V8.584H138.312V26.752H135.984V6.304ZM137.568 14.512H150.744V16.744H137.568V14.512ZM137.544 22.912H150.768V25.192H137.544V22.912ZM159.888 9.64H180.936V11.944H159.888V9.64ZM164.736 20.416H175.896V22.72H164.736V20.416ZM169.176 4.768H171.576V27.016H169.176V4.768ZM168.48 10.432L170.544 11.104C168.432 16.264 164.808 20.848 160.656 23.368C160.272 22.792 159.528 21.928 159 21.472C162.984 19.36 166.656 14.944 168.48 10.432ZM172.296 10.504C174.12 14.944 177.768 19.216 181.872 21.256C181.296 21.736 180.504 22.648 180.12 23.296C175.896 20.848 172.344 16.264 170.256 11.2L172.296 10.504ZM186.216 11.464H207.432V13.792H186.216V11.464ZM198.192 12.4C199.704 18.064 202.872 22.768 207.888 24.832C207.312 25.336 206.568 26.32 206.184 26.968C200.856 24.472 197.712 19.456 195.912 12.928L198.192 12.4ZM195.552 4.768H198.024C197.928 11.512 197.88 22.096 187.464 26.968C187.104 26.368 186.408 25.552 185.76 25.072C195.792 20.656 195.48 10.84 195.552 4.768ZM216.72 12.904H228.264V14.872H216.72V12.904ZM212.568 18.328H233.904V20.44H212.568V18.328ZM222.048 16.672H224.376V24.472C224.376 25.744 224.064 26.368 223.056 26.704C222.048 27.016 220.608 27.04 218.496 27.04C218.328 26.416 217.896 25.456 217.536 24.856C219.24 24.904 220.944 24.904 221.448 24.88C221.928 24.88 222.048 24.76 222.048 24.424V16.672ZM227.544 12.904H228.096L228.576 12.784L230.016 13.888C228.384 15.592 225.936 17.344 223.608 18.4C223.344 18.016 222.744 17.392 222.384 17.08C224.328 16.168 226.512 14.536 227.544 13.336V12.904ZM212.976 8.656H233.568V14.248H231.312V10.696H215.112V14.248H212.976V8.656ZM229.896 4.912L232.32 5.656C231.264 7.192 229.992 8.824 229.008 9.88L227.16 9.16C228.12 8.008 229.272 6.208 229.896 4.912ZM214.608 5.896L216.528 5.008C217.416 5.992 218.4 7.336 218.784 8.272L216.744 9.232C216.384 8.32 215.448 6.928 214.608 5.896ZM220.704 5.368L222.696 4.624C223.488 5.728 224.328 7.24 224.64 8.224L222.504 9.064C222.24 8.056 221.472 6.52 220.704 5.368Z" fill="#333333"/>
<path d="M303.976 28.064H316.288V30.08H303.976V28.064ZM306.856 8.528L309.016 9.272C307.048 12.584 303.928 15.584 300.904 17.456C300.544 17.024 299.704 16.16 299.2 15.8C302.248 14.144 305.176 11.456 306.856 8.528ZM315.616 11.168H316.096L316.48 11.048L318.088 12.104C314.512 17.84 306.76 21.392 299.752 22.976C299.536 22.376 299.032 21.44 298.624 20.936C305.2 19.664 312.688 16.256 315.616 11.528V11.168ZM305.272 12.392C308.416 16.424 314.656 19.568 321.4 20.768C320.872 21.272 320.248 22.232 319.912 22.856C313.144 21.44 307 18.032 303.376 13.28L305.272 12.392ZM302.8 22.256H317.248V31.016H314.848V24.32H305.08V31.112H302.8V22.256ZM306.304 11.168H316.144V13.16H304.936L306.304 11.168Z" fill="#333333"/>
<path d="M329.509 31L341.568 7.13636V6.9375H327.52V1.90909H347.932V7.00852L335.858 31H329.509Z" fill="#333333"/>
<path d="M365.928 27.992H377.136V30.08H365.928V27.992ZM364.92 11.144H373.608V13.16H364.92V11.144ZM365.808 8.648L368.376 9.152C366.456 12.44 363.576 15.68 359.352 18.2C359.016 17.648 358.248 16.832 357.744 16.424C361.704 14.288 364.416 11.264 365.808 8.648ZM372.864 11.144H373.296L373.704 11.024L375.24 11.84C372.384 19.184 365.784 24.032 358.968 26.288C358.704 25.664 358.128 24.728 357.648 24.248C364.056 22.4 370.488 17.72 372.864 11.528V11.144ZM361.872 15.848L363.552 14.384C365.352 15.632 367.608 17.456 368.688 18.776L366.84 20.408C365.88 19.088 363.672 17.144 361.872 15.848ZM376.056 20.528H378.408V31.064H376.056V20.528ZM366.912 20.528H377.208V22.592H366.912V31.016H364.632V22.256L366.408 20.528H366.912Z" fill="#333333"/>
<path d="M260 1H275V31H260" stroke="#7F7F7F" stroke-linecap="round" stroke-linejoin="round" stroke-dasharray="1 2"/>
<path d="M275 16.5H290" stroke="#7F7F7F" stroke-linecap="round" stroke-dasharray="1 2"/>
</svg>
